<svg width="63" height="63" viewBox="0 0 63 63" fill="none" xmlns="http://www.w3.org/2000/svg">
<path opacity="0.5" d="M54.2354 34.9014C54.2354 40.6122 46.3968 45.2417 40.686 45.2417C34.9752 45.2417 30.3457 40.6122 30.3457 34.9014C37.8335 33.1187 36.758 30.9793 42.4688 30.9793C58.8707 24.5612 54.2354 29.1906 54.2354 34.9014Z" fill="#5B9F51"/>
<path d="M60.7057 25.0491C60.6282 24.8205 60.4632 24.632 60.2469 24.525C60.0306 24.418 59.7807 24.4012 59.552 24.4783L54.4028 26.2149L38.6698 31.522C38.4087 23.1181 35.3058 18.4972 29.8591 18.4972C27.941 18.5141 26.0532 18.9777 24.3456 19.8513C23.3409 20.351 22.259 20.6774 21.1455 20.8168C21.1647 18.9559 21.917 17.1777 23.2391 15.8681C24.5613 14.5585 26.3465 13.8231 28.2075 13.8216C28.449 13.8216 28.6807 13.7257 28.8515 13.5549C29.0223 13.3841 29.1183 13.1524 29.1183 12.9108C29.1183 12.6693 29.0223 12.4376 28.8515 12.2668C28.6807 12.096 28.449 12 28.2075 12C25.8686 12.0014 23.6245 12.9245 21.9617 14.5692C20.2988 16.214 19.351 18.4477 19.3239 20.7864C18.5088 20.6382 17.7284 20.3396 17.0225 19.906C15.3324 18.9089 13.3908 18.4198 11.4301 18.4972C5.35791 18.4972 2 23.5432 2 32.7C2.00644 37.5652 3.94406 42.2288 7.38712 45.6662C10.8302 49.1036 15.497 51.0335 20.3622 51.0319C24.1226 51.0347 27.7911 49.8699 30.861 47.6982C31.6066 48.2056 32.3856 48.6621 33.1927 49.0645C36.6943 50.8077 40.6347 51.472 44.5143 50.9732C48.3939 50.4744 52.0381 48.835 54.9849 46.2628C57.9317 43.6906 60.0485 40.3014 61.067 36.5247C62.0854 32.7481 61.9597 28.7542 60.7057 25.0491ZM53.5405 36.064L47.4319 32.6454C47.3273 32.5841 47.2115 32.5444 47.0913 32.5285C46.9711 32.5126 46.849 32.5209 46.732 32.5528C46.6151 32.5847 46.5057 32.6397 46.4103 32.7144C46.3148 32.7892 46.2353 32.8822 46.1763 32.9881C46.1172 33.094 46.08 33.2106 46.0666 33.3311C46.0532 33.4516 46.0641 33.5735 46.0985 33.6898C46.1328 33.806 46.1901 33.9142 46.2668 34.0081C46.3436 34.1019 46.4383 34.1795 46.5454 34.2363L52.7208 37.6974C51.3865 39.9743 49.3618 41.7672 46.9401 42.8162L44.4384 35.6389C44.3578 35.4111 44.1901 35.2245 43.972 35.1203C43.7539 35.0161 43.5034 35.0028 43.2755 35.0833C43.0477 35.1638 42.8611 35.3316 42.7569 35.5497C42.6527 35.7677 42.6394 36.0183 42.7199 36.2461L45.2338 43.4113C42.3185 44.2067 39.2134 43.9139 36.4981 42.5875C33.7829 41.2612 31.6432 38.992 30.4784 36.2036L54.0688 28.2491C54.74 30.8429 54.5547 33.5841 53.5405 36.064ZM20.3622 49.2102C15.9828 49.207 11.7837 47.4659 8.687 44.3692C5.59029 41.2724 3.84915 37.0733 3.84594 32.6939C3.84594 27.0468 5.1636 20.3128 11.4544 20.3128C13.1101 20.2466 14.7488 20.6689 16.1664 21.5272C17.1333 22.102 18.208 22.472 19.3239 22.6141V26.7007C16.6461 26.3971 15.5895 25.128 15.5288 25.0552C15.3797 24.8724 15.1655 24.7546 14.9313 24.7266C14.6971 24.6986 14.4612 24.7625 14.2732 24.9049C14.0852 25.0473 13.9597 25.257 13.9232 25.4901C13.8867 25.7231 13.942 25.9612 14.0775 26.1542C14.1504 26.2514 15.9538 28.5831 20.4897 28.5831C22.6735 28.5977 24.7741 27.7462 26.3312 26.2149C26.4678 26.033 26.5313 25.8065 26.5093 25.5801C26.4874 25.3537 26.3814 25.1436 26.2124 24.9914C26.0434 24.8391 25.8235 24.7556 25.596 24.7573C25.3685 24.759 25.1499 24.8457 24.9831 25.0005C23.9368 25.9952 22.5838 26.6053 21.1455 26.7311V22.6445C22.5185 22.4994 23.8537 22.1064 25.0864 21.4847C26.5623 20.7224 28.1979 20.3208 29.8591 20.3128C35.7187 20.3128 36.7935 27.4597 36.8724 32.1231L28.9786 34.7767L23.8294 36.5133C23.6008 36.5908 23.4124 36.7558 23.3053 36.9721C23.1983 37.1884 23.1815 37.4383 23.2586 37.667C24.4158 41.1442 26.5235 44.2278 29.343 46.5688C26.6707 48.3056 23.5492 49.2237 20.3622 49.2102ZM47.687 48.3601C43.3321 49.8151 38.5854 49.5466 34.4225 47.6097C30.2596 45.6728 26.9968 42.2147 25.305 37.9464L28.754 36.7805C29.826 39.4081 31.6553 41.6575 34.0092 43.2426C36.363 44.8277 39.1352 45.677 41.9731 45.6823C44.1683 45.6808 46.3339 45.175 48.3026 44.2039C50.2714 43.2328 51.9907 41.8223 53.328 40.0814C54.6652 38.3404 55.5846 36.3155 56.0152 34.1629C56.4458 32.0103 56.3761 29.7876 55.8115 27.6662L59.2484 26.5307C60.4804 30.9529 59.9718 35.679 57.8272 39.7378C55.6826 43.7967 52.0648 46.88 47.7173 48.354L47.687 48.3601Z" fill="#262834"/>
</svg>
