<svg width="42" height="42" viewBox="0 0 42 42" fill="none" xmlns="http://www.w3.org/2000/svg">
<path d="M30.5118 12.4557C31.2734 12.297 31.8446 11.6306 31.8446 10.8055C31.8446 9.88527 31.083 9.12368 30.1627 9.12368H27.0529V7.44182H28.0049C28.3539 7.44182 28.6395 7.15622 28.6395 6.80716C28.6395 6.4581 28.3539 6.1725 28.0049 6.1725H24.8316C24.4825 6.1725 24.1969 6.4581 24.1969 6.80716C24.1969 7.15622 24.4825 7.44182 24.8316 7.44182H25.7836V9.12368H21.1823V3.22132C21.1823 2.68186 21.6265 2.26932 22.166 2.26932C22.7055 2.26932 23.1497 2.71359 23.1497 3.25305V4.33198C23.1497 4.68104 23.4353 4.96664 23.7844 4.96664C24.1334 4.96664 24.419 4.68104 24.419 4.33198V3.22132C24.419 1.98373 23.4353 1 22.1977 1C20.9601 1 19.9764 1.98373 19.9764 3.22132V9.15541H15.5655V7.47356H16.5175C16.8666 7.47356 17.1522 7.18796 17.1522 6.83889C17.1522 6.48983 16.8666 6.20423 16.5175 6.20423H13.3759C13.0269 6.20423 12.7413 6.48983 12.7413 6.83889C12.7413 7.18796 13.0269 7.47356 13.3759 7.47356H14.3279V9.15541H10.8373C9.91701 9.15541 9.15541 9.91701 9.15541 10.8373C9.15541 11.6306 9.72661 12.3287 10.4882 12.4874C10.5199 12.8682 10.5834 13.249 10.6469 13.598H1V17.406H2.01546V37.3662H4.52238V40.0317H8.04475V37.3662H33.0187V40.0317H36.5411V37.3662H38.9845V17.406H40V13.598H30.3214C30.4166 13.2173 30.4801 12.8365 30.5118 12.4557ZM22.9593 18.1994H18.0407C14.7722 18.1994 12.0749 15.6924 11.7575 12.4874H29.2425C28.9251 15.6924 26.2278 18.1994 22.9593 18.1994ZM10.8373 10.4247H30.1945C30.4166 10.4247 30.607 10.6151 30.607 10.8373C30.607 11.0594 30.4166 11.2498 30.1945 11.2498H10.8373C10.6151 11.2498 10.4247 11.0594 10.4247 10.8373C10.4247 10.6151 10.6151 10.4247 10.8373 10.4247ZM2.26932 14.8356H11.0911C11.2815 15.2799 11.5354 15.7242 11.7893 16.1367H2.26932V14.8356ZM6.80716 38.7307H5.7917V37.3344H6.80716V38.7307ZM4.52238 36.0968H3.25305V17.406H12.8682C14.2327 18.6753 16.0415 19.4687 18.0407 19.4687H19.8495V36.0968H8.04475H4.52238ZM35.2718 38.7307H34.2563V37.3344H35.2718V38.7307ZM37.7469 36.0968H36.5411H33.0187H21.1188V19.4369H22.9276C24.9268 19.4369 26.7356 18.6436 28.1001 17.3743H37.7152V36.0968H37.7469ZM38.7307 14.8356V16.1367H29.2107C29.4963 15.7242 29.7185 15.3116 29.9089 14.8356H38.7307Z" fill="#2B2B2B"/>
<path d="M16.8035 24.6094H15.5342V28.6078H16.8035V24.6094Z" fill="#2B2B2B"/>
<path d="M25.4344 24.6094H24.165V28.6078H25.4344V24.6094Z" fill="#2B2B2B"/>
</svg>
