<svg width="42" height="42" viewBox="0 0 42 42" fill="none" xmlns="http://www.w3.org/2000/svg">
<path d="M38.681 30.9544C38.1363 30.8282 37.5917 30.9544 37.1431 31.2384C35.7014 32.1534 33.8432 32.9422 31.7287 33.5416L29.2938 23.0035H31.3763V20.5425C31.3763 19.596 30.6073 18.8387 29.6462 18.8387H27.0831L28.621 14.2638C28.8773 13.5381 28.7171 12.7493 28.2365 12.1814C27.7559 11.5819 27.0191 11.298 26.2501 11.3926L14.6203 12.7493L13.3387 4.89308C13.1465 3.75723 12.2174 3 11.1281 3H8.7893L11.4485 19.5013V22.972H13.0504L10.5514 33.794C8.02038 33.163 5.80974 32.3111 4.14375 31.2384C3.69522 30.9544 3.11853 30.8598 2.60592 30.9544C2.06127 31.0806 1.61273 31.3646 1.32439 31.8379C1.03604 32.2796 0.939928 32.8475 1.03604 33.3523C1.1642 33.8887 1.45254 34.3304 1.93311 34.6144C6.22624 37.3593 13.2426 39 20.6755 39C28.1084 39 35.1247 37.3593 39.4179 34.6144C39.8664 34.3304 40.1868 33.8571 40.3149 33.3523C40.4431 32.816 40.3149 32.2796 40.0266 31.8379C39.6742 31.3646 39.2256 31.0491 38.681 30.9544ZM30.4792 33.8571C30.4471 33.8571 30.4471 33.8571 30.4151 33.8887C30.0307 33.9833 29.6142 34.078 29.1977 34.1411L25.8657 22.972H27.9802L30.4792 33.8571ZM27.9482 34.362C25.6414 34.7406 23.1745 34.9614 20.6114 34.9614C18.4328 34.9614 16.3183 34.8037 14.2999 34.5197L17.76 22.972H24.5201L27.9482 34.362ZM26.3783 12.5916C26.6987 12.56 27.0191 12.6862 27.2433 12.9387C27.4676 13.1911 27.5317 13.5381 27.4035 13.8536L25.7055 18.8387H15.5814L14.7804 13.9483L26.3783 12.5916ZM11.1281 4.26205C11.6087 4.26205 11.9931 4.57756 12.0572 5.05083L14.2678 18.8387H12.6018L10.2631 4.26205H11.1281ZM12.73 21.7415V20.0692H15.8057H29.6462C29.9025 20.0692 30.1268 20.2901 30.1268 20.5425V21.7415H29.0054H24.1997H18.1445H13.3387H12.73ZM14.3319 22.972H16.4464L13.0504 34.2989C12.6339 34.2358 12.2174 34.1411 11.8009 34.078H11.7689L14.3319 22.972ZM39.0334 33.0684C39.0014 33.2577 38.8732 33.447 38.681 33.5416C34.5801 36.1604 27.82 37.7064 20.6114 37.7064C13.4028 37.7064 6.64274 36.1604 2.54184 33.5416C2.38165 33.447 2.28553 33.2892 2.22146 33.0684C2.18942 32.8791 2.22146 32.6582 2.31757 32.5004C2.44573 32.3427 2.60592 32.2165 2.79815 32.1534C2.86222 32.1534 2.89426 32.1218 2.95834 32.1218C3.11853 32.1218 3.24668 32.1534 3.37483 32.248C5.16898 33.3839 7.50777 34.2989 10.199 34.993L10.8077 35.1192C10.9999 35.1507 11.1922 35.1823 11.3524 35.2454C11.5446 35.277 11.7689 35.3401 11.9611 35.3716C12.0892 35.4032 12.1854 35.4032 12.3135 35.4347C12.6339 35.4978 12.9222 35.5609 13.2426 35.5925C13.2747 35.5925 13.3067 35.5925 13.3067 35.5925L13.8513 35.6871C15.9659 36.0026 18.2085 36.1604 20.5153 36.1604C23.2065 36.1604 25.8016 35.9395 28.2045 35.5294L28.7812 35.4347C28.8452 35.4347 28.8773 35.4032 28.9414 35.4032C29.0695 35.3716 29.1977 35.3401 29.3258 35.3401C29.6462 35.277 29.9345 35.2138 30.2229 35.1507C30.2549 35.1507 30.287 35.1192 30.319 35.1192C30.6394 35.0561 30.9918 34.9614 31.2801 34.8983L31.8889 34.7406C34.1636 34.1096 36.15 33.2577 37.7198 32.2796C37.88 32.1534 38.1043 32.1218 38.2965 32.1849C38.4887 32.2165 38.681 32.3427 38.7771 32.532C39.0334 32.6897 39.0654 32.8791 39.0334 33.0684Z" fill="#2B2B2B"/>
</svg>
