<svg width="42" height="42" viewBox="0 0 42 42" fill="none" xmlns="http://www.w3.org/2000/svg">
<path d="M38.598 14.75V11.8446C38.598 8.63513 35.9617 6 32.7508 6H22.6789C21.9353 6 21.2255 6.33784 20.7523 6.84459C20.2792 6.33784 19.6032 6 18.8596 6H8.78763C5.57677 6 2.94048 8.63513 2.94048 11.8446V14.75C1.28435 15.0878 0 16.5405 0 18.2973V30.0203C0 31.2703 0.844965 32.2838 1.99412 32.5878L1.38574 34.4459C1.28435 34.8176 1.31815 35.1892 1.55474 35.4932C1.79133 35.7973 2.12931 35.9662 2.5011 35.9662H3.65025C4.12343 35.9662 4.52901 35.6959 4.7318 35.2905L5.94855 32.6554H7.2329H34.3394H35.6237L36.8405 35.2905C37.0433 35.6959 37.4488 35.9662 37.922 35.9662H39.0712C39.443 35.9662 39.8147 35.7973 40.0175 35.4932C40.2541 35.1892 40.2879 34.7838 40.1865 34.4459L39.5781 32.5878C40.7273 32.3176 41.5723 31.2703 41.5723 30.0203V18.2973C41.5385 16.5405 40.2541 15.0878 38.598 14.75ZM22.6789 7.35135H32.7508C35.2519 7.35135 37.246 9.37838 37.246 11.8446V14.75H37.2122C37.1784 14.75 37.1446 14.7838 37.0771 14.7838C37.0095 14.7838 36.9419 14.8176 36.8743 14.8514C36.8405 14.8514 36.7729 14.8851 36.7391 14.8851C36.6715 14.9189 36.6039 14.9189 36.5363 14.9527C36.5025 14.9865 36.4349 14.9865 36.4011 15.0203C36.3335 15.0541 36.2659 15.0878 36.2321 15.1216C36.1983 15.1554 36.1645 15.1554 36.0969 15.1892C36.0293 15.223 35.9955 15.2568 35.9279 15.2905C35.8941 15.3243 35.8603 15.3243 35.8265 15.3581C35.7589 15.3919 35.7251 15.4257 35.6575 15.4932C35.6237 15.527 35.5899 15.527 35.5561 15.5608C35.4885 15.6284 35.4209 15.6622 35.3533 15.7297L35.3195 15.7635C35.2519 15.8311 35.1843 15.9324 35.0829 16C35.0491 16.0338 35.0491 16.0338 35.0153 16.0676C34.9815 16.1351 34.9139 16.2027 34.8801 16.2703C34.8463 16.3041 34.8463 16.3378 34.8125 16.3716C34.7787 16.4392 34.7449 16.473 34.7112 16.5405C34.6774 16.5743 34.6774 16.6081 34.6436 16.6757C34.6098 16.7432 34.576 16.777 34.5422 16.8446C34.5084 16.8784 34.5084 16.9122 34.4746 16.9797C34.4408 17.0473 34.4408 17.1149 34.407 17.1824C34.407 17.2162 34.3732 17.2838 34.3732 17.3176C34.3394 17.3851 34.3394 17.4527 34.3056 17.5203C34.3056 17.5541 34.2718 17.6216 34.2718 17.6554C34.2718 17.723 34.238 17.7905 34.238 17.8919C34.238 17.9257 34.238 17.9595 34.238 17.9932C34.238 18.0946 34.2042 18.2297 34.2042 18.3311V20.527H21.4283V8.60135C21.4283 7.89189 22.0029 7.35135 22.6789 7.35135ZM34.3056 23.3986H7.2329V21.8446H20.1102H21.4621H34.3394V23.3986H34.3056ZM4.29242 11.8446C4.29242 9.34459 6.28654 7.35135 8.78763 7.35135H18.8596C19.5356 7.35135 20.1102 7.92568 20.1102 8.60135V20.527H7.2329V18.3311C7.2329 18.2297 7.2329 18.0946 7.1991 17.9932C7.1991 17.9595 7.1991 17.9257 7.1991 17.8919C7.1991 17.8243 7.1653 17.723 7.1653 17.6554C7.1653 17.6216 7.1315 17.5541 7.1315 17.5203C7.1315 17.4527 7.0977 17.3851 7.06391 17.3176C7.06391 17.2838 7.03011 17.2162 7.03011 17.1824C6.99631 17.1149 6.99631 17.0473 6.96251 16.9797C6.92871 16.9459 6.92871 16.8784 6.89491 16.8446C6.86111 16.777 6.82732 16.7095 6.79352 16.6757C6.75972 16.6419 6.75972 16.6081 6.72592 16.5743C6.69212 16.5068 6.65832 16.4392 6.62452 16.4054C6.59073 16.3716 6.59072 16.3378 6.55693 16.3041C6.52313 16.2365 6.45553 16.1689 6.42173 16.1014C6.38793 16.0676 6.38793 16.0676 6.35413 16.0338C6.28654 15.9662 6.21894 15.8649 6.11755 15.7973L6.08375 15.7635C6.01615 15.6959 5.94855 15.6284 5.88095 15.5946C5.84716 15.5608 5.81336 15.5608 5.77956 15.527C5.71196 15.4932 5.67816 15.4257 5.61057 15.3919C5.57677 15.3581 5.54297 15.3581 5.50917 15.3243C5.44157 15.2905 5.40777 15.2568 5.34018 15.223C5.30638 15.1892 5.27258 15.1892 5.20498 15.1554C5.13739 15.1216 5.10359 15.0878 5.03599 15.0541C5.00219 15.0203 4.93459 15.0203 4.9008 14.9865C4.8332 14.9527 4.7656 14.9527 4.698 14.9189C4.66421 14.9189 4.59661 14.8851 4.56281 14.8851C4.49521 14.8514 4.42762 14.8514 4.36002 14.8176C4.39382 14.7838 4.36002 14.7838 4.32622 14.7838H4.29242V11.8446ZM1.35194 30.0541V18.2973C1.35194 17.0473 2.3659 16.0338 3.61645 16.0338C4.867 16.0338 5.88095 17.0473 5.88095 18.2973V20.4932V21.8446V23.3986V24.75V31.3378H2.63629C1.92652 31.3378 1.35194 30.7635 1.35194 30.0541ZM3.54885 34.6487H2.73769L3.37986 32.6892H4.46141L3.54885 34.6487ZM34.3056 31.3378H7.2329V24.75H34.3394V31.3378H34.3056ZM37.9896 34.6487L37.0771 32.6892H38.1586L38.8008 34.6487H37.9896ZM40.1865 30.0541C40.1865 30.7635 39.6119 31.3378 38.9022 31.3378H35.6575V24.75V23.3986V21.8446V20.4932V18.2973C35.6575 17.0473 36.6715 16.0338 37.922 16.0338C39.1726 16.0338 40.1865 17.0473 40.1865 18.2973V30.0541Z" fill="#2B2B2B"/>
</svg>
