<svg width="42" height="42" viewBox="0 0 42 42" fill="none" xmlns="http://www.w3.org/2000/svg">
<path d="M41 7H0V10.7224H1.40114V15.5647V16.8824V35H5.23759L6.10496 16.8494H21.1172H34.8283L35.6957 35H39.5321V16.8494V15.5318V10.7224H40.9333V7H41ZM4.00325 33.6824H2.73556V16.8494H4.83727L4.00325 33.6824ZM6.20504 15.5647H2.73556V10.7224H19.8495V15.5647H6.20504ZM38.2644 33.6824H36.9967L36.1627 16.8494H38.2644V33.6824ZM38.2644 15.5647H34.795H21.1505V10.7224H38.2644V15.5647ZM39.6656 9.43765H39.5655H21.1505H1.40114H1.33442V8.31765H39.6989V9.43765H39.6656Z" fill="#2B2B2B"/>
<path d="M13.4778 12.5012H9.07422V13.8188H13.4778V12.5012Z" fill="#2B2B2B"/>
<path d="M31.9592 12.5012H27.5557V13.8188H31.9592V12.5012Z" fill="#2B2B2B"/>
</svg>
