<svg width="42" height="42" viewBox="0 0 42 42" fill="none" xmlns="http://www.w3.org/2000/svg">
<path d="M19.606 29.9665H18.4092V32.0271H19.606V29.9665Z" fill="#2B2B2B"/>
<path d="M24.3628 29.9665H23.166V32.0271H24.3628V29.9665Z" fill="#2B2B2B"/>
<path d="M23.4053 20.2009H36.1212V16.3484V5H6.73997V16.3484V20.2009H19.4559V22.1421H3V26.8905V36.238H6.94941V38H11.4374V36.238H31.334V38H35.822V36.238H39.7714V26.8606V22.1421H23.4053V20.2009ZM7.93677 6.19457H34.9244V16.3484H7.93677V6.19457ZM7.93677 19.0063V17.5131H34.9244V19.0063H23.4053H19.4559H7.93677ZM20.6228 20.2009H22.2085V22.1421H20.6228V20.2009ZM10.2406 36.8054H8.1462V36.2081H10.2406V36.8054ZM6.94941 35.0434H4.19679V26.8606H20.8023V35.0136H11.4374H6.94941V35.0434ZM34.6252 36.8054H32.5308V36.2081H34.6252V36.8054ZM38.5746 35.0434H35.7921H31.3041H21.9692V26.8606H38.5746V35.0434ZM38.5746 23.3068V25.6661H4.19679V23.3068H19.4559H23.4053H38.5746Z" fill="#2B2B2B"/>
</svg>
