<svg width="63" height="63" viewBox="0 0 63 63" fill="none" xmlns="http://www.w3.org/2000/svg">
<g clip-path="url(#clip0_10_52)">
<path opacity="0.5" d="M45.0581 18.8473L41.4427 21.1069L40.0869 24.7223L41.4427 26.9819C41.8946 25.9274 43.6119 24.0896 46.8658 25.1742C50.9331 26.53 52.7408 26.078 54.5485 24.2704C56.3561 22.4627 53.1927 18.8473 52.7408 18.8473C52.3792 18.8473 51.385 18.2447 50.9331 17.9434C51.8369 17.7928 53.1927 16.7684 51.385 13.8761C49.1254 10.2607 46.8658 13.4242 45.51 13.8761C44.4254 14.2377 44.7568 17.3409 45.0581 18.8473Z" fill="#5B9F51"/>
<path d="M47.4951 11.9524C45.3879 12.5108 44.208 14.2164 44.1448 16.7798L44.1237 17.803L42.2899 19.0852C40.6253 20.2531 40.4145 20.3772 40.0035 20.3772C39.4976 20.3772 39.1604 20.5323 36.9271 21.7726C35.4521 22.5895 35.3151 22.6412 33.3448 23.1582C24.4208 25.4945 18.3414 28.0786 16.0022 30.5391C14.3797 32.2343 13.4312 34.943 13.4312 37.8269C13.4312 38.8087 13.6525 40.7005 13.8844 41.6724L14.0214 42.2411L13.4101 43.4814C12.3251 45.7144 11.8825 47.4097 11.9773 49.0843C12.1354 51.9273 14.1057 53.3331 18.7519 53.922C20.3638 54.1288 23.7669 54.1599 25.4426 53.9841C29.6045 53.5498 32.8811 52.4956 34.5879 51.0278C35.8732 49.9214 36.495 48.2158 37.9805 41.7138C38.9606 37.4236 39.3922 35.749 39.9297 34.2295C40.4566 32.741 40.9304 31.9241 41.784 31.0664C42.6904 30.1466 43.0377 29.4538 43.0377 28.5853C43.0377 28.2337 42.9639 27.7581 42.8796 27.5207L42.7321 27.0968L43.2274 26.7866C44.1654 26.2075 45.3241 25.8254 46.3143 25.7737C47.1996 25.7324 47.2523 25.7427 48.1897 26.1563C50.7818 27.304 52.6884 27.3351 53.9214 26.27C55.3226 25.0607 55.8496 22.1453 55.0486 20.0364C54.6692 19.0546 53.7423 18.2274 52.6146 17.8655C52.4565 17.8138 52.4671 17.7414 52.72 17.2554C52.9624 16.7798 52.994 16.5833 52.994 15.7256C52.994 14.8881 52.9519 14.661 52.72 14.1751C52.2141 13.1105 51.0554 12.2833 49.6647 11.9524C48.8436 11.7663 48.2113 11.7663 47.4951 11.9524ZM49.5708 13.6167C50.298 13.8235 51.1828 14.6606 51.3619 15.3017C51.5622 16.0461 51.3514 16.5316 50.3402 17.607C49.9924 17.9792 49.887 18.1757 49.887 18.4342C49.887 19.1373 50.2875 19.385 51.6149 19.4884C53.1214 19.6125 53.5852 20.1398 53.6589 21.8661C53.7432 23.7062 53.4165 24.7087 52.6266 25.1016C51.794 25.5256 50.7196 25.3808 48.9495 24.6053C48.4226 24.3778 47.6959 24.14 47.3481 24.0676C46.0518 23.8298 43.9555 24.3675 42.2803 25.3493C41.1953 25.9904 41.1005 25.949 41.3108 24.822C41.3951 24.398 41.4688 23.5299 41.4899 22.9095L41.5321 21.7726L43.6499 20.2738C44.8087 19.4466 45.7994 18.7336 45.852 18.6922C45.8942 18.6405 45.9364 17.9478 45.9364 17.1417C45.9364 15.8187 45.9574 15.6222 46.1893 15.1362C46.4528 14.5675 47.0635 13.9372 47.5483 13.7408C48.3589 13.4306 48.8226 13.3996 49.5708 13.6167ZM39.7405 23.1892C39.6983 23.7165 39.5929 24.5433 39.4981 25.0292C39.2135 26.466 39.2557 26.6315 40.0039 27.0037C40.9098 27.4587 41.5527 28.2647 41.4157 28.7817C41.3841 28.9161 40.973 29.4021 40.5098 29.8773C39.7932 30.5908 39.5719 30.901 39.0875 31.8828C38.1079 33.8573 37.5283 35.8421 35.9795 42.6025C34.8835 47.3989 34.3043 48.9602 33.3137 49.8697C30.7427 52.2474 22.0822 53.2809 16.8563 51.8442C15.0968 51.3685 14.3591 50.8825 13.917 49.9421C13.7378 49.5698 13.7062 49.2906 13.7167 48.4949C13.7273 47.2339 14.0645 46.0965 14.9071 44.4012C15.4657 43.2953 15.6975 42.9644 17.0144 41.4553C17.8259 40.5247 18.521 39.6566 18.5526 39.5325C18.6369 39.2326 18.3945 38.7673 18.0573 38.5812C17.5936 38.3331 17.2879 38.4985 16.361 39.5532C15.7287 40.2662 15.4757 40.4937 15.413 40.3903C15.276 40.1421 15.1601 37.7747 15.2444 36.7308C15.413 34.4875 16.4348 32.2959 17.8364 31.1383C19.6486 29.6602 23.2204 28.0166 27.983 26.4862C29.9322 25.8658 33.1456 24.9564 34.9999 24.5118C35.9374 24.2946 36.4854 24.0258 39.3093 22.4236C39.478 22.3305 39.6571 22.2478 39.7098 22.2478C39.7615 22.2379 39.7721 22.6515 39.7405 23.1892Z" fill="#262834"/>
<path d="M34.3984 30.6421C33.8926 30.9006 33.8399 31.1901 34.0823 32.5959C34.3773 34.3946 34.4511 34.6117 34.8305 34.7978C35.1888 34.9839 35.4945 34.9322 35.8523 34.6117C36.1368 34.3532 36.1369 34.2084 35.8312 32.4408C35.5788 30.9316 35.4523 30.6834 34.9254 30.5697C34.7778 30.5283 34.546 30.5697 34.3984 30.6421Z" fill="#262834"/>
<path d="M32.3867 33.4951C32.2181 33.6605 32.0811 33.857 32.0811 33.9397C32.0811 34.0121 32.197 34.7462 32.3445 35.5626C32.6291 37.2476 32.7977 37.5371 33.419 37.5371C33.83 37.5371 34.2937 37.1545 34.2937 36.803C34.2937 36.4411 33.8722 33.9914 33.7563 33.7019C33.5349 33.1539 32.8499 33.0509 32.3867 33.4951Z" fill="#262834"/>
</g>
<defs>
<clipPath id="clip0_10_52">
<rect width="47.9038" height="47" fill="white" transform="translate(8 8)"/>
</clipPath>
</defs>
</svg>
