<svg width="63" height="63" viewBox="0 0 63 63" fill="none" xmlns="http://www.w3.org/2000/svg">
<path opacity="0.5" d="M37.7656 19.5088L15.2656 19.0088L14.7656 18.5088L27.7656 13.5088L52.2656 14.0088C53.2656 13.8421 55.4656 14.0088 56.2656 16.0088C57.0656 18.0088 55.599 19.5088 54.7656 20.0088C50.9323 21.1755 42.9656 23.6088 41.7656 24.0088C40.5656 24.4088 39.9323 24.1755 39.7656 24.0088C41.3656 22.0088 39.099 20.1755 37.7656 19.5088Z" fill="#5B9F51"/>
<path d="M56.4449 14.3983C56.0283 13.9565 55.5259 13.6046 54.9684 13.3641C54.4109 13.1236 53.8101 12.9997 53.203 13H28.9245C27.3268 13.0007 25.7393 13.2562 24.222 13.757L9.97203 18.4417C5.02015 18.7267 4.56594 25.7894 9.3575 26.778V50.8248C9.3575 51.061 9.45133 51.2876 9.61835 51.4546C9.78538 51.6216 10.0119 51.7155 10.2481 51.7155H36.8066C36.8981 51.7283 36.9911 51.7283 37.0827 51.7155L53.5236 46.2381C53.7212 46.1893 53.8961 46.0743 54.0193 45.9123C54.1425 45.7502 54.2064 45.5509 54.2005 45.3475V21.3006C57.3177 20.8375 58.7516 16.6516 56.4449 14.3983ZM35.9159 49.9075H11.112V25.9675C11.0961 25.7242 10.9875 25.4962 10.8086 25.3305C10.6296 25.1649 10.394 25.074 10.1502 25.0769C9.67206 25.0684 9.20688 24.9203 8.812 24.6506C8.41712 24.3809 8.10981 24.0016 7.92799 23.5593C7.74616 23.1171 7.69777 22.6313 7.78879 22.1619C7.8798 21.6924 8.10623 21.2599 8.44015 20.9177C8.66392 20.6917 8.93027 20.5124 9.22379 20.3901C9.51731 20.2679 9.83217 20.205 10.1502 20.2052H36.8689C37.347 20.2135 37.8122 20.3617 38.2071 20.6314C38.602 20.9011 38.9092 21.2804 39.0911 21.7227C39.2729 22.1649 39.3213 22.6507 39.2303 23.1202C39.1393 23.5896 38.9128 24.0221 38.5789 24.3644C38.3465 24.5986 38.0685 24.7826 37.7621 24.9052C37.4557 25.0277 37.1275 25.0861 36.7977 25.0769C36.5615 25.0769 36.3349 25.1707 36.1679 25.3377C36.0008 25.5047 35.907 25.7313 35.907 25.9675L35.9159 49.9075ZM37.6972 49.5691V26.778C38.2273 26.6689 38.732 26.4604 39.1845 26.1634L52.4192 21.835V44.7241L37.6972 49.5691ZM55.0911 18.9405C54.8586 19.1747 54.5807 19.3587 54.2743 19.4813C53.9679 19.6038 53.6396 19.6622 53.3098 19.653C53.1257 19.6548 52.9472 19.7175 52.8022 19.8311L40.9391 23.7142C41.102 23.0917 41.1204 22.4401 40.993 21.8093C40.8655 21.1785 40.5956 20.5852 40.2037 20.0748C39.8118 19.5643 39.3084 19.1501 38.732 18.8641C38.1555 18.5779 37.5213 18.4274 36.8778 18.4239H15.7344C18.7091 17.5956 25.8964 14.5942 28.9424 14.7813H53.203C55.3405 14.7189 56.7031 17.3997 55.0911 18.9405Z" fill="#262834"/>
<path d="M15.022 27.82C15.2875 27.7957 15.5343 27.673 15.714 27.4761C15.8938 27.2792 15.9933 27.0223 15.9933 26.7557C15.9933 26.4891 15.8938 26.2322 15.714 26.0353C15.5343 25.8384 15.2875 25.7157 15.022 25.6914C14.7566 25.7157 14.5098 25.8384 14.3301 26.0353C14.1504 26.2322 14.0508 26.4891 14.0508 26.7557C14.0508 27.0223 14.1504 27.2792 14.3301 27.4761C14.5098 27.673 14.7566 27.7957 15.022 27.82Z" fill="#262834"/>
<path d="M21.9693 30.1985C21.9693 29.9174 21.8576 29.6478 21.6588 29.4491C21.4601 29.2504 21.1905 29.1387 20.9095 29.1387C20.6284 29.1387 20.3588 29.2504 20.16 29.4491C19.9612 29.6478 19.8496 29.9174 19.8496 30.1985C19.8496 30.4796 19.9612 30.7492 20.16 30.948C20.3588 31.1467 20.6284 31.2584 20.9095 31.2584C21.1905 31.2584 21.4601 31.1467 21.6588 30.948C21.8576 30.7492 21.9693 30.4796 21.9693 30.1985Z" fill="#262834"/>
<path d="M23.6608 34.7314C23.3953 34.7558 23.1485 34.8784 22.9688 35.0753C22.7891 35.2722 22.6895 35.5292 22.6895 35.7957C22.6895 36.0623 22.7891 36.3193 22.9688 36.5162C23.1485 36.7131 23.3953 36.8357 23.6608 36.86C23.9263 36.8357 24.1731 36.7131 24.3527 36.5162C24.5324 36.3193 24.6321 36.0623 24.6321 35.7957C24.6321 35.5292 24.5324 35.2722 24.3527 35.0753C24.1731 34.8784 23.9263 34.7558 23.6608 34.7314Z" fill="#262834"/>
<path d="M15.7346 31.3027C15.4536 31.3027 15.184 31.4144 14.9853 31.6131C14.7865 31.8119 14.6748 32.0815 14.6748 32.3626C14.6748 32.6437 14.7865 32.9133 14.9853 33.1119C15.184 33.3107 15.4536 33.4224 15.7346 33.4224C16.0157 33.4224 16.2853 33.3107 16.4841 33.1119C16.6828 32.9133 16.7945 32.6437 16.7945 32.3626C16.7945 32.0815 16.6828 31.8119 16.4841 31.6131C16.2853 31.4144 16.0157 31.3027 15.7346 31.3027Z" fill="#262834"/>
<path d="M14.6751 39.7275C14.394 39.7275 14.1244 39.8391 13.9256 40.0379C13.7268 40.2367 13.6152 40.5062 13.6152 40.7873C13.6152 41.0685 13.7268 41.338 13.9256 41.5368C14.1244 41.7355 14.394 41.8471 14.6751 41.8471C14.9562 41.8471 15.2258 41.7355 15.4245 41.5368C15.6232 41.338 15.7349 41.0685 15.7349 40.7873C15.7349 40.5062 15.6232 40.2367 15.4245 40.0379C15.2258 39.8391 14.9562 39.7275 14.6751 39.7275Z" fill="#262834"/>
<path d="M21.969 40.3867C21.6879 40.3867 21.4184 40.4984 21.2197 40.6971C21.0209 40.8959 20.9092 41.1655 20.9092 41.4466C20.9092 41.7276 21.0209 41.9972 21.2197 42.1959C21.4184 42.3947 21.6879 42.5064 21.969 42.5064C22.2501 42.5064 22.5197 42.3947 22.7185 42.1959C22.9172 41.9972 23.0289 41.7276 23.0289 41.4466C23.0289 41.1655 22.9172 40.8959 22.7185 40.6971C22.5197 40.4984 22.2501 40.3867 21.969 40.3867Z" fill="#262834"/>
<path d="M33.3864 26.1191C33.1209 26.1435 32.8741 26.2661 32.6944 26.463C32.5147 26.6598 32.415 26.9168 32.415 27.1834C32.415 27.45 32.5147 27.7069 32.6944 27.9039C32.8741 28.1008 33.1209 28.2234 33.3864 28.2477C33.6519 28.2234 33.8986 28.1008 34.0784 27.9039C34.258 27.7069 34.3577 27.45 34.3577 27.1834C34.3577 26.9168 34.258 26.6598 34.0784 26.463C33.8986 26.2661 33.6519 26.1435 33.3864 26.1191Z" fill="#262834"/>
<path d="M30.0384 34.731C30.3194 34.731 30.589 34.6193 30.7877 34.4206C30.9865 34.2218 31.0982 33.9523 31.0982 33.6712C31.0982 33.3901 30.9865 33.1205 30.7877 32.9217C30.589 32.723 30.3194 32.6113 30.0384 32.6113C29.7573 32.6113 29.4877 32.723 29.2889 32.9217C29.0901 33.1205 28.9785 33.3901 28.9785 33.6712C28.9785 33.9523 29.0901 34.2218 29.2889 34.4206C29.4877 34.6193 29.7573 34.731 30.0384 34.731Z" fill="#262834"/>
<path d="M26.3509 27.1875C26.0698 27.1875 25.8002 27.2991 25.6014 27.4979C25.4027 27.6967 25.291 27.9663 25.291 28.2473C25.291 28.5284 25.4027 28.798 25.6014 28.9967C25.8002 29.1955 26.0698 29.3072 26.3509 29.3072C26.6319 29.3072 26.9015 29.1955 27.1002 28.9967C27.299 28.798 27.4107 28.5284 27.4107 28.2473C27.4107 27.9663 27.299 27.6967 27.1002 27.4979C26.9015 27.2991 26.6319 27.1875 26.3509 27.1875Z" fill="#262834"/>
<path d="M28.9694 37.9111C28.7039 37.9354 28.4571 38.0581 28.2773 38.255C28.0976 38.4519 27.998 38.7089 27.998 38.9754C27.998 39.242 28.0976 39.4989 28.2773 39.6959C28.4571 39.8928 28.7039 40.0154 28.9694 40.0397C29.2348 40.0154 29.4816 39.8928 29.6613 39.6959C29.841 39.4989 29.9406 39.242 29.9406 38.9754C29.9406 38.7089 29.841 38.4519 29.6613 38.255C29.4816 38.0581 29.2348 37.9354 28.9694 37.9111Z" fill="#262834"/>
<path d="M31.0979 42.2393C30.8168 42.2393 30.5473 42.3509 30.3486 42.5496C30.1498 42.7484 30.0381 43.018 30.0381 43.2991C30.0381 43.5802 30.1498 43.8498 30.3486 44.0485C30.5473 44.2473 30.8168 44.3589 31.0979 44.3589C31.379 44.3589 31.6486 44.2473 31.8474 44.0485C32.0461 43.8498 32.1578 43.5802 32.1578 43.2991C32.1578 43.018 32.0461 42.7484 31.8474 42.5496C31.6486 42.3509 31.379 42.2393 31.0979 42.2393Z" fill="#262834"/>
<path d="M18.7984 44.6172C18.533 44.6415 18.2862 44.7641 18.1064 44.9611C17.9267 45.158 17.8271 45.4149 17.8271 45.6815C17.8271 45.948 17.9267 46.205 18.1064 46.4019C18.2862 46.5988 18.533 46.7215 18.7984 46.7458C19.0639 46.7215 19.3107 46.5988 19.4904 46.4019C19.67 46.205 19.7697 45.948 19.7697 45.6815C19.7697 45.4149 19.67 45.158 19.4904 44.9611C19.3107 44.7641 19.0639 44.6415 18.7984 44.6172Z" fill="#262834"/>
</svg>
