<svg width="63" height="63" viewBox="0 0 63 63" fill="none" xmlns="http://www.w3.org/2000/svg">
<path opacity="0.5" d="M41.6074 25.8333L46.5657 12.375L51.5241 26.1875L51.8782 51.6875L41.6074 55.9375V25.8333Z" fill="#5B9F51"/>
<path d="M52.7554 25.4935L47.5987 10.2985V6.78377C47.5987 6.53863 47.4856 6.30763 47.293 6.15942C47.1005 6.0112 46.8508 5.96289 46.6178 6.02903L43.2266 6.99085L39.8241 6.02893C39.6884 5.99058 39.5447 5.99058 39.4091 6.02893L36.0061 6.99095L32.6033 6.02893C32.4677 5.99058 32.324 5.99058 32.1883 6.02893L28.7855 6.99095L25.3827 6.02893C25.247 5.99058 25.1033 5.99058 24.9676 6.02893L21.5646 6.99095L18.2591 6.05652C18.17 6.02016 18.0727 6.00014 17.9708 6.00014H17.954C17.5677 6.00014 17.2407 6.28951 17.1884 6.67748C17.1759 6.76942 17.1799 6.86017 17.198 6.94653V10.2998L12.042 25.4935C12.0142 25.5755 12 25.6618 12 25.7485V41.3785C12 41.8114 12.346 42.1621 12.7727 42.1621C13.1995 42.1621 13.5455 41.8114 13.5455 41.3785V25.8796L18.5226 11.2132H40.3609C40.7877 11.2132 41.1336 10.8625 41.1336 10.4296C41.1336 9.99666 40.7877 9.64593 40.3609 9.64593H18.7437V7.8205L21.3571 8.5593C21.4927 8.59765 21.6364 8.59765 21.7721 8.5593L25.1749 7.59727L28.5777 8.5593C28.7134 8.59765 28.8571 8.59765 28.9927 8.5593L32.3956 7.59727L35.7984 8.5593C35.934 8.59765 36.0777 8.59765 36.2134 8.5593L39.6163 7.59727L43.0192 8.5593C43.1552 8.59765 43.2989 8.59765 43.4348 8.5591L46.053 7.81661V9.64583H42.8936C42.4668 9.64583 42.1209 9.99656 42.1209 10.4295C42.1209 10.8624 42.4668 11.2131 42.8936 11.2131H45.7426L40.8964 25.4935C40.8686 25.5755 40.8544 25.6618 40.8544 25.7485V55.4328H13.5455V43.947C13.5455 43.5141 13.1995 43.1634 12.7727 43.1634C12.346 43.1634 12 43.5141 12 43.947V56.2164C12 56.6493 12.346 57 12.7727 57H41.6275C41.6526 57 41.6779 56.9986 41.703 56.9961C41.7152 56.9949 41.727 56.9926 41.739 56.9909C41.7516 56.989 41.7642 56.9876 41.7768 56.9851C41.7915 56.9822 41.806 56.9782 41.8204 56.9744C41.83 56.9719 41.8396 56.9698 41.8491 56.9668C41.8644 56.9622 41.8793 56.9566 41.8943 56.951C41.9012 56.9484 41.9084 56.9464 41.9153 56.9436L41.9272 56.9388C41.9277 56.9386 41.9283 56.9384 41.9289 56.9381L52.3127 52.7127C52.6057 52.5934 52.7976 52.3054 52.7976 51.9854V25.7484C52.7974 25.6618 52.7832 25.5755 52.7554 25.4935ZM51.2518 51.4554L42.4001 55.0574V25.8796L46.8259 12.8377L51.2517 25.8795V51.4554H51.2518Z" fill="#262834"/>
<path d="M28.4666 40.012L28.4345 39.9793C27.7718 39.3073 26.7495 38.9521 25.478 38.9521C23.3165 38.9519 20.8538 39.9709 19.9888 41.2233C19.6168 41.7618 19.5194 42.3583 19.7145 42.9026C20.0302 43.7833 20.6518 44.5086 21.5621 45.0586C21.9467 45.291 22.303 45.5733 22.6244 45.9012C22.9443 46.2236 23.2227 46.5849 23.4519 46.9751C23.9943 47.8982 24.7096 48.5285 25.5778 48.8486C25.7586 48.9152 25.9467 48.949 26.137 48.949C26.1371 48.949 26.1371 48.949 26.1372 48.949C27.1487 48.949 28.1171 47.9986 28.7941 46.3416C29.6285 44.2991 29.8801 41.4452 28.4666 40.012ZM27.3663 45.7416C26.865 46.9688 26.3123 47.3818 26.1373 47.3817C26.13 47.3817 26.1205 47.381 26.1059 47.3755C25.5811 47.182 25.1349 46.7773 24.7795 46.1727C24.4841 45.6698 24.1255 45.2043 23.7171 44.7927C23.3077 44.3751 22.8488 44.0115 22.3531 43.712C21.7569 43.3518 21.3578 42.8993 21.167 42.367C21.1428 42.2995 21.2115 42.1849 21.2546 42.1224C21.7668 41.381 23.7232 40.5191 25.478 40.5191C26.3184 40.5191 26.9804 40.721 27.3459 41.0916L27.3679 41.114C28.204 41.9618 28.0236 44.1327 27.3663 45.7416Z" fill="#262834"/>
<path d="M30.1626 31.2941C29.7964 31.1533 29.4135 31.082 29.0245 31.082C27.6983 31.082 26.4913 31.9271 26.0211 33.1849C25.4336 34.7561 25.4797 38.2107 27.3132 38.9157C27.5203 38.9954 27.7426 39.0356 27.9737 39.0356C27.9738 39.0356 27.9737 39.0356 27.9738 39.0356C29.7396 39.0356 31.5777 36.696 32.027 35.4939C32.6549 33.8149 31.8186 31.9309 30.1626 31.2941ZM30.5821 34.9383C30.2086 35.9374 28.7447 37.4685 27.974 37.4684C27.9301 37.4684 27.8933 37.4624 27.8613 37.4501C27.2643 37.2205 27.0208 34.9324 27.4663 33.7406C27.7104 33.0879 28.3367 32.6494 29.0247 32.6494C29.2259 32.6494 29.4243 32.6864 29.6148 32.7597C30.4737 33.09 30.9076 34.0673 30.5821 34.9383Z" fill="#262834"/>
<path d="M24.9949 34.3305C24.7263 32.9818 23.5478 32.0029 22.1926 32.0029C22.0026 32.0029 21.8113 32.0225 21.6239 32.0608C20.8747 32.2142 20.2292 32.6543 19.8066 33.2999C19.3838 33.9457 19.2343 34.7196 19.3857 35.4793C19.6439 36.7753 21.099 39.156 22.7021 39.1562C22.7022 39.1562 22.7022 39.1562 22.7023 39.1562C22.813 39.1562 22.9233 39.145 23.0304 39.1232C24.7427 38.7725 25.2833 35.7788 24.9949 34.3305ZM22.7246 37.5869C22.7179 37.5883 22.7106 37.589 22.7024 37.589H22.7023C22.1843 37.5889 21.0898 36.1189 20.9006 35.169C20.8311 34.8197 20.8998 34.4639 21.0941 34.1668C21.2885 33.87 21.5853 33.6676 21.9297 33.5971C22.0166 33.5792 22.105 33.5702 22.1925 33.5702C22.8149 33.5702 23.3563 34.0204 23.4799 34.6407C23.6895 35.6929 23.1574 37.4983 22.7246 37.5869Z" fill="#262834"/>
<path d="M37.0242 38.2531C36.554 36.9955 35.3469 36.1504 34.0208 36.1504C33.6318 36.1504 33.2489 36.2217 32.8827 36.3625C32.1138 36.6581 31.1648 37.3644 30.4653 38.1618C29.5288 39.2292 29.1891 40.2879 29.5087 41.1427C30.0622 42.6234 32.1748 42.7832 33.0574 42.7832C33.8478 42.7832 34.614 42.6629 35.1598 42.4531C36.8157 41.8165 37.652 39.9323 37.0242 38.2531ZM34.6119 40.9877C34.2455 41.1286 33.65 41.2159 33.0574 41.2159C31.8878 41.2159 31.0694 40.8963 30.9538 40.5871C30.875 40.3762 31.0498 39.8535 31.6199 39.2036C32.238 38.4993 32.9917 37.9967 33.4305 37.828C33.6211 37.7549 33.8196 37.7176 34.0207 37.7176C34.7087 37.7176 35.335 38.156 35.5791 38.8088C35.9047 39.6799 35.4709 40.6574 34.6119 40.9877Z" fill="#262834"/>
<path d="M34.031 43.4932C33.7933 43.4445 33.52 43.4199 33.2186 43.4199C31.8108 43.4199 29.6066 43.9701 29.3048 45.4854C29.1434 46.2959 29.5894 47.1816 30.5608 47.9791C31.2741 48.5648 32.1916 49.0369 32.898 49.1816C33.0855 49.22 33.2769 49.2395 33.4669 49.2395C34.822 49.2395 36.0006 48.2606 36.2692 46.912C36.5816 45.3436 35.5775 43.8101 34.031 43.4932ZM34.7542 46.6015C34.6306 47.2218 34.0892 47.672 33.4668 47.672C33.3792 47.672 33.2908 47.6631 33.2039 47.6451C32.8107 47.5646 32.1106 47.235 31.5333 46.761C30.9661 46.2953 30.7946 45.9218 30.8197 45.7958C30.8819 45.4839 32.0049 44.9873 33.2185 44.9873C33.4662 44.9873 33.6306 45.0104 33.7249 45.0296C34.4362 45.1752 34.8978 45.8805 34.7542 46.6015Z" fill="#262834"/>
</svg>
