<svg width="63" height="63" viewBox="0 0 63 63" fill="none" xmlns="http://www.w3.org/2000/svg">
<circle opacity="0.5" cx="44.5275" cy="18.1545" r="8.41426" fill="#5B9F51"/>
<path d="M45.734 13.8755C45.2892 13.7454 45.0329 13.2787 45.1573 12.8274C45.2854 12.376 45.7453 12.1159 46.1901 12.2421C47.3775 12.5864 48.3726 13.1563 49.1378 13.9979C49.903 14.8471 50.4156 15.9487 50.6229 17.3602C50.6908 17.8231 50.3742 18.2553 49.9143 18.3242C49.4582 18.393 49.0322 18.0717 48.9644 17.605C48.8098 16.5493 48.4442 15.7422 47.9052 15.1454C47.3661 14.5487 46.6273 14.1356 45.734 13.8755ZM24.2746 33.6937L10.2297 18.7449C9.91308 18.4045 9.92439 17.869 10.2599 17.5477C10.422 17.3908 10.6293 17.3143 10.8366 17.3143V17.3105H16.3136L10.8554 11.7716C10.5275 11.4388 10.5275 10.9033 10.8554 10.5705C11.1834 10.2377 11.7111 10.2377 12.039 10.5705L18.6808 17.3105H34.5878C34.7612 14.8318 35.8091 12.6017 37.4224 10.9454C39.1903 9.1246 41.6328 8 44.3318 8C47.0307 8 49.4733 9.1246 51.2449 10.9454C53.009 12.7624 54.1021 15.2678 54.1021 18.0335C54.1021 20.7991 53.009 23.3045 51.2449 25.1215C49.4733 26.9423 47.0307 28.0669 44.3318 28.0669C43.1293 28.0669 41.9759 27.8412 40.9053 27.4319C40.0271 27.0953 39.2053 26.6286 38.4628 26.0549L31.1086 33.6976V48.3786L36.7401 53.5235C37.0831 53.8371 37.1095 54.3727 36.8004 54.7208C36.6346 54.9082 36.4084 55 36.1785 55H19.3367C18.873 55 18.4998 54.6213 18.4998 54.1508C18.4998 53.883 18.6205 53.6459 18.8089 53.4891L24.2746 48.3786V33.6937ZM36.2652 17.3105H44.8896C45.3533 17.3105 45.7264 17.6892 45.7264 18.1597C45.7264 18.4121 45.6171 18.6417 45.4437 18.7985L39.6426 24.8308C40.208 25.2439 40.83 25.5882 41.4971 25.8445C42.3754 26.1811 43.3329 26.3685 44.3318 26.3685C46.567 26.3685 48.5912 25.439 50.0538 23.9357C51.5201 22.4286 52.4285 20.3439 52.4285 18.0373C52.4285 15.7307 51.5201 13.646 50.0538 12.1388C48.5912 10.6355 46.567 9.70603 44.3318 9.70603C42.0965 9.70603 40.0723 10.6355 38.6098 12.1388C37.298 13.4815 36.4348 15.2908 36.2652 17.3105ZM12.7892 19.0089L15.3599 21.7439C15.4127 21.7324 15.4692 21.7248 15.5295 21.7248H39.9441C40.0497 21.7248 40.1477 21.7439 40.2419 21.7783L42.9107 19.005H12.7892V19.0089ZM16.9393 23.427L25.6768 32.726C25.8465 32.8828 25.952 33.1047 25.952 33.3571V48.7573C25.952 48.9868 25.8615 49.2163 25.6806 49.3808L21.4815 53.3054H34.0035L29.7478 49.4191C29.5594 49.2622 29.435 49.0251 29.435 48.7573V33.3533H29.4387C29.4387 33.1391 29.5179 32.9287 29.6762 32.7604L38.6588 23.4231H16.9393V23.427Z" fill="#262834"/>
</svg>
