<svg width="63" height="63" viewBox="0 0 63 63" fill="none" xmlns="http://www.w3.org/2000/svg">
<g clip-path="url(#clip0_10_68)">
<path d="M53.346 18.6417C53.2806 18.514 53.1808 18.4133 53.0545 18.3462C51.9292 17.2718 50.4083 16.6084 48.7391 16.6084H47.9565C38.8781 16.6084 31.5215 23.965 31.5215 33.0434C31.5215 34.6693 32.1501 36.1551 33.1755 37.2712C33.2409 37.3988 33.3407 37.4994 33.4669 37.5667C34.5923 38.6411 36.1132 39.3044 37.7824 39.3044H38.565C47.6434 39.3044 55 31.9478 55 22.8694C55 21.2436 54.3715 19.7577 53.346 18.6417ZM47.9564 18.1737H48.739C49.9354 18.1737 51.0305 18.6277 51.862 19.3713C51.6855 23.6598 48.1424 26.7825 43.2606 26.7825C38.4241 26.7825 34.395 30.1267 33.3503 34.5879C33.1802 34.1036 33.0865 33.5841 33.0865 33.0434C33.0867 24.8259 39.7389 18.1737 47.9564 18.1737ZM38.565 37.7392H37.7824C36.5859 37.7392 35.4907 37.2851 34.6592 36.5414C34.8375 32.0006 38.6015 28.3477 43.2607 28.3477C48.2694 28.3477 52.1377 25.4981 53.1649 21.3069C53.339 21.7964 53.4348 22.3221 53.4348 22.8693C53.4348 31.0869 46.7825 37.7392 38.565 37.7392Z" fill="#262834"/>
<path opacity="0.5" d="M26.7049 20.9488C28.1436 28.6222 24.3069 34.3773 19.0314 33.4182C14.7934 33.4182 8.95996 23.8482 8.95996 18.5508C8.95996 13.2534 12.3955 8.95898 16.6334 8.95898C20.8714 8.95898 26.7049 15.6514 26.7049 20.9488Z" fill="#5B9F51"/>
<path d="M17.6693 33.9824C18.6084 34.3737 19.5476 34.6085 20.4867 34.6085C21.0822 34.6085 21.6776 34.5276 22.2539 34.3716C22.3532 34.3645 22.4513 34.3347 22.5408 34.2867C24.1214 33.7842 25.5299 32.7078 26.3564 31.165L26.7478 30.4606C28.7043 26.6258 29.0174 22.3213 27.6087 18.2517C26.1217 14.0256 22.9912 10.6603 18.8434 8.70371C17.2933 7.94754 15.5794 7.86894 14.0447 8.33191C13.8819 8.33686 13.7242 8.3884 13.597 8.48259C12.1433 9.03517 10.891 10.0884 10.1563 11.5211L9.76495 12.2255C7.80843 16.0603 7.49532 20.3648 8.90403 24.4344C10.3127 28.6606 13.4431 32.0259 17.6693 33.9824ZM26.0433 18.7213C27.2955 22.3996 27.0607 26.3127 25.2607 29.7563L24.8694 30.4606C24.3282 31.5071 23.4039 32.2863 22.3275 32.7083C20.3923 31.6802 18.9822 30.004 18.4519 28.0344C17.8258 25.9213 18.2954 23.6517 19.5476 21.6952C19.5476 21.6952 19.6259 21.6952 19.6259 21.617C21.5796 17.2378 20.1695 12.3949 16.3942 9.58407C17.0028 9.63305 17.5712 9.7818 18.1389 10.0341C21.8954 11.8343 24.7129 14.8865 26.0433 18.7213ZM11.1736 12.8516L11.5649 12.2255C12.0627 11.1304 12.9724 10.3524 14.0316 9.93075C18.2967 12.0368 20.133 16.7761 18.2172 20.9908C16.7302 23.2605 16.2606 26.0779 16.965 28.5822C17.4602 30.3428 18.4587 31.8707 19.8778 33.0312C19.3406 32.9694 18.8059 32.8206 18.2954 32.5736C14.5388 30.7735 11.7214 27.7213 10.3909 23.8865C9.13873 20.2083 9.37351 16.2952 11.1736 12.8516Z" fill="#262834"/>
<path d="M34.1828 41.3395L33.635 40.7917C26.748 34.3743 16.1043 34.6873 9.84337 41.3395C8.72685 42.5303 8.03671 44.0044 8.03891 45.5596C7.9837 45.7321 7.98654 45.9132 8.06211 46.0751C8.1995 47.6804 8.89303 49.0722 10.0781 50.1831L10.6259 50.7309C13.9129 53.5483 18.139 54.957 22.2869 54.957C26.7479 54.957 31.1306 53.3135 34.4176 50.1048C35.5915 48.8526 36.2959 47.2873 36.2177 45.6438C36.1393 44.0004 35.435 42.4351 34.1828 41.3395ZM10.8607 42.4351C16.4955 36.4089 26.2 36.1741 32.461 41.9656L33.0871 42.5134C33.9822 43.3338 34.5207 44.368 34.5693 45.5473C30.8156 48.9232 26.6423 48.7449 22.9131 44.9396C19.0404 41.0669 14.4955 40.6782 10.0344 43.7717C10.2431 43.2908 10.5225 42.841 10.8607 42.4351ZM11.6433 49.557L11.0955 49.0092C10.2224 48.2089 9.68819 47.2053 9.61729 46.062C13.9597 42.2779 18.0749 42.2928 21.8175 46.0354C24.0871 48.305 26.5914 49.4789 29.0958 49.4789C30.7772 49.4789 32.4586 48.9569 34.0825 47.8846C33.8614 48.2971 33.5763 48.6767 33.2437 49.0093C27.5305 54.644 17.826 54.8788 11.6433 49.557Z" fill="#262834"/>
</g>
<defs>
<clipPath id="clip0_10_68">
<rect width="47" height="47" fill="white" transform="translate(8 8)"/>
</clipPath>
</defs>
</svg>
