<svg width="63" height="63" viewBox="0 0 63 63" fill="none" xmlns="http://www.w3.org/2000/svg">
<path d="M51.8664 21.6205C51.8654 21.6096 51.8635 21.5991 51.862 21.5884C51.8601 21.5747 51.8582 21.5608 51.8556 21.5471C51.8531 21.5341 51.8498 21.5215 51.8467 21.5089C51.8439 21.4978 51.8412 21.4867 51.838 21.4758C51.8341 21.4625 51.8296 21.4495 51.8251 21.4365C51.8215 21.4264 51.8178 21.4163 51.8139 21.4062C51.8088 21.3934 51.8032 21.3808 51.7974 21.3684C51.7929 21.3585 51.7881 21.3487 51.7831 21.3389C51.777 21.3272 51.7706 21.3155 51.764 21.3041C51.7581 21.294 51.7519 21.2841 51.7457 21.2742C51.7389 21.2636 51.7319 21.2531 51.7246 21.243C51.7174 21.2329 51.7098 21.2231 51.7021 21.2132C51.6946 21.2038 51.6872 21.1943 51.6793 21.1853C51.6765 21.1819 51.6739 21.1784 51.671 21.1751L43.1492 11.6353V7.78756C43.1492 7.35251 42.7923 7 42.3519 7H21.5182C21.0779 7 20.721 7.35251 20.721 7.78756V11.6353L12.1993 21.1751C12.1965 21.1783 12.194 21.1817 12.1912 21.185C12.1831 21.1943 12.1754 21.2041 12.1677 21.2139C12.1603 21.2233 12.153 21.2329 12.1461 21.2425C12.1385 21.2531 12.1314 21.264 12.1243 21.2749C12.1182 21.2843 12.1123 21.2939 12.1066 21.3036C12.0997 21.3154 12.0932 21.3273 12.087 21.3395C12.0821 21.3489 12.0775 21.3585 12.073 21.368C12.0671 21.3807 12.0614 21.3935 12.0562 21.4066C12.0523 21.4163 12.0488 21.4262 12.0453 21.4361C12.0406 21.4492 12.036 21.4624 12.0321 21.4759C12.0289 21.4867 12.0263 21.4976 12.0236 21.5086C12.0204 21.5214 12.0171 21.5341 12.0147 21.5472C12.012 21.5607 12.0102 21.5745 12.0083 21.5882C12.0068 21.599 12.0049 21.6096 12.0038 21.6206C12.0014 21.6456 12 21.6709 12 21.6962V55.5665C12 56.0015 12.357 56.3541 12.7973 56.3541H51.0732C51.5136 56.3541 51.8705 56.0015 51.8705 55.5665V21.6962C51.8703 21.6708 51.8689 21.6456 51.8664 21.6205ZM49.3062 20.9086H35.3976L42.3519 13.1234L49.3062 20.9086ZM41.5546 8.57513V11.1455H27.8965C27.4562 11.1455 27.0993 11.498 27.0993 11.9331C27.0993 12.3681 27.4562 12.7207 27.8965 12.7207H40.5851L33.2711 20.9087H14.564L21.878 12.7207H24.7074C25.1477 12.7207 25.5047 12.3681 25.5047 11.9331C25.5047 11.498 25.1477 11.1455 24.7074 11.1455H22.3155V8.57513H41.5546ZM13.5945 28.7843H32.8336V48.4784H13.5945V28.7843ZM32.8336 27.2091H13.5945V22.4837H32.8336V27.2091ZM13.5945 50.0535H32.8336V54.7789H13.5945V50.0535ZM34.4281 54.7789V22.4837H50.2757V27.2091H36.82C36.3796 27.2091 36.0227 27.5616 36.0227 27.9967C36.0227 28.4317 36.3796 28.7843 36.82 28.7843H50.2757V48.4784H36.82C36.3796 48.4784 36.0227 48.8309 36.0227 49.266C36.0227 49.701 36.3796 50.0535 36.82 50.0535H50.2757V54.7789H34.4281Z" fill="#262834"/>
<path opacity="0.5" d="M23.8528 31.7254L27.7673 36.9002C28.5016 37.8741 28.8892 39.031 28.8892 40.2469C28.8892 43.3381 26.3434 45.8529 23.2142 45.8529C20.085 45.8529 17.5391 43.3381 17.5391 40.2469C17.5391 39.031 17.9268 37.8741 18.6603 36.9012L22.5755 31.7254C22.726 31.5264 22.9627 31.4092 23.2142 31.4092C23.4656 31.4092 23.7023 31.5264 23.8528 31.7254Z" fill="#5B9F51"/>
<path d="M27.7673 36.9002L23.8528 31.7254C23.7023 31.5264 23.4656 31.4092 23.2142 31.4092C22.9627 31.4092 22.726 31.5264 22.5755 31.7254L18.6603 36.9012C17.9268 37.8741 17.5391 39.031 17.5391 40.2469C17.5391 43.3381 20.085 45.8529 23.2142 45.8529C26.3434 45.8529 28.8892 43.3381 28.8892 40.2469C28.8892 39.031 28.5016 37.8741 27.7673 36.9002ZM23.2142 44.2778C20.9641 44.2778 19.1336 42.4695 19.1336 40.2469C19.1336 39.3725 19.4122 38.5409 19.9384 37.843L23.2142 33.5125L26.4892 37.8419C27.0162 38.5408 27.2947 39.3725 27.2947 40.2468C27.2947 42.4695 25.4641 44.2778 23.2142 44.2778Z" fill="#262834"/>
</svg>
