<svg width="42" height="42" viewBox="0 0 42 42" fill="none" xmlns="http://www.w3.org/2000/svg">
<g clip-path="url(#clip0_537_707)">
<path d="M13.2811 17.1481H12.1094V21.0146H13.2811V17.1481Z" fill="#2B2B2B" stroke="#2B2B2B" stroke-width="0.3"/>
<path d="M24.8816 17.1481H23.71V21.0146H24.8816V17.1481Z" fill="#2B2B2B" stroke="#2B2B2B" stroke-width="0.3"/>
<path d="M36.4813 17.1481H35.3096V21.0146H36.4813V17.1481Z" fill="#2B2B2B" stroke="#2B2B2B" stroke-width="0.3"/>
<path d="M3 33.9618V35.1334V36.1001V37.2718V39H7.39382V37.2718H34.6062V39H39V37.2718V36.1001V35.1334V33.9618V3H3V33.9618ZM6.22213 37.8283H4.17168V37.2425H6.22213V37.8283ZM37.8283 37.8283H35.7779V37.2425H37.8283V37.8283ZM37.8283 36.1001H34.6062H7.39382H4.17168V35.1334H37.8576V36.1001H37.8283ZM15.7714 33.9618V4.17168H26.2286V33.991H15.7714V33.9618ZM37.8283 33.9618H27.4003V4.17168H37.8576V33.9618H37.8283ZM4.17168 4.17168H14.629V33.991H4.17168V4.17168Z" fill="#2B2B2B" stroke="#2B2B2B" stroke-width="0.3"/>
</g>
<defs>
<clipPath id="clip0_537_707">
<rect width="36" height="36" fill="white" transform="translate(3 3)"/>
</clipPath>
</defs>
</svg>
