<svg width="42" height="42" viewBox="0 0 42 42" fill="none" xmlns="http://www.w3.org/2000/svg">
<g clip-path="url(#clip0_537_708)">
<path d="M34.083 6.36346C34.083 5.08044 33.0275 4 31.6996 4H10.1466C8.85273 4 7.76316 5.04667 7.76316 6.36346V13.0824L0 25.001V38H5.10734V33.4081H36.7388V38H41.8462V25.001L34.083 13.0487V6.36346ZM39.9394 24.5283H1.90674L6.63954 17.2691H35.1726L39.9394 24.5283ZM7.52482 15.9186L8.81868 13.9265H10.2828H19.2036H22.4383H31.3591H33.0275L34.3213 15.9186H7.52482ZM17.8416 12.6097H11.6107V9.13208C11.6107 8.92949 11.7809 8.76068 11.9852 8.76068H17.4331C17.6374 8.76068 17.8076 8.92949 17.8076 9.13208V12.6097H17.8416ZM30.0312 12.6097H23.8002V9.13208C23.8002 8.92949 23.9705 8.76068 24.1748 8.76068H29.6226C29.8269 8.76068 29.9971 8.92949 29.9971 9.13208V12.6097H30.0312ZM9.12512 6.36346C9.12512 5.78947 9.56775 5.35055 10.1466 5.35055H31.6996C32.2784 5.35055 32.721 5.78947 32.721 6.36346V12.6097H31.3591V9.13208C31.3591 8.18669 30.576 7.41013 29.6226 7.41013H24.1748C23.2214 7.41013 22.4383 8.18669 22.4383 9.13208V12.6097H19.2036V9.13208C19.2036 8.18669 18.4205 7.41013 17.4671 7.41013H12.0193C11.0659 7.41013 10.2828 8.18669 10.2828 9.13208V12.6097H9.12512V6.36346ZM38.1008 36.6495V32.0914H3.74538V36.6832H1.36196V25.8789H40.5182V36.6495H38.1008Z" fill="#2B2B2B" stroke="#2B2B2B" stroke-width="0.3"/>
</g>
<defs>
<clipPath id="clip0_537_708">
<rect width="42" height="42" fill="white"/>
</clipPath>
</defs>
</svg>
