<svg width="152" height="145" viewBox="0 0 152 145" fill="none" xmlns="http://www.w3.org/2000/svg">
<path d="M15.2081 92.817L7.68624 97.738C6.76838 98.3373 5.58367 98.3168 4.70509 97.6867C3.82652 97.0567 3.41578 95.9558 3.7018 94.8875L5.91353 86.1867C6.12837 85.3369 7.1221 84.9702 7.8157 85.4697C8.10088 85.6694 8.27696 85.9712 8.31331 86.3209L8.61253 89.0253C8.68524 89.7247 9.06041 90.3592 9.62293 90.7743C10.1933 91.1737 10.9047 91.3307 11.5795 91.1769L14.2862 90.585C14.6274 90.5197 14.9599 90.5867 15.2451 90.7864C15.9774 91.2855 15.947 92.3437 15.2081 92.817Z" fill="#2B2B2B"/>
<path d="M147.218 54.4486C147.605 54.6402 148.087 54.5656 148.423 54.2428C148.837 53.8413 148.842 53.1782 148.433 52.7607C148.41 52.7297 147.716 52.0339 146.481 50.9529C146.049 50.5823 145.389 50.6273 145.013 51.0674C144.638 51.5076 144.672 52.1703 145.104 52.5409C146.269 53.5679 146.94 54.2327 146.956 54.2404C147.025 54.3333 147.125 54.4026 147.218 54.4486Z" fill="#2B2B2B"/>
<path d="M15.0626 83.7429C15.5105 83.9646 16.0617 83.8272 16.3669 83.4117C17.4076 81.9928 18.4793 80.5893 19.5425 79.2792C19.9021 78.8321 19.8293 78.171 19.3901 77.8168C18.9508 77.4627 18.2915 77.5467 17.9319 77.9938C16.8529 79.3351 15.7734 80.7543 14.7015 82.1968C14.3495 82.6672 14.4456 83.3203 14.916 83.6508C14.9545 83.6894 15.0163 83.72 15.0626 83.7429ZM21.6457 75.5537C22.0473 75.7525 22.575 75.662 22.8874 75.3087C24.0515 73.99 25.254 72.7098 26.4326 71.5154C26.8307 71.1069 26.8354 70.445 26.4431 70.036C26.0429 69.6426 25.3841 69.6486 24.9705 70.0495C23.7607 71.2675 22.5425 72.579 21.3473 73.9214C20.9567 74.3532 20.9908 75.0147 21.4143 75.4001C21.4758 75.4696 21.5685 75.5155 21.6457 75.5537ZM63.1002 89.7402C63.5944 89.9848 64.1925 89.7925 64.4749 89.3071C64.7652 88.8061 64.5837 88.1694 64.0897 87.8858C62.7928 87.1659 61.5369 86.1341 60.3292 84.8527C59.9369 84.4436 59.2784 84.4108 58.8648 84.8117C58.4358 85.2049 58.4078 85.8748 58.8002 86.2838C60.1384 87.7275 61.5719 88.8667 63.0617 89.7016C63.0693 89.7249 63.0847 89.7326 63.1002 89.7402ZM68.0185 91.2366C68.1421 91.2978 68.258 91.3356 68.4131 91.3342C70.2878 91.4415 72.1579 91.0973 73.9614 90.3099C74.4823 90.0793 74.7346 89.4619 74.5214 88.9266C74.3003 88.407 73.6898 88.1635 73.1535 88.3864C71.6454 89.0465 70.1088 89.341 68.5596 89.2384C67.9786 89.2048 67.4872 89.6454 67.4522 90.2141C67.418 90.666 67.6478 91.0532 68.0185 91.2366ZM56.0302 82.354C56.3237 82.4992 56.6879 82.5036 57.0069 82.3294C57.5126 82.0523 57.7031 81.4043 57.4121 80.9086C56.6315 79.5065 56.0534 77.9702 55.6774 76.3386C55.5496 75.7869 54.9941 75.4339 54.4196 75.5793C53.8683 75.7168 53.5079 76.2807 53.6433 76.8556C54.0645 78.6659 54.7112 80.3729 55.5912 81.9609C55.6985 82.1312 55.8603 82.2699 56.0302 82.354ZM29.0296 68.1124C29.4003 68.2959 29.8501 68.245 30.1854 67.9616C31.5033 66.7972 32.8519 65.6869 34.1841 64.6859C34.6516 64.3312 34.7493 63.6763 34.4038 63.2123C34.0583 62.7483 33.4079 62.6608 32.9405 63.0155C31.5691 64.0559 30.1894 65.1898 28.817 66.3859C28.3726 66.7715 28.3291 67.4337 28.7136 67.8584C28.8136 67.9665 28.9215 68.0589 29.0296 68.1124ZM77.3461 87.2967C77.7322 87.4878 78.2287 87.421 78.5488 87.091C79.7743 85.8418 80.7841 84.4076 81.5702 82.8432C81.6252 82.7337 81.6802 82.6242 81.7352 82.5147C81.9792 81.9908 81.782 81.3853 81.2722 81.133L81.2568 81.1254C80.7392 80.8887 80.1254 81.1124 79.866 81.6287C79.8189 81.7225 79.7717 81.8164 79.7167 81.9259C79.025 83.3026 78.1328 84.541 77.0788 85.6408C76.6728 86.0649 76.676 86.7112 77.0838 87.1279C77.1686 87.1894 77.2534 87.2509 77.3461 87.2967ZM53.6519 72.3474C53.7909 72.4162 53.9456 72.4537 54.1006 72.4523C54.6819 72.4469 55.1424 71.9911 55.1619 71.4147C55.1889 69.7872 55.3945 68.1113 55.786 66.4493C55.9139 65.8875 55.5769 65.33 55.0043 65.2029C54.4471 65.0835 53.8788 65.4468 53.7509 66.0086C53.3428 67.8187 53.1053 69.6351 53.0851 71.4027C53.082 71.831 53.3121 72.1792 53.6519 72.3474ZM37.4127 61.8298C37.7216 61.9827 38.0937 61.9715 38.4205 61.7816C39.9073 60.857 41.4165 60.0411 42.9095 59.3344C43.4382 59.0882 43.6596 58.4555 43.4307 57.9515C43.1942 57.4242 42.5679 57.212 42.0625 57.4502C40.4997 58.1809 38.9281 59.044 37.3636 60.0083C36.8655 60.3088 36.7137 60.9564 37.0046 61.4521C37.0965 61.6147 37.2428 61.7457 37.4127 61.8298ZM81.7053 77.9679C81.8289 78.029 81.9682 78.0589 82.0999 78.0655C82.6809 78.0991 83.1722 77.6585 83.2151 77.0742C83.3095 75.773 83.1945 74.505 82.9006 73.3242C82.7497 72.7416 82.5679 72.1438 82.3628 71.5539C82.1729 71.0106 81.5781 70.7358 81.0342 70.9354C80.4903 71.1351 80.2071 71.7372 80.397 72.2805C80.5715 72.8161 80.7459 73.3518 80.8816 73.8878C81.1227 74.8666 81.2161 75.9091 81.1388 76.9843C81.097 77.4129 81.3346 77.7844 81.7053 77.9679ZM55.94 62.1889C55.9555 62.1965 55.9709 62.2042 55.9864 62.2118C56.5118 62.4328 57.118 62.1858 57.362 61.6619C57.5747 61.1617 57.803 60.669 58.0466 60.1841C58.5575 59.1672 59.1381 58.1652 59.7571 57.2018C59.9764 56.8806 59.987 56.4756 59.8187 56.1579C60.7092 56.2665 61.5994 56.4141 62.466 56.6086C63.0231 56.728 63.5836 56.3803 63.7115 55.8185C63.8395 55.2567 63.5024 54.6992 62.9453 54.5798C61.2121 54.1908 59.4157 53.966 57.6104 53.9125C57.037 53.9022 56.5456 54.3428 56.5261 54.9191C56.5065 55.4954 56.9449 55.9664 57.5105 55.9923C57.6964 56.0062 57.8747 55.9967 58.0606 56.0106C58.0448 56.0419 58.0215 56.0499 58.0058 56.0812C57.332 57.1151 56.72 58.1797 56.1698 59.2748C55.9104 59.7911 55.6586 60.3306 55.4301 60.8622C55.2328 61.3701 55.4612 61.9519 55.94 62.1889ZM46.8677 57.406C47.0994 57.5207 47.3783 57.5415 47.6346 57.4535C49.2812 56.94 50.927 56.5434 52.5407 56.2872C53.1071 56.1963 53.5061 55.671 53.4248 55.1033C53.3436 54.5357 52.8271 54.1434 52.2607 54.2342C50.5307 54.4915 48.7763 54.9125 47.0365 55.458C46.485 55.6343 46.1709 56.2212 46.3375 56.7724C46.4206 57.0676 46.6206 57.2837 46.8677 57.406ZM78.6666 68.201C78.9755 68.3538 79.363 68.3503 79.6822 68.1371C80.1649 67.829 80.3167 67.1814 80.0179 66.7014C79.0831 65.1839 77.9849 63.7614 76.7388 62.4414C76.3464 62.0324 75.68 62.0151 75.2665 62.416C74.8529 62.8169 74.8249 63.4868 75.2173 63.8958C76.3634 65.1077 77.3771 66.4298 78.2431 67.8155C78.3503 67.9859 78.4967 68.1169 78.6666 68.201ZM71.6283 60.7132C72.0762 60.9349 72.6429 60.8051 72.9405 60.3663C73.2771 59.8883 73.1731 59.2508 72.7106 58.9047C71.2454 57.867 69.6862 56.9782 68.0563 56.2301C67.5387 55.9935 66.917 56.2328 66.6731 56.7567C66.4292 57.2806 66.6573 57.9014 67.1748 58.138C68.6891 58.8093 70.1247 59.637 71.4741 60.5978C71.5356 60.6673 71.582 60.6903 71.6283 60.7132ZM104.865 75.3256C105.081 75.4327 105.297 75.5397 105.522 75.631C106.039 75.8676 106.661 75.6284 106.905 75.1044C107.149 74.5805 106.921 73.9597 106.403 73.7231C106.218 73.6314 106.009 73.5477 105.824 73.456C104.573 72.8368 103.408 72.0455 102.337 71.1055C101.906 70.7357 101.247 70.7807 100.872 71.2202C100.497 71.6596 100.531 72.3211 100.962 72.6909C102.148 73.7467 103.459 74.63 104.865 75.3256ZM61.636 53.4239C62.0376 53.6226 62.5419 53.5401 62.8777 53.1789C64.0024 51.9384 65.2507 50.759 66.5681 49.6724C67.0202 49.3101 67.0869 48.6398 66.7257 48.2071C66.3724 47.7588 65.7063 47.7026 65.2697 48.0726C63.8666 49.2145 62.5403 50.4725 61.353 51.7992C60.9624 52.231 60.9965 52.8925 61.4046 53.2703C61.4894 53.3318 61.5588 53.3857 61.636 53.4239ZM110.48 76.8935C110.588 76.947 110.72 76.9925 110.851 76.9991C112.447 77.1246 114.021 76.9855 115.535 76.5823C115.823 76.5096 116.118 76.4212 116.397 76.3252C116.949 76.1488 117.248 75.5543 117.081 75.0031C116.914 74.4518 116.327 74.1613 115.776 74.3377C115.543 74.4177 115.294 74.49 115.054 74.5468C113.765 74.8856 112.416 74.9993 111.037 74.9029C110.464 74.8537 109.957 75.2866 109.914 75.8709C109.88 76.3229 110.11 76.71 110.48 76.8935ZM97.8114 68.9047C98.1203 69.0576 98.5078 69.054 98.8271 68.8409C99.3098 68.5328 99.4616 67.8851 99.1627 67.4051C98.2892 65.9961 97.6487 64.5071 97.2722 62.9533C97.1289 62.3941 96.5655 62.0566 96.0064 62.2097C95.4474 62.3628 95.1024 62.9344 95.2457 63.4936C95.6905 65.257 96.3992 66.9556 97.3955 68.5426C97.5106 68.6973 97.657 68.8283 97.8114 68.9047ZM120.097 73.6439C120.468 73.8274 120.941 73.7685 121.261 73.4775C122.548 72.2977 123.628 70.8785 124.437 69.2672C124.492 69.1577 124.547 69.0481 124.602 68.9386C124.846 68.4147 124.634 67.8016 124.116 67.565C123.598 67.3284 122.985 67.552 122.741 68.0759C122.694 68.1698 122.646 68.2637 122.599 68.3575C121.908 69.7342 120.992 70.9417 119.892 71.9406C119.463 72.3339 119.42 72.9961 119.805 73.4208C119.897 73.5056 119.989 73.5904 120.097 73.6439ZM69.7425 46.8091C70.0514 46.9619 70.4235 46.9507 70.727 46.7689C72.1669 45.8991 73.7067 45.1375 75.269 44.4847C75.8053 44.2618 76.0577 43.6443 75.8445 43.1091C75.6312 42.5738 75.0207 42.3302 74.4844 42.5532C72.821 43.2537 71.2034 44.0549 69.6779 44.9799C69.1798 45.2804 69.0125 45.9204 69.3035 46.416C69.4108 46.5863 69.5726 46.725 69.7425 46.8091ZM95.4171 58.9684C95.5252 59.0219 95.6566 59.0674 95.7883 59.0739C96.3615 59.1232 96.8683 58.6903 96.9266 58.1136C97.085 56.5315 97.4992 54.9394 98.1766 53.3993C98.4051 52.8677 98.177 52.247 97.6515 52.026C97.1261 51.805 96.5044 52.0443 96.2759 52.5759C95.4964 54.3193 95.0342 56.1222 94.8508 57.9458C94.8166 58.3977 95.0464 58.7849 95.4171 58.9684ZM79.3652 42.7808C79.5814 42.8878 79.837 42.9166 80.0855 42.8443C81.6928 42.409 83.3767 42.0899 85.0601 41.8486C85.6341 41.781 86.0409 41.2401 85.9751 40.6801C85.9172 40.1044 85.3853 39.7045 84.8267 39.7797C83.0504 40.014 81.2886 40.3728 79.5805 40.8167C79.0215 40.9698 78.6765 41.5414 78.8198 42.1007C78.8951 42.4114 79.1026 42.6509 79.3652 42.7808ZM124.534 64.3922C124.657 64.4534 124.773 64.4912 124.928 64.4898C125.509 64.5234 126.001 64.0828 126.051 63.5218C126.203 61.6829 126.023 59.8159 125.54 58.0139C125.396 57.4547 124.825 57.1329 124.266 57.286C123.707 57.4391 123.377 58.0183 123.521 58.5775C123.936 60.1699 124.087 61.788 123.975 63.3929C123.933 63.8216 124.163 64.2087 124.534 64.3922ZM99.5062 49.4863C99.9386 49.7003 100.459 49.5865 100.787 49.202C101.78 47.9548 102.966 46.7449 104.323 45.619C104.759 45.249 104.826 44.5788 104.465 44.1461C104.104 43.7134 103.438 43.6573 103.001 44.0272C101.551 45.263 100.263 46.5595 99.1762 47.9165C98.8166 48.3636 98.8894 49.0248 99.3287 49.3789C99.375 49.4018 99.4444 49.4557 99.5062 49.4863ZM89.6513 41.3859C89.7903 41.4547 89.945 41.4922 90.1234 41.4828C91.7742 41.4599 93.4942 41.5297 95.1982 41.6697C95.7713 41.719 96.2702 41.3017 96.344 40.7327C96.4023 40.1559 95.9951 39.6614 95.4298 39.5965C93.6407 39.4339 91.8587 39.3724 90.1303 39.3961C89.5491 39.4014 89.0962 39.8806 89.0921 40.4645C89.0815 40.8695 89.3115 41.2178 89.6513 41.3859ZM121.961 54.5042C122.27 54.6571 122.657 54.6535 122.992 54.448C123.475 54.1399 123.626 53.4923 123.312 53.0046C122.377 51.5261 121.201 50.1432 119.823 48.8556C119.399 48.4702 118.748 48.4995 118.358 48.9314C117.967 49.3632 117.986 50.0171 118.409 50.4025C119.657 51.5667 120.725 52.8182 121.56 54.1497C121.652 54.3124 121.791 54.4201 121.961 54.5042ZM99.9754 42.2954C100.053 42.3336 100.153 42.3638 100.238 42.3864C101.972 42.6975 103.628 43.0871 105.182 43.5244C105.739 43.6828 106.307 43.3584 106.474 42.7962C106.641 42.2341 106.327 41.6686 105.77 41.5102C104.146 41.058 102.42 40.6534 100.632 40.3351C100.067 40.2312 99.53 40.6099 99.4175 41.1793C99.3367 41.6472 99.5738 42.0967 99.9754 42.2954ZM114.524 47.4639C115.003 47.7009 115.593 47.5242 115.883 47.0621C116.189 46.5688 116.046 45.9316 115.545 45.6248C114.734 45.1262 113.885 44.6668 112.989 44.2235C112.279 43.8718 111.537 43.5438 110.788 43.2315C110.262 43.0105 109.648 43.2731 109.42 43.8047C109.191 44.3362 109.442 44.949 109.968 45.17C110.687 45.467 111.374 45.7877 112.038 46.1164C112.872 46.5292 113.675 46.9656 114.424 47.4337C114.462 47.4333 114.493 47.4486 114.524 47.4639ZM107.466 42.7404C107.76 42.8856 108.124 42.8901 108.428 42.7082C109.898 41.8927 111.452 41.2555 113.021 40.8207C113.58 40.6676 113.91 40.0884 113.766 39.5291C113.623 38.9698 113.052 38.6481 112.493 38.8011C110.761 39.292 109.059 39.9928 107.441 40.872C106.935 41.1491 106.745 41.7971 107.012 42.3008C107.127 42.4944 107.281 42.6487 107.466 42.7404ZM117.429 39.9548C117.583 40.0312 117.738 40.0687 117.917 40.0593C119.513 39.9901 121.194 40.0992 122.89 40.3717C123.463 40.4599 123.985 40.0736 124.097 39.5042C124.194 38.9271 123.826 38.3933 123.253 38.3051C121.434 38.0104 119.613 37.9103 117.885 37.9729C117.311 38.0016 116.858 38.4807 116.877 39.0567C116.875 39.446 117.089 39.7866 117.429 39.9548ZM141.236 48.8066C141.684 49.0283 142.235 48.8909 142.54 48.4754C142.892 48.005 142.796 47.3518 142.326 47.0214C140.892 45.9601 139.442 44.969 137.976 44.0871C137.489 43.7879 136.845 43.9574 136.539 44.4507C136.234 44.944 136.392 45.5888 136.878 45.888C138.282 46.7393 139.694 47.6918 141.089 48.7145C141.136 48.7375 141.19 48.7837 141.236 48.8066ZM127.625 41.5039C127.671 41.5268 127.717 41.5498 127.756 41.5494C129.279 42.0493 130.863 42.6965 132.431 43.4529C132.941 43.7052 133.578 43.4735 133.822 42.9496C134.081 42.4333 133.861 41.7969 133.344 41.5603C131.698 40.7657 130.045 40.1035 128.436 39.5811C127.887 39.407 127.296 39.7005 127.114 40.255C126.948 40.7393 127.161 41.2746 127.625 41.5039Z" fill="#2B2B2B"/>
<path d="M10.5577 89.6472C11.0194 89.8758 11.5995 89.7155 11.8958 89.2784C12.3794 88.5448 12.8552 87.8267 13.331 87.1087C13.6507 86.6248 13.5315 85.9819 13.055 85.668C12.5784 85.3541 11.9368 85.4839 11.617 85.9678C11.1258 86.6782 10.6344 87.4274 10.1508 88.1611C9.83105 88.645 9.96563 89.2955 10.45 89.5938C10.4886 89.5935 10.5116 89.6243 10.5577 89.6472Z" fill="#2B2B2B"/>
</svg>
