<svg width="95" height="142" viewBox="0 0 95 142" fill="none" xmlns="http://www.w3.org/2000/svg">
<path d="M16.731 1.39569L7.47473 0.254492C6.35623 0.110807 5.25164 0.671148 4.71298 1.66436C4.17432 2.65757 4.28026 3.88769 5.01344 4.75883L10.9823 11.8936C11.5583 12.5794 12.6662 12.4882 13.09 11.6898C13.2631 11.3706 13.2932 10.9926 13.1768 10.6642L12.2474 7.98281C11.9977 7.28935 12.0765 6.51609 12.4228 5.8776C12.7691 5.23911 13.3816 4.77142 14.0937 4.59553L16.9055 3.89084C17.2522 3.81162 17.5497 3.56848 17.7223 3.26725C18.1274 2.4863 17.6329 1.51447 16.731 1.39569Z" fill="#2B2B2B"/>
<path d="M88.1696 92.9426C88.2782 92.946 88.3862 92.9675 88.4755 93.0064C90.1243 93.5638 91.0544 93.936 91.0901 93.9552C91.6448 94.1712 91.9143 94.8112 91.6975 95.3636C91.4808 95.916 90.8383 96.1842 90.2836 95.9682C90.2836 95.9682 89.3716 95.5966 87.7946 95.0595C87.2212 94.8609 86.9143 94.2558 87.1136 93.6849C87.2738 93.2028 87.7172 92.9282 88.1696 92.9426Z" fill="#2B2B2B"/>
<path d="M21.9027 11.969C22.156 11.977 22.4065 12.0751 22.5998 12.2617C23.9199 13.4761 25.2213 14.7081 26.4853 15.9749C26.9065 16.4032 26.9029 17.0886 26.4911 17.5085C26.0612 17.9279 25.373 17.9241 24.9512 17.5139C23.7041 16.2837 22.4208 15.0523 21.1183 13.8564C20.6785 13.4456 20.6453 12.7771 21.0583 12.3211C21.2834 12.0756 21.595 11.9592 21.9027 11.969ZM29.4537 19.4786C29.7432 19.4878 30.0112 19.6045 30.2215 19.8277C31.4296 21.1469 32.6184 22.5015 33.7704 23.873C34.1543 24.3362 34.0964 25.0199 33.6314 25.4021C33.1665 25.7842 32.48 25.7264 32.0961 25.2632C30.961 23.9283 29.7897 22.5923 28.5992 21.2917C28.1967 20.846 28.2184 20.1611 28.6658 19.7604C28.9074 19.5696 29.1822 19.47 29.4537 19.4786ZM36.314 27.6339C36.6216 27.6437 36.9428 27.7982 37.1339 28.0568C38.2299 29.4806 39.2886 30.9394 40.3112 32.397C40.6577 32.8951 40.528 33.5585 40.0461 33.904C39.546 34.249 38.8799 34.1197 38.5329 33.6396C37.5279 32.2006 36.468 30.7779 35.407 29.3912C35.0418 28.9106 35.1353 28.246 35.5997 27.8819C35.8226 27.7085 36.0788 27.6265 36.314 27.6339ZM42.4317 36.361C42.7755 36.3719 43.1142 36.545 43.3216 36.8583C44.2882 38.3682 45.2174 39.9131 46.1104 41.4568C46.402 41.9712 46.2361 42.6334 45.7011 42.9412C45.1847 43.2315 44.5197 43.0661 44.2105 42.5332C43.335 41.008 42.4228 39.4998 41.4738 38.0084C41.1454 37.5109 41.3119 36.8307 41.8107 36.5217C42.0132 36.4199 42.2145 36.3541 42.4317 36.361ZM47.736 45.6035C48.116 45.6156 48.4898 45.8259 48.6774 46.1926C49.4969 47.7701 50.2965 49.4011 51.0419 51.0303C51.2962 51.5796 51.0585 52.2215 50.5077 52.4566C49.9562 52.7098 49.3116 52.4728 49.0754 51.9241C48.347 50.3315 47.5643 48.7372 46.7623 47.1783C46.4893 46.6465 46.6909 46.0034 47.2253 45.7136C47.373 45.6281 47.5551 45.5978 47.736 45.6035ZM52.1937 55.2703C52.6099 55.2834 53.0006 55.5304 53.1684 55.9506C53.8402 57.6136 54.4934 59.294 55.0742 60.9722C55.2737 61.5378 54.9823 62.16 54.4144 62.3585C53.8466 62.5569 53.2218 62.2665 53.0224 61.701C52.4404 60.0589 51.8048 58.397 51.1499 56.7706C50.9317 56.2225 51.1876 55.5812 51.7559 55.3646C51.903 55.2971 52.0489 55.2657 52.1937 55.2703ZM55.7521 65.3054C56.2045 65.3197 56.6115 65.6213 56.7601 66.077C57.2855 67.7895 57.7554 69.5363 58.1898 71.2639C58.3344 71.8458 57.9898 72.4302 57.4056 72.5741C56.8214 72.7179 56.2345 72.3746 56.0899 71.7927C55.6544 70.1011 55.1834 68.3904 54.6749 66.7145C54.4936 66.1495 54.8206 65.5465 55.406 65.3666C55.5162 65.316 55.6435 65.3019 55.7521 65.3054ZM58.3592 75.6351C58.8478 75.6506 59.2893 76.0074 59.3825 76.4974C59.7433 78.2588 60.0492 80.0365 60.3196 81.795C60.4093 82.3932 59.9935 82.9392 59.411 83.029C58.8104 83.1182 58.262 82.704 58.1717 82.1238C57.9183 80.4019 57.6112 78.6603 57.2674 76.9355C57.1409 76.3542 57.5398 75.7715 58.1228 75.6637C58.1958 75.648 58.2687 75.6322 58.3592 75.6351ZM59.9275 86.1664C60.4703 86.1836 60.9283 86.595 60.9654 87.1374C60.9936 87.3909 61.0212 87.6624 61.0313 87.9153C61.1218 87.9181 61.2304 87.9216 61.3209 87.9244C61.5561 87.9319 61.7914 87.9394 62.0085 87.9462C62.6057 87.9652 63.0788 88.4673 63.0413 89.0794C63.0225 89.6742 62.519 90.1273 61.9219 90.1084C61.9219 90.1084 61.9219 90.1084 61.9038 90.1078C61.6685 90.1004 61.4333 90.0929 61.18 90.0849C61.2266 90.8982 61.2739 91.6935 61.3025 92.5062C61.3198 93.1021 60.869 93.611 60.2707 93.6281C59.6724 93.6452 59.1613 93.1961 59.144 92.6002C59.1159 91.7694 59.0704 90.9201 59.0073 90.0521C58.2105 90.0449 57.4132 90.0557 56.6515 90.0857C56.0532 90.1028 55.5427 89.6356 55.5253 89.0397C55.508 88.4439 55.9769 87.9355 56.5752 87.9184C57.3189 87.8879 58.08 87.8759 58.8406 87.8819C58.8282 87.7011 58.7978 87.5198 58.7854 87.339C58.7318 86.7419 59.1652 86.2144 59.7646 86.1613C59.837 86.1636 59.8732 86.1647 59.9275 86.1664ZM67.3393 88.3497C67.3574 88.3503 67.3936 88.3514 67.4298 88.3526C69.1811 88.5343 70.9844 88.7899 72.7865 89.0815C73.3814 89.1726 73.7799 89.7444 73.6892 90.3189C73.598 90.9113 73.0239 91.3081 72.4471 91.2176C70.6993 90.9277 68.9316 90.6913 67.2165 90.5107C66.6205 90.4557 66.1847 89.9187 66.2578 89.3257C66.2942 88.7495 66.7784 88.3319 67.3393 88.3497ZM51.346 88.312C51.8707 88.3286 52.3292 88.722 52.3845 89.265C52.4561 89.8626 52.0228 90.3901 51.4228 90.4612C49.6595 90.658 47.9115 90.9453 46.2516 91.3077C45.668 91.4335 45.0822 91.0541 44.9557 90.4728C44.8293 89.8915 45.21 89.3082 45.7936 89.1824C47.5264 88.8043 49.3288 88.5187 51.165 88.3062C51.2368 88.3266 51.2917 88.3103 51.346 88.312ZM77.8808 90.0909C77.9532 90.0932 78.0074 90.0949 78.0793 90.1152C79.8243 90.4952 81.5851 90.9479 83.3272 91.4181C83.9017 91.5806 84.2454 92.1688 84.0823 92.7409C83.9193 93.313 83.3288 93.6551 82.7543 93.4926C81.0664 93.0242 79.3412 92.5907 77.6143 92.2112C77.0206 92.0842 76.6589 91.4954 76.7857 90.9221C76.9103 90.4209 77.3741 90.0748 77.8808 90.0909ZM40.913 90.5793C41.3473 90.593 41.7549 90.8765 41.9041 91.3142C42.0854 91.8793 41.794 92.5014 41.2086 92.6813C39.5425 93.2419 37.9103 93.8758 36.3838 94.6031C35.8505 94.8569 35.1872 94.6374 34.9329 94.0881C34.678 93.5569 34.8982 92.8963 35.4496 92.6432C37.0678 91.8826 38.7741 91.197 40.5313 90.6213C40.6591 90.5892 40.7863 90.5752 40.913 90.5793ZM31.2947 95.1455C31.6386 95.1564 31.9772 95.3295 32.1666 95.6422C32.495 96.1397 32.3466 96.8205 31.8472 97.1475C30.4043 98.094 28.9948 99.1318 27.6915 100.245C27.2446 100.628 26.5576 100.588 26.1551 100.142C25.7707 99.6971 25.8105 99.0128 26.2579 98.6121C27.6358 97.4289 29.1019 96.3208 30.637 95.3231C30.8762 95.2044 31.0957 95.1392 31.2947 95.1455ZM60.3517 96.7878C60.9489 96.8067 61.4226 97.2908 61.4037 97.8855C61.3912 98.282 61.3781 98.6966 61.3655 99.0931C61.3209 100.499 61.2402 101.903 61.1244 103.271C61.0694 103.864 60.5479 104.317 59.9518 104.262C59.3558 104.207 58.9013 103.688 58.9564 103.094C59.071 101.763 59.1506 100.394 59.194 99.0242C59.2066 98.6277 59.2186 98.2493 59.2311 97.8528C59.25 97.258 59.7359 96.7863 60.3517 96.7878ZM23.2495 102.089C23.4848 102.096 23.7353 102.194 23.9292 102.363C24.3877 102.756 24.4203 103.443 24.026 103.881C22.8425 105.215 21.7841 106.607 20.889 107.985C20.5654 108.48 19.8902 108.639 19.3937 108.299C18.8968 107.976 18.737 107.304 19.0787 106.81C20.0309 105.342 21.1459 103.88 22.4046 102.459C22.6122 102.195 22.9419 102.079 23.2495 102.089ZM59.4719 107.404C59.5081 107.405 59.5624 107.407 59.5986 107.408C60.1934 107.499 60.5925 108.053 60.5013 108.645C60.2265 110.459 59.8617 112.251 59.4637 113.952C59.3187 114.525 58.7458 114.886 58.152 114.759C57.577 114.614 57.2147 114.044 57.3421 113.452C57.7384 111.805 58.0828 110.084 58.3559 108.325C58.446 107.768 58.929 107.387 59.4719 107.404ZM17.5324 111.018C17.6591 111.022 17.7852 111.044 17.9102 111.102C18.4648 111.318 18.7344 111.958 18.5176 112.511C17.8685 114.132 17.4179 115.777 17.1861 117.376C17.0948 117.968 16.5564 118.384 15.9615 118.293C15.3666 118.202 14.9489 117.665 15.0401 117.073C15.2957 115.295 15.7877 113.489 16.5143 111.708C16.6734 111.262 17.0981 111.004 17.5324 111.018ZM56.9709 117.734C57.0795 117.738 57.1875 117.759 57.2949 117.799C57.8683 117.997 58.1571 118.602 57.9759 119.173C57.3584 120.94 56.6702 122.65 55.9143 124.213C55.6619 124.747 55.0024 124.978 54.467 124.727C53.9315 124.475 53.6988 123.818 53.9511 123.285C54.6687 121.793 55.3359 120.172 55.9149 118.476C56.057 117.994 56.5004 117.719 56.9709 117.734ZM16.0968 121.454C16.6216 121.471 17.062 121.864 17.1359 122.389C17.3548 124.056 17.8293 125.659 18.5238 127.178C18.7781 127.727 18.5404 128.369 17.9896 128.604C17.4381 128.857 16.7935 128.621 16.5573 128.072C15.7599 126.369 15.238 124.548 14.9892 122.682C14.8994 122.084 15.3334 121.538 15.9153 121.467C15.9701 121.45 16.0425 121.453 16.0968 121.454ZM52.3032 127.274C52.5022 127.28 52.6996 127.341 52.8771 127.455C53.3735 127.795 53.4971 128.467 53.1735 128.961C52.8312 129.474 52.4528 129.985 52.0935 130.461C51.3372 131.465 50.5107 132.395 49.669 133.234C49.239 133.654 48.5508 133.65 48.1291 133.24C47.7079 132.811 47.7115 132.126 48.1234 131.706C48.9085 130.937 49.6609 130.059 50.3601 129.143C50.7001 128.703 51.0413 128.226 51.3643 127.749C51.5917 127.432 51.9413 127.263 52.3032 127.274ZM20.4861 130.993C20.7756 131.002 21.0617 131.119 21.2714 131.36C22.3726 132.622 23.6605 133.709 25.0802 134.638C25.5771 134.961 25.737 135.633 25.3953 136.127C25.0716 136.622 24.3964 136.781 23.9 136.441C22.3022 135.416 20.8741 134.18 19.6327 132.77C19.2302 132.324 19.2881 131.64 19.7356 131.239C19.9403 131.066 20.2146 130.984 20.4861 130.993ZM44.7504 134.684C45.1123 134.696 45.4504 134.887 45.6398 135.199C45.9495 135.714 45.7836 136.377 45.2847 136.685C43.6592 137.68 41.9144 138.437 40.1414 138.94C39.5566 139.102 38.9692 138.776 38.8065 138.194C38.6438 137.612 38.9703 137.027 39.5551 136.865C41.1454 136.41 42.6883 135.737 44.1656 134.846C44.3506 134.725 44.5513 134.678 44.7504 134.684ZM29.3445 136.685C29.435 136.688 29.543 136.71 29.6329 136.731C31.2478 137.215 32.9239 137.484 34.5898 137.501C35.1875 137.502 35.6607 138.004 35.6599 138.599C35.6592 139.195 35.1552 139.666 34.5575 139.665C32.6744 139.641 30.7998 139.348 28.9882 138.785C28.4142 138.604 28.0893 137.999 28.2704 137.427C28.4113 136.981 28.8559 136.67 29.3445 136.685Z" fill="#2B2B2B"/>
<path d="M15.7475 6.7046C15.9828 6.71206 16.1977 6.79103 16.3921 6.94152C17.0988 7.50513 17.805 8.08676 18.5111 8.66839C18.9702 9.04375 19.0389 9.73148 18.6441 10.188C18.2492 10.6446 17.5768 10.7135 17.1183 10.3201C16.4303 9.73903 15.7236 9.17542 15.035 8.61238C14.5759 8.23702 14.4891 7.54872 14.8658 7.0916C15.0915 6.82814 15.4218 6.69428 15.7475 6.7046Z" fill="#2B2B2B"/>
</svg>
