<svg width="747" height="747" viewBox="0 0 747 747" fill="none" xmlns="http://www.w3.org/2000/svg">
<path d="M373.4 746.8C579.623 746.8 746.8 579.623 746.8 373.4C746.8 167.177 579.623 0 373.4 0C167.177 0 0 167.177 0 373.4C0 579.623 167.177 746.8 373.4 746.8Z" fill="white"/>
<path d="M359.4 608.1C341.9 609.3 325.5 601.1 316.4 586.5L163.5 340.9C149.2 317.9 156.9 286.4 180.7 270.5C204.5 254.7 235.5 260.5 249.8 283.5L355.8 453.9L495.7 168.9C508.3 143.4 538.5 131.6 563.1 142.7C587.7 153.8 597.6 183.5 585 209.1L404.2 577.6C395.9 594.5 379.5 606.1 361.2 608C360.6 608 360 608.034 359.4 608.1V608.1Z" fill="#F7593E"/>
</svg>
