<svg width="2035" height="1876" viewBox="0 0 2035 1876" fill="none" xmlns="http://www.w3.org/2000/svg">
<path d="M294.82 850.501C522.82 793.301 757.253 781.934 998.12 816.401C1099.82 831.001 1189.82 890.101 1244.72 977.001C1343.52 1133.4 1483.32 1412.1 1453.72 1702.9L1298.62 1741.2C1227.09 1511.2 1151.12 1349.4 1070.72 1255.8C975.387 1473 930.153 1641.23 935.02 1760.5C935.22 1765.57 935.52 1770.5 935.92 1775.3C946.853 1891.97 718.187 1902.87 249.92 1808L294.82 850.501Z" fill="url(#paint0_linear_556_472)"/>
<path d="M877.52 503.9L851.62 891.5C850.42 909.5 835.92 924.2 818.72 924.5C724.62 925.8 647.52 878.1 608.62 848C591.72 835 584.92 811.9 591.72 790.3L664.52 558.4L877.52 503.9Z" fill="url(#paint1_linear_556_472)"/>
<path d="M946.42 304.301C965.287 426.034 968.787 516.001 956.92 574.201C939.12 661.501 942.92 722.101 838.92 713.301C734.92 704.501 664.12 633.001 641.32 535.301C616.987 434.834 614.887 367.968 635.02 334.701C655.153 301.501 758.953 291.368 946.42 304.301Z" fill="url(#paint2_linear_556_472)"/>
<path d="M664.62 475.601C660.72 474.601 656.82 477.101 656.02 481.001L640.92 557.401C640.22 560.701 637.32 563.101 634.02 563.101C621.32 563.001 589.22 557.801 543.72 515.601C499.32 474.401 524.72 458.901 540.42 453.701C544.82 452.201 546.32 446.801 543.52 443.001C485.52 363.101 491.12 286.001 532.22 266.501C555.92 255.301 569.72 261.701 577.32 269.601C581.12 273.601 587.72 272.101 589.22 266.801C613.52 182.501 707.72 154.101 836.32 163.701C927.02 170.501 967.52 147.901 984.42 131.901C988.72 127.801 995.92 130.901 996.02 136.901C996.22 143.201 1003.92 146.101 1008.12 141.401L1014.32 134.701C1016.82 132.101 1020.92 131.501 1023.72 133.801C1067.92 169.201 1080.42 257.701 1026.72 309.501C971.02 363.301 781.02 352.701 730.62 359.401C696.953 363.867 688.087 406.067 704.02 486.001L691.42 482.701L664.62 475.601Z" fill="url(#paint3_linear_556_472)"/>
<path d="M666.32 541.901C629.62 528.101 581.42 421.401 636.02 404.401C672.487 393.068 690.62 424.668 690.42 499.201L666.32 541.901Z" fill="url(#paint4_linear_556_472)"/>
<path d="M65.0201 1705.8C45.0201 1679.4 29.2201 1648.7 19.1201 1612.9C-43.6799 1391.9 48.2201 1137.77 294.82 850.501C396.72 915.801 460.32 1013.1 459.02 1164.6C458.82 1186.1 451.52 1207 438.42 1224.1C392.52 1283.7 293.92 1478.1 309.12 1585.1C236.32 1590.9 79.8201 1580.9 65.0201 1705.8V1705.8Z" fill="url(#paint5_linear_556_472)"/>
<path d="M303.82 1506.6L289.72 1504.9C301.72 1400 393.72 1270.5 432.72 1219.7L444.02 1228.4C405.72 1278.2 315.42 1405.2 303.82 1506.6Z" fill="url(#paint6_linear_556_472)"/>
<path d="M322.62 1586.6C370.953 1664.67 490.22 1720.97 680.42 1755.5V1840.5C377.02 1892.97 170.32 1846.43 60.3201 1700.9C77.9201 1586.7 269.32 1580.2 310.92 1580.1C315.72 1580.1 320.12 1582.5 322.62 1586.6V1586.6Z" fill="url(#paint7_linear_556_472)"/>
<path d="M641.32 1821.9C686.12 1716.23 747.987 1682.17 826.92 1719.7C905.787 1757.17 942.12 1788.17 935.92 1812.7L641.32 1821.9Z" fill="url(#paint8_linear_556_472)"/>
<path d="M643.82 1831.1L1051.32 1740.9C1053.32 1740.43 1055.32 1740.27 1057.32 1740.4L1281.02 1752.3C1295.72 1753 1305.72 1767.4 1301.32 1781.4L1283.52 1838.4C1280.62 1847.5 1272.42 1853.8 1262.82 1854.1L649.42 1875.5C637.42 1876 627.12 1866.8 626.22 1854.8C625.32 1843.7 632.82 1833.6 643.82 1831.1V1831.1Z" fill="url(#paint9_linear_556_472)"/>
<path d="M1037.42 1832.5L1054.32 1753.8L1284.12 1764.8L1268.92 1830L1037.42 1832.5Z" fill="url(#paint10_linear_556_472)"/>
<path d="M946.12 961.001L2004.62 899.001C2023.42 897.901 2038.02 915.101 2034.02 933.501L1879.62 1628.7C1876.82 1641.4 1865.72 1650.6 1852.72 1650.9L860.32 1679.3C842.82 1679.8 829.02 1664.6 831.42 1647.2C848.12 1523.9 906.62 1092.1 919.62 985.901C921.32 972.301 932.42 961.801 946.12 961.001Z" fill="url(#paint11_linear_556_472)"/>
<path d="M1347.22 1400.1L1506.52 1389.5C1526.22 1388.2 1542.62 1404.6 1541.32 1424.4L1512.92 1845.4L1171.82 1838.2L1318.52 1421.9C1322.92 1409.5 1334.22 1401 1347.22 1400.1Z" fill="url(#paint12_linear_556_472)"/>
<path d="M1049.72 1831.9L1583.82 1809C1593.82 1808.6 1602.22 1816.6 1602.22 1826.7V1849.6C1602.22 1859.4 1594.32 1867.3 1584.52 1867.3H1050.42C1038.42 1867.3 1029.82 1855.6 1033.62 1844.1C1035.92 1837.1 1042.32 1832.2 1049.72 1831.9Z" fill="url(#paint13_linear_556_472)"/>
<path d="M904.62 1425.1L897.62 1424.2L946.32 1039.7C949.42 1015.8 969.02 997.401 993.02 996.001L1907.72 940.701L1908.12 947.801L993.42 1003.1C972.82 1004.3 956.02 1020.1 953.42 1040.5L904.62 1425.1Z" fill="#91B3FA"/>
<path d="M880.22 1617.9L873.12 1617L883.72 1533.7L890.72 1534.6L880.22 1617.9Z" fill="#91B3FA"/>
<path d="M849.02 617.101C738.82 625.401 674.72 511.501 674.12 510.301L681.52 506.301C682.12 507.401 743.62 616.601 848.42 608.701L849.02 617.101Z" fill="url(#paint14_linear_556_472)"/>
<path d="M893.92 612.901C893.92 619.401 888.62 624.701 882.12 624.701H850.62C844.02 624.701 838.72 619.401 838.72 612.901C838.72 606.301 844.02 601.001 850.62 601.001H882.12C888.62 601.001 893.92 606.301 893.92 612.901Z" fill="url(#paint15_linear_556_472)"/>
<path d="M652.62 388.901C649.02 280.101 736.02 181.301 770.42 163.301C793.354 151.301 815.82 150.834 837.82 161.901C760.153 174.634 708.12 248.634 681.72 383.901C678.053 392.901 668.353 394.567 652.62 388.901V388.901Z" fill="url(#paint16_linear_556_472)"/>
<path d="M717.82 487.9C716.62 493 715.42 507.4 714.22 522.5C713.02 539.3 703.12 554.201 688.12 561.801C673.12 569.301 655.22 568.5 641.02 559.5C620.22 546.4 603.92 518.801 608.32 463.201C603.387 412.134 621.12 382.501 661.52 374.301C722.02 362.001 720.52 475.5 717.82 487.9V487.9Z" fill="url(#paint17_linear_556_472)"/>
<path d="M684.72 411.601C689.62 440.001 690.12 550.701 667.12 549.501C645.22 548.301 600.82 493.801 637.02 409.901C642.02 398.201 654.42 391.501 667.02 393.701C675.12 395.101 682.72 399.801 684.72 411.601V411.601Z" fill="url(#paint18_linear_556_472)"/>
<defs>
<linearGradient id="paint0_linear_556_472" x1="134.22" y1="1114.6" x2="1491.12" y2="-547.299" gradientUnits="userSpaceOnUse">
<stop stop-color="#F7593E"/>
<stop offset="1" stop-color="#C01F03"/>
</linearGradient>
<linearGradient id="paint1_linear_556_472" x1="471.62" y1="1086.5" x2="638.22" y2="635.3" gradientUnits="userSpaceOnUse">
<stop stop-color="#FEBBBA"/>
<stop offset="1" stop-color="#FF928E"/>
</linearGradient>
<linearGradient id="paint2_linear_556_472" x1="1008.62" y1="686.801" x2="555.12" y2="876.501" gradientUnits="userSpaceOnUse">
<stop stop-color="#FEBBBA"/>
<stop offset="1" stop-color="#FF928E"/>
</linearGradient>
<linearGradient id="paint3_linear_556_472" x1="1141.82" y1="30.2008" x2="936.92" y2="644.901" gradientUnits="userSpaceOnUse">
<stop stop-color="#09005D"/>
<stop offset="1" stop-color="#1A0F91"/>
</linearGradient>
<linearGradient id="paint4_linear_556_472" x1="854.521" y1="467.401" x2="500.62" y2="615.401" gradientUnits="userSpaceOnUse">
<stop stop-color="#FEBBBA"/>
<stop offset="1" stop-color="#FF928E"/>
</linearGradient>
<linearGradient id="paint5_linear_556_472" x1="120.335" y1="975.501" x2="1403.47" y2="-596.516" gradientUnits="userSpaceOnUse">
<stop stop-color="#F7593E"/>
<stop offset="1" stop-color="#FF5E43"/>
</linearGradient>
<linearGradient id="paint6_linear_556_472" x1="263.52" y1="430.901" x2="654.92" y2="2140.6" gradientUnits="userSpaceOnUse">
<stop stop-color="#FF928E"/>
<stop offset="1" stop-color="#FE7062"/>
</linearGradient>
<linearGradient id="paint7_linear_556_472" x1="550.72" y1="1390.79" x2="760.44" y2="1942.61" gradientUnits="userSpaceOnUse">
<stop stop-color="#FEBBBA"/>
<stop offset="1" stop-color="#FF928E"/>
</linearGradient>
<linearGradient id="paint8_linear_556_472" x1="772.52" y1="1392.89" x2="971.632" y2="1916.6" gradientUnits="userSpaceOnUse">
<stop stop-color="#FEBBBA"/>
<stop offset="1" stop-color="#FF928E"/>
</linearGradient>
<linearGradient id="paint9_linear_556_472" x1="642.12" y1="1815.1" x2="991.02" y2="1291.7" gradientUnits="userSpaceOnUse">
<stop stop-color="#28A5C1"/>
<stop offset="1" stop-color="#27A6C2"/>
</linearGradient>
<linearGradient id="paint10_linear_556_472" x1="897.32" y1="1985.6" x2="1247.52" y2="1460.4" gradientUnits="userSpaceOnUse">
<stop stop-color="#28A5C1"/>
<stop offset="1" stop-color="#27A6C2"/>
</linearGradient>
<linearGradient id="paint11_linear_556_472" x1="986.92" y1="930.801" x2="2212.12" y2="264.401" gradientUnits="userSpaceOnUse">
<stop stop-color="#28A5C1"/>
<stop offset="1" stop-color="#27A8C5"/>
</linearGradient>
<linearGradient id="paint12_linear_556_472" x1="1551.72" y1="1176.1" x2="1531.22" y2="1741" gradientUnits="userSpaceOnUse">
<stop stop-color="#4F52FF"/>
<stop offset="0.0001" stop-color="#3DB9D5"/>
<stop offset="1" stop-color="#00B6DE"/>
</linearGradient>
<linearGradient id="paint13_linear_556_472" x1="987.52" y1="1920.7" x2="1514.62" y2="1029.6" gradientUnits="userSpaceOnUse">
<stop stop-color="#28A5C1"/>
<stop offset="1" stop-color="#27A6C2"/>
</linearGradient>
<linearGradient id="paint14_linear_556_472" x1="604.62" y1="574.101" x2="739.42" y2="444.601" gradientUnits="userSpaceOnUse">
<stop stop-color="#28A5C1"/>
<stop offset="1" stop-color="#27A6C2"/>
</linearGradient>
<linearGradient id="paint15_linear_556_472" x1="838.72" y1="599.001" x2="893.92" y2="599.001" gradientUnits="userSpaceOnUse">
<stop stop-color="#28A5C1"/>
<stop offset="1" stop-color="#27A6C2"/>
</linearGradient>
<linearGradient id="paint16_linear_556_472" x1="1178.82" y1="219.801" x2="-4.57971" y2="630" gradientUnits="userSpaceOnUse">
<stop stop-color="#28A5C1"/>
<stop offset="1" stop-color="#27A6C2"/>
</linearGradient>
<linearGradient id="paint17_linear_556_472" x1="899.32" y1="172.101" x2="716.62" y2="527.801" gradientUnits="userSpaceOnUse">
<stop stop-color="#28A5C1"/>
<stop offset="1" stop-color="#28A5C1"/>
</linearGradient>
<linearGradient id="paint18_linear_556_472" x1="710.92" y1="296.801" x2="846.62" y2="166.101" gradientUnits="userSpaceOnUse">
<stop stop-color="#29A4C0"/>
<stop offset="1" stop-color="#05819D"/>
</linearGradient>
</defs>
</svg>
