<svg width="334" height="88" viewBox="0 0 334 88" fill="none" xmlns="http://www.w3.org/2000/svg">
<g clip-path="url(#clip0_209_2189)">
<path d="M164.316 13.9847C180.135 13.7228 195.898 14.397 211.667 14.9016C214.246 14.9826 216.736 15.3062 218.836 16.2809C221.007 17.2864 222.016 19.0085 221.115 20.1257C219.87 21.6629 217.547 21.1389 215.708 20.9463C197.143 19.0085 178.418 18.9083 159.7 19.309C144.818 19.6249 129.975 20.38 115.164 21.4125C93.6237 22.9111 72.3134 25.0647 51.5202 28.8363C40.7821 30.7857 30.2738 33.1127 20.174 36.0945C6.76092 40.0588 1.54507 47.0473 5.58624 55.7349C8.35058 61.6832 14.6071 65.9865 23.0661 69.2034C33.1147 73.0251 44.3508 75.0015 55.8168 76.5926C87.7822 81.0269 120.195 82.6796 152.926 82.0671C177.122 81.6124 201.165 80.083 225.086 77.7792C241.57 76.1919 257.99 74.4929 273.983 71.5611C289.305 68.7488 303.848 64.9193 316.756 59.0904C322.457 56.5169 327.495 53.5697 329.02 49.1508C331.466 42.0583 326.811 36.3758 318.761 31.4946C313.213 28.1352 306.446 25.8275 299.468 23.7163C275.374 16.435 249.78 11.9082 223.516 8.60658C202.065 5.91364 180.391 4.07983 158.64 2.56192C154.599 2.28069 150.583 1.8492 146.574 1.41771C145.833 1.33681 144.474 1.36378 144.659 0.62794C144.774 0.184897 145.916 0.208012 146.663 0.184897C153.175 -0.0231411 159.642 0.150224 166.058 0.905324C168.255 1.16345 170.38 1.68354 172.43 0.43146C173.515 -0.231179 175.354 0.0616151 176.867 0.0962881C197.29 0.585562 217.413 2.38856 237.216 5.39355C259.644 8.7992 281.312 13.4608 301.83 19.9485C309.555 22.391 316.59 25.4076 322.496 29.3179C339.471 40.5596 337.511 54.7602 317.657 64.1103C302.239 71.3685 284.561 75.8298 265.977 79.0813C245.86 82.5987 225.278 84.6059 204.427 85.7116C180.57 86.9752 156.718 88.1194 132.733 87.9923C107.656 87.8574 82.9877 85.9042 58.5684 82.5756C48.9985 81.2734 39.301 80.1177 30.6441 77.209C10.7829 70.5287 -0.0382036 60.4427 0.000101346 46.5273C0.0128697 41.3109 4.16896 37.3197 10.9681 34.2145C16.3244 31.7681 22.4213 30.2078 28.5884 28.7631C55.7912 22.391 83.9964 18.4653 112.904 16.2C129.982 14.8631 147.129 14.3199 164.316 13.9847ZM289.719 17.9259C289.119 16.9127 287.728 16.8279 286.649 16.5621C276.511 14.0811 266.322 11.6732 255.845 9.74693C231.183 5.21633 206.087 2.05724 180.289 1.22123C178.75 1.17115 175.928 0.404492 175.794 1.70666C175.686 2.74299 178.68 2.82004 180.608 2.92021C191.506 3.48268 202.365 4.24934 213.129 5.45904C237.695 8.21747 261.527 12.6286 285.257 17.2479C286.661 17.5252 288.04 17.8797 289.719 17.9259ZM114.372 18.6117C105.786 17.8912 97.4925 18.916 89.2442 20.1604C88.6186 20.2528 87.8652 20.4879 88.0759 20.9116C88.3568 21.4857 89.3272 21.3007 90.0167 21.2237C98.1182 20.3337 106.188 19.3282 114.372 18.6117ZM39.9011 28.0658C44.0827 28.1583 47.1726 27.4533 50.3073 26.9948C52.2736 26.7059 54.1761 26.2705 56.0977 25.8814C56.5956 25.7813 57.0617 25.5617 56.7872 25.2111C56.6723 25.0685 56.136 24.9607 55.8104 24.9761C50.4094 25.2573 45.1169 25.7504 39.9011 28.0658ZM113.587 85.0181C115.598 84.9911 117.628 85.0759 119.55 84.602C119.882 84.5211 120.278 84.4017 120.437 84.2283C120.667 83.9779 120.284 83.8354 119.914 83.7891C115.841 83.2729 111.716 83.0495 107.56 83.165C107.005 83.1804 106.239 83.2922 106.296 83.8084C106.335 84.1474 106.833 84.3092 107.292 84.4287C109.303 84.9526 111.423 85.072 113.587 85.0181Z" fill="#FFA422"/>
</g>
<defs>
<clipPath id="clip0_209_2189">
<rect width="334" height="88" fill="white"/>
</clipPath>
</defs>
</svg>
