<svg width="1390" height="1369" viewBox="0 0 1390 1369" fill="none" xmlns="http://www.w3.org/2000/svg">
<path d="M353.637 351.498C349.137 351.498 345.337 347.899 345.237 343.299C345.137 340.199 343.137 265.998 365.337 186.898C395.237 80.2984 455.137 17.1984 538.537 4.19842C579.837 -2.20158 616.637 7.5984 647.737 33.2984C747.737 115.698 757.337 333.498 757.637 342.698C757.837 347.398 754.237 351.298 749.637 351.498C745.037 351.598 741.037 347.998 740.837 343.398C740.737 341.198 731.237 123.898 637.037 46.2984C609.737 23.7984 577.437 15.2984 541.137 20.8984C355.137 49.6984 361.937 339.899 362.037 342.799C362.237 347.399 358.537 351.298 353.937 351.498C353.804 351.498 353.703 351.498 353.637 351.498V351.498Z" fill="url(#paint0_linear_556_397)"/>
<path d="M134.737 283.099C135.437 278.099 139.737 274.299 144.837 274.199L699.237 265.099L880.737 1347.3H4.73684C-15.2632 1347.3 28.0702 992.565 134.737 283.099V283.099Z" fill="url(#paint1_linear_556_397)"/>
<path d="M811.137 286.599L1023.34 1305.5C1027.84 1327 1011.34 1347.3 989.337 1347.3H880.737L699.237 265.099L796.237 273.299C803.537 273.999 809.637 279.399 811.137 286.599V286.599Z" fill="url(#paint2_linear_556_397)"/>
<path d="M232.637 349.099C228.037 349.099 224.337 345.499 224.237 340.999C224.137 337.899 222.137 263.699 244.337 184.499C274.137 77.9987 334.037 14.7986 417.537 1.8986C458.837 -4.5014 495.637 5.2987 526.737 30.9987C626.737 113.399 636.337 331.199 636.637 340.399C636.837 344.999 633.237 348.899 628.537 349.099C624.037 349.299 620.037 345.699 619.837 340.999C619.737 338.899 610.237 121.599 516.037 43.9987C488.737 21.4987 456.437 12.8987 420.037 18.5987C234.137 47.2987 240.937 337.499 241.037 340.499C241.137 345.099 237.537 348.999 232.837 349.099C232.77 349.099 232.704 349.099 232.637 349.099V349.099Z" fill="url(#paint3_linear_556_397)"/>
<path d="M410.037 1032C396.137 1033 383.237 1026.5 376.037 1015L255.337 821.098C243.937 802.898 250.037 777.999 268.937 765.499C287.737 752.999 312.137 757.498 323.437 775.698L407.237 910.299L517.637 685.299C527.637 665.099 551.437 655.798 570.837 664.598C590.337 673.298 598.037 696.798 588.137 716.898L445.337 1008C438.837 1021.3 425.837 1030.5 411.437 1031.9C410.97 1031.97 410.503 1032 410.037 1032V1032Z" fill="url(#paint4_linear_556_397)"/>
<path d="M1173.24 749.398C1173.14 747.398 1164.34 545.298 1076.04 472.498C1049.84 450.898 1018.94 442.698 984.137 448.098C910.937 459.498 860.237 513.298 833.637 608.298C813.537 679.598 815.437 748.498 815.437 749.198L808.737 749.398C808.737 748.698 806.837 678.898 827.037 606.598C839.037 563.998 856.237 528.798 878.237 501.998C905.937 468.298 941.137 447.998 983.137 441.498C1019.94 435.798 1052.64 444.498 1080.34 467.298C1118.44 498.698 1146.84 555.798 1164.64 636.798C1177.84 696.998 1179.94 748.598 1179.94 749.198L1173.24 749.398Z" fill="url(#paint5_linear_556_397)"/>
<path d="M532.137 1310.9L621.737 720.898C622.537 715.198 627.337 710.998 633.037 710.898L1150.24 702.398L1262.14 1368.5H576.237C547.137 1368.5 527.937 1339.7 532.137 1310.9Z" fill="url(#paint6_linear_556_397)"/>
<path d="M1257.74 717.198L1389.24 1344.6C1391.54 1355.3 1383.54 1365.4 1372.64 1365.7L1262.14 1368.5L1150.24 702.398L1250.04 710.898C1253.64 711.198 1256.74 713.698 1257.74 717.198V717.198Z" fill="url(#paint7_linear_556_397)"/>
<path d="M1061.74 747.298C1061.64 745.198 1052.84 543.098 964.537 470.398C938.337 448.798 907.437 440.598 872.637 445.998C799.437 457.298 748.737 511.198 722.137 606.098C702.037 677.398 703.937 746.298 703.937 746.998L697.237 747.198C697.237 746.498 695.337 676.698 715.537 604.398C727.537 561.798 744.737 526.598 766.737 499.898C794.437 466.198 829.637 445.798 871.637 439.298C908.437 433.598 941.137 442.298 968.837 465.198C1006.94 496.598 1035.34 553.598 1053.14 634.698C1066.34 694.798 1068.44 746.498 1068.44 746.998L1061.74 747.298Z" fill="url(#paint8_linear_556_397)"/>
<path opacity="0.7" d="M900.437 1231C888.737 1231.7 877.837 1226.3 871.737 1216.5L769.837 1052.8C760.237 1037.5 765.437 1016.5 781.337 1005.9C797.237 995.298 817.837 999.198 827.337 1014.5L898.037 1128.2L991.337 938.198C999.737 921.098 1019.84 913.298 1036.24 920.698C1052.64 928.098 1059.24 947.898 1050.84 964.898L930.337 1210.7C924.737 1221.9 913.837 1229.7 901.637 1230.9C901.237 1230.9 900.837 1230.93 900.437 1231V1231Z" fill="white"/>
<defs>
<linearGradient id="paint0_linear_556_397" x1="427.037" y1="-234.302" x2="586.537" y2="-882.302" gradientUnits="userSpaceOnUse">
<stop stop-color="#2B3582"/>
<stop offset="1" stop-color="#150E42"/>
</linearGradient>
<linearGradient id="paint1_linear_556_397" x1="299.337" y1="40.7986" x2="1208.44" y2="-1285.9" gradientUnits="userSpaceOnUse">
<stop stop-color="#4F52FF"/>
<stop offset="1" stop-color="#4042E2"/>
</linearGradient>
<linearGradient id="paint2_linear_556_397" x1="2347.84" y1="-128.601" x2="1988.34" y2="264.199" gradientUnits="userSpaceOnUse">
<stop stop-color="#4F52FF"/>
<stop offset="1" stop-color="#4042E2"/>
</linearGradient>
<linearGradient id="paint3_linear_556_397" x1="312.337" y1="-262.101" x2="471.837" y2="-910.201" gradientUnits="userSpaceOnUse">
<stop stop-color="#2B3582"/>
<stop offset="1" stop-color="#150E42"/>
</linearGradient>
<linearGradient id="paint4_linear_556_397" x1="255.037" y1="659.298" x2="587.037" y2="659.298" gradientUnits="userSpaceOnUse">
<stop stop-color="#DAE3FE"/>
<stop offset="1" stop-color="#E9EFFD"/>
</linearGradient>
<linearGradient id="paint5_linear_556_397" x1="810.537" y1="437.798" x2="1179.94" y2="437.798" gradientUnits="userSpaceOnUse">
<stop stop-color="#FF928E"/>
<stop offset="1" stop-color="#FE7062"/>
</linearGradient>
<linearGradient id="paint6_linear_556_397" x1="2006.44" y1="-915.102" x2="1898.74" y2="-585.102" gradientUnits="userSpaceOnUse">
<stop stop-color="#FF928E"/>
<stop offset="1" stop-color="#FE7062"/>
</linearGradient>
<linearGradient id="paint7_linear_556_397" x1="1033.34" y1="866.798" x2="1410.84" y2="322.198" gradientUnits="userSpaceOnUse">
<stop stop-color="#FF928E"/>
<stop offset="1" stop-color="#FE7062"/>
</linearGradient>
<linearGradient id="paint8_linear_556_397" x1="699.037" y1="435.698" x2="1068.44" y2="435.698" gradientUnits="userSpaceOnUse">
<stop stop-color="#FF928E"/>
<stop offset="1" stop-color="#FE7062"/>
</linearGradient>
</defs>
</svg>
