<svg width="0" height="0" fill="none" style="visibility: hidden; position: absolute;" aria-hidden="true">
   
    <symbol id="shape2"  viewBox="0 0 136 13"  xmlns="http://www.w3.org/2000/svg">
        <path d="M68.8467 6.46831C68.8467 6.78539 68.5862 7.03905 68.2605 7.03905C67.9349 7.03905 67.6743 6.78539 67.6743 6.46831C67.6743 6.15124 67.9349 5.89758 68.2605 5.89758C68.5862 5.961 68.8467 6.21466 68.8467 6.46831Z"  />
        <path d="M58.8813 7.41951C58.8813 7.41951 58.8161 7.41951 58.751 7.35609C58.6859 7.35609 58.6859 7.29268 58.6207 7.22927C58.5556 7.16585 58.4905 7.10244 58.4253 7.03902C58.2951 6.84878 58.2299 6.65853 58.1648 6.34146C58.1648 6.02439 58.1648 5.70731 58.3602 5.39024C58.5556 5.07317 58.8161 4.75609 59.1418 4.50244C59.4675 4.24878 59.9234 4.12195 60.4445 4.12195C60.705 4.12195 60.9004 4.18536 61.161 4.24878H61.2261H61.2912H61.3564L61.4215 4.31219C61.4866 4.43902 61.5518 4.43902 61.6169 4.50244C61.682 4.56585 61.7472 4.56585 61.7472 4.62927C62.138 4.88292 62.3985 5.2 62.659 5.51707C62.9196 5.83414 63.1801 6.0878 63.5058 6.34146L63.5709 6.40488L63.7012 6.46829C63.7663 6.46829 63.7663 6.5317 63.8315 6.5317L63.9617 6.59512C64.0269 6.65853 64.092 6.65853 64.2223 6.72195C64.2874 6.78536 64.4177 6.78536 64.4828 6.84878C64.8085 6.97561 65.1341 7.10244 65.5249 7.16585C65.5901 7.16585 65.7203 7.22927 65.7855 7.22927C65.8506 7.22927 65.9158 7.29268 66.046 7.29268C66.1763 7.29268 66.3717 7.35609 66.502 7.35609C66.8276 7.35609 67.0882 7.35609 67.2836 7.22927C67.5441 7.16585 67.6744 7.03902 67.8046 6.91219C67.9349 6.78536 68 6.65853 68.0652 6.59512C68.1303 6.5317 68.1303 6.46829 68.1303 6.46829C68.1303 6.46829 68.1303 6.5317 68.0652 6.59512C68 6.65853 67.9349 6.78536 67.8698 6.91219C67.7395 7.03902 67.6092 7.16585 67.3487 7.29268C67.0882 7.41951 66.8276 7.41951 66.502 7.48292C66.3717 7.48292 66.1763 7.48292 66.046 7.48292C65.9809 7.48292 65.9158 7.48292 65.7855 7.48292C65.7203 7.48292 65.5901 7.48292 65.5249 7.41951C65.1993 7.35609 64.8085 7.29268 64.4177 7.16585C64.3525 7.10244 64.2223 7.10244 64.1571 7.03902C63.9617 6.97561 63.8315 6.97561 63.7663 6.91219C63.7012 6.84878 63.5709 6.78536 63.5058 6.78536L63.3755 6.72195L63.3104 6.65853H63.2453C62.9196 6.40488 62.5939 6.15122 62.3334 5.83414C62.0077 5.58048 61.7472 5.32683 61.4215 5.2C61.3564 5.2 61.3564 5.2 61.2912 5.13658C61.2261 5.07317 61.2261 5.07317 61.161 5.07317H61.0958H61.0307H60.9656C60.8353 5.07317 60.6399 5.07317 60.5096 5.07317C60.184 5.07317 59.9234 5.13658 59.6629 5.26341C59.4023 5.39024 59.2069 5.58049 59.0767 5.77073C58.9464 5.96097 58.8161 6.15122 58.751 6.34146C58.6859 6.5317 58.6859 6.72195 58.6859 6.84878C58.6859 6.91219 58.6859 6.97561 58.6859 7.10244C58.6859 7.16585 58.6859 7.22927 58.751 7.29268C58.8161 7.35609 58.8813 7.41951 58.8813 7.41951Z"  />
        <path d="M58.8812 5.58051C58.8812 5.58051 58.8161 5.58051 58.751 5.64392C58.6858 5.70733 58.6207 5.70733 58.5556 5.77075C58.4904 5.83416 58.4253 5.89758 58.3601 5.96099C58.2299 6.15124 58.1647 6.34148 58.0996 6.65855C58.0996 6.97563 58.0996 7.2927 58.295 7.60977C58.4904 7.92685 58.751 8.24392 59.0766 8.43416C59.4023 8.68782 59.8582 8.81465 60.3793 8.81465C60.6398 8.81465 60.8352 8.75124 61.0958 8.68782H61.1609H61.226H61.2912L61.3563 8.62441C61.4214 8.62441 61.4866 8.56099 61.4866 8.56099C61.5517 8.49758 61.6169 8.49758 61.6169 8.43416C62.0077 8.18051 62.2682 7.86343 62.5287 7.54636C62.7893 7.22929 63.0498 6.97563 63.3755 6.72197L63.4406 6.65855L63.5709 6.59514C63.636 6.59514 63.636 6.53172 63.7011 6.53172L63.8314 6.46831C63.8965 6.4049 63.9617 6.4049 64.0919 6.34148C64.1571 6.27807 64.2874 6.27807 64.3525 6.21465C64.6782 6.08782 65.0038 5.96099 65.3946 5.89758C65.4598 5.89758 65.59 5.83416 65.6552 5.83416C65.7203 5.83416 65.7854 5.83416 65.9157 5.77075C66.046 5.77075 66.2414 5.70733 66.3716 5.70733C66.6973 5.70733 66.9578 5.70733 67.1532 5.83416C67.4138 5.89758 67.5441 6.02441 67.6743 6.15124C67.8046 6.27807 67.8697 6.4049 67.9349 6.46831C68 6.53172 68 6.59514 68 6.59514C68 6.59514 68 6.53172 67.9349 6.46831C67.8697 6.4049 67.8046 6.27807 67.7395 6.15124C67.6092 6.02441 67.4789 5.89758 67.2184 5.77075C66.9578 5.64392 66.6973 5.64392 66.3716 5.58051C66.2414 5.58051 66.046 5.58051 65.9157 5.58051C65.8506 5.58051 65.7854 5.58051 65.6552 5.64392C65.59 5.64392 65.4598 5.64392 65.3946 5.70733C65.069 5.77075 64.6782 5.83416 64.2873 5.96099C64.2222 6.02441 64.092 6.02441 64.0268 6.08782C63.9617 6.15124 63.8314 6.15124 63.7663 6.21465C63.7011 6.27807 63.5709 6.34148 63.5057 6.34148H63.3755H63.3103H63.2452C62.9195 6.59514 62.5939 6.8488 62.3333 7.16587C62.0077 7.41953 61.7471 7.67319 61.4215 7.80002C61.3563 7.80002 61.3563 7.80002 61.2912 7.86343C61.226 7.86343 61.226 7.86343 61.1609 7.92685H61.0958H61.0306H60.9655C60.8352 7.92685 60.6398 7.92685 60.5096 7.92685C60.249 7.86343 59.9234 7.80002 59.728 7.67319C59.4674 7.54636 59.272 7.35612 59.1418 7.16587C59.0115 6.97563 58.8812 6.78538 58.8161 6.59514C58.751 6.4049 58.751 6.21465 58.751 6.08782C58.751 6.02441 58.751 5.96099 58.751 5.89758C58.751 5.83416 58.751 5.77075 58.8161 5.70733C58.8161 5.64392 58.8812 5.58051 58.8812 5.58051Z"  />
        <path d="M77.1839 7.41951C77.1839 7.41951 77.249 7.41951 77.3141 7.35609C77.3793 7.35609 77.3793 7.29268 77.4444 7.22927C77.5095 7.16585 77.5747 7.10244 77.5747 7.03902C77.7049 6.84878 77.7701 6.65853 77.8352 6.34146C77.8352 6.02439 77.8352 5.70731 77.6398 5.39024C77.4444 5.07317 77.1839 4.75609 76.8582 4.50244C76.5325 4.24878 76.0766 4.12195 75.5555 4.12195C75.295 4.12195 75.0996 4.18536 74.839 4.24878H74.7739H74.7088H74.6436L74.5785 4.31219C74.5134 4.37561 74.4482 4.37561 74.4482 4.37561C74.3831 4.43902 74.318 4.43902 74.318 4.50244C73.9923 4.75609 73.6666 5.07317 73.4061 5.39024C73.1455 5.70731 72.885 5.96097 72.5593 6.21463L72.4942 6.27805L72.3639 6.34146C72.2988 6.34146 72.2988 6.40488 72.2337 6.40488L72.1034 6.46829C72.0383 6.5317 71.908 6.5317 71.8429 6.59512C71.7777 6.65853 71.6475 6.65853 71.5823 6.72195C71.2567 6.84878 70.931 6.97561 70.5402 7.03902C70.475 7.03902 70.3448 7.10244 70.2796 7.10244C70.2145 7.10244 70.0842 7.16585 70.0191 7.16585C69.8888 7.16585 69.6934 7.22927 69.5632 7.22927C69.2375 7.22927 68.977 7.22927 68.7816 7.10244C68.521 7.03902 68.3908 6.91219 68.2605 6.78536C68.1302 6.65853 68.0651 6.5317 67.9999 6.46829C67.9348 6.40487 67.9348 6.34146 67.9348 6.34146C67.9348 6.34146 67.9348 6.40487 67.9999 6.46829C68.0651 6.5317 68.1302 6.65853 68.1953 6.78536C68.3256 6.91219 68.4559 7.03902 68.7164 7.16585C68.977 7.29268 69.2375 7.29268 69.5632 7.35609C69.6934 7.35609 69.8888 7.35609 70.0191 7.35609C70.0842 7.35609 70.2145 7.35609 70.2796 7.35609C70.3448 7.35609 70.475 7.35609 70.5402 7.29268C70.8658 7.22927 71.2567 7.16585 71.6475 7.03902C71.7126 6.97561 71.8429 6.97561 71.908 6.91219C71.9731 6.84878 72.1034 6.84878 72.1685 6.78536C72.2337 6.72195 72.3639 6.65853 72.4291 6.65853L72.5593 6.59512L72.6245 6.5317H72.6896C73.0153 6.27805 73.3409 6.02439 73.6015 5.70731C73.9271 5.45366 74.1877 5.2 74.5134 5.07317C74.5785 5.07317 74.5785 5.07317 74.6436 5.00975C74.7088 5.00975 74.7088 5.00975 74.7739 4.94634H74.839H74.9042H74.9693C75.0996 4.94634 75.295 4.94634 75.4252 4.94634C75.6858 5.00975 76.0114 5.07317 76.2068 5.2C76.4674 5.32683 76.6628 5.51707 76.7931 5.70731C76.9233 5.89756 77.0536 6.0878 77.1187 6.27805C77.1839 6.46829 77.1839 6.65853 77.1839 6.78536C77.1839 6.84878 77.1839 6.91219 77.1839 7.03902C77.1839 7.10244 77.1839 7.16585 77.1187 7.22927C77.1839 7.35609 77.1839 7.41951 77.1839 7.41951Z"  />
        <path d="M77.1839 5.5805C77.1839 5.5805 77.249 5.5805 77.3142 5.64392C77.3793 5.64392 77.3793 5.70733 77.4444 5.77075C77.5096 5.83416 77.5747 5.89758 77.5747 5.96099C77.705 6.15123 77.7701 6.34148 77.8352 6.65855C77.8352 6.97563 77.8352 7.2927 77.6398 7.60977C77.4444 7.92684 77.1839 8.24392 76.8582 8.43416C76.5326 8.68782 76.0766 8.81465 75.5556 8.81465C75.295 8.81465 75.0996 8.75123 74.8391 8.68782H74.7739H74.7088H74.6437L74.5785 8.62441C74.5134 8.62441 74.4483 8.56099 74.4483 8.56099C74.3831 8.49758 74.318 8.49758 74.318 8.43416C73.9923 8.1805 73.6667 7.86343 73.4061 7.54636C73.1456 7.22928 72.8851 6.97563 72.5594 6.72197L72.4943 6.65855L72.364 6.59514C72.2988 6.59514 72.2989 6.53172 72.2337 6.53172L72.1034 6.46831C72.0383 6.40489 71.908 6.40489 71.8429 6.34148C71.7778 6.27806 71.6475 6.27806 71.5824 6.21465C71.2567 6.08782 70.931 5.96099 70.5402 5.89758C70.4751 5.70733 70.41 5.70733 70.3448 5.70733C70.2797 5.70733 70.1494 5.70733 70.0843 5.64392C69.954 5.64392 69.7586 5.5805 69.6284 5.5805C69.3027 5.5805 69.0421 5.5805 68.8467 5.70733C68.5862 5.77075 68.4559 5.89758 68.3257 6.02441C68.1954 6.15124 68.1303 6.27806 68.0651 6.34148C68 6.40489 68 6.46831 68 6.46831C68 6.46831 68 6.40489 68.0651 6.34148C68.1303 6.27806 68.1954 6.15124 68.2605 6.02441C68.3908 5.89758 68.5211 5.77075 68.7816 5.64392C69.0421 5.51709 69.3027 5.51709 69.6284 5.45367C69.7586 5.45367 69.954 5.45367 70.0843 5.45367C70.1494 5.45367 70.2797 5.45367 70.3448 5.51709C70.41 5.51709 70.5402 5.51709 70.6054 5.5805C70.931 5.64392 71.3218 5.70733 71.7126 5.83416C71.7778 5.89758 71.908 5.89758 71.9732 5.96099C72.0383 6.02441 72.1686 6.02441 72.2337 6.08782C72.2989 6.15124 72.4291 6.21465 72.4943 6.21465L72.6245 6.27806L72.6897 6.34148H72.7548C73.0805 6.59514 73.4061 6.8488 73.6667 7.16587C73.9923 7.41953 74.2529 7.67319 74.5785 7.80002C74.6437 7.80002 74.6437 7.80002 74.7088 7.86343C74.7739 7.86343 74.7739 7.86343 74.8391 7.92684H74.9042H74.9693H75.0345C75.1647 7.92684 75.3602 7.92684 75.4904 7.92684C75.751 7.86343 76.0766 7.80002 76.272 7.67319C76.5326 7.54636 76.728 7.35611 76.8582 7.16587C76.9885 6.97563 77.1188 6.78538 77.1839 6.59514C77.249 6.40489 77.249 6.21465 77.249 6.08782C77.249 6.02441 77.249 5.96099 77.249 5.89758C77.249 5.83416 77.249 5.77075 77.1839 5.70733C77.1839 5.64392 77.1839 5.5805 77.1839 5.5805Z"  />
        <path d="M52.0421 5.39026C49.8927 5.39026 0 6.46831 0 6.46831C0 6.46831 49.8927 7.60977 52.0421 7.60977C54.1916 7.60977 54.7126 6.46831 54.7126 6.46831C54.7126 6.46831 54.1916 5.39026 52.0421 5.39026Z"  />
        <path d="M54.7126 6.4683C54.7126 7.41952 55.4943 8.11708 56.4061 8.11708C57.3831 8.11708 58.0996 7.3561 58.0996 6.4683C58.0996 5.51708 57.318 4.81952 56.4061 4.81952C55.4943 4.81952 54.7126 5.58049 54.7126 6.4683Z"  />
        <path d="M83.9578 5.39026C86.1073 5.39026 136 6.53172 136 6.53172C136 6.53172 86.1073 7.60977 83.9578 7.60977C81.8084 7.60977 81.2874 6.46831 81.2874 6.46831C81.2874 6.46831 81.8084 5.39026 83.9578 5.39026Z"  />
        <path d="M81.2874 6.4683C81.2874 7.41952 80.5058 8.11708 79.5939 8.11708C78.6169 8.11708 77.9004 7.3561 77.9004 6.4683C77.9004 5.51708 78.682 4.81952 79.5939 4.81952C80.5058 4.81952 81.2874 5.58049 81.2874 6.4683Z"  />
        <path d="M68 11.6049C66.8928 9.95612 64.4828 7.60978 62.7893 6.53173C63.8315 5.83417 65.0039 4.75612 65.6552 4.18539C66.2414 3.61465 67.3487 2.47319 68.0652 1.45856C69.1724 3.10734 71.5824 5.45368 73.2759 6.53173C72.2337 7.22929 71.0613 8.30734 70.41 8.87807C69.8238 9.4488 68.7165 10.5903 68 11.6049Z"  />
        <path d="M68 2.40976C69.1073 3.80488 70.7356 5.45366 72.1686 6.46829C71.5172 6.97561 70.8008 7.60976 69.954 8.37073C69.1073 9.19512 68.4559 9.89268 67.9349 10.5268C66.8276 9.13171 65.1992 7.48293 63.7663 6.46829C65.2644 5.39024 66.8927 3.80488 68 2.40976ZM68 0C68 1.26829 62.659 6.46829 61.3563 6.46829C62.659 6.46829 68 11.6683 68 13C68 11.7317 73.341 6.53171 74.6437 6.53171C73.341 6.53171 68 1.26829 68 0Z"  />
    </symbol>
  
</svg> 