<svg width="32" height="32" viewBox="0 0 32 32" fill="none" xmlns="http://www.w3.org/2000/svg">
<mask id="path-1-inside-1_568_303" fill="white">
<path d="M26.6151 5H5.38488C5.28281 5 5.18491 5.04055 5.11273 5.11273C5.04055 5.18491 5 5.28281 5 5.38488V26.9384C5 27.0405 5.04055 27.1384 5.11273 27.2106C5.18491 27.2828 5.28281 27.3233 5.38488 27.3233H26.6151C26.7172 27.3233 26.8151 27.2828 26.8873 27.2106C26.9594 27.1384 27 27.0405 27 26.9384V5.38488C27 5.28281 26.9594 5.18491 26.8873 5.11273C26.8151 5.04055 26.7172 5 26.6151 5V5ZM26.2302 8.07908H17.9244V5.76977H26.2302V8.07908ZM14.8453 8.84885H17.1547V15.2302L16.2694 14.3527C16.2349 14.3159 16.1931 14.2865 16.1468 14.2665C16.1005 14.2464 16.0505 14.2361 16 14.2361C15.9495 14.2361 15.8995 14.2464 15.8532 14.2665C15.8069 14.2865 15.7651 14.3159 15.7306 14.3527L14.8453 15.2302V8.84885ZM17.1547 5.76977V8.07908H14.8453V5.76977H17.1547ZM5.76977 5.76977H14.0756V8.07908H5.76977V5.76977ZM16.3849 26.5535V21.1651H18.6942V26.5535H16.3849ZM22.543 26.5535V21.1651H24.8523V26.5535H22.543ZM26.2302 26.5535H25.6221V20.7803C25.6221 20.6782 25.5816 20.5803 25.5094 20.5081C25.4372 20.4359 25.3393 20.3954 25.2372 20.3954H22.1582C22.0561 20.3954 21.9582 20.4359 21.886 20.5081C21.8138 20.5803 21.7733 20.6782 21.7733 20.7803V26.5535H19.464V20.7803C19.464 20.6782 19.4234 20.5803 19.3512 20.5081C19.2791 20.4359 19.1812 20.3954 19.0791 20.3954H16C15.8979 20.3954 15.8 20.4359 15.7278 20.5081C15.6557 20.5803 15.6151 20.6782 15.6151 20.7803V26.5535H5.76977V8.84885H14.0756V16.1617C14.076 16.2376 14.0988 16.3118 14.1413 16.3748C14.1838 16.4378 14.2439 16.4869 14.3142 16.5157C14.3836 16.5472 14.4611 16.5559 14.5358 16.5407C14.6104 16.5255 14.6783 16.4871 14.7299 16.4311L16 15.1686L17.2701 16.4311C17.3045 16.468 17.3462 16.4974 17.3926 16.5173C17.439 16.5372 17.4891 16.5472 17.5395 16.5465C17.5877 16.5574 17.6377 16.5574 17.6858 16.5465C17.7611 16.5158 17.8248 16.4621 17.8677 16.3929C17.9106 16.3238 17.9304 16.2428 17.9244 16.1617V8.84885H26.2302V26.5535Z"/>
</mask>
<path d="M5.38488 5L5.38488 4L5.38488 5ZM5 5.38488H4H5ZM5 26.9384H4H5ZM26.2302 8.07908V9.07908H27.2302V8.07908H26.2302ZM17.9244 8.07908H16.9244V9.07908H17.9244V8.07908ZM17.9244 5.76977V4.76977H16.9244V5.76977H17.9244ZM26.2302 5.76977H27.2302V4.76977H26.2302V5.76977ZM14.8453 8.84885V7.84885H13.8453V8.84885H14.8453ZM17.1547 8.84885H18.1547V7.84885H17.1547V8.84885ZM17.1547 15.2302L16.4506 15.9404L18.1547 17.6296V15.2302H17.1547ZM16.2694 14.3527L15.5403 15.037L15.5526 15.0502L15.5654 15.0629L16.2694 14.3527ZM15.7306 14.3527L16.4346 15.0629L16.4474 15.0502L16.4597 15.037L15.7306 14.3527ZM14.8453 15.2302H13.8453V17.6296L15.5494 15.9404L14.8453 15.2302ZM17.1547 5.76977H18.1547V4.76977H17.1547V5.76977ZM17.1547 8.07908V9.07908H18.1547V8.07908H17.1547ZM14.8453 8.07908H13.8453V9.07908H14.8453V8.07908ZM14.8453 5.76977V4.76977H13.8453V5.76977H14.8453ZM5.76977 5.76977V4.76977H4.76977V5.76977H5.76977ZM14.0756 5.76977H15.0756V4.76977H14.0756V5.76977ZM14.0756 8.07908V9.07908H15.0756V8.07908H14.0756ZM5.76977 8.07908H4.76977V9.07908H5.76977V8.07908ZM16.3849 26.5535H15.3849V27.5535H16.3849V26.5535ZM16.3849 21.1651V20.1651H15.3849V21.1651H16.3849ZM18.6942 21.1651H19.6942V20.1651H18.6942V21.1651ZM18.6942 26.5535V27.5535H19.6942V26.5535H18.6942ZM22.543 26.5535H21.543V27.5535H22.543V26.5535ZM22.543 21.1651V20.1651H21.543V21.1651H22.543ZM24.8523 21.1651H25.8523V20.1651H24.8523V21.1651ZM24.8523 26.5535V27.5535H25.8523V26.5535H24.8523ZM26.2302 26.5535V27.5535H27.2302V26.5535H26.2302ZM25.6221 26.5535H24.6221V27.5535H25.6221V26.5535ZM21.7733 26.5535V27.5535H22.7733V26.5535H21.7733ZM19.464 26.5535H18.464V27.5535H19.464V26.5535ZM15.6151 26.5535V27.5535H16.6151V26.5535H15.6151ZM5.76977 26.5535H4.76977V27.5535H5.76977V26.5535ZM5.76977 8.84885V7.84885H4.76977V8.84885H5.76977ZM14.0756 8.84885H15.0756V7.84885H14.0756V8.84885ZM14.0756 16.1617L13.0756 16.1617L13.0756 16.1666L14.0756 16.1617ZM14.3142 16.5157L14.727 15.6049L14.7107 15.5975L14.6942 15.5908L14.3142 16.5157ZM14.7299 16.4311L14.0249 15.7218L14.009 15.7377L13.9937 15.7543L14.7299 16.4311ZM16 15.1686L16.705 14.4594L16 13.7587L15.295 14.4594L16 15.1686ZM17.2701 16.4311L18.0026 15.7503L17.9891 15.7358L17.9751 15.7218L17.2701 16.4311ZM17.5395 16.5465L17.7605 15.5712L17.6454 15.5452L17.5273 15.5466L17.5395 16.5465ZM17.6858 16.5465L17.9067 17.5218L17.9869 17.5037L18.0631 17.4726L17.6858 16.5465ZM17.9244 16.1617H16.9244V16.1986L16.9272 16.2355L17.9244 16.1617ZM17.9244 8.84885V7.84885H16.9244V8.84885H17.9244ZM26.2302 8.84885H27.2302V7.84885H26.2302V8.84885ZM26.6151 4H5.38488V6H26.6151V4ZM5.38488 4C5.01759 4 4.66534 4.14591 4.40562 4.40562L5.81984 5.81984C5.70448 5.93519 5.54802 6 5.38488 6L5.38488 4ZM4.40562 4.40562C4.14591 4.66534 4 5.01759 4 5.38488L6 5.38488C6 5.54802 5.93519 5.70448 5.81984 5.81984L4.40562 4.40562ZM4 5.38488V26.9384H6V5.38488H4ZM4 26.9384C4 27.3057 4.14591 27.658 4.40562 27.9177L5.81984 26.5035C5.93519 26.6188 6 26.7753 6 26.9384H4ZM4.40562 27.9177C4.66534 28.1774 5.01759 28.3233 5.38488 28.3233V26.3233C5.54802 26.3233 5.70448 26.3881 5.81984 26.5035L4.40562 27.9177ZM5.38488 28.3233H26.6151V26.3233H5.38488V28.3233ZM26.6151 28.3233C26.9824 28.3233 27.3347 28.1774 27.5944 27.9177L26.1802 26.5035C26.2955 26.3881 26.452 26.3233 26.6151 26.3233V28.3233ZM27.5944 27.9177C27.8541 27.658 28 27.3057 28 26.9384H26C26 26.7753 26.0648 26.6188 26.1802 26.5035L27.5944 27.9177ZM28 26.9384V5.38488H26V26.9384H28ZM28 5.38488C28 5.01757 27.8541 4.66533 27.5944 4.40562L26.1802 5.81984C26.0648 5.70449 26 5.54804 26 5.38488H28ZM27.5944 4.40562C27.3347 4.14591 26.9824 4 26.6151 4L26.6151 6C26.452 6 26.2955 5.93519 26.1802 5.81984L27.5944 4.40562ZM26.2302 7.07908H17.9244V9.07908H26.2302V7.07908ZM18.9244 8.07908V5.76977H16.9244V8.07908H18.9244ZM17.9244 6.76977H26.2302V4.76977H17.9244V6.76977ZM25.2302 5.76977V8.07908H27.2302V5.76977H25.2302ZM14.8453 9.84885H17.1547V7.84885H14.8453V9.84885ZM16.1547 8.84885V15.2302H18.1547V8.84885H16.1547ZM17.8587 14.52L16.9734 13.6425L15.5654 15.0629L16.4506 15.9404L17.8587 14.52ZM16.9986 13.6684C16.8705 13.5319 16.7158 13.4231 16.5441 13.3488L15.7495 15.1842C15.6704 15.1499 15.5992 15.0999 15.5403 15.037L16.9986 13.6684ZM16.5441 13.3488C16.3723 13.2744 16.1871 13.2361 16 13.2361V15.2361C15.9138 15.2361 15.8286 15.2184 15.7495 15.1842L16.5441 13.3488ZM16 13.2361C15.8128 13.2361 15.6277 13.2744 15.4559 13.3488L16.2505 15.1842C16.1714 15.2184 16.0862 15.2361 16 15.2361V13.2361ZM15.4559 13.3488C15.2842 13.4231 15.1295 13.5319 15.0014 13.6684L16.4597 15.037C16.4008 15.0999 16.3296 15.1499 16.2505 15.1842L15.4559 13.3488ZM15.0266 13.6425L14.1413 14.52L15.5494 15.9404L16.4346 15.0629L15.0266 13.6425ZM15.8453 15.2302V8.84885H13.8453V15.2302H15.8453ZM16.1547 5.76977V8.07908H18.1547V5.76977H16.1547ZM17.1547 7.07908H14.8453V9.07908H17.1547V7.07908ZM15.8453 8.07908V5.76977H13.8453V8.07908H15.8453ZM14.8453 6.76977H17.1547V4.76977H14.8453V6.76977ZM5.76977 6.76977H14.0756V4.76977H5.76977V6.76977ZM13.0756 5.76977V8.07908H15.0756V5.76977H13.0756ZM14.0756 7.07908H5.76977V9.07908H14.0756V7.07908ZM6.76977 8.07908V5.76977H4.76977V8.07908H6.76977ZM17.3849 26.5535V21.1651H15.3849V26.5535H17.3849ZM16.3849 22.1651H18.6942V20.1651H16.3849V22.1651ZM17.6942 21.1651V26.5535H19.6942V21.1651H17.6942ZM18.6942 25.5535H16.3849V27.5535H18.6942V25.5535ZM23.543 26.5535V21.1651H21.543V26.5535H23.543ZM22.543 22.1651H24.8523V20.1651H22.543V22.1651ZM23.8523 21.1651V26.5535H25.8523V21.1651H23.8523ZM24.8523 25.5535H22.543V27.5535H24.8523V25.5535ZM26.2302 25.5535H25.6221V27.5535H26.2302V25.5535ZM26.6221 26.5535V20.7803H24.6221V26.5535H26.6221ZM26.6221 20.7803C26.6221 20.413 26.4762 20.0607 26.2165 19.801L24.8023 21.2152C24.6869 21.0999 24.6221 20.9434 24.6221 20.7803H26.6221ZM26.2165 19.801C25.9568 19.5413 25.6045 19.3954 25.2372 19.3954V21.3954C25.0741 21.3954 24.9176 21.3306 24.8023 21.2152L26.2165 19.801ZM25.2372 19.3954H22.1582V21.3954H25.2372V19.3954ZM22.1582 19.3954C21.7909 19.3954 21.4386 19.5413 21.1789 19.801L22.5931 21.2152C22.4777 21.3306 22.3213 21.3954 22.1582 21.3954V19.3954ZM21.1789 19.801C20.9192 20.0607 20.7733 20.413 20.7733 20.7803H22.7733C22.7733 20.9434 22.7085 21.0999 22.5931 21.2152L21.1789 19.801ZM20.7733 20.7803V26.5535H22.7733V20.7803H20.7733ZM21.7733 25.5535H19.464V27.5535H21.7733V25.5535ZM20.464 26.5535V20.7803H18.464V26.5535H20.464ZM20.464 20.7803C20.464 20.413 20.3181 20.0607 20.0583 19.801L18.6441 21.2152C18.5288 21.0999 18.464 20.9434 18.464 20.7803H20.464ZM20.0583 19.801C19.7986 19.5413 19.4464 19.3954 19.0791 19.3954V21.3954C18.9159 21.3954 18.7595 21.3306 18.6441 21.2152L20.0583 19.801ZM19.0791 19.3954H16V21.3954H19.0791V19.3954ZM16 19.3954C15.6327 19.3954 15.2805 19.5413 15.0207 19.801L16.435 21.2152C16.3196 21.3306 16.1631 21.3954 16 21.3954V19.3954ZM15.0207 19.801C14.761 20.0607 14.6151 20.413 14.6151 20.7803H16.6151C16.6151 20.9434 16.5503 21.0999 16.435 21.2152L15.0207 19.801ZM14.6151 20.7803V26.5535H16.6151V20.7803H14.6151ZM15.6151 25.5535H5.76977V27.5535H15.6151V25.5535ZM6.76977 26.5535V8.84885H4.76977V26.5535H6.76977ZM5.76977 9.84885H14.0756V7.84885H5.76977V9.84885ZM13.0756 8.84885V16.1617H15.0756V8.84885H13.0756ZM13.0756 16.1666C13.077 16.4401 13.1592 16.7069 13.312 16.9337L14.9706 15.816C15.0384 15.9167 15.075 16.0352 15.0756 16.1567L13.0756 16.1666ZM13.312 16.9337C13.4648 17.1604 13.6813 17.3368 13.9342 17.4407L14.6942 15.5908C14.8065 15.6369 14.9027 15.7153 14.9706 15.816L13.312 16.9337ZM13.9014 17.4266C14.1626 17.5449 14.4544 17.5778 14.7354 17.5206L14.3362 15.5608C14.4678 15.534 14.6046 15.5494 14.727 15.6049L13.9014 17.4266ZM14.7354 17.5206C15.0163 17.4634 15.272 17.3189 15.4661 17.1079L13.9937 15.7543C14.0846 15.6554 14.2045 15.5877 14.3362 15.5608L14.7354 17.5206ZM15.4348 17.1403L16.705 15.8779L15.295 14.4594L14.0249 15.7218L15.4348 17.1403ZM15.295 15.8779L16.5652 17.1403L17.9751 15.7218L16.705 14.4594L15.295 15.8779ZM16.5376 17.1118C16.667 17.251 16.8241 17.3616 16.9987 17.4365L17.7865 15.5982C17.8684 15.6332 17.942 15.6851 18.0026 15.7503L16.5376 17.1118ZM16.9987 17.4365C17.1733 17.5113 17.3617 17.5488 17.5517 17.5465L17.5273 15.5466C17.6164 15.5455 17.7047 15.5631 17.7865 15.5982L16.9987 17.4365ZM17.3186 17.5218C17.5122 17.5657 17.7131 17.5657 17.9067 17.5218L17.4649 15.5712C17.5622 15.5492 17.6632 15.5492 17.7605 15.5712L17.3186 17.5218ZM18.0631 17.4726C18.3342 17.3622 18.5633 17.1687 18.7176 16.9198L17.0178 15.866C17.0863 15.7554 17.1881 15.6695 17.3085 15.6204L18.0631 17.4726ZM18.7176 16.9198C18.8719 16.671 18.9433 16.3797 18.9217 16.0878L16.9272 16.2355C16.9175 16.1059 16.9493 15.9765 17.0178 15.866L18.7176 16.9198ZM18.9244 16.1617V8.84885H16.9244V16.1617H18.9244ZM17.9244 9.84885H26.2302V7.84885H17.9244V9.84885ZM25.2302 8.84885V26.5535H27.2302V8.84885H25.2302Z" fill="black" mask="url(#path-1-inside-1_568_303)"/>
</svg>
