<svg width="32" height="32" viewBox="0 0 32 32" fill="none" xmlns="http://www.w3.org/2000/svg">
<path d="M24 2.5H8C7.15 2.5 6.5 3.2 6.5 4V23.5C6.5 24.05 6.8 24.55 7.25 24.8L15.25 29.25C15.5 29.4 15.75 29.45 16 29.45C16.25 29.45 16.5 29.4 16.75 29.25L24.75 24.8C25.25 24.55 25.5 24.05 25.5 23.5V4C25.5 3.2 24.85 2.5 24 2.5ZM24.5 23.55C24.5 23.75 24.4 23.9 24.25 24L16.25 28.45C16.1 28.55 15.9 28.55 15.75 28.45L7.75 24C7.6 23.9 7.5 23.75 7.5 23.55V4C7.5 3.7 7.7 3.5 8 3.5H24C24.3 3.5 24.5 3.75 24.5 4V23.55Z" fill="#231F20"/>
<path d="M18.4 5.59961C17.45 5.59961 16.55 5.99961 16 6.69961C15.4 5.99961 14.55 5.59961 13.6 5.59961C11.9 5.59961 10.5 6.94961 10.5 8.54961C10.5 10.3496 12.95 12.8996 15 14.6996C15.3 14.9496 15.65 15.0496 16 15.0496C16.35 15.0496 16.7 14.8996 17 14.6996C18.7 13.1996 21.5 10.4496 21.5 8.54961C21.5 6.89961 20.1 5.59961 18.4 5.59961ZM16.35 13.9496C16.15 14.0996 15.85 14.0996 15.7 13.9496C13.1 11.6496 11.55 9.64961 11.55 8.54961C11.55 7.44961 12.5 6.59961 13.65 6.59961C14.5 6.59961 15.3 7.09961 15.6 7.84961C15.7 8.04961 15.85 8.14961 16.05 8.14961C16.25 8.14961 16.45 8.04961 16.5 7.84961C16.8 7.09961 17.6 6.59961 18.45 6.59961C19.6 6.59961 20.55 7.49961 20.55 8.54961C20.5 9.64961 18.95 11.6496 16.35 13.9496Z" fill="#231F20"/>
<path d="M19.5 16H12.5C11.65 16 11 16.65 11 17.5C11 18.35 11.65 19 12.5 19H19.5C20.35 19 21 18.35 21 17.5C21 16.65 20.35 16 19.5 16ZM19.5 18H12.5C12.2 18 12 17.8 12 17.5C12 17.2 12.2 17 12.5 17H19.5C19.8 17 20 17.2 20 17.5C20 17.8 19.8 18 19.5 18Z" fill="#231F20"/>
<path d="M19.5 20H12.5C11.65 20 11 20.65 11 21.5C11 22.35 11.65 23 12.5 23H19.5C20.35 23 21 22.35 21 21.5C21 20.65 20.35 20 19.5 20ZM19.5 22H12.5C12.2 22 12 21.8 12 21.5C12 21.2 12.2 21 12.5 21H19.5C19.8 21 20 21.2 20 21.5C20 21.8 19.8 22 19.5 22Z" fill="#231F20"/>
</svg>
