<svg width="32" height="32" viewBox="0 0 32 32" fill="none" xmlns="http://www.w3.org/2000/svg">
<path d="M29 8.5H4.86C4.72739 8.5 4.60022 8.55268 4.50645 8.64645C4.41268 8.74021 4.36 8.86739 4.36 9V11.3H3C2.86739 11.3 2.74021 11.3527 2.64645 11.4464C2.55268 11.5402 2.5 11.6674 2.5 11.8V23C2.50256 23.1318 2.55606 23.2575 2.64928 23.3507C2.7425 23.4439 2.86819 23.4974 3 23.5H25.29C25.4226 23.5 25.5498 23.4473 25.6436 23.3536C25.7373 23.2598 25.79 23.1326 25.79 23V20.7H29C29.1326 20.7 29.2598 20.6473 29.3536 20.5536C29.4473 20.4598 29.5 20.3326 29.5 20.2V9C29.5 8.86739 29.4473 8.74021 29.3536 8.64645C29.2598 8.55268 29.1326 8.5 29 8.5ZM24.79 22.5H3.5V12.3H24.79V22.5ZM28.5 19.7H25.79V11.8C25.8004 11.7371 25.8004 11.6729 25.79 11.61C25.7384 11.4884 25.6416 11.3916 25.52 11.34C25.4575 11.3258 25.3925 11.3258 25.33 11.34H5.36V9.5H28.5V19.7Z" fill="black"/>
<path d="M6.71035 13.1699H4.86035C4.72774 13.1699 4.60057 13.2226 4.5068 13.3164C4.41303 13.4101 4.36035 13.5373 4.36035 13.6699C4.36035 13.8025 4.41303 13.9297 4.5068 14.0235C4.60057 14.1172 4.72774 14.1699 4.86035 14.1699H6.71035C6.84296 14.1699 6.97014 14.1172 7.0639 14.0235C7.15767 13.9297 7.21035 13.8025 7.21035 13.6699C7.21035 13.5373 7.15767 13.4101 7.0639 13.3164C6.97014 13.2226 6.84296 13.1699 6.71035 13.1699Z" fill="black"/>
<path d="M23.4303 20.6309H21.5703C21.4377 20.6309 21.3105 20.6835 21.2168 20.7773C21.123 20.8711 21.0703 20.9983 21.0703 21.1309C21.0703 21.2635 21.123 21.3906 21.2168 21.4844C21.3105 21.5782 21.4377 21.6309 21.5703 21.6309H23.4303C23.5629 21.6309 23.6901 21.5782 23.7839 21.4844C23.8776 21.3906 23.9303 21.2635 23.9303 21.1309C23.9303 20.9983 23.8776 20.8711 23.7839 20.7773C23.6901 20.6835 23.5629 20.6309 23.4303 20.6309Z" fill="black"/>
<path d="M14.1401 14.0996C13.487 14.0976 12.848 14.2895 12.304 14.6509C11.76 15.0123 11.3355 15.527 11.0842 16.1298C10.8329 16.7326 10.7661 17.3965 10.8923 18.0373C11.0185 18.6781 11.332 19.267 11.7931 19.7295C12.2542 20.192 12.8422 20.5073 13.4826 20.6355C14.123 20.7636 14.787 20.6988 15.3906 20.4494C15.9942 20.1999 16.5102 19.7769 16.8732 19.234C17.2363 18.6911 17.4301 18.0527 17.4301 17.3996C17.4314 16.9667 17.3473 16.5378 17.1825 16.1375C17.0178 15.7372 16.7756 15.3733 16.47 15.0668C16.1644 14.7602 15.8012 14.517 15.4014 14.351C15.0016 14.1851 14.573 14.0996 14.1401 14.0996V14.0996ZM14.1401 19.6996C13.6848 19.7016 13.2391 19.5684 12.8596 19.3169C12.48 19.0654 12.1837 18.7068 12.008 18.2867C11.8324 17.8667 11.7854 17.4039 11.8731 16.9571C11.9607 16.5103 12.1789 16.0995 12.5002 15.7768C12.8215 15.4542 13.2313 15.2341 13.6777 15.1446C14.1241 15.055 14.5871 15.1 15.0079 15.2738C15.4288 15.4475 15.7886 15.7423 16.0418 16.1208C16.2949 16.4992 16.4301 16.9443 16.4301 17.3996C16.4314 17.7012 16.3731 18.0001 16.2586 18.279C16.1441 18.558 15.9757 18.8117 15.7629 19.0254C15.5501 19.2391 15.2972 19.4086 15.0187 19.5244C14.7403 19.6401 14.4417 19.6996 14.1401 19.6996Z" fill="black"/>
<path d="M23.4303 13.1699H21.5703C21.4377 13.1699 21.3105 13.2226 21.2168 13.3164C21.123 13.4101 21.0703 13.5373 21.0703 13.6699C21.0703 13.8025 21.123 13.9297 21.2168 14.0235C21.3105 14.1172 21.4377 14.1699 21.5703 14.1699H23.4303C23.5629 14.1699 23.6901 14.1172 23.7839 14.0235C23.8776 13.9297 23.9303 13.8025 23.9303 13.6699C23.9303 13.5373 23.8776 13.4101 23.7839 13.3164C23.6901 13.2226 23.5629 13.1699 23.4303 13.1699Z" fill="black"/>
<path d="M6.71035 20.6309H4.86035C4.72774 20.6309 4.60057 20.6835 4.5068 20.7773C4.41303 20.8711 4.36035 20.9983 4.36035 21.1309C4.36035 21.2635 4.41303 21.3906 4.5068 21.4844C4.60057 21.5782 4.72774 21.6309 4.86035 21.6309H6.71035C6.84296 21.6309 6.97014 21.5782 7.0639 21.4844C7.15767 21.3906 7.21035 21.2635 7.21035 21.1309C7.21035 20.9983 7.15767 20.8711 7.0639 20.7773C6.97014 20.6835 6.84296 20.6309 6.71035 20.6309Z" fill="black"/>
</svg>
