<svg width="32" height="32" viewBox="0 0 32 32" fill="none" xmlns="http://www.w3.org/2000/svg">
<path d="M26.217 8.76941L26.2169 8.76948L26.2242 8.77626C26.4086 8.94812 26.5 9.16447 26.5 9.40635V26.0074C26.5 26.1696 26.4751 26.3271 26.4286 26.4762V25.9971V9.41661C26.4286 9.16715 26.3228 8.94826 26.1597 8.7904L21.0044 3.80084C20.8415 3.6431 20.6229 3.54719 20.3809 3.54719H7.20636C6.33051 3.54719 5.58197 4.24857 5.58197 5.13545V25.9971C5.58197 26.884 6.33051 27.5854 7.20636 27.5854H24.7936C25.4964 27.5854 26.1173 27.1338 26.3352 26.4971H26.4219C26.2068 27.1545 25.5696 27.6429 24.7936 27.6429H7.20636C6.24712 27.6429 5.5 26.8967 5.5 26.0074V5.13545C5.5 4.24621 6.24712 3.5 7.20636 3.5H20.3703C20.6404 3.5 20.8847 3.59826 21.0621 3.76994L26.217 8.76941Z" stroke="black"/>
<path d="M20.8427 9.7529H24.3597C24.3766 9.7529 24.3885 9.75913 24.3958 9.76627C24.3995 9.76983 24.4016 9.77326 24.4028 9.77601C24.4038 9.77838 24.4049 9.78175 24.4049 9.7874C24.4049 9.79752 24.4011 9.80856 24.391 9.81869C24.3808 9.82881 24.3698 9.83259 24.3597 9.83259H20.8427C19.8895 9.83259 19.1191 9.06228 19.1191 8.10907V4.59206C19.1191 4.58194 19.1229 4.57091 19.133 4.56078C19.1432 4.55065 19.1542 4.54688 19.1643 4.54688C19.1745 4.54688 19.1855 4.55065 19.1956 4.56078C19.2057 4.57091 19.2095 4.58194 19.2095 4.59206V8.11976C19.2095 9.01592 19.9465 9.7529 20.8427 9.7529Z" stroke="black"/>
<path d="M14.3323 13.9233L14.3323 13.9233L14.3317 13.9242C14.0857 14.2596 13.936 14.6691 13.8913 15.0955C13.9342 14.5764 14.1071 14.1034 14.384 13.7254C14.7689 13.2 15.3016 12.9277 15.8266 12.9277H16.164C16.689 12.9277 17.2217 13.2 17.6066 13.7254C17.9933 14.2533 18.182 14.9583 18.1001 15.6712L17.8144 17.4151C17.8144 17.4153 17.8144 17.4155 17.8143 17.4157C17.6252 18.548 16.8117 19.2611 15.9953 19.2611C15.1791 19.2611 14.3657 18.5483 14.1764 17.4164C14.1763 17.416 14.1762 17.4155 14.1761 17.4151L13.9006 15.7083C13.8994 15.6968 13.8981 15.6854 13.897 15.6739L14.172 17.3542L14.172 17.3542L14.1728 17.359C14.3317 18.2735 15.0343 19.0585 15.9854 19.0585C16.9319 19.0585 17.6506 18.2781 17.799 17.3526L18.0769 15.6194L18.0788 15.6074L18.0801 15.5953C18.1426 15.0316 17.996 14.4108 17.6409 13.9268C17.2881 13.4321 16.7463 13.1303 16.1541 13.1303H15.8167C15.218 13.1303 14.69 13.4377 14.3323 13.9233Z" stroke="black"/>
<path d="M21.1584 25.5474H10.842L11.5705 21.7057L11.5705 21.7057L11.5719 21.6979C11.6182 21.4309 11.7847 21.2404 11.9646 21.1713L11.9646 21.1713L11.9695 21.1694L14.0221 20.3553L15.627 22.1548L16.0002 22.5732L16.3733 22.1548L17.9783 20.3553L20.0263 21.1675C20.2199 21.2496 20.3842 21.4495 20.4289 21.7003L20.4289 21.7003L20.4299 21.7057L21.1584 25.5474ZM11.0552 24.7667L10.9424 25.3601H11.5464H20.4747H21.0788L20.9659 24.7667L20.3975 21.7767C20.3801 21.6673 20.3311 21.5905 20.3052 21.5548C20.2727 21.51 20.2394 21.4794 20.2272 21.4684L20.1675 21.4015L20.0585 21.3579L18.3143 20.6595L17.9887 20.5291L17.7553 20.7908L16.0106 22.747L14.2658 20.7908L14.0324 20.5291L13.7068 20.6595L12.001 21.3425C11.9191 21.3655 11.8291 21.4115 11.752 21.498C11.6633 21.5974 11.6321 21.7061 11.6219 21.7862L11.0552 24.7667Z" stroke="black"/>
</svg>
