<svg width="32" height="32" viewBox="0 0 32 32" fill="none" xmlns="http://www.w3.org/2000/svg">
<path d="M15.7764 4.29416C17.8805 4.99359 19.8802 6.03652 22.06 6.4904C24.1043 6.91607 26.1922 6.8443 28.2662 6.76584C28.0488 6.54847 27.8315 6.33109 27.6141 6.11372C27.6555 10.4836 27.0547 14.4421 24.7395 18.2267C23.6073 20.0774 22.2225 21.7496 20.7211 23.3106C19.7736 24.2957 17.296 27.3439 15.7594 27.0983C14.3511 26.8732 12.4056 24.4172 11.4608 23.3654C10.1887 21.9491 9.0898 20.3776 8.19084 18.6997C6.10642 14.809 5.24102 10.4735 5.31776 6.08384C5.10039 6.30121 4.88302 6.51858 4.66564 6.73596C8.79602 6.76654 12.9647 7.07026 16.2695 4.18234C16.9027 3.629 15.9771 2.70969 15.3472 3.26011C12.3486 5.88052 8.36935 5.45915 4.66564 5.43172C4.3086 5.42908 4.01967 5.73274 4.01353 6.08384C3.92791 10.9814 4.99945 15.8329 7.47401 20.0912C8.62375 22.0697 10.0577 23.906 11.7052 25.4944C12.7544 26.506 14.6475 28.6046 16.229 28.6077C17.6033 28.6104 19.2007 26.6131 20.0629 25.794C21.8202 24.1243 23.4738 22.3435 24.883 20.3673C27.9914 16.0082 28.9683 11.3916 28.9183 6.11372C28.9151 5.77115 28.6221 5.44814 28.2662 5.4616C25.9988 5.54738 23.7401 5.62653 21.5259 5.01999C19.677 4.5135 17.9408 3.64075 16.1231 3.03652C15.3248 2.77115 14.9824 4.03026 15.7764 4.29416Z" fill="black"/>
<path d="M4.19835 7.34383C7.15832 10.186 10.5873 12.5341 13.7354 15.1649C16.3865 17.3803 18.501 20.4933 21.5118 22.2071C22.2423 22.6229 22.9002 21.4965 22.1701 21.0809C20.4896 20.1243 19.3492 18.754 18.0656 17.3553C16.8101 15.9873 15.373 14.8369 13.9496 13.6506C11.0366 11.2227 7.8556 9.04776 5.12058 6.4216C4.51503 5.84014 3.59149 6.76112 4.19835 7.34383Z" fill="black"/>
</svg>
