<svg width="55" height="55" viewBox="0 0 55 55" fill="none" xmlns="http://www.w3.org/2000/svg">
<path d="M13.2419 35.8565C13.2419 36.1592 13.1901 36.4515 13.0863 36.7333C12.9929 37.0152 12.8528 37.2657 12.666 37.4849C12.4896 37.7041 12.2664 37.8815 11.9966 38.0172C11.7372 38.1529 11.4518 38.2208 11.1405 38.2208C10.8291 38.2208 10.5697 38.179 10.3621 38.0955C10.1546 38.012 9.93666 37.8763 9.70835 37.6884L9.55269 38.0955H8.13613V35.8096H9.53712C9.62014 36.0288 9.75505 36.2167 9.94185 36.3732C10.139 36.5402 10.3466 36.6237 10.5645 36.6237C10.689 36.6237 10.798 36.5924 10.8914 36.5298C10.9848 36.4567 11.0315 36.3628 11.0315 36.248C11.0315 36.1436 11.0004 36.0549 10.9381 35.9818C10.8758 35.9192 10.8136 35.8565 10.7357 35.8252C10.6631 35.7939 10.5749 35.7678 10.4711 35.7469C10.2947 35.6948 10.139 35.6478 10.0041 35.606C9.87958 35.5643 9.73948 35.5121 9.58382 35.4495C9.43853 35.3868 9.30881 35.3294 9.19465 35.2772C9.0805 35.2146 8.96635 35.1415 8.8522 35.058C8.73804 34.9745 8.63945 34.8858 8.55643 34.7919C8.47341 34.7084 8.39039 34.604 8.30737 34.4787C8.23473 34.3639 8.17764 34.2386 8.13613 34.1029C8.08425 33.9672 8.04792 33.8159 8.02717 33.6489C7.99603 33.4819 7.98047 33.3044 7.98047 33.1165C7.98047 32.4172 8.14651 31.8588 8.4786 31.4412C8.82106 31.0237 9.31918 30.8149 9.97298 30.8149C10.5334 30.8149 10.99 30.9506 11.3428 31.222C11.3532 31.1803 11.3999 31.0916 11.4829 30.9559H12.7282V33.2261H11.374C11.3221 32.9965 11.2079 32.793 11.0315 32.6155C10.8551 32.4381 10.6527 32.3493 10.4244 32.3493C10.2999 32.3493 10.2013 32.3859 10.1286 32.4589C10.056 32.5216 10.0197 32.6207 10.0197 32.7564C10.0197 32.8399 10.056 32.9182 10.1286 32.9913C10.2013 33.0539 10.2999 33.1061 10.4244 33.1479C10.5386 33.2001 10.6787 33.247 10.8447 33.2888C11.0004 33.3305 11.1664 33.3827 11.3428 33.4453C11.5193 33.508 11.6957 33.581 11.8721 33.6645C12.0433 33.7428 12.2146 33.8368 12.3858 33.962C12.5414 34.0977 12.6815 34.2491 12.8061 34.4161C12.9306 34.5727 13.0344 34.7762 13.1174 35.0267C13.1901 35.2772 13.2316 35.5538 13.2419 35.8565V35.8565Z" fill="#0F8FAC"/>
<path fill-rule="evenodd" clip-rule="evenodd" d="M16.7285 11.8541C16.687 12.0941 16.5676 12.2924 16.3704 12.449L15.3742 13.2162L13.2727 10.4449L14.1133 9.80296C14.352 9.61507 14.5959 9.53157 14.8449 9.55245C15.1044 9.56289 15.3119 9.67248 15.4676 9.88124C15.5921 10.0483 15.6648 10.2048 15.6855 10.351C15.6959 10.4971 15.6648 10.6589 15.5921 10.8363C15.81 10.7841 15.9917 10.7894 16.1369 10.852C16.2822 10.9042 16.4223 11.019 16.5572 11.1964C16.7129 11.3948 16.77 11.614 16.7285 11.8541V11.8541ZM15.0473 10.7894C15.0577 10.6745 15.0213 10.5649 14.9383 10.4606C14.7515 10.21 14.5336 10.184 14.2845 10.3823L14.2067 10.4292L14.7515 11.1651L14.8761 11.0712C14.9798 10.9877 15.0369 10.8937 15.0473 10.7894V10.7894ZM15.9657 11.901C15.9761 11.7862 15.9398 11.6766 15.8567 11.5722C15.6699 11.3217 15.452 11.2956 15.203 11.4939L15.0784 11.5879L15.6388 12.3081L15.81 12.1672C15.9034 12.0941 15.9553 12.0054 15.9657 11.901Z" fill="#0F8FAC"/>
<path fill-rule="evenodd" clip-rule="evenodd" d="M17.9115 25.3349C17.9115 25.8359 17.8129 26.2691 17.6157 26.6344C17.4186 27.0102 17.1436 27.3025 16.7907 27.5112C16.4379 27.7304 16.028 27.8922 15.561 27.9966C15.1043 28.101 14.5906 28.1532 14.0199 28.1532H7.74658V25.742H8.89851V19.6513H7.79328V17.2871H13.2104C13.7501 17.2871 14.2274 17.308 14.6425 17.3497C15.0473 17.4019 15.4364 17.4907 15.81 17.6159C16.1732 17.7412 16.469 17.9082 16.6973 18.1169C16.936 18.3257 17.1228 18.5919 17.2577 18.9155C17.3822 19.2495 17.4445 19.6409 17.4445 20.0897C17.4445 20.643 17.294 21.1283 16.9931 21.5459C16.6921 21.9738 16.303 22.2765 15.8256 22.454V22.4696C16.4898 22.6575 17.0035 22.9968 17.3667 23.4873C17.7299 23.9675 17.9115 24.5833 17.9115 25.3349V25.3349ZM12.401 21.7181H12.6812C12.9095 21.7181 13.1015 21.7024 13.2571 21.6711C13.4128 21.6502 13.5633 21.6033 13.7085 21.5302C13.8642 21.4571 13.9784 21.3423 14.051 21.1857C14.1288 21.0292 14.16 20.8256 14.16 20.5751C14.16 20.2724 14.0718 20.0428 13.8953 19.8862C13.7085 19.7296 13.4906 19.6513 13.2416 19.6513H12.401V21.7181ZM14.2067 24.6147C14.2067 24.4163 14.1807 24.2441 14.1288 24.098C14.0666 23.9518 13.9939 23.837 13.9109 23.7535C13.8175 23.67 13.7085 23.6074 13.584 23.5656C13.4595 23.5134 13.3453 23.4821 13.2416 23.4717C13.1378 23.4612 13.0236 23.456 12.8991 23.456C12.8472 23.456 12.6812 23.4612 12.401 23.4717V25.742H12.5566C12.6397 25.742 12.7279 25.742 12.8213 25.742C12.9043 25.742 12.9873 25.742 13.0703 25.742C13.1533 25.7315 13.2312 25.7211 13.3038 25.7107C13.3765 25.7002 13.4491 25.6846 13.5218 25.6637C13.5944 25.6532 13.6567 25.6324 13.7085 25.6011C13.7708 25.5697 13.8279 25.5384 13.8798 25.5071C13.9317 25.4654 13.9784 25.4184 14.0199 25.3662C14.0614 25.3036 14.0977 25.2357 14.1288 25.1627C14.16 25.1 14.1807 25.0217 14.1911 24.9278C14.2119 24.8339 14.2171 24.7295 14.2067 24.6147Z" fill="#0F8FAC"/>
<path d="M19.3127 10.6175L17.8028 11.463L16.1216 8.40981L17.5381 7.62695L17.865 8.22192L17.1023 8.64467L17.4447 9.25529L18.0985 8.89518L18.4099 9.45883L17.7561 9.83461L18.1297 10.5079L18.9858 10.0225L19.3127 10.6175Z" fill="#0F8FAC"/>
<path d="M19.717 35.0734V38.0952H14.1287V36.5139H14.8136V32.5056H14.1287V30.9556H19.6703V33.8365H18.5029L18.1604 32.5056H17.2264V33.7425H18.1293V35.2926H17.2264V36.5139H18.1915L18.2538 36.2477L18.5184 35.0734H19.717Z" fill="#0F8FAC"/>
<path d="M21.2899 9.56808C21.1758 9.81859 20.9734 10.0013 20.6829 10.1161C20.4545 10.21 20.1951 10.2152 19.9045 10.1317L19.6088 9.36454C19.9201 9.51067 20.1795 9.54721 20.3871 9.47414C20.4909 9.43239 20.5635 9.36976 20.605 9.28625C20.6465 9.21319 20.6517 9.1349 20.6206 9.0514C20.5791 8.93658 20.4493 8.84264 20.2314 8.76957C19.8786 8.64431 19.6399 8.53993 19.5154 8.45643C19.3805 8.37292 19.2715 8.2842 19.1885 8.19025C19.1054 8.09631 19.0432 7.98671 19.0017 7.86146C18.9083 7.62138 18.9135 7.3813 19.0172 7.14122C19.1314 6.91158 19.3234 6.74457 19.5932 6.64019C19.7904 6.56713 20.0187 6.54625 20.2781 6.57757L20.5894 7.39174C20.3196 7.24561 20.1017 7.20907 19.9357 7.28214C19.8526 7.31346 19.7904 7.36565 19.7489 7.43871C19.7177 7.51178 19.7125 7.57962 19.7333 7.64225C19.7748 7.74663 19.9201 7.84058 20.1691 7.92408C20.4286 8.00758 20.6154 8.08066 20.7295 8.14328C20.8437 8.19547 20.9527 8.27376 21.0564 8.37814C21.1498 8.48252 21.2277 8.60777 21.2899 8.75391C21.3937 9.03574 21.3937 9.30713 21.2899 9.56808V9.56808Z" fill="#0F8FAC"/>
<path d="M22.9867 6.42111L23.6249 9.14545L22.8933 9.31768L22.2551 6.59333L21.5857 6.7499L21.4301 6.0923L23.4848 5.60693L23.6405 6.26454L22.9867 6.42111Z" fill="#0F8FAC"/>
<path d="M26.4735 34.9794V38.0952H20.9007V36.5139H21.5234V32.5056H20.8851V30.9556H24.6833V32.5056H24.014V36.5139H24.839L25.2282 34.9794H26.4735Z" fill="#0F8FAC"/>
<path d="M27.7495 23.55V28.1532H19.2346V25.742H20.2931V19.6513H19.2346V17.2871H27.6872V21.6555L25.8971 21.6711L25.399 19.6513H23.9668V21.5302H25.3367V23.8944H23.9668V25.742H25.4301L25.5235 25.3349L25.9438 23.55H27.7495Z" fill="#0F8FAC"/>
<path d="M28.2792 7.75186C28.2896 8.065 28.1962 8.32073 27.999 8.51905C27.8122 8.71738 27.5632 8.81654 27.2518 8.81654C27.0028 8.82698 26.7589 8.74348 26.5202 8.56603L26.5046 7.73619C26.7433 7.98671 26.9768 8.11197 27.2051 8.11197C27.3089 8.11197 27.3919 8.08066 27.4542 8.01803C27.5268 7.9554 27.5632 7.88233 27.5632 7.79883C27.5632 7.67357 27.4698 7.53788 27.283 7.39175C27.0028 7.15167 26.816 6.97422 26.7226 6.8594C26.6292 6.73414 26.5617 6.61411 26.5202 6.49929C26.4683 6.37403 26.4424 6.24877 26.4424 6.12351C26.4424 5.86256 26.5358 5.63814 26.7226 5.45026C26.9094 5.28325 27.1429 5.19452 27.4231 5.18408C27.641 5.18408 27.8641 5.24671 28.0924 5.37197V6.23311C27.8953 6.00347 27.7033 5.88865 27.5165 5.88865C27.4438 5.89909 27.3764 5.93041 27.3141 5.9826C27.2518 6.03479 27.2207 6.09741 27.2207 6.17048C27.2207 6.2853 27.3193 6.42622 27.5165 6.59323C27.7344 6.76023 27.8901 6.89071 27.9835 6.98465C28.0665 7.0786 28.1391 7.19342 28.2014 7.32911C28.2533 7.45437 28.2792 7.59529 28.2792 7.75186V7.75186Z" fill="#0F8FAC"/>
<path d="M30.1939 6.10802L30.1005 6.8126L30.8477 6.90653L30.7699 7.54848L30.0227 7.45454L29.9293 8.22174L30.91 8.34699L30.8166 9.02025L29.1042 8.80106L29.5401 5.34082L31.159 5.56002L31.0656 6.21763L30.1939 6.10802Z" fill="#0F8FAC"/>
<path d="M32.9172 34.9794V38.0952H27.3444V36.5139H27.9671V32.5056H27.3289V30.9556H31.1271V32.5056H30.4422V36.5139H31.2827L31.6719 34.9794H32.9172Z" fill="#0F8FAC"/>
<path d="M33.3847 8.95757L33.1979 9.63083L31.6412 9.20808L32.5285 5.8418L33.2446 6.02968L32.5285 8.73837L33.3847 8.95757Z" fill="#0F8FAC"/>
<path d="M34.8642 9.53716L35.6736 9.86596L35.4246 10.4923L33.9302 9.88162L35.2378 6.65625L35.9227 6.93808L34.8642 9.53716Z" fill="#0F8FAC"/>
<path d="M37.3385 24.7555C37.3488 25.2043 37.2762 25.648 37.1205 26.0864C36.9649 26.5143 36.7521 26.8953 36.4823 27.2293C36.2021 27.5633 35.8596 27.8347 35.4549 28.0435C35.0502 28.2418 34.6143 28.341 34.1473 28.341C33.67 28.341 33.2756 28.2784 32.9643 28.1531C32.6426 28.0383 32.3105 27.8295 31.968 27.5268L31.719 28.1531H29.5708V24.6772H31.719C31.8331 25.0008 32.0407 25.2878 32.3416 25.5384C32.6322 25.7889 32.9435 25.9141 33.2756 25.9141C33.4624 25.9141 33.6284 25.8619 33.7737 25.7576C33.919 25.6636 33.9917 25.5227 33.9917 25.3348C33.9917 25.1887 33.945 25.0582 33.8516 24.9434C33.7478 24.839 33.644 24.7607 33.5402 24.7085C33.4261 24.6563 33.286 24.6094 33.1199 24.5676C32.8605 24.4945 32.6322 24.4215 32.435 24.3484C32.2275 24.2858 32.0147 24.2127 31.7968 24.1292C31.5685 24.0353 31.3661 23.9413 31.1897 23.8474C31.0237 23.7534 30.8524 23.6491 30.676 23.5342C30.4996 23.409 30.3439 23.2733 30.209 23.1272C30.0845 22.9915 29.9651 22.8349 29.851 22.6574C29.7368 22.48 29.6434 22.2869 29.5708 22.0781C29.4981 21.8694 29.4411 21.6397 29.3996 21.3892C29.358 21.1283 29.3373 20.8517 29.3373 20.5594C29.3373 19.4947 29.5967 18.6492 30.1156 18.0229C30.6241 17.3966 31.3765 17.0835 32.3727 17.0835C33.2237 17.0835 33.9138 17.2818 34.4431 17.6785C34.4638 17.6263 34.5365 17.4958 34.661 17.287H36.5601V20.7316H34.5054C34.4327 20.3872 34.2563 20.0792 33.9761 19.8078C33.7063 19.5469 33.4053 19.4164 33.0732 19.4164C32.8761 19.4164 32.7204 19.4686 32.6062 19.573C32.4921 19.6669 32.435 19.8183 32.435 20.027C32.435 20.1627 32.4921 20.2776 32.6062 20.3715C32.7152 20.4654 32.8553 20.5594 33.0421 20.622C33.2289 20.6951 33.4468 20.7681 33.6959 20.8412C33.9346 20.9143 34.1888 20.9978 34.4587 21.0917C34.7285 21.1857 34.9983 21.2901 35.2681 21.4049C35.5276 21.5197 35.7818 21.6763 36.0309 21.8746C36.2799 22.0625 36.4979 22.2869 36.6847 22.5478C36.8715 22.7984 37.0219 23.1115 37.1361 23.4873C37.2606 23.863 37.3281 24.2858 37.3385 24.7555V24.7555Z" fill="#0F8FAC"/>
<path d="M38.1322 8.78565L37.7897 9.39628L38.4435 9.77205L38.1166 10.3357L37.4628 9.95993L37.0892 10.6175L37.9454 11.1186L37.6029 11.7135L36.1085 10.8524L37.8208 7.83057L39.2374 8.62908L38.8949 9.22405L38.1322 8.78565Z" fill="#0F8FAC"/>
<path d="M39.3471 35.0734V38.0952H33.7432V36.5139H34.4437V32.5056H33.7432V30.9556H39.2848V33.8365H38.1174L37.7905 32.5056H36.8565V33.7425H37.7593V35.2926H36.8565V36.5139H37.806L37.8683 36.2477L38.1485 35.0734H39.3471Z" fill="#0F8FAC"/>
<path d="M40.9815 39.3164C37.7125 43.1054 32.8869 45.501 27.5009 45.501C22.1149 45.501 17.2893 43.1054 14.0048 39.3164H15.1411C18.2544 42.6044 22.6442 44.6398 27.5009 44.6398C32.3577 44.6398 36.7318 42.6044 39.8451 39.3164H40.9815Z" fill="#0F8FAC"/>
<path d="M41.2465 15.9879H40.1257C37.0124 12.5277 32.4982 10.3513 27.5013 10.3513C22.4889 10.3513 17.9902 12.5277 14.8613 15.9879H13.7561C17.0251 12.0267 21.9752 9.50586 27.5013 9.50586C33.0274 9.50586 37.962 12.0267 41.2465 15.9879V15.9879Z" fill="#0F8FAC"/>
<path fill-rule="evenodd" clip-rule="evenodd" d="M41.6975 11.0712C41.6559 11.2486 41.5833 11.4052 41.4795 11.5409C41.3446 11.7184 41.1993 11.8279 41.0437 11.8697C40.8776 11.9219 40.6804 11.9323 40.4521 11.901L39.9696 13.5137L39.378 13.044L39.9696 11.306H39.954L38.8955 12.6526L38.304 12.1985L40.4521 9.4585L41.2149 10.0691C41.3706 10.1839 41.5003 10.3353 41.6041 10.5232C41.7078 10.7006 41.739 10.8833 41.6975 11.0712V11.0712ZM40.8102 10.4606L40.7012 10.3666L40.0785 11.1495C40.2653 11.306 40.4158 11.3635 40.53 11.3217C40.6337 11.2904 40.7323 11.2173 40.8257 11.1025C41.0333 10.8415 41.0281 10.6276 40.8102 10.4606V10.4606Z" fill="#0F8FAC"/>
<path d="M47.6127 36.5139V38.0952H46.4607C46.3466 38.0952 46.2584 38.0952 46.1961 38.0952C46.1339 38.0952 46.0456 38.09 45.9315 38.0796C45.8173 38.0691 45.7291 38.0587 45.6669 38.0483C45.5942 38.0378 45.5164 38.0169 45.4334 37.9856C45.34 37.9647 45.2621 37.9334 45.1999 37.8917C45.148 37.8604 45.0909 37.8134 45.0286 37.7508C44.9664 37.6986 44.9145 37.6359 44.873 37.5629C44.8418 37.4898 44.8159 37.4011 44.7951 37.2967C44.7744 37.2028 44.764 37.0932 44.764 36.9679V36.1068C44.764 35.9293 44.7536 35.7884 44.7329 35.684C44.7121 35.5588 44.6758 35.4439 44.6239 35.3396C44.5616 35.2352 44.4786 35.1621 44.3748 35.1204C44.2607 35.0682 44.1154 35.0421 43.939 35.0421H43.5187V36.5139H44.0479V38.0952C43.28 38.0952 42.0969 38.0952 40.4988 38.0952V36.5139H41.1681V32.5056H40.4988V30.9556H44.9352C45.2984 30.9556 45.615 30.9921 45.8848 31.0652C46.165 31.1278 46.4089 31.2374 46.6164 31.394C46.824 31.5505 46.9796 31.7593 47.0834 32.0203C47.1976 32.2708 47.2546 32.5787 47.2546 32.944C47.2546 33.372 47.1145 33.7217 46.8343 33.993C46.5645 34.2644 46.1805 34.4471 45.6824 34.541C46.1183 34.6454 46.4296 34.7863 46.6164 34.9638C46.8032 35.1412 46.8966 35.3657 46.8966 35.637V36.0441C46.8966 36.1276 46.9018 36.1955 46.9122 36.2477C46.9226 36.2999 46.9537 36.3468 47.0056 36.3886C47.0471 36.4303 47.1197 36.4617 47.2235 36.4825C47.3169 36.5034 47.4466 36.5139 47.6127 36.5139V36.5139Z" fill="#0F8FAC"/>
<path d="M47.8927 17.2871V21.6868H46.0248L45.62 19.6513H44.904V25.742H46.0092V28.1532H40.0784V25.742H41.168V19.6513H40.4987L40.0784 21.6868H38.1948V17.2871H47.8927Z" fill="#0F8FAC"/>
<path fill-rule="evenodd" clip-rule="evenodd" d="M54.4152 28.435C53.559 29.7032 53.2789 31.9266 53.7925 33.367C54.3062 34.8075 53.7147 36.7333 52.4694 37.6258C51.2396 38.5339 50.2123 40.5223 50.2123 42.0567C50.1967 43.5911 48.9981 45.1882 47.5193 45.6109C46.056 46.0336 44.4215 47.5524 43.8923 48.9928C43.363 50.4333 41.6818 51.5136 40.1563 51.4197C38.6308 51.2944 36.576 52.1713 35.5953 53.3299C34.5991 54.5042 32.6533 54.9426 31.2678 54.3163C29.8669 53.69 27.6409 53.7996 26.3177 54.5668C24.9945 55.3183 23.002 55.0678 21.9124 54.0031C20.8227 52.9384 18.6901 52.2652 17.1802 52.5314C15.6858 52.7819 13.9112 51.8581 13.2418 50.4803C12.5725 49.1024 10.7979 47.7403 9.30353 47.4741C7.79358 47.1923 6.4393 45.7205 6.28364 44.1861C6.12797 42.6674 4.92935 40.7885 3.6062 40.0056C2.28305 39.2228 1.52029 37.3752 1.89388 35.8878C2.26748 34.4004 1.76935 32.2084 0.788658 31.0341C-0.176464 29.8442 -0.269861 27.84 0.586296 26.5718C1.44245 25.3036 1.72265 23.0803 1.20896 21.6398C0.695261 20.1837 1.28679 18.2735 2.51654 17.3654C3.76186 16.473 4.77368 14.4845 4.78925 12.9501C4.78925 11.4157 6.00344 9.80301 7.46669 9.39593C8.9455 8.97318 10.58 7.45443 11.1092 6.01398C11.6385 4.57352 13.3197 3.47752 14.8296 3.58712C16.3551 3.69672 18.4099 2.83558 19.4062 1.66129C20.3869 0.502664 22.3327 0.0486085 23.7337 0.674894C25.1191 1.30118 27.3451 1.20724 28.6682 0.440037C29.9914 -0.327163 31.9839 -0.0609954 33.0736 1.00369C34.1788 2.06838 36.2958 2.74164 37.8058 2.47547C39.3157 2.22495 41.0903 3.13306 41.7597 4.52655C42.4134 5.90438 44.188 7.25089 45.698 7.53272C47.1924 7.81455 48.5466 9.28633 48.7023 10.8051C48.858 12.3395 50.0722 14.2183 51.3797 15.0012C52.7029 15.7684 53.4812 17.6316 53.1076 19.119C52.734 20.6064 53.2166 22.7828 54.1973 23.9727C55.178 25.147 55.2714 27.1511 54.4152 28.435V28.435ZM52.3604 27.4956C52.3604 13.686 41.2304 2.49112 27.5008 2.49112C13.7711 2.49112 2.64107 13.686 2.64107 27.4956C2.64107 41.3208 13.7711 52.5157 27.5008 52.5157C41.2304 52.5157 52.3604 41.3208 52.3604 27.4956ZM51.1618 27.4956C51.1618 40.6476 40.561 51.3101 27.5008 51.3101C14.4249 51.3101 3.82412 40.6476 3.82412 27.4956C3.82412 14.3592 14.4249 3.69672 27.5008 3.69672C40.561 3.69672 51.1618 14.3592 51.1618 27.4956V27.4956ZM50.6481 27.4956C50.6481 14.6411 40.2808 4.21341 27.5008 4.21341C14.7051 4.21341 4.33783 14.6411 4.33783 27.4956C4.33783 40.3658 14.7051 50.7934 27.5008 50.7934C40.2808 50.7934 50.6481 40.3658 50.6481 27.4956Z" fill="#0F8FAC"/>
<path d="M13.2419 35.8565C13.2419 36.1592 13.1901 36.4515 13.0863 36.7333C12.9929 37.0152 12.8528 37.2657 12.666 37.4849C12.4896 37.7041 12.2664 37.8815 11.9966 38.0172C11.7372 38.1529 11.4518 38.2208 11.1405 38.2208C10.8291 38.2208 10.5697 38.179 10.3621 38.0955C10.1546 38.012 9.93666 37.8763 9.70835 37.6884L9.55269 38.0955H8.13613V35.8096H9.53712C9.62014 36.0288 9.75505 36.2167 9.94185 36.3732C10.139 36.5402 10.3466 36.6237 10.5645 36.6237C10.689 36.6237 10.798 36.5924 10.8914 36.5298C10.9848 36.4567 11.0315 36.3628 11.0315 36.248C11.0315 36.1436 11.0004 36.0549 10.9381 35.9818C10.8758 35.9192 10.8136 35.8565 10.7357 35.8252C10.6631 35.7939 10.5749 35.7678 10.4711 35.7469C10.2947 35.6948 10.139 35.6478 10.0041 35.606C9.87958 35.5643 9.73948 35.5121 9.58382 35.4495C9.43853 35.3868 9.30881 35.3294 9.19465 35.2772C9.0805 35.2146 8.96635 35.1415 8.8522 35.058C8.73804 34.9745 8.63945 34.8858 8.55643 34.7919C8.47341 34.7084 8.39039 34.604 8.30737 34.4787C8.23473 34.3639 8.17764 34.2386 8.13613 34.1029C8.08425 33.9672 8.04792 33.8159 8.02717 33.6489C7.99603 33.4819 7.98047 33.3044 7.98047 33.1165C7.98047 32.4172 8.14651 31.8588 8.4786 31.4412C8.82106 31.0237 9.31918 30.8149 9.97298 30.8149C10.5334 30.8149 10.99 30.9506 11.3428 31.222C11.3532 31.1803 11.3999 31.0916 11.4829 30.9559H12.7282V33.2261H11.374C11.3221 32.9965 11.2079 32.793 11.0315 32.6155C10.8551 32.4381 10.6527 32.3493 10.4244 32.3493C10.2999 32.3493 10.2013 32.3859 10.1286 32.4589C10.056 32.5216 10.0197 32.6207 10.0197 32.7564C10.0197 32.8399 10.056 32.9182 10.1286 32.9913C10.2013 33.0539 10.2999 33.1061 10.4244 33.1479C10.5386 33.2001 10.6787 33.247 10.8447 33.2888C11.0004 33.3305 11.1664 33.3827 11.3428 33.4453C11.5193 33.508 11.6957 33.581 11.8721 33.6645C12.0433 33.7428 12.2146 33.8368 12.3858 33.962C12.5414 34.0977 12.6815 34.2491 12.8061 34.4161C12.9306 34.5727 13.0344 34.7762 13.1174 35.0267C13.1901 35.2772 13.2316 35.5538 13.2419 35.8565V35.8565Z" fill="#0F8FAC"/>
<path fill-rule="evenodd" clip-rule="evenodd" d="M16.7285 11.8541C16.687 12.0941 16.5676 12.2924 16.3704 12.449L15.3742 13.2162L13.2727 10.4449L14.1133 9.80296C14.352 9.61507 14.5959 9.53157 14.8449 9.55245C15.1044 9.56289 15.3119 9.67248 15.4676 9.88124C15.5921 10.0483 15.6648 10.2048 15.6855 10.351C15.6959 10.4971 15.6648 10.6589 15.5921 10.8363C15.81 10.7841 15.9917 10.7894 16.1369 10.852C16.2822 10.9042 16.4223 11.019 16.5572 11.1964C16.7129 11.3948 16.77 11.614 16.7285 11.8541V11.8541ZM15.0473 10.7894C15.0577 10.6745 15.0213 10.5649 14.9383 10.4606C14.7515 10.21 14.5336 10.184 14.2845 10.3823L14.2067 10.4292L14.7515 11.1651L14.8761 11.0712C14.9798 10.9877 15.0369 10.8937 15.0473 10.7894V10.7894ZM15.9657 11.901C15.9761 11.7862 15.9398 11.6766 15.8567 11.5722C15.6699 11.3217 15.452 11.2956 15.203 11.4939L15.0784 11.5879L15.6388 12.3081L15.81 12.1672C15.9034 12.0941 15.9553 12.0054 15.9657 11.901Z" fill="#0F8FAC"/>
<path fill-rule="evenodd" clip-rule="evenodd" d="M17.9115 25.3349C17.9115 25.8359 17.8129 26.2691 17.6157 26.6344C17.4186 27.0102 17.1436 27.3025 16.7907 27.5112C16.4379 27.7304 16.028 27.8922 15.561 27.9966C15.1043 28.101 14.5906 28.1532 14.0199 28.1532H7.74658V25.742H8.89851V19.6513H7.79328V17.2871H13.2104C13.7501 17.2871 14.2274 17.308 14.6425 17.3497C15.0473 17.4019 15.4364 17.4907 15.81 17.6159C16.1732 17.7412 16.469 17.9082 16.6973 18.1169C16.936 18.3257 17.1228 18.5919 17.2577 18.9155C17.3822 19.2495 17.4445 19.6409 17.4445 20.0897C17.4445 20.643 17.294 21.1283 16.9931 21.5459C16.6921 21.9738 16.303 22.2765 15.8256 22.454V22.4696C16.4898 22.6575 17.0035 22.9968 17.3667 23.4873C17.7299 23.9675 17.9115 24.5833 17.9115 25.3349V25.3349ZM12.401 21.7181H12.6812C12.9095 21.7181 13.1015 21.7024 13.2571 21.6711C13.4128 21.6502 13.5633 21.6033 13.7085 21.5302C13.8642 21.4571 13.9784 21.3423 14.051 21.1857C14.1288 21.0292 14.16 20.8256 14.16 20.5751C14.16 20.2724 14.0718 20.0428 13.8953 19.8862C13.7085 19.7296 13.4906 19.6513 13.2416 19.6513H12.401V21.7181ZM14.2067 24.6147C14.2067 24.4163 14.1807 24.2441 14.1288 24.098C14.0666 23.9518 13.9939 23.837 13.9109 23.7535C13.8175 23.67 13.7085 23.6074 13.584 23.5656C13.4595 23.5134 13.3453 23.4821 13.2416 23.4717C13.1378 23.4612 13.0236 23.456 12.8991 23.456C12.8472 23.456 12.6812 23.4612 12.401 23.4717V25.742H12.5566C12.6397 25.742 12.7279 25.742 12.8213 25.742C12.9043 25.742 12.9873 25.742 13.0703 25.742C13.1533 25.7315 13.2312 25.7211 13.3038 25.7107C13.3765 25.7002 13.4491 25.6846 13.5218 25.6637C13.5944 25.6532 13.6567 25.6324 13.7085 25.6011C13.7708 25.5697 13.8279 25.5384 13.8798 25.5071C13.9317 25.4654 13.9784 25.4184 14.0199 25.3662C14.0614 25.3036 14.0977 25.2357 14.1288 25.1627C14.16 25.1 14.1807 25.0217 14.1911 24.9278C14.2119 24.8339 14.2171 24.7295 14.2067 24.6147Z" fill="#0F8FAC"/>
<path d="M19.3126 10.617L17.8026 11.4625L16.1215 8.40932L17.538 7.62646L17.8649 8.22143L17.1022 8.64418L17.4446 9.2548L18.0984 8.89469L18.4097 9.45834L17.7559 9.83412L18.1295 10.5074L18.9857 10.022L19.3126 10.617Z" fill="#0F8FAC"/>
<path d="M19.7179 35.0739V38.0957H14.1295V36.5143H14.8144V32.5061H14.1295V30.9561H19.6712V33.837H18.5037L18.1612 32.5061H17.2273V33.743H18.1301V35.2931H17.2273V36.5143H18.1924L18.2546 36.2482L18.5193 35.0739H19.7179Z" fill="#0F8FAC"/>
<path d="M21.2899 9.56808C21.1758 9.81859 20.9734 10.0013 20.6829 10.1161C20.4545 10.21 20.1951 10.2152 19.9045 10.1317L19.6088 9.36454C19.9201 9.51067 20.1795 9.54721 20.3871 9.47414C20.4909 9.43239 20.5635 9.36976 20.605 9.28625C20.6465 9.21319 20.6517 9.1349 20.6206 9.0514C20.5791 8.93658 20.4493 8.84264 20.2314 8.76957C19.8786 8.64431 19.6399 8.53993 19.5154 8.45643C19.3805 8.37292 19.2715 8.2842 19.1885 8.19025C19.1054 8.09631 19.0432 7.98671 19.0017 7.86146C18.9083 7.62138 18.9135 7.3813 19.0172 7.14122C19.1314 6.91158 19.3234 6.74457 19.5932 6.64019C19.7904 6.56713 20.0187 6.54625 20.2781 6.57757L20.5894 7.39174C20.3196 7.24561 20.1017 7.20907 19.9357 7.28214C19.8526 7.31346 19.7904 7.36565 19.7489 7.43871C19.7177 7.51178 19.7125 7.57962 19.7333 7.64225C19.7748 7.74663 19.9201 7.84058 20.1691 7.92408C20.4286 8.00758 20.6154 8.08066 20.7295 8.14328C20.8437 8.19547 20.9527 8.27376 21.0564 8.37814C21.1498 8.48252 21.2277 8.60777 21.2899 8.75391C21.3937 9.03574 21.3937 9.30713 21.2899 9.56808V9.56808Z" fill="#0F8FAC"/>
<path d="M22.9868 6.42111L23.625 9.14545L22.8934 9.31768L22.2552 6.59333L21.5858 6.7499L21.4302 6.0923L23.485 5.60693L23.6406 6.26454L22.9868 6.42111Z" fill="#0F8FAC"/>
<path d="M26.4735 34.9799V38.0957H20.9007V36.5143H21.5234V32.5061H20.8851V30.9561H24.6833V32.5061H24.014V36.5143H24.839L25.2282 34.9799H26.4735Z" fill="#0F8FAC"/>
<path d="M27.7495 23.55V28.1532H19.2346V25.742H20.2931V19.6513H19.2346V17.2871H27.6872V21.6555L25.8971 21.6711L25.399 19.6513H23.9668V21.5302H25.3367V23.8944H23.9668V25.742H25.4301L25.5235 25.3349L25.9438 23.55H27.7495Z" fill="#0F8FAC"/>
<path d="M28.2793 7.75186C28.2897 8.065 28.1963 8.32073 27.9992 8.51905C27.8124 8.71738 27.5633 8.81654 27.252 8.81654C27.0029 8.82698 26.759 8.74348 26.5203 8.56603L26.5048 7.73619C26.7435 7.98671 26.9769 8.11197 27.2053 8.11197C27.309 8.11197 27.3921 8.08066 27.4543 8.01803C27.527 7.9554 27.5633 7.88233 27.5633 7.79883C27.5633 7.67357 27.4699 7.53788 27.2831 7.39175C27.0029 7.15167 26.8161 6.97422 26.7227 6.8594C26.6293 6.73414 26.5618 6.61411 26.5203 6.49929C26.4684 6.37403 26.4425 6.24877 26.4425 6.12351C26.4425 5.86256 26.5359 5.63814 26.7227 5.45026C26.9095 5.28325 27.143 5.19452 27.4232 5.18408C27.6411 5.18408 27.8642 5.24671 28.0925 5.37197V6.23311C27.8954 6.00347 27.7034 5.88865 27.5166 5.88865C27.4439 5.89909 27.3765 5.93041 27.3142 5.9826C27.252 6.03479 27.2208 6.09741 27.2208 6.17048C27.2208 6.2853 27.3194 6.42622 27.5166 6.59323C27.7345 6.76023 27.8902 6.89071 27.9836 6.98465C28.0666 7.0786 28.1393 7.19342 28.2015 7.32911C28.2534 7.45437 28.2793 7.59529 28.2793 7.75186V7.75186Z" fill="#0F8FAC"/>
<path d="M30.1938 6.10802L30.1004 6.8126L30.8476 6.90653L30.7697 7.54848L30.0226 7.45454L29.9291 8.22174L30.9098 8.34699L30.8164 9.02025L29.1041 8.80106L29.54 5.34082L31.1589 5.56002L31.0655 6.21763L30.1938 6.10802Z" fill="#0F8FAC"/>
<path d="M32.9181 34.9799V38.0957H27.3453V36.5143H27.9679V32.5061H27.3297V30.9561H31.1279V32.5061H30.443V36.5143H31.2836L31.6728 34.9799H32.9181Z" fill="#0F8FAC"/>
<path d="M33.3846 8.95757L33.1978 9.63083L31.6411 9.20808L32.5284 5.8418L33.2445 6.02968L32.5284 8.73837L33.3846 8.95757Z" fill="#0F8FAC"/>
<path d="M34.8634 9.53667L35.6729 9.86548L35.4238 10.4918L33.9294 9.88113L35.237 6.65576L35.922 6.93759L34.8634 9.53667Z" fill="#0F8FAC"/>
<path d="M37.3385 24.7555C37.3488 25.2043 37.2762 25.648 37.1205 26.0864C36.9649 26.5143 36.7521 26.8953 36.4823 27.2293C36.2021 27.5633 35.8596 27.8347 35.4549 28.0435C35.0502 28.2418 34.6143 28.341 34.1473 28.341C33.67 28.341 33.2756 28.2784 32.9643 28.1531C32.6426 28.0383 32.3105 27.8295 31.968 27.5268L31.719 28.1531H29.5708V24.6772H31.719C31.8331 25.0008 32.0407 25.2878 32.3416 25.5384C32.6322 25.7889 32.9435 25.9141 33.2756 25.9141C33.4624 25.9141 33.6284 25.8619 33.7737 25.7576C33.919 25.6636 33.9917 25.5227 33.9917 25.3348C33.9917 25.1887 33.945 25.0582 33.8516 24.9434C33.7478 24.839 33.644 24.7607 33.5402 24.7085C33.4261 24.6563 33.286 24.6094 33.1199 24.5676C32.8605 24.4945 32.6322 24.4215 32.435 24.3484C32.2275 24.2858 32.0147 24.2127 31.7968 24.1292C31.5685 24.0353 31.3661 23.9413 31.1897 23.8474C31.0237 23.7534 30.8524 23.6491 30.676 23.5342C30.4996 23.409 30.3439 23.2733 30.209 23.1272C30.0845 22.9915 29.9651 22.8349 29.851 22.6574C29.7368 22.48 29.6434 22.2869 29.5708 22.0781C29.4981 21.8694 29.4411 21.6397 29.3996 21.3892C29.358 21.1283 29.3373 20.8517 29.3373 20.5594C29.3373 19.4947 29.5967 18.6492 30.1156 18.0229C30.6241 17.3966 31.3765 17.0835 32.3727 17.0835C33.2237 17.0835 33.9138 17.2818 34.4431 17.6785C34.4638 17.6263 34.5365 17.4958 34.661 17.287H36.5601V20.7316H34.5054C34.4327 20.3872 34.2563 20.0792 33.9761 19.8078C33.7063 19.5469 33.4053 19.4164 33.0732 19.4164C32.8761 19.4164 32.7204 19.4686 32.6062 19.573C32.4921 19.6669 32.435 19.8183 32.435 20.027C32.435 20.1627 32.4921 20.2776 32.6062 20.3715C32.7152 20.4654 32.8553 20.5594 33.0421 20.622C33.2289 20.6951 33.4468 20.7681 33.6959 20.8412C33.9346 20.9143 34.1888 20.9978 34.4587 21.0917C34.7285 21.1857 34.9983 21.2901 35.2681 21.4049C35.5276 21.5197 35.7818 21.6763 36.0309 21.8746C36.2799 22.0625 36.4979 22.2869 36.6847 22.5478C36.8715 22.7984 37.0219 23.1115 37.1361 23.4873C37.2606 23.863 37.3281 24.2858 37.3385 24.7555V24.7555Z" fill="#0F8FAC"/>
<path d="M38.1329 8.78516L37.7904 9.39579L38.4442 9.77156L38.1173 10.3352L37.4635 9.95945L37.0899 10.617L37.9461 11.1181L37.6036 11.713L36.1093 10.8519L37.8216 7.83008L39.2381 8.62859L38.8957 9.22356L38.1329 8.78516Z" fill="#0F8FAC"/>
<path d="M39.347 35.0739V38.0957H33.743V36.5143H34.4435V32.5061H33.743V30.9561H39.2847V33.837H38.1172L37.7903 32.5061H36.8563V33.743H37.7592V35.2931H36.8563V36.5143H37.8059L37.8682 36.2482L38.1484 35.0739H39.347Z" fill="#0F8FAC"/>
<path d="M40.9815 39.3169C37.7125 43.1059 32.8869 45.5015 27.5009 45.5015C22.1149 45.5015 17.2893 43.1059 14.0048 39.3169H15.1411C18.2544 42.6049 22.6442 44.6403 27.5009 44.6403C32.3577 44.6403 36.7318 42.6049 39.8451 39.3169H40.9815Z" fill="#0F8FAC"/>
<path d="M41.2457 15.9874H40.1249C37.0116 12.5272 32.4973 10.3509 27.5005 10.3509C22.488 10.3509 17.9893 12.5272 14.8605 15.9874H13.7552C17.0242 12.0262 21.9744 9.50537 27.5005 9.50537C33.0266 9.50537 37.9611 12.0262 41.2457 15.9874V15.9874Z" fill="#0F8FAC"/>
<path fill-rule="evenodd" clip-rule="evenodd" d="M41.6975 11.0712C41.6559 11.2486 41.5833 11.4052 41.4795 11.5409C41.3446 11.7184 41.1993 11.8279 41.0437 11.8697C40.8776 11.9219 40.6804 11.9323 40.4521 11.901L39.9696 13.5137L39.378 13.044L39.9696 11.306H39.954L38.8955 12.6526L38.304 12.1985L40.4521 9.4585L41.2149 10.0691C41.3706 10.1839 41.5003 10.3353 41.6041 10.5232C41.7078 10.7006 41.739 10.8833 41.6975 11.0712V11.0712ZM40.8102 10.4606L40.7012 10.3666L40.0785 11.1495C40.2653 11.306 40.4158 11.3635 40.53 11.3217C40.6337 11.2904 40.7323 11.2173 40.8257 11.1025C41.0333 10.8415 41.0281 10.6276 40.8102 10.4606V10.4606Z" fill="#0F8FAC"/>
<path fill-rule="evenodd" clip-rule="evenodd" d="M51.1619 27.4956C51.1619 40.6476 40.5611 51.3102 27.5008 51.3102C14.425 51.3102 3.82422 40.6476 3.82422 27.4956C3.82422 14.3593 14.425 3.69678 27.5008 3.69678C40.5611 3.69678 51.1619 14.3593 51.1619 27.4956V27.4956ZM50.6482 27.4956C50.6482 14.6411 40.2809 4.21346 27.5008 4.21346C14.7052 4.21346 4.33792 14.6411 4.33792 27.4956C4.33792 40.3658 14.7052 50.7935 27.5008 50.7935C40.2809 50.7935 50.6482 40.3658 50.6482 27.4956Z" fill="#0F8FAC"/>
<path d="M47.6125 36.5143V38.0957H46.4606C46.3465 38.0957 46.2583 38.0957 46.196 38.0957C46.1337 38.0957 46.0455 38.0905 45.9314 38.0801C45.8172 38.0696 45.729 38.0592 45.6667 38.0487C45.5941 38.0383 45.5163 38.0174 45.4332 37.9861C45.3398 37.9652 45.262 37.9339 45.1997 37.8922C45.1479 37.8609 45.0908 37.8139 45.0285 37.7513C44.9662 37.6991 44.9144 37.6364 44.8728 37.5634C44.8417 37.4903 44.8158 37.4016 44.795 37.2972C44.7743 37.2033 44.7639 37.0937 44.7639 36.9684V36.1073C44.7639 35.9298 44.7535 35.7889 44.7327 35.6845C44.712 35.5592 44.6757 35.4444 44.6238 35.3401C44.5615 35.2357 44.4785 35.1626 44.3747 35.1209C44.2606 35.0687 44.1153 35.0426 43.9389 35.0426H43.5186V36.5143H44.0478V38.0957C43.2799 38.0957 42.0968 38.0957 40.4987 38.0957V36.5143H41.168V32.5061H40.4987V30.9561H44.9351C45.2983 30.9561 45.6148 30.9926 45.8847 31.0656C46.1649 31.1283 46.4087 31.2379 46.6163 31.3945C46.8238 31.551 46.9795 31.7598 47.0833 32.0207C47.1974 32.2713 47.2545 32.5792 47.2545 32.9445C47.2545 33.3725 47.1144 33.7221 46.8342 33.9935C46.5644 34.2649 46.1804 34.4476 45.6823 34.5415C46.1182 34.6459 46.4295 34.7868 46.6163 34.9643C46.8031 35.1417 46.8965 35.3661 46.8965 35.6375V36.0446C46.8965 36.1281 46.9017 36.196 46.9121 36.2482C46.9224 36.3004 46.9536 36.3473 47.0054 36.3891C47.047 36.4308 47.1196 36.4621 47.2234 36.483C47.3168 36.5039 47.4465 36.5143 47.6125 36.5143V36.5143Z" fill="#0F8FAC"/>
<path d="M47.8927 17.2871V21.6868H46.0248L45.62 19.6513H44.904V25.742H46.0092V28.1532H40.0784V25.742H41.168V19.6513H40.4987L40.0784 21.6868H38.1948V17.2871H47.8927Z" fill="#0F8FAC"/>
<path d="M13.2419 35.8565C13.2419 36.1592 13.1901 36.4515 13.0863 36.7333C12.9929 37.0152 12.8528 37.2657 12.666 37.4849C12.4896 37.7041 12.2664 37.8815 11.9966 38.0172C11.7372 38.1529 11.4518 38.2208 11.1405 38.2208C10.8291 38.2208 10.5697 38.179 10.3621 38.0955C10.1546 38.012 9.93666 37.8763 9.70835 37.6884L9.55269 38.0955H8.13613V35.8096H9.53712C9.62014 36.0288 9.75505 36.2167 9.94185 36.3732C10.139 36.5402 10.3466 36.6237 10.5645 36.6237C10.689 36.6237 10.798 36.5924 10.8914 36.5298C10.9848 36.4567 11.0315 36.3628 11.0315 36.248C11.0315 36.1436 11.0004 36.0549 10.9381 35.9818C10.8758 35.9192 10.8136 35.8565 10.7357 35.8252C10.6631 35.7939 10.5749 35.7678 10.4711 35.7469C10.2947 35.6948 10.139 35.6478 10.0041 35.606C9.87958 35.5643 9.73948 35.5121 9.58382 35.4495C9.43853 35.3868 9.30881 35.3294 9.19465 35.2772C9.0805 35.2146 8.96635 35.1415 8.8522 35.058C8.73804 34.9745 8.63945 34.8858 8.55643 34.7919C8.47341 34.7084 8.39039 34.604 8.30737 34.4787C8.23473 34.3639 8.17764 34.2386 8.13613 34.1029C8.08425 33.9672 8.04792 33.8159 8.02717 33.6489C7.99603 33.4819 7.98047 33.3044 7.98047 33.1165C7.98047 32.4172 8.14651 31.8588 8.4786 31.4412C8.82106 31.0237 9.31918 30.8149 9.97298 30.8149C10.5334 30.8149 10.99 30.9506 11.3428 31.222C11.3532 31.1803 11.3999 31.0916 11.4829 30.9559H12.7282V33.2261H11.374C11.3221 32.9965 11.2079 32.793 11.0315 32.6155C10.8551 32.4381 10.6527 32.3493 10.4244 32.3493C10.2999 32.3493 10.2013 32.3859 10.1286 32.4589C10.056 32.5216 10.0197 32.6207 10.0197 32.7564C10.0197 32.8399 10.056 32.9182 10.1286 32.9913C10.2013 33.0539 10.2999 33.1061 10.4244 33.1479C10.5386 33.2001 10.6787 33.247 10.8447 33.2888C11.0004 33.3305 11.1664 33.3827 11.3428 33.4453C11.5193 33.508 11.6957 33.581 11.8721 33.6645C12.0433 33.7428 12.2146 33.8368 12.3858 33.962C12.5414 34.0977 12.6815 34.2491 12.8061 34.4161C12.9306 34.5727 13.0344 34.7762 13.1174 35.0267C13.1901 35.2772 13.2316 35.5538 13.2419 35.8565V35.8565Z" fill="#0F8FAC"/>
<path fill-rule="evenodd" clip-rule="evenodd" d="M16.7285 11.8541C16.687 12.0941 16.5676 12.2924 16.3704 12.449L15.3742 13.2162L13.2727 10.4449L14.1133 9.80296C14.352 9.61507 14.5959 9.53157 14.8449 9.55245C15.1044 9.56289 15.3119 9.67248 15.4676 9.88124C15.5921 10.0483 15.6648 10.2048 15.6855 10.351C15.6959 10.4971 15.6648 10.6589 15.5921 10.8363C15.81 10.7841 15.9917 10.7894 16.1369 10.852C16.2822 10.9042 16.4223 11.019 16.5572 11.1964C16.7129 11.3948 16.77 11.614 16.7285 11.8541V11.8541ZM15.0473 10.7894C15.0577 10.6745 15.0213 10.5649 14.9383 10.4606C14.7515 10.21 14.5336 10.184 14.2845 10.3823L14.2067 10.4292L14.7515 11.1651L14.8761 11.0712C14.9798 10.9877 15.0369 10.8937 15.0473 10.7894V10.7894ZM15.9657 11.901C15.9761 11.7862 15.9398 11.6766 15.8567 11.5722C15.6699 11.3217 15.452 11.2956 15.203 11.4939L15.0784 11.5879L15.6388 12.3081L15.81 12.1672C15.9034 12.0941 15.9553 12.0054 15.9657 11.901Z" fill="#0F8FAC"/>
<path fill-rule="evenodd" clip-rule="evenodd" d="M17.9115 25.3349C17.9115 25.8359 17.8129 26.2691 17.6157 26.6344C17.4186 27.0102 17.1436 27.3025 16.7907 27.5112C16.4379 27.7304 16.028 27.8922 15.561 27.9966C15.1043 28.101 14.5906 28.1532 14.0199 28.1532H7.74658V25.742H8.89851V19.6513H7.79328V17.2871H13.2104C13.7501 17.2871 14.2274 17.308 14.6425 17.3497C15.0473 17.4019 15.4364 17.4907 15.81 17.6159C16.1732 17.7412 16.469 17.9082 16.6973 18.1169C16.936 18.3257 17.1228 18.5919 17.2577 18.9155C17.3822 19.2495 17.4445 19.6409 17.4445 20.0897C17.4445 20.643 17.294 21.1283 16.9931 21.5459C16.6921 21.9738 16.303 22.2765 15.8256 22.454V22.4696C16.4898 22.6575 17.0035 22.9968 17.3667 23.4873C17.7299 23.9675 17.9115 24.5833 17.9115 25.3349V25.3349ZM12.401 21.7181H12.6812C12.9095 21.7181 13.1015 21.7024 13.2571 21.6711C13.4128 21.6502 13.5633 21.6033 13.7085 21.5302C13.8642 21.4571 13.9784 21.3423 14.051 21.1857C14.1288 21.0292 14.16 20.8256 14.16 20.5751C14.16 20.2724 14.0718 20.0428 13.8953 19.8862C13.7085 19.7296 13.4906 19.6513 13.2416 19.6513H12.401V21.7181ZM14.2067 24.6147C14.2067 24.4163 14.1807 24.2441 14.1288 24.098C14.0666 23.9518 13.9939 23.837 13.9109 23.7535C13.8175 23.67 13.7085 23.6074 13.584 23.5656C13.4595 23.5134 13.3453 23.4821 13.2416 23.4717C13.1378 23.4612 13.0236 23.456 12.8991 23.456C12.8472 23.456 12.6812 23.4612 12.401 23.4717V25.742H12.5566C12.6397 25.742 12.7279 25.742 12.8213 25.742C12.9043 25.742 12.9873 25.742 13.0703 25.742C13.1533 25.7315 13.2312 25.7211 13.3038 25.7107C13.3765 25.7002 13.4491 25.6846 13.5218 25.6637C13.5944 25.6532 13.6567 25.6324 13.7085 25.6011C13.7708 25.5697 13.8279 25.5384 13.8798 25.5071C13.9317 25.4654 13.9784 25.4184 14.0199 25.3662C14.0614 25.3036 14.0977 25.2357 14.1288 25.1627C14.16 25.1 14.1807 25.0217 14.1911 24.9278C14.2119 24.8339 14.2171 24.7295 14.2067 24.6147Z" fill="#0F8FAC"/>
<path d="M19.3127 10.6175L17.8028 11.463L16.1216 8.40981L17.5381 7.62695L17.865 8.22192L17.1023 8.64467L17.4447 9.25529L18.0985 8.89518L18.4099 9.45883L17.7561 9.83461L18.1297 10.5079L18.9858 10.0225L19.3127 10.6175Z" fill="#0F8FAC"/>
<path d="M19.717 35.0734V38.0952H14.1287V36.5139H14.8136V32.5056H14.1287V30.9556H19.6703V33.8365H18.5029L18.1604 32.5056H17.2264V33.7425H18.1293V35.2926H17.2264V36.5139H18.1915L18.2538 36.2477L18.5184 35.0734H19.717Z" fill="#0F8FAC"/>
<path d="M21.2899 9.56808C21.1758 9.81859 20.9734 10.0013 20.6829 10.1161C20.4545 10.21 20.1951 10.2152 19.9045 10.1317L19.6088 9.36454C19.9201 9.51067 20.1795 9.54721 20.3871 9.47414C20.4909 9.43239 20.5635 9.36976 20.605 9.28625C20.6465 9.21319 20.6517 9.1349 20.6206 9.0514C20.5791 8.93658 20.4493 8.84264 20.2314 8.76957C19.8786 8.64431 19.6399 8.53993 19.5154 8.45643C19.3805 8.37292 19.2715 8.2842 19.1885 8.19025C19.1054 8.09631 19.0432 7.98671 19.0017 7.86146C18.9083 7.62138 18.9135 7.3813 19.0172 7.14122C19.1314 6.91158 19.3234 6.74457 19.5932 6.64019C19.7904 6.56713 20.0187 6.54625 20.2781 6.57757L20.5894 7.39174C20.3196 7.24561 20.1017 7.20907 19.9357 7.28214C19.8526 7.31346 19.7904 7.36565 19.7489 7.43871C19.7177 7.51178 19.7125 7.57962 19.7333 7.64225C19.7748 7.74663 19.9201 7.84058 20.1691 7.92408C20.4286 8.00758 20.6154 8.08066 20.7295 8.14328C20.8437 8.19547 20.9527 8.27376 21.0564 8.37814C21.1498 8.48252 21.2277 8.60777 21.2899 8.75391C21.3937 9.03574 21.3937 9.30713 21.2899 9.56808V9.56808Z" fill="#0F8FAC"/>
<path d="M22.9867 6.42111L23.6249 9.14545L22.8933 9.31768L22.2551 6.59333L21.5857 6.7499L21.4301 6.0923L23.4848 5.60693L23.6405 6.26454L22.9867 6.42111Z" fill="#0F8FAC"/>
<path d="M26.4735 34.9794V38.0952H20.9007V36.5139H21.5234V32.5056H20.8851V30.9556H24.6833V32.5056H24.014V36.5139H24.839L25.2282 34.9794H26.4735Z" fill="#0F8FAC"/>
<path d="M27.7495 23.55V28.1532H19.2346V25.742H20.2931V19.6513H19.2346V17.2871H27.6872V21.6555L25.8971 21.6711L25.399 19.6513H23.9668V21.5302H25.3367V23.8944H23.9668V25.742H25.4301L25.5235 25.3349L25.9438 23.55H27.7495Z" fill="#0F8FAC"/>
<path d="M28.2792 7.75186C28.2896 8.065 28.1962 8.32073 27.999 8.51905C27.8122 8.71738 27.5632 8.81654 27.2518 8.81654C27.0028 8.82698 26.7589 8.74348 26.5202 8.56603L26.5046 7.73619C26.7433 7.98671 26.9768 8.11197 27.2051 8.11197C27.3089 8.11197 27.3919 8.08066 27.4542 8.01803C27.5268 7.9554 27.5632 7.88233 27.5632 7.79883C27.5632 7.67357 27.4698 7.53788 27.283 7.39175C27.0028 7.15167 26.816 6.97422 26.7226 6.8594C26.6292 6.73414 26.5617 6.61411 26.5202 6.49929C26.4683 6.37403 26.4424 6.24877 26.4424 6.12351C26.4424 5.86256 26.5358 5.63814 26.7226 5.45026C26.9094 5.28325 27.1429 5.19452 27.4231 5.18408C27.641 5.18408 27.8641 5.24671 28.0924 5.37197V6.23311C27.8953 6.00347 27.7033 5.88865 27.5165 5.88865C27.4438 5.89909 27.3764 5.93041 27.3141 5.9826C27.2518 6.03479 27.2207 6.09741 27.2207 6.17048C27.2207 6.2853 27.3193 6.42622 27.5165 6.59323C27.7344 6.76023 27.8901 6.89071 27.9835 6.98465C28.0665 7.0786 28.1391 7.19342 28.2014 7.32911C28.2533 7.45437 28.2792 7.59529 28.2792 7.75186V7.75186Z" fill="#0F8FAC"/>
<path d="M30.1939 6.10802L30.1005 6.8126L30.8477 6.90653L30.7699 7.54848L30.0227 7.45454L29.9293 8.22174L30.91 8.34699L30.8166 9.02025L29.1042 8.80106L29.5401 5.34082L31.159 5.56002L31.0656 6.21763L30.1939 6.10802Z" fill="#0F8FAC"/>
<path d="M32.9172 34.9794V38.0952H27.3444V36.5139H27.9671V32.5056H27.3289V30.9556H31.1271V32.5056H30.4422V36.5139H31.2827L31.6719 34.9794H32.9172Z" fill="#0F8FAC"/>
<path d="M33.3847 8.95757L33.1979 9.63083L31.6412 9.20808L32.5285 5.8418L33.2446 6.02968L32.5285 8.73837L33.3847 8.95757Z" fill="#0F8FAC"/>
<path d="M34.8642 9.53716L35.6736 9.86596L35.4246 10.4923L33.9302 9.88162L35.2378 6.65625L35.9227 6.93808L34.8642 9.53716Z" fill="#0F8FAC"/>
<path d="M37.3385 24.7555C37.3488 25.2043 37.2762 25.648 37.1205 26.0864C36.9649 26.5143 36.7521 26.8953 36.4823 27.2293C36.2021 27.5633 35.8596 27.8347 35.4549 28.0435C35.0502 28.2418 34.6143 28.341 34.1473 28.341C33.67 28.341 33.2756 28.2784 32.9643 28.1531C32.6426 28.0383 32.3105 27.8295 31.968 27.5268L31.719 28.1531H29.5708V24.6772H31.719C31.8331 25.0008 32.0407 25.2878 32.3416 25.5384C32.6322 25.7889 32.9435 25.9141 33.2756 25.9141C33.4624 25.9141 33.6284 25.8619 33.7737 25.7576C33.919 25.6636 33.9917 25.5227 33.9917 25.3348C33.9917 25.1887 33.945 25.0582 33.8516 24.9434C33.7478 24.839 33.644 24.7607 33.5402 24.7085C33.4261 24.6563 33.286 24.6094 33.1199 24.5676C32.8605 24.4945 32.6322 24.4215 32.435 24.3484C32.2275 24.2858 32.0147 24.2127 31.7968 24.1292C31.5685 24.0353 31.3661 23.9413 31.1897 23.8474C31.0237 23.7534 30.8524 23.6491 30.676 23.5342C30.4996 23.409 30.3439 23.2733 30.209 23.1272C30.0845 22.9915 29.9651 22.8349 29.851 22.6574C29.7368 22.48 29.6434 22.2869 29.5708 22.0781C29.4981 21.8694 29.4411 21.6397 29.3996 21.3892C29.358 21.1283 29.3373 20.8517 29.3373 20.5594C29.3373 19.4947 29.5967 18.6492 30.1156 18.0229C30.6241 17.3966 31.3765 17.0835 32.3727 17.0835C33.2237 17.0835 33.9138 17.2818 34.4431 17.6785C34.4638 17.6263 34.5365 17.4958 34.661 17.287H36.5601V20.7316H34.5054C34.4327 20.3872 34.2563 20.0792 33.9761 19.8078C33.7063 19.5469 33.4053 19.4164 33.0732 19.4164C32.8761 19.4164 32.7204 19.4686 32.6062 19.573C32.4921 19.6669 32.435 19.8183 32.435 20.027C32.435 20.1627 32.4921 20.2776 32.6062 20.3715C32.7152 20.4654 32.8553 20.5594 33.0421 20.622C33.2289 20.6951 33.4468 20.7681 33.6959 20.8412C33.9346 20.9143 34.1888 20.9978 34.4587 21.0917C34.7285 21.1857 34.9983 21.2901 35.2681 21.4049C35.5276 21.5197 35.7818 21.6763 36.0309 21.8746C36.2799 22.0625 36.4979 22.2869 36.6847 22.5478C36.8715 22.7984 37.0219 23.1115 37.1361 23.4873C37.2606 23.863 37.3281 24.2858 37.3385 24.7555V24.7555Z" fill="#0F8FAC"/>
<path d="M38.1322 8.78565L37.7897 9.39628L38.4435 9.77205L38.1166 10.3357L37.4628 9.95993L37.0892 10.6175L37.9454 11.1186L37.6029 11.7135L36.1085 10.8524L37.8208 7.83057L39.2374 8.62908L38.8949 9.22405L38.1322 8.78565Z" fill="#0F8FAC"/>
<path d="M39.3471 35.0734V38.0952H33.7432V36.5139H34.4437V32.5056H33.7432V30.9556H39.2848V33.8365H38.1174L37.7905 32.5056H36.8565V33.7425H37.7593V35.2926H36.8565V36.5139H37.806L37.8683 36.2477L38.1485 35.0734H39.3471Z" fill="#0F8FAC"/>
<path d="M40.9815 39.3164C37.7125 43.1054 32.8869 45.501 27.5009 45.501C22.1149 45.501 17.2893 43.1054 14.0048 39.3164H15.1411C18.2544 42.6044 22.6442 44.6398 27.5009 44.6398C32.3577 44.6398 36.7318 42.6044 39.8451 39.3164H40.9815Z" fill="#0F8FAC"/>
<path d="M41.2465 15.9879H40.1257C37.0124 12.5277 32.4982 10.3513 27.5013 10.3513C22.4889 10.3513 17.9902 12.5277 14.8613 15.9879H13.7561C17.0251 12.0267 21.9752 9.50586 27.5013 9.50586C33.0274 9.50586 37.962 12.0267 41.2465 15.9879V15.9879Z" fill="#0F8FAC"/>
<path fill-rule="evenodd" clip-rule="evenodd" d="M41.6975 11.0712C41.6559 11.2486 41.5833 11.4052 41.4795 11.5409C41.3446 11.7184 41.1993 11.8279 41.0437 11.8697C40.8776 11.9219 40.6804 11.9323 40.4521 11.901L39.9696 13.5137L39.378 13.044L39.9696 11.306H39.954L38.8955 12.6526L38.304 12.1985L40.4521 9.4585L41.2149 10.0691C41.3706 10.1839 41.5003 10.3353 41.6041 10.5232C41.7078 10.7006 41.739 10.8833 41.6975 11.0712V11.0712ZM40.8102 10.4606L40.7012 10.3666L40.0785 11.1495C40.2653 11.306 40.4158 11.3635 40.53 11.3217C40.6337 11.2904 40.7323 11.2173 40.8257 11.1025C41.0333 10.8415 41.0281 10.6276 40.8102 10.4606V10.4606Z" fill="#0F8FAC"/>
<path fill-rule="evenodd" clip-rule="evenodd" d="M51.1619 27.4956C51.1619 40.6476 40.5611 51.3102 27.5008 51.3102C14.425 51.3102 3.82422 40.6476 3.82422 27.4956C3.82422 14.3593 14.425 3.69678 27.5008 3.69678C40.5611 3.69678 51.1619 14.3593 51.1619 27.4956V27.4956ZM50.6482 27.4956C50.6482 14.6411 40.2809 4.21346 27.5008 4.21346C14.7052 4.21346 4.33792 14.6411 4.33792 27.4956C4.33792 40.3658 14.7052 50.7935 27.5008 50.7935C40.2809 50.7935 50.6482 40.3658 50.6482 27.4956Z" fill="#0F8FAC"/>
<path d="M47.6127 36.5139V38.0952H46.4607C46.3466 38.0952 46.2584 38.0952 46.1961 38.0952C46.1339 38.0952 46.0456 38.09 45.9315 38.0796C45.8173 38.0691 45.7291 38.0587 45.6669 38.0483C45.5942 38.0378 45.5164 38.0169 45.4334 37.9856C45.34 37.9647 45.2621 37.9334 45.1999 37.8917C45.148 37.8604 45.0909 37.8134 45.0286 37.7508C44.9664 37.6986 44.9145 37.6359 44.873 37.5629C44.8418 37.4898 44.8159 37.4011 44.7951 37.2967C44.7744 37.2028 44.764 37.0932 44.764 36.9679V36.1068C44.764 35.9293 44.7536 35.7884 44.7329 35.684C44.7121 35.5588 44.6758 35.4439 44.6239 35.3396C44.5616 35.2352 44.4786 35.1621 44.3748 35.1204C44.2607 35.0682 44.1154 35.0421 43.939 35.0421H43.5187V36.5139H44.0479V38.0952C43.28 38.0952 42.0969 38.0952 40.4988 38.0952V36.5139H41.1681V32.5056H40.4988V30.9556H44.9352C45.2984 30.9556 45.615 30.9921 45.8848 31.0652C46.165 31.1278 46.4089 31.2374 46.6164 31.394C46.824 31.5505 46.9796 31.7593 47.0834 32.0203C47.1976 32.2708 47.2546 32.5787 47.2546 32.944C47.2546 33.372 47.1145 33.7217 46.8343 33.993C46.5645 34.2644 46.1805 34.4471 45.6824 34.541C46.1183 34.6454 46.4296 34.7863 46.6164 34.9638C46.8032 35.1412 46.8966 35.3657 46.8966 35.637V36.0441C46.8966 36.1276 46.9018 36.1955 46.9122 36.2477C46.9226 36.2999 46.9537 36.3468 47.0056 36.3886C47.0471 36.4303 47.1197 36.4617 47.2235 36.4825C47.3169 36.5034 47.4466 36.5139 47.6127 36.5139V36.5139Z" fill="#0F8FAC"/>
<path d="M47.8927 17.2871V21.6868H46.0248L45.62 19.6513H44.904V25.742H46.0092V28.1532H40.0784V25.742H41.168V19.6513H40.4987L40.0784 21.6868H38.1948V17.2871H47.8927Z" fill="#0F8FAC"/>
<path d="M13.2419 35.8565C13.2419 36.1592 13.1901 36.4515 13.0863 36.7333C12.9929 37.0152 12.8528 37.2657 12.666 37.4849C12.4896 37.7041 12.2664 37.8815 11.9966 38.0172C11.7372 38.1529 11.4518 38.2208 11.1405 38.2208C10.8291 38.2208 10.5697 38.179 10.3621 38.0955C10.1546 38.012 9.93666 37.8763 9.70835 37.6884L9.55269 38.0955H8.13613V35.8096H9.53712C9.62014 36.0288 9.75505 36.2167 9.94185 36.3732C10.139 36.5402 10.3466 36.6237 10.5645 36.6237C10.689 36.6237 10.798 36.5924 10.8914 36.5298C10.9848 36.4567 11.0315 36.3628 11.0315 36.248C11.0315 36.1436 11.0004 36.0549 10.9381 35.9818C10.8758 35.9192 10.8136 35.8565 10.7357 35.8252C10.6631 35.7939 10.5749 35.7678 10.4711 35.7469C10.2947 35.6948 10.139 35.6478 10.0041 35.606C9.87958 35.5643 9.73948 35.5121 9.58382 35.4495C9.43853 35.3868 9.30881 35.3294 9.19465 35.2772C9.0805 35.2146 8.96635 35.1415 8.8522 35.058C8.73804 34.9745 8.63945 34.8858 8.55643 34.7919C8.47341 34.7084 8.39039 34.604 8.30737 34.4787C8.23473 34.3639 8.17764 34.2386 8.13613 34.1029C8.08425 33.9672 8.04792 33.8159 8.02717 33.6489C7.99603 33.4819 7.98047 33.3044 7.98047 33.1165C7.98047 32.4172 8.14651 31.8588 8.4786 31.4412C8.82106 31.0237 9.31918 30.8149 9.97298 30.8149C10.5334 30.8149 10.99 30.9506 11.3428 31.222C11.3532 31.1803 11.3999 31.0916 11.4829 30.9559H12.7282V33.2261H11.374C11.3221 32.9965 11.2079 32.793 11.0315 32.6155C10.8551 32.4381 10.6527 32.3493 10.4244 32.3493C10.2999 32.3493 10.2013 32.3859 10.1286 32.4589C10.056 32.5216 10.0197 32.6207 10.0197 32.7564C10.0197 32.8399 10.056 32.9182 10.1286 32.9913C10.2013 33.0539 10.2999 33.1061 10.4244 33.1479C10.5386 33.2001 10.6787 33.247 10.8447 33.2888C11.0004 33.3305 11.1664 33.3827 11.3428 33.4453C11.5193 33.508 11.6957 33.581 11.8721 33.6645C12.0433 33.7428 12.2146 33.8368 12.3858 33.962C12.5414 34.0977 12.6815 34.2491 12.8061 34.4161C12.9306 34.5727 13.0344 34.7762 13.1174 35.0267C13.1901 35.2772 13.2316 35.5538 13.2419 35.8565V35.8565Z" fill="#0F8FAC"/>
<path fill-rule="evenodd" clip-rule="evenodd" d="M16.7285 11.8541C16.687 12.0941 16.5676 12.2924 16.3704 12.449L15.3742 13.2162L13.2727 10.4449L14.1133 9.80296C14.352 9.61507 14.5959 9.53157 14.8449 9.55245C15.1044 9.56289 15.3119 9.67248 15.4676 9.88124C15.5921 10.0483 15.6648 10.2048 15.6855 10.351C15.6959 10.4971 15.6648 10.6589 15.5921 10.8363C15.81 10.7841 15.9917 10.7894 16.1369 10.852C16.2822 10.9042 16.4223 11.019 16.5572 11.1964C16.7129 11.3948 16.77 11.614 16.7285 11.8541V11.8541ZM15.0473 10.7894C15.0577 10.6745 15.0213 10.5649 14.9383 10.4606C14.7515 10.21 14.5336 10.184 14.2845 10.3823L14.2067 10.4292L14.7515 11.1651L14.8761 11.0712C14.9798 10.9877 15.0369 10.8937 15.0473 10.7894V10.7894ZM15.9657 11.901C15.9761 11.7862 15.9398 11.6766 15.8567 11.5722C15.6699 11.3217 15.452 11.2956 15.203 11.4939L15.0784 11.5879L15.6388 12.3081L15.81 12.1672C15.9034 12.0941 15.9553 12.0054 15.9657 11.901Z" fill="#0F8FAC"/>
<path fill-rule="evenodd" clip-rule="evenodd" d="M17.9115 25.3349C17.9115 25.8359 17.8129 26.2691 17.6157 26.6344C17.4186 27.0102 17.1436 27.3025 16.7907 27.5112C16.4379 27.7304 16.028 27.8922 15.561 27.9966C15.1043 28.101 14.5906 28.1532 14.0199 28.1532H7.74658V25.742H8.89851V19.6513H7.79328V17.2871H13.2104C13.7501 17.2871 14.2274 17.308 14.6425 17.3497C15.0473 17.4019 15.4364 17.4907 15.81 17.6159C16.1732 17.7412 16.469 17.9082 16.6973 18.1169C16.936 18.3257 17.1228 18.5919 17.2577 18.9155C17.3822 19.2495 17.4445 19.6409 17.4445 20.0897C17.4445 20.643 17.294 21.1283 16.9931 21.5459C16.6921 21.9738 16.303 22.2765 15.8256 22.454V22.4696C16.4898 22.6575 17.0035 22.9968 17.3667 23.4873C17.7299 23.9675 17.9115 24.5833 17.9115 25.3349V25.3349ZM12.401 21.7181H12.6812C12.9095 21.7181 13.1015 21.7024 13.2571 21.6711C13.4128 21.6502 13.5633 21.6033 13.7085 21.5302C13.8642 21.4571 13.9784 21.3423 14.051 21.1857C14.1288 21.0292 14.16 20.8256 14.16 20.5751C14.16 20.2724 14.0718 20.0428 13.8953 19.8862C13.7085 19.7296 13.4906 19.6513 13.2416 19.6513H12.401V21.7181ZM14.2067 24.6147C14.2067 24.4163 14.1807 24.2441 14.1288 24.098C14.0666 23.9518 13.9939 23.837 13.9109 23.7535C13.8175 23.67 13.7085 23.6074 13.584 23.5656C13.4595 23.5134 13.3453 23.4821 13.2416 23.4717C13.1378 23.4612 13.0236 23.456 12.8991 23.456C12.8472 23.456 12.6812 23.4612 12.401 23.4717V25.742H12.5566C12.6397 25.742 12.7279 25.742 12.8213 25.742C12.9043 25.742 12.9873 25.742 13.0703 25.742C13.1533 25.7315 13.2312 25.7211 13.3038 25.7107C13.3765 25.7002 13.4491 25.6846 13.5218 25.6637C13.5944 25.6532 13.6567 25.6324 13.7085 25.6011C13.7708 25.5697 13.8279 25.5384 13.8798 25.5071C13.9317 25.4654 13.9784 25.4184 14.0199 25.3662C14.0614 25.3036 14.0977 25.2357 14.1288 25.1627C14.16 25.1 14.1807 25.0217 14.1911 24.9278C14.2119 24.8339 14.2171 24.7295 14.2067 24.6147Z" fill="#0F8FAC"/>
<path d="M19.3127 10.6175L17.8028 11.463L16.1216 8.40981L17.5381 7.62695L17.865 8.22192L17.1023 8.64467L17.4447 9.25529L18.0985 8.89518L18.4099 9.45883L17.7561 9.83461L18.1297 10.5079L18.9858 10.0225L19.3127 10.6175Z" fill="#0F8FAC"/>
<path d="M19.717 35.0734V38.0952H14.1287V36.5139H14.8136V32.5056H14.1287V30.9556H19.6703V33.8365H18.5029L18.1604 32.5056H17.2264V33.7425H18.1293V35.2926H17.2264V36.5139H18.1915L18.2538 36.2477L18.5184 35.0734H19.717Z" fill="#0F8FAC"/>
<path d="M21.2899 9.56808C21.1758 9.81859 20.9734 10.0013 20.6829 10.1161C20.4545 10.21 20.1951 10.2152 19.9045 10.1317L19.6088 9.36454C19.9201 9.51067 20.1795 9.54721 20.3871 9.47414C20.4909 9.43239 20.5635 9.36976 20.605 9.28625C20.6465 9.21319 20.6517 9.1349 20.6206 9.0514C20.5791 8.93658 20.4493 8.84264 20.2314 8.76957C19.8786 8.64431 19.6399 8.53993 19.5154 8.45643C19.3805 8.37292 19.2715 8.2842 19.1885 8.19025C19.1054 8.09631 19.0432 7.98671 19.0017 7.86146C18.9083 7.62138 18.9135 7.3813 19.0172 7.14122C19.1314 6.91158 19.3234 6.74457 19.5932 6.64019C19.7904 6.56713 20.0187 6.54625 20.2781 6.57757L20.5894 7.39174C20.3196 7.24561 20.1017 7.20907 19.9357 7.28214C19.8526 7.31346 19.7904 7.36565 19.7489 7.43871C19.7177 7.51178 19.7125 7.57962 19.7333 7.64225C19.7748 7.74663 19.9201 7.84058 20.1691 7.92408C20.4286 8.00758 20.6154 8.08066 20.7295 8.14328C20.8437 8.19547 20.9527 8.27376 21.0564 8.37814C21.1498 8.48252 21.2277 8.60777 21.2899 8.75391C21.3937 9.03574 21.3937 9.30713 21.2899 9.56808V9.56808Z" fill="#0F8FAC"/>
<path d="M22.9867 6.42111L23.6249 9.14545L22.8933 9.31768L22.2551 6.59333L21.5857 6.7499L21.4301 6.0923L23.4848 5.60693L23.6405 6.26454L22.9867 6.42111Z" fill="#0F8FAC"/>
<path d="M26.4735 34.9794V38.0952H20.9007V36.5139H21.5234V32.5056H20.8851V30.9556H24.6833V32.5056H24.014V36.5139H24.839L25.2282 34.9794H26.4735Z" fill="#0F8FAC"/>
<path d="M27.7495 23.55V28.1532H19.2346V25.742H20.2931V19.6513H19.2346V17.2871H27.6872V21.6555L25.8971 21.6711L25.399 19.6513H23.9668V21.5302H25.3367V23.8944H23.9668V25.742H25.4301L25.5235 25.3349L25.9438 23.55H27.7495Z" fill="#0F8FAC"/>
<path d="M28.2792 7.75186C28.2896 8.065 28.1962 8.32073 27.999 8.51905C27.8122 8.71738 27.5632 8.81654 27.2518 8.81654C27.0028 8.82698 26.7589 8.74348 26.5202 8.56603L26.5046 7.73619C26.7433 7.98671 26.9768 8.11197 27.2051 8.11197C27.3089 8.11197 27.3919 8.08066 27.4542 8.01803C27.5268 7.9554 27.5632 7.88233 27.5632 7.79883C27.5632 7.67357 27.4698 7.53788 27.283 7.39175C27.0028 7.15167 26.816 6.97422 26.7226 6.8594C26.6292 6.73414 26.5617 6.61411 26.5202 6.49929C26.4683 6.37403 26.4424 6.24877 26.4424 6.12351C26.4424 5.86256 26.5358 5.63814 26.7226 5.45026C26.9094 5.28325 27.1429 5.19452 27.4231 5.18408C27.641 5.18408 27.8641 5.24671 28.0924 5.37197V6.23311C27.8953 6.00347 27.7033 5.88865 27.5165 5.88865C27.4438 5.89909 27.3764 5.93041 27.3141 5.9826C27.2518 6.03479 27.2207 6.09741 27.2207 6.17048C27.2207 6.2853 27.3193 6.42622 27.5165 6.59323C27.7344 6.76023 27.8901 6.89071 27.9835 6.98465C28.0665 7.0786 28.1391 7.19342 28.2014 7.32911C28.2533 7.45437 28.2792 7.59529 28.2792 7.75186V7.75186Z" fill="#0F8FAC"/>
<path d="M30.1939 6.10802L30.1005 6.8126L30.8477 6.90653L30.7699 7.54848L30.0227 7.45454L29.9293 8.22174L30.91 8.34699L30.8166 9.02025L29.1042 8.80106L29.5401 5.34082L31.159 5.56002L31.0656 6.21763L30.1939 6.10802Z" fill="#0F8FAC"/>
<path d="M32.9172 34.9794V38.0952H27.3444V36.5139H27.9671V32.5056H27.3289V30.9556H31.1271V32.5056H30.4422V36.5139H31.2827L31.6719 34.9794H32.9172Z" fill="#0F8FAC"/>
<path d="M33.3847 8.95757L33.1979 9.63083L31.6412 9.20808L32.5285 5.8418L33.2446 6.02968L32.5285 8.73837L33.3847 8.95757Z" fill="#0F8FAC"/>
<path d="M34.8642 9.53716L35.6736 9.86596L35.4246 10.4923L33.9302 9.88162L35.2378 6.65625L35.9227 6.93808L34.8642 9.53716Z" fill="#0F8FAC"/>
<path d="M37.3385 24.7555C37.3488 25.2043 37.2762 25.648 37.1205 26.0864C36.9649 26.5143 36.7521 26.8953 36.4823 27.2293C36.2021 27.5633 35.8596 27.8347 35.4549 28.0435C35.0502 28.2418 34.6143 28.341 34.1473 28.341C33.67 28.341 33.2756 28.2784 32.9643 28.1531C32.6426 28.0383 32.3105 27.8295 31.968 27.5268L31.719 28.1531H29.5708V24.6772H31.719C31.8331 25.0008 32.0407 25.2878 32.3416 25.5384C32.6322 25.7889 32.9435 25.9141 33.2756 25.9141C33.4624 25.9141 33.6284 25.8619 33.7737 25.7576C33.919 25.6636 33.9917 25.5227 33.9917 25.3348C33.9917 25.1887 33.945 25.0582 33.8516 24.9434C33.7478 24.839 33.644 24.7607 33.5402 24.7085C33.4261 24.6563 33.286 24.6094 33.1199 24.5676C32.8605 24.4945 32.6322 24.4215 32.435 24.3484C32.2275 24.2858 32.0147 24.2127 31.7968 24.1292C31.5685 24.0353 31.3661 23.9413 31.1897 23.8474C31.0237 23.7534 30.8524 23.6491 30.676 23.5342C30.4996 23.409 30.3439 23.2733 30.209 23.1272C30.0845 22.9915 29.9651 22.8349 29.851 22.6574C29.7368 22.48 29.6434 22.2869 29.5708 22.0781C29.4981 21.8694 29.4411 21.6397 29.3996 21.3892C29.358 21.1283 29.3373 20.8517 29.3373 20.5594C29.3373 19.4947 29.5967 18.6492 30.1156 18.0229C30.6241 17.3966 31.3765 17.0835 32.3727 17.0835C33.2237 17.0835 33.9138 17.2818 34.4431 17.6785C34.4638 17.6263 34.5365 17.4958 34.661 17.287H36.5601V20.7316H34.5054C34.4327 20.3872 34.2563 20.0792 33.9761 19.8078C33.7063 19.5469 33.4053 19.4164 33.0732 19.4164C32.8761 19.4164 32.7204 19.4686 32.6062 19.573C32.4921 19.6669 32.435 19.8183 32.435 20.027C32.435 20.1627 32.4921 20.2776 32.6062 20.3715C32.7152 20.4654 32.8553 20.5594 33.0421 20.622C33.2289 20.6951 33.4468 20.7681 33.6959 20.8412C33.9346 20.9143 34.1888 20.9978 34.4587 21.0917C34.7285 21.1857 34.9983 21.2901 35.2681 21.4049C35.5276 21.5197 35.7818 21.6763 36.0309 21.8746C36.2799 22.0625 36.4979 22.2869 36.6847 22.5478C36.8715 22.7984 37.0219 23.1115 37.1361 23.4873C37.2606 23.863 37.3281 24.2858 37.3385 24.7555V24.7555Z" fill="#0F8FAC"/>
<path d="M38.1322 8.78565L37.7897 9.39628L38.4435 9.77205L38.1166 10.3357L37.4628 9.95993L37.0892 10.6175L37.9454 11.1186L37.6029 11.7135L36.1085 10.8524L37.8208 7.83057L39.2374 8.62908L38.8949 9.22405L38.1322 8.78565Z" fill="#0F8FAC"/>
<path d="M39.3471 35.0734V38.0952H33.7432V36.5139H34.4437V32.5056H33.7432V30.9556H39.2848V33.8365H38.1174L37.7905 32.5056H36.8565V33.7425H37.7593V35.2926H36.8565V36.5139H37.806L37.8683 36.2477L38.1485 35.0734H39.3471Z" fill="#0F8FAC"/>
<path d="M40.9815 39.3164C37.7125 43.1054 32.8869 45.501 27.5009 45.501C22.1149 45.501 17.2893 43.1054 14.0048 39.3164H15.1411C18.2544 42.6044 22.6442 44.6398 27.5009 44.6398C32.3577 44.6398 36.7318 42.6044 39.8451 39.3164H40.9815Z" fill="#0F8FAC"/>
<path d="M41.2465 15.9879H40.1257C37.0124 12.5277 32.4982 10.3513 27.5013 10.3513C22.4889 10.3513 17.9902 12.5277 14.8613 15.9879H13.7561C17.0251 12.0267 21.9752 9.50586 27.5013 9.50586C33.0274 9.50586 37.962 12.0267 41.2465 15.9879V15.9879Z" fill="#0F8FAC"/>
<path fill-rule="evenodd" clip-rule="evenodd" d="M41.6975 11.0712C41.6559 11.2486 41.5833 11.4052 41.4795 11.5409C41.3446 11.7184 41.1993 11.8279 41.0437 11.8697C40.8776 11.9219 40.6804 11.9323 40.4521 11.901L39.9696 13.5137L39.378 13.044L39.9696 11.306H39.954L38.8955 12.6526L38.304 12.1985L40.4521 9.4585L41.2149 10.0691C41.3706 10.1839 41.5003 10.3353 41.6041 10.5232C41.7078 10.7006 41.739 10.8833 41.6975 11.0712V11.0712ZM40.8102 10.4606L40.7012 10.3666L40.0785 11.1495C40.2653 11.306 40.4158 11.3635 40.53 11.3217C40.6337 11.2904 40.7323 11.2173 40.8257 11.1025C41.0333 10.8415 41.0281 10.6276 40.8102 10.4606V10.4606Z" fill="#0F8FAC"/>
<path d="M47.6127 36.5139V38.0952H46.4607C46.3466 38.0952 46.2584 38.0952 46.1961 38.0952C46.1339 38.0952 46.0456 38.09 45.9315 38.0796C45.8173 38.0691 45.7291 38.0587 45.6669 38.0483C45.5942 38.0378 45.5164 38.0169 45.4334 37.9856C45.34 37.9647 45.2621 37.9334 45.1999 37.8917C45.148 37.8604 45.0909 37.8134 45.0286 37.7508C44.9664 37.6986 44.9145 37.6359 44.873 37.5629C44.8418 37.4898 44.8159 37.4011 44.7951 37.2967C44.7744 37.2028 44.764 37.0932 44.764 36.9679V36.1068C44.764 35.9293 44.7536 35.7884 44.7329 35.684C44.7121 35.5588 44.6758 35.4439 44.6239 35.3396C44.5616 35.2352 44.4786 35.1621 44.3748 35.1204C44.2607 35.0682 44.1154 35.0421 43.939 35.0421H43.5187V36.5139H44.0479V38.0952C43.28 38.0952 42.0969 38.0952 40.4988 38.0952V36.5139H41.1681V32.5056H40.4988V30.9556H44.9352C45.2984 30.9556 45.615 30.9921 45.8848 31.0652C46.165 31.1278 46.4089 31.2374 46.6164 31.394C46.824 31.5505 46.9796 31.7593 47.0834 32.0203C47.1976 32.2708 47.2546 32.5787 47.2546 32.944C47.2546 33.372 47.1145 33.7217 46.8343 33.993C46.5645 34.2644 46.1805 34.4471 45.6824 34.541C46.1183 34.6454 46.4296 34.7863 46.6164 34.9638C46.8032 35.1412 46.8966 35.3657 46.8966 35.637V36.0441C46.8966 36.1276 46.9018 36.1955 46.9122 36.2477C46.9226 36.2999 46.9537 36.3468 47.0056 36.3886C47.0471 36.4303 47.1197 36.4617 47.2235 36.4825C47.3169 36.5034 47.4466 36.5139 47.6127 36.5139V36.5139Z" fill="#0F8FAC"/>
<path d="M47.8927 17.2871V21.6868H46.0248L45.62 19.6513H44.904V25.742H46.0092V28.1532H40.0784V25.742H41.168V19.6513H40.4987L40.0784 21.6868H38.1948V17.2871H47.8927Z" fill="#0F8FAC"/>
<path fill-rule="evenodd" clip-rule="evenodd" d="M16.7285 11.8541C16.687 12.0941 16.5676 12.2924 16.3704 12.449L15.3742 13.2162L13.2727 10.4449L14.1133 9.80296C14.352 9.61507 14.5959 9.53157 14.8449 9.55245C15.1044 9.56289 15.3119 9.67248 15.4676 9.88124C15.5921 10.0483 15.6648 10.2048 15.6855 10.351C15.6959 10.4971 15.6648 10.6589 15.5921 10.8363C15.81 10.7841 15.9917 10.7894 16.1369 10.852C16.2822 10.9042 16.4223 11.019 16.5572 11.1964C16.7129 11.3948 16.77 11.614 16.7285 11.8541V11.8541ZM15.0473 10.7894C15.0577 10.6745 15.0213 10.5649 14.9383 10.4606C14.7515 10.21 14.5336 10.184 14.2845 10.3823L14.2067 10.4292L14.7515 11.1651L14.8761 11.0712C14.9798 10.9877 15.0369 10.8937 15.0473 10.7894V10.7894ZM15.9657 11.901C15.9761 11.7862 15.9398 11.6766 15.8567 11.5722C15.6699 11.3217 15.452 11.2956 15.203 11.4939L15.0784 11.5879L15.6388 12.3081L15.81 12.1672C15.9034 12.0941 15.9553 12.0054 15.9657 11.901Z" fill="#0F8FAC"/>
<path d="M19.3127 10.617L17.8028 11.4625L16.1216 8.40932L17.5381 7.62646L17.865 8.22143L17.1023 8.64418L17.4447 9.2548L18.0985 8.89469L18.4099 9.45834L17.7561 9.83412L18.1297 10.5074L18.9858 10.022L19.3127 10.617Z" fill="#0F8FAC"/>
<path d="M21.2899 9.56808C21.1758 9.81859 20.9734 10.0013 20.6829 10.1161C20.4545 10.21 20.1951 10.2152 19.9045 10.1317L19.6088 9.36454C19.9201 9.51067 20.1795 9.54721 20.3871 9.47414C20.4909 9.43239 20.5635 9.36976 20.605 9.28625C20.6465 9.21319 20.6517 9.1349 20.6206 9.0514C20.5791 8.93658 20.4493 8.84264 20.2314 8.76957C19.8786 8.64431 19.6399 8.53993 19.5154 8.45643C19.3805 8.37292 19.2715 8.2842 19.1885 8.19025C19.1054 8.09631 19.0432 7.98671 19.0017 7.86146C18.9083 7.62138 18.9135 7.3813 19.0172 7.14122C19.1314 6.91158 19.3234 6.74457 19.5932 6.64019C19.7904 6.56713 20.0187 6.54625 20.2781 6.57757L20.5894 7.39174C20.3196 7.24561 20.1017 7.20907 19.9357 7.28214C19.8526 7.31346 19.7904 7.36565 19.7489 7.43871C19.7177 7.51178 19.7125 7.57962 19.7333 7.64225C19.7748 7.74663 19.9201 7.84058 20.1691 7.92408C20.4286 8.00758 20.6154 8.08066 20.7295 8.14328C20.8437 8.19547 20.9527 8.27376 21.0564 8.37814C21.1498 8.48252 21.2277 8.60777 21.2899 8.75391C21.3937 9.03574 21.3937 9.30713 21.2899 9.56808V9.56808Z" fill="#0F8FAC"/>
<path d="M22.9868 6.42111L23.625 9.14545L22.8934 9.31768L22.2552 6.59333L21.5858 6.7499L21.4302 6.0923L23.485 5.60693L23.6406 6.26454L22.9868 6.42111Z" fill="#0F8FAC"/>
<path d="M28.2793 7.75186C28.2897 8.065 28.1963 8.32073 27.9992 8.51905C27.8124 8.71738 27.5633 8.81654 27.252 8.81654C27.0029 8.82698 26.759 8.74348 26.5203 8.56603L26.5048 7.73619C26.7435 7.98671 26.9769 8.11197 27.2053 8.11197C27.309 8.11197 27.3921 8.08066 27.4543 8.01803C27.527 7.9554 27.5633 7.88233 27.5633 7.79883C27.5633 7.67357 27.4699 7.53788 27.2831 7.39175C27.0029 7.15167 26.8161 6.97422 26.7227 6.8594C26.6293 6.73414 26.5618 6.61411 26.5203 6.49929C26.4684 6.37403 26.4425 6.24877 26.4425 6.12351C26.4425 5.86256 26.5359 5.63814 26.7227 5.45026C26.9095 5.28325 27.143 5.19452 27.4232 5.18408C27.6411 5.18408 27.8642 5.24671 28.0925 5.37197V6.23311C27.8954 6.00347 27.7034 5.88865 27.5166 5.88865C27.4439 5.89909 27.3765 5.93041 27.3142 5.9826C27.252 6.03479 27.2208 6.09741 27.2208 6.17048C27.2208 6.2853 27.3194 6.42622 27.5166 6.59323C27.7345 6.76023 27.8902 6.89071 27.9836 6.98465C28.0666 7.0786 28.1393 7.19342 28.2015 7.32911C28.2534 7.45437 28.2793 7.59529 28.2793 7.75186V7.75186Z" fill="#0F8FAC"/>
<path d="M30.1939 6.10802L30.1005 6.8126L30.8477 6.90653L30.7699 7.54848L30.0227 7.45454L29.9293 8.22174L30.91 8.34699L30.8166 9.02025L29.1042 8.80106L29.5401 5.34082L31.159 5.56002L31.0656 6.21763L30.1939 6.10802Z" fill="#0F8FAC"/>
<path d="M33.3846 8.95757L33.1978 9.63083L31.6411 9.20808L32.5284 5.8418L33.2445 6.02968L32.5284 8.73837L33.3846 8.95757Z" fill="#0F8FAC"/>
<path d="M34.8634 9.53667L35.6729 9.86548L35.4238 10.4918L33.9294 9.88113L35.237 6.65576L35.922 6.93759L34.8634 9.53667Z" fill="#0F8FAC"/>
<path d="M38.133 8.78516L37.7906 9.39579L38.4443 9.77156L38.1175 10.3352L37.4637 9.95945L37.0901 10.617L37.9462 11.1181L37.6038 11.713L36.1094 10.8519L37.8217 7.83008L39.2382 8.62859L38.8958 9.22356L38.133 8.78516Z" fill="#0F8FAC"/>
<path fill-rule="evenodd" clip-rule="evenodd" d="M41.6976 11.0712C41.6561 11.2486 41.5834 11.4052 41.4796 11.5409C41.3447 11.7184 41.1994 11.8279 41.0438 11.8697C40.8777 11.9219 40.6806 11.9323 40.4523 11.901L39.9697 13.5137L39.3782 13.044L39.9697 11.306H39.9541L38.8956 12.6526L38.3041 12.1985L40.4523 9.4585L41.215 10.0691C41.3707 10.1839 41.5004 10.3353 41.6042 10.5232C41.708 10.7006 41.7391 10.8833 41.6976 11.0712V11.0712ZM40.8103 10.4606L40.7013 10.3666L40.0787 11.1495C40.2655 11.306 40.4159 11.3635 40.5301 11.3217C40.6339 11.2904 40.7325 11.2173 40.8258 11.1025C41.0334 10.8415 41.0282 10.6276 40.8103 10.4606V10.4606Z" fill="#0F8FAC"/>
<path fill-rule="evenodd" clip-rule="evenodd" d="M16.4646 43.8727C16.34 44.0397 16.2103 44.1545 16.0754 44.2172C15.9301 44.2693 15.7641 44.2798 15.5773 44.2485C15.6811 44.4468 15.7226 44.6242 15.7018 44.7808C15.6914 44.9478 15.6188 45.1148 15.4839 45.2819C15.3386 45.4802 15.1414 45.595 14.8924 45.6263C14.6537 45.6472 14.4306 45.5793 14.223 45.4228L13.2423 44.6712L15.3438 41.8999L16.1844 42.5419C16.4231 42.7297 16.5684 42.9489 16.6202 43.1994C16.6721 43.45 16.6202 43.6744 16.4646 43.8727V43.8727ZM14.8612 44.0449L14.7367 43.951L14.1763 44.6712L14.3475 44.7965C14.4513 44.88 14.5551 44.9113 14.6589 44.8904C14.7626 44.8695 14.856 44.8017 14.9391 44.6869C15.1259 44.4468 15.0999 44.2328 14.8612 44.0449V44.0449ZM15.6862 42.855L15.6084 42.7924L15.048 43.5282L15.1726 43.6222C15.2763 43.6953 15.3801 43.7266 15.4839 43.7161C15.598 43.6953 15.6914 43.6274 15.7641 43.5126C15.9613 43.2725 15.9353 43.0533 15.6862 42.855V42.855Z" fill="#0F8FAC"/>
<path d="M18.068 44.5772L17.7099 45.1878L18.3793 45.5636L18.068 46.1272L17.3986 45.7671L17.0406 46.4404L17.8967 46.9101L17.5543 47.5207L16.0443 46.6752L17.7411 43.6221L19.1576 44.4206L18.8307 44.9999L18.068 44.5772Z" fill="#0F8FAC"/>
<path d="M21.3523 45.454L21.0254 46.2681C20.932 45.9759 20.7971 45.7984 20.6207 45.7358C20.548 45.7045 20.4702 45.7045 20.3872 45.7358C20.3145 45.7567 20.2678 45.7984 20.2471 45.861C20.1952 45.9759 20.2367 46.1481 20.3716 46.3777C20.5065 46.6074 20.5947 46.7848 20.6362 46.9101C20.6881 47.0353 20.7141 47.171 20.7141 47.3172C20.7141 47.4633 20.6881 47.6042 20.6362 47.7399C20.5221 48.0322 20.3353 48.2305 20.0759 48.3349C19.8268 48.4497 19.557 48.4497 19.2664 48.3349C19.0381 48.2409 18.8461 48.0687 18.6904 47.8182L18.9862 47.051C19.1107 47.3746 19.282 47.5781 19.4999 47.6616C19.5933 47.7034 19.6815 47.7086 19.7645 47.6773C19.8475 47.646 19.9046 47.5938 19.9357 47.5207C19.9876 47.4059 19.9565 47.2441 19.8424 47.0353C19.6659 46.7013 19.557 46.4612 19.5155 46.3151C19.4843 46.169 19.4688 46.0333 19.4688 45.908C19.4791 45.7723 19.5051 45.6471 19.5466 45.5322C19.64 45.2922 19.806 45.1199 20.0447 45.0156C20.2834 44.9216 20.5377 44.9321 20.8075 45.0469C21.0047 45.1199 21.1863 45.2556 21.3523 45.454V45.454Z" fill="#0F8FAC"/>
<path d="M24.1388 46.0962L23.9831 46.7538L23.3293 46.5816L22.66 49.3216L21.9439 49.1494L22.5977 46.425L21.9283 46.2528L22.084 45.5952L24.1388 46.0962Z" fill="#0F8FAC"/>
<path d="M28.0463 48.8832C28.0359 49.1859 27.9322 49.4364 27.735 49.6347C27.5378 49.8226 27.2836 49.9165 26.9722 49.9165C26.7232 49.9061 26.4793 49.8069 26.2406 49.619L26.2562 48.8049C26.4845 49.0554 26.7128 49.1859 26.9411 49.1963C27.0449 49.1963 27.1331 49.1702 27.2057 49.118C27.2784 49.0554 27.3147 48.9823 27.3147 48.8988C27.3147 48.7736 27.2369 48.6326 27.0501 48.4761C26.7802 48.2256 26.5986 48.0429 26.5052 47.9281C26.4222 47.8028 26.3599 47.6776 26.3184 47.5523C26.2769 47.4375 26.2562 47.3174 26.2562 47.1922C26.2666 46.9208 26.3651 46.7016 26.5519 46.5346C26.7491 46.3571 26.9878 46.2736 27.268 46.2841C27.4859 46.2841 27.7039 46.3467 27.9218 46.4876L27.9062 47.3487C27.709 47.1191 27.5222 46.9991 27.3458 46.9886C27.2628 46.9886 27.1902 47.0147 27.1279 47.0669C27.0656 47.1191 27.0293 47.1817 27.0189 47.2548C27.0189 47.3696 27.1175 47.5158 27.3147 47.6932C27.5222 47.8602 27.6727 47.9959 27.7661 48.1003C27.8491 48.1942 27.9166 48.3091 27.9685 48.4447C28.0204 48.5804 28.0463 48.7266 28.0463 48.8832V48.8832Z" fill="#0F8FAC"/>
<path d="M30.9726 49.5876L29.2603 49.7912L28.8711 46.3309L30.4744 46.1431L30.5523 46.8163L29.6806 46.9103L29.7584 47.6148L30.5056 47.5366L30.5834 48.1785L29.8362 48.2568L29.9141 49.024L30.8947 48.9144L30.9726 49.5876Z" fill="#0F8FAC"/>
<path d="M33.7749 48.9611L32.2027 49.3525L31.3621 45.9706L32.0937 45.7983L32.763 48.507L33.6036 48.3035L33.7749 48.9611Z" fill="#0F8FAC"/>
<path d="M36.39 48.006L34.8801 48.5853L33.6348 45.3443L34.3353 45.0781L35.3315 47.6772L36.1565 47.3641L36.39 48.006Z" fill="#0F8FAC"/>
<path d="M38.9738 46.6595L37.4638 47.4893L35.7982 44.4362L37.2148 43.6533L37.5417 44.2483L36.7789 44.671L37.1058 45.2817L37.7752 44.9215L38.0865 45.4852L37.4171 45.861L37.7907 46.5342L38.6469 46.0645L38.9738 46.6595Z" fill="#0F8FAC"/>
<path fill-rule="evenodd" clip-rule="evenodd" d="M39.6585 44.1075H39.643L40.6859 45.4854L40.0788 45.9394L37.9929 43.1524L38.7712 42.5731C38.9269 42.4479 39.1085 42.3592 39.3161 42.307C39.5132 42.2548 39.6949 42.2704 39.8609 42.3539C40.0269 42.4374 40.1619 42.5523 40.2656 42.6984C40.3902 42.8654 40.4576 43.0324 40.468 43.1994C40.4784 43.3664 40.4369 43.5543 40.3435 43.7631L41.7756 44.6555L41.1685 45.1096L39.6585 44.1075ZM39.8142 43.5752C39.8142 43.4604 39.7675 43.3403 39.6741 43.2151C39.4769 42.9541 39.2694 42.9072 39.0514 43.0742L38.9269 43.1681L39.534 43.9666C39.7312 43.8205 39.8246 43.69 39.8142 43.5752V43.5752Z" fill="#0F8FAC"/>
<path d="M41.2465 15.9879H40.1257C37.0124 12.5277 32.4982 10.3513 27.5013 10.3513C22.4889 10.3513 17.9902 12.5277 14.8613 15.9879H13.7561C17.0251 12.0267 21.9752 9.50586 27.5013 9.50586C33.0274 9.50586 37.962 12.0267 41.2465 15.9879V15.9879Z" fill="#0F8FAC"/>
<path d="M40.9815 39.3164C37.7125 43.1054 32.8869 45.501 27.5009 45.501C22.1149 45.501 17.2893 43.1054 14.0048 39.3164H15.1411C18.2544 42.6044 22.6442 44.6398 27.5009 44.6398C32.3577 44.6398 36.7318 42.6044 39.8451 39.3164H40.9815Z" fill="#0F8FAC"/>
<path fill-rule="evenodd" clip-rule="evenodd" d="M17.9115 25.3349C17.9115 25.8359 17.8129 26.2691 17.6157 26.6344C17.4186 27.0102 17.1436 27.3025 16.7907 27.5112C16.4379 27.7304 16.028 27.8922 15.561 27.9966C15.1043 28.101 14.5906 28.1532 14.0199 28.1532H7.74658V25.742H8.89851V19.6513H7.79328V17.2871H13.2104C13.7501 17.2871 14.2274 17.308 14.6425 17.3497C15.0473 17.4019 15.4364 17.4907 15.81 17.6159C16.1732 17.7412 16.469 17.9082 16.6973 18.1169C16.936 18.3257 17.1228 18.5919 17.2577 18.9155C17.3822 19.2495 17.4445 19.6409 17.4445 20.0897C17.4445 20.643 17.294 21.1283 16.9931 21.5459C16.6921 21.9738 16.303 22.2765 15.8256 22.454V22.4696C16.4898 22.6575 17.0035 22.9968 17.3667 23.4873C17.7299 23.9675 17.9115 24.5833 17.9115 25.3349V25.3349ZM12.401 21.7181H12.6812C12.9095 21.7181 13.1015 21.7024 13.2571 21.6711C13.4128 21.6502 13.5633 21.6033 13.7085 21.5302C13.8642 21.4571 13.9784 21.3423 14.051 21.1857C14.1288 21.0292 14.16 20.8256 14.16 20.5751C14.16 20.2724 14.0718 20.0428 13.8953 19.8862C13.7085 19.7296 13.4906 19.6513 13.2416 19.6513H12.401V21.7181ZM14.2067 24.6147C14.2067 24.4163 14.1807 24.2441 14.1288 24.098C14.0666 23.9518 13.9939 23.837 13.9109 23.7535C13.8175 23.67 13.7085 23.6074 13.584 23.5656C13.4595 23.5134 13.3453 23.4821 13.2416 23.4717C13.1378 23.4612 13.0236 23.456 12.8991 23.456C12.8472 23.456 12.6812 23.4612 12.401 23.4717V25.742H12.5566C12.6397 25.742 12.7279 25.742 12.8213 25.742C12.9043 25.742 12.9873 25.742 13.0703 25.742C13.1533 25.7315 13.2312 25.7211 13.3038 25.7107C13.3765 25.7002 13.4491 25.6846 13.5218 25.6637C13.5944 25.6532 13.6567 25.6324 13.7085 25.6011C13.7708 25.5697 13.8279 25.5384 13.8798 25.5071C13.9317 25.4654 13.9784 25.4184 14.0199 25.3662C14.0614 25.3036 14.0977 25.2357 14.1288 25.1627C14.16 25.1 14.1807 25.0217 14.1911 24.9278C14.2119 24.8339 14.2171 24.7295 14.2067 24.6147Z" fill="#0F8FAC"/>
<path d="M27.7495 23.55V28.1532H19.2346V25.742H20.2931V19.6513H19.2346V17.2871H27.6872V21.6555L25.8971 21.6711L25.399 19.6513H23.9668V21.5302H25.3367V23.8944H23.9668V25.742H25.4301L25.5235 25.3349L25.9438 23.55H27.7495Z" fill="#0F8FAC"/>
<path d="M37.3385 24.7555C37.3488 25.2043 37.2762 25.648 37.1205 26.0864C36.9649 26.5143 36.7521 26.8953 36.4823 27.2293C36.2021 27.5633 35.8596 27.8347 35.4549 28.0435C35.0502 28.2418 34.6143 28.341 34.1473 28.341C33.67 28.341 33.2756 28.2784 32.9643 28.1531C32.6426 28.0383 32.3105 27.8295 31.968 27.5268L31.719 28.1531H29.5708V24.6772H31.719C31.8331 25.0008 32.0407 25.2878 32.3416 25.5384C32.6322 25.7889 32.9435 25.9141 33.2756 25.9141C33.4624 25.9141 33.6284 25.8619 33.7737 25.7576C33.919 25.6636 33.9917 25.5227 33.9917 25.3348C33.9917 25.1887 33.945 25.0582 33.8516 24.9434C33.7478 24.839 33.644 24.7607 33.5402 24.7085C33.4261 24.6563 33.286 24.6094 33.1199 24.5676C32.8605 24.4945 32.6322 24.4215 32.435 24.3484C32.2275 24.2858 32.0147 24.2127 31.7968 24.1292C31.5685 24.0353 31.3661 23.9413 31.1897 23.8474C31.0237 23.7534 30.8524 23.6491 30.676 23.5342C30.4996 23.409 30.3439 23.2733 30.209 23.1272C30.0845 22.9915 29.9651 22.8349 29.851 22.6574C29.7368 22.48 29.6434 22.2869 29.5708 22.0781C29.4981 21.8694 29.4411 21.6397 29.3996 21.3892C29.358 21.1283 29.3373 20.8517 29.3373 20.5594C29.3373 19.4947 29.5967 18.6492 30.1156 18.0229C30.6241 17.3966 31.3765 17.0835 32.3727 17.0835C33.2237 17.0835 33.9138 17.2818 34.4431 17.6785C34.4638 17.6263 34.5365 17.4958 34.661 17.287H36.5601V20.7316H34.5054C34.4327 20.3872 34.2563 20.0792 33.9761 19.8078C33.7063 19.5469 33.4053 19.4164 33.0732 19.4164C32.8761 19.4164 32.7204 19.4686 32.6062 19.573C32.4921 19.6669 32.435 19.8183 32.435 20.027C32.435 20.1627 32.4921 20.2776 32.6062 20.3715C32.7152 20.4654 32.8553 20.5594 33.0421 20.622C33.2289 20.6951 33.4468 20.7681 33.6959 20.8412C33.9346 20.9143 34.1888 20.9978 34.4587 21.0917C34.7285 21.1857 34.9983 21.2901 35.2681 21.4049C35.5276 21.5197 35.7818 21.6763 36.0309 21.8746C36.2799 22.0625 36.4979 22.2869 36.6847 22.5478C36.8715 22.7984 37.0219 23.1115 37.1361 23.4873C37.2606 23.863 37.3281 24.2858 37.3385 24.7555V24.7555Z" fill="#0F8FAC"/>
<path d="M47.8927 17.2871V21.6868H46.0248L45.62 19.6513H44.904V25.742H46.0092V28.1532H40.0784V25.742H41.168V19.6513H40.4987L40.0784 21.6868H38.1948V17.2871H47.8927Z" fill="#0F8FAC"/>
<path d="M13.2419 35.8565C13.2419 36.1592 13.1901 36.4515 13.0863 36.7333C12.9929 37.0152 12.8528 37.2657 12.666 37.4849C12.4896 37.7041 12.2664 37.8815 11.9966 38.0172C11.7372 38.1529 11.4518 38.2208 11.1405 38.2208C10.8291 38.2208 10.5697 38.179 10.3621 38.0955C10.1546 38.012 9.93666 37.8763 9.70835 37.6884L9.55269 38.0955H8.13613V35.8096H9.53712C9.62014 36.0288 9.75505 36.2167 9.94185 36.3732C10.139 36.5402 10.3466 36.6237 10.5645 36.6237C10.689 36.6237 10.798 36.5924 10.8914 36.5298C10.9848 36.4567 11.0315 36.3628 11.0315 36.248C11.0315 36.1436 11.0004 36.0549 10.9381 35.9818C10.8758 35.9192 10.8136 35.8565 10.7357 35.8252C10.6631 35.7939 10.5749 35.7678 10.4711 35.7469C10.2947 35.6948 10.139 35.6478 10.0041 35.606C9.87958 35.5643 9.73948 35.5121 9.58382 35.4495C9.43853 35.3868 9.30881 35.3294 9.19465 35.2772C9.0805 35.2146 8.96635 35.1415 8.8522 35.058C8.73804 34.9745 8.63945 34.8858 8.55643 34.7919C8.47341 34.7084 8.39039 34.604 8.30737 34.4787C8.23473 34.3639 8.17764 34.2386 8.13613 34.1029C8.08425 33.9672 8.04792 33.8159 8.02717 33.6489C7.99603 33.4819 7.98047 33.3044 7.98047 33.1165C7.98047 32.4172 8.14651 31.8588 8.4786 31.4412C8.82106 31.0237 9.31918 30.8149 9.97298 30.8149C10.5334 30.8149 10.99 30.9506 11.3428 31.222C11.3532 31.1803 11.3999 31.0916 11.4829 30.9559H12.7282V33.2261H11.374C11.3221 32.9965 11.2079 32.793 11.0315 32.6155C10.8551 32.4381 10.6527 32.3493 10.4244 32.3493C10.2999 32.3493 10.2013 32.3859 10.1286 32.4589C10.056 32.5216 10.0197 32.6207 10.0197 32.7564C10.0197 32.8399 10.056 32.9182 10.1286 32.9913C10.2013 33.0539 10.2999 33.1061 10.4244 33.1479C10.5386 33.2001 10.6787 33.247 10.8447 33.2888C11.0004 33.3305 11.1664 33.3827 11.3428 33.4453C11.5193 33.508 11.6957 33.581 11.8721 33.6645C12.0433 33.7428 12.2146 33.8368 12.3858 33.962C12.5414 34.0977 12.6815 34.2491 12.8061 34.4161C12.9306 34.5727 13.0344 34.7762 13.1174 35.0267C13.1901 35.2772 13.2316 35.5538 13.2419 35.8565V35.8565Z" fill="#0F8FAC"/>
<path d="M19.7179 35.0739V38.0957H14.1295V36.5143H14.8144V32.5061H14.1295V30.9561H19.6712V33.837H18.5037L18.1612 32.5061H17.2273V33.743H18.1301V35.2931H17.2273V36.5143H18.1924L18.2546 36.2482L18.5193 35.0739H19.7179Z" fill="#0F8FAC"/>
<path d="M26.4735 34.9799V38.0957H20.9007V36.5143H21.5234V32.5061H20.8851V30.9561H24.6833V32.5061H24.014V36.5143H24.839L25.2282 34.9799H26.4735Z" fill="#0F8FAC"/>
<path d="M32.9181 34.9799V38.0957H27.3453V36.5143H27.9679V32.5061H27.3297V30.9561H31.1279V32.5061H30.443V36.5143H31.2836L31.6728 34.9799H32.9181Z" fill="#0F8FAC"/>
<path d="M39.347 35.0739V38.0957H33.743V36.5143H34.4435V32.5061H33.743V30.9561H39.2847V33.837H38.1172L37.7903 32.5061H36.8563V33.743H37.7592V35.2931H36.8563V36.5143H37.8059L37.8682 36.2482L38.1484 35.0739H39.347Z" fill="#0F8FAC"/>
<path fill-rule="evenodd" clip-rule="evenodd" d="M47.6127 36.5143V38.0957H46.4607C46.3466 38.0957 46.2584 38.0957 46.1961 38.0957C46.1339 38.0957 46.0456 38.0905 45.9315 38.0801C45.8173 38.0696 45.7291 38.0592 45.6669 38.0487C45.5942 38.0383 45.5164 38.0174 45.4334 37.9861C45.34 37.9652 45.2621 37.9339 45.1999 37.8922C45.148 37.8609 45.0909 37.8139 45.0286 37.7513C44.9664 37.6991 44.9145 37.6364 44.873 37.5634C44.8418 37.4903 44.8159 37.4016 44.7951 37.2972C44.7744 37.2033 44.764 37.0937 44.764 36.9684V36.1073C44.764 35.9298 44.7536 35.7889 44.7329 35.6845C44.7121 35.5592 44.6758 35.4444 44.6239 35.3401C44.5616 35.2357 44.4786 35.1626 44.3748 35.1209C44.2607 35.0687 44.1154 35.0426 43.939 35.0426H43.5187V36.5143H44.0479V38.0957C43.28 38.0957 42.0969 38.0957 40.4988 38.0957V36.5143H41.1681V32.5061H40.4988V30.9561H44.9352C45.2984 30.9561 45.615 30.9926 45.8848 31.0656C46.165 31.1283 46.4089 31.2379 46.6164 31.3945C46.824 31.551 46.9796 31.7598 47.0834 32.0207C47.1976 32.2713 47.2546 32.5792 47.2546 32.9445C47.2546 33.3725 47.1145 33.7221 46.8343 33.9935C46.5645 34.2649 46.1805 34.4476 45.6824 34.5415C46.1183 34.6459 46.4296 34.7868 46.6164 34.9643C46.8032 35.1417 46.8966 35.3661 46.8966 35.6375V36.0446C46.8966 36.1281 46.9018 36.196 46.9122 36.2482C46.9226 36.3004 46.9537 36.3473 47.0056 36.3891C47.0471 36.4308 47.1197 36.4621 47.2235 36.483C47.3169 36.5039 47.4466 36.5143 47.6127 36.5143V36.5143ZM44.8418 33.2733C44.8418 33.0437 44.7692 32.8558 44.6239 32.7096C44.4786 32.574 44.2763 32.5061 44.0168 32.5061H43.4875V34.0405H43.7522C43.8975 34.0405 44.0324 34.0301 44.1569 34.0092C44.2814 33.9883 44.3956 33.9466 44.4994 33.8839C44.6135 33.8317 44.7017 33.7535 44.764 33.6491C44.8159 33.5447 44.8418 33.4194 44.8418 33.2733V33.2733Z" fill="#0F8FAC"/>
</svg>
