<svg width="0" height="0" fill="none" style="visibility: hidden; position: absolute;" aria-hidden="true">
   <symbol id="shop-bag"  viewBox="0 0 19 21" fill="none" xmlns="http://www.w3.org/2000/svg">
        <path d="M13.9722 6.66664V4.78191C13.9722 4.19461 13.8565 3.61306 13.6318 3.07047C13.407 2.52787 13.0776 2.03486 12.6623 1.61958C12.247 1.20429 11.754 0.87487 11.2114 0.65012C10.6688 0.42537 10.0873 0.309692 9.49999 0.309692C8.91269 0.309692 8.33114 0.42537 7.78854 0.65012C7.24595 0.87487 6.75293 1.20429 6.33765 1.61958C5.92236 2.03486 5.59294 2.52787 5.36819 3.07047C5.14344 3.61306 5.02776 4.19461 5.02776 4.78191V9.25414C5.02776 9.42358 5.09508 9.58608 5.21489 9.7059C5.33471 9.82571 5.49721 9.89303 5.66665 9.89303C5.8361 9.89303 5.9986 9.82571 6.11842 9.7059C6.23823 9.58608 6.30554 9.42358 6.30554 9.25414V7.94441H11.4167V6.66664H6.30554V4.78191C6.30554 3.9347 6.6421 3.12218 7.24117 2.5231C7.84025 1.92403 8.65277 1.58747 9.49999 1.58747C10.3472 1.58747 11.1597 1.92403 11.7588 2.5231C12.3579 3.12218 12.6944 3.9347 12.6944 4.78191V9.22219C12.6944 9.39164 12.7617 9.55414 12.8816 9.67396C13.0014 9.79377 13.1639 9.86108 13.3333 9.86108C13.5028 9.86108 13.6653 9.79377 13.7851 9.67396C13.9049 9.55414 13.9722 9.39164 13.9722 9.22219V7.94441H17.1667V19.4444H1.83332V7.94441H3.74999V6.66664H0.555542V19.5019C0.555542 19.8256 0.684106 20.1359 0.912953 20.3648C1.1418 20.5936 1.45218 20.7222 1.77582 20.7222H17.2242C17.5478 20.7222 17.8582 20.5936 18.087 20.3648C18.3159 20.1359 18.4444 19.8256 18.4444 19.5019V6.66664H13.9722Z" fill="#D97819"/>
    </symbol>

    <symbol id="eye-1" xmlns="http://www.w3.org/2000/svg" width="24" height="24" viewBox="0 0 24 24" fill="none" stroke="currentColor" stroke-width="2" stroke-linecap="round" stroke-linejoin="round" class="feather feather-eye">
        <path d="M1 12s4-8 11-8 11 8 11 8-4 8-11 8-11-8-11-8z"></path>
        <circle cx="12" cy="12" r="3"></circle>
     </symbol>

    <symbol id="eye-2" xmlns="http://www.w3.org/2000/svg" width="24" height="24" viewBox="0 0 24 24" fill="none" stroke="currentColor" stroke-width="2" stroke-linecap="round" stroke-linejoin="round" class="feather feather-eye-off">
        <path d="M17.94 17.94A10.07 10.07 0 0 1 12 20c-7 0-11-8-11-8a18.45 18.45 0 0 1 5.06-5.94M9.9 4.24A9.12 9.12 0 0 1 12 4c7 0 11 8 11 8a18.5 18.5 0 0 1-2.16 3.19m-6.72-1.07a3 3 0 1 1-4.24-4.24"></path>
        <line x1="1" y1="1" x2="23" y2="23"></line>
    </symbol>

    <symbol id="cash" viewBox="0 0 55 55" fill="none" xmlns="http://www.w3.org/2000/svg">
        <path fill-rule="evenodd" clip-rule="evenodd" d="M54.6 35.2C54.6 37.3 54.7 41.3 53.1 42.4C52.8 42.6 52.3 42.6 52 42.6C51.8 42.6 51.6333 42.6 51.5 42.6C51.3667 42.6 51.2667 42.6 51.2 42.6C51.1 43.4 51.1 44.2 51.2 45C51.2 47.5 51.3 50.3 49.7 51.9C47.5 54.1 44.4 54.1 41.3 54.2C40.8333 54.2 40.3667 54.2333 39.9 54.3C38.2 54.3 36.3 54.4 34.3 54.4C31.5 54.4 28.7 54.3 25.9 54.2C23.2 54.2 20.3 54.1 17.5 54.1C16.7 54.1 15.8667 54.1 15 54.1H14.9C14.1 54.1 13.3 54.1 12.5 54.1C10.6 54.1 8.29998 54.1 5.89998 53.5C2.89998 52.8 2.09998 51.6 1.29998 48.4C-2.13385e-05 43.5 0.100003 38.5 0.200003 33.7C0.300003 31.7 0.299979 29.6 0.299979 27.5C0.233312 26.4333 0.166664 25.3333 0.099997 24.2C-3.04729e-06 21.2 -0.099997 18.1 0.200003 15C0.200003 13.6 0.699997 12.2 1.6 11.3C3.1 9.7 5.29999 9.5 7.49999 9.5C7.96666 9.5 8.39998 9.5 8.79998 9.5C9.19998 9.5 9.59999 9.5 9.99999 9.5H10.3C10.3666 9.5 10.4333 9.5 10.5 9.5C13.5 7.7 16.5 5.9 19.6 4C21.0667 3.13333 22.5667 2.23334 24.1 1.3C24.3 1.23334 24.5 1.09999 24.7 0.899994C25.3 0.499994 26 0 26.8 0C28 0 28.9 1.7 29.5 2.8C29.5667 2.93334 29.6333 3.06666 29.7 3.2L30.3 2.89999C31.4333 2.23333 32.6 1.56666 33.8 0.899994C33.9333 0.833327 34.0667 0.733339 34.2 0.600006C34.6 0.400006 35.1 0 35.7 0C35.8333 0 35.9667 0.0333394 36.1 0.100006C37 0.400006 37.7 1.60001 38.3 2.60001C38.4333 2.93334 38.5667 3.23333 38.7 3.5C40.0333 5.43333 41.3333 7.43333 42.6 9.5L43.8 9.39999C46.2 9.39999 48.7 9.6 49.7 11.7C50.4 13 50.4 14.6 50.2 15.9C50.2 16.7 50.2 17.6 50.2 18.4C50.2 19 50.1667 19.6 50.1 20.2L50 20.3H50.1C51.7 22.1 51.7 24.9 51.6 27.6C51.6 28.0667 51.6 28.5333 51.6 29C54.5 29.6 54.7 31.7 54.6 34.4C54.6 34.6 54.6 34.8667 54.6 35.2V35.2ZM32.8 53.2C37.1 53.2 40.6 53.1 43.8 52.8C47.1 52.5 49.4 51.7 49.7 48.4C49.7 47.5 49.8 46.6 49.8 45.6C49.8 44.7 49.9 43.6 50 42.6L48.5 42.7C48.5 43.1 48.2 43.3 47.9 43.3C47.6 43.3 47.3 43.1 47.3 42.7H46.4H45.7C43.4 42.7 41 42.6 38.9 41.6C37.5 40.9 36.6 39.6 36.2 38C35.7 35.7 36.5 32.9 38 31.1C39.5 29.2 41.3 29.2 43.4 29.2C44.4 29.1333 45.3666 29.1 46.3 29.1C47.5 29 48.7 28.9 49.9 28.9H50.4C50.4 28.5 50.4 28.0667 50.4 27.6C50.5 25.1 50.7 22.3 48.8 20.8C47.4 19.6 45.3 19.5 43.4 19.4C43.0667 19.4 42.7333 19.4 42.4 19.4C40.7 19.3 38.8 19.2 36.7 19.1C35.9 19.1 35.1333 19.1 34.4 19.1C32.5 19.1 30.5 19.2 28.6 19.2C26.6 19.3 24.7 19.3 22.7 19.3C20.9 19.3 19.3 19.3 17.8 19.2C16.1 19.1 14.3 19 12.4 19C10.7 19 8.8 19.1 6.6 19.2C6.33333 19.2 6.06665 19.2 5.79998 19.2C3.59998 19.2 2.06667 18.7667 1.2 17.9C1.2 18.7 1.2 19.7 1.2 20.7C1.4 20.9 1.7 21 2.1 21.2C2.3 21.3 2.39998 21.5 2.39998 21.8C2.29998 22.1 2 22.3 1.7 22.3C1.63334 22.3 1.56666 22.2667 1.49999 22.2C1.36666 22.2 1.26667 22.1667 1.2 22.1C1.26667 23.1 1.33332 24.1333 1.39998 25.2C1.39998 26.3333 1.43332 27.5 1.49999 28.7C1.59999 30.6 1.49998 32.5 1.39998 34.3C1.39998 36 1.29998 37.8 1.29998 39.5C1.39998 42.1 1.6 44.5 2.1 46.7C2.23333 47.2333 2.36666 47.7667 2.49999 48.3C2.63332 48.3 2.73331 48.3333 2.79998 48.4C3.06665 48.6667 3.36667 48.8 3.7 48.8C4.1 48.8 4.29998 49.1 4.29998 49.4C4.29998 49.7 4.1 50 3.7 50C3.5 50 3.3 49.9667 3.1 49.9C3.7 51.2 4.69998 52 6.29998 52.3C8.39998 52.9 10.6 52.9 12.4 52.9C13.0667 52.9 13.7333 52.9 14.4 52.9C15.1333 52.9 15.8333 52.9 16.5 52.9H16.6C19 52.9 21.4 53 23.8 53C25.8 53.1 28 53.2 30 53.2C30.9333 53.2 31.8666 53.2 32.8 53.2V53.2ZM25.9 1.7C25.2 1.8 24.4 2.39999 23.6 2.89999C23.2667 3.16666 22.9667 3.40001 22.7 3.60001C20.5 4.93334 18.3 6.23333 16.1 7.5C12.3 9.8 8.3 12.2 3.7 15C4.6 15.2 5.59998 15.3 5.79998 15.3C7.13331 15.3667 8.43334 15.4 9.7 15.4H9.79998C16 11.5 22.3 7.6 28.7 3.8C28 2.8 27.3 1.60001 26.2 1.60001C26.1333 1.60001 26.0333 1.63333 25.9 1.7ZM49.1 14.2C48.9 10.8 46 10.7 43.3 10.7L44.5 12.5C44.5 12.5 44.7 12.5 44.8 12.5C45.1333 12.5 45.4666 12.5 45.8 12.5H46C46.4 12.5 46.8 12.6 47.2 12.8C47.5 13.2 47.6 13.8 47.6 14.2C47.7 14.8 47.7 15.3 47.7 15.9C48.2 16.5 48.1 17.5 48 18.3C48 18.5 48 18.7 48 18.9C48.3333 19.0333 48.6333 19.1667 48.9 19.3C48.9 19.1667 48.9 19 48.9 18.8C48.8333 18.4 48.8333 18 48.9 17.6C48.9 17.0667 48.9333 16.5667 49 16.1C49.1 15.5 49.2 14.8 49.1 14.2V14.2ZM45.2 13.7C45.8 14.6333 46.1666 15.2333 46.3 15.5C46.3 15.5 46.3333 15.5 46.4 15.5C46.4667 15.5 46.5 15.5 46.5 15.5C46.5 15.1 46.5 14.7333 46.5 14.4C46.5 14.3333 46.4667 14.2333 46.4 14.1C46.4 14.0333 46.3666 13.9333 46.3 13.8C46.0333 13.7333 45.6667 13.7 45.2 13.7ZM35.2 1.3V1.39999C34.8 1.39999 34 1.99999 33.4 2.39999C33.1333 2.59999 32.9 2.76666 32.7 2.89999L30.2 4.39999C24.3 7.89999 18.3 11.5 11.9 15.5H12.9C14.5 15.5 16.1 15.5 17.7 15.5H18.3C18.2 15.5 18.3 15.5 18.4 15.4C22.3 13.3 25.5 11.5 28.4 9.5C28.4667 9.43333 28.5667 9.39999 28.7 9.39999C28.8333 9.46666 28.9667 9.53334 29.1 9.60001C29.9 10.6 30.9333 11.1 32.2 11.1C33.2 11.1 34.2 10.8 35.2 10.2C35.2667 10.2 35.3667 10.2 35.5 10.2C35.7 10.2 35.9 10.3 36 10.5C36.9 12.1 38.1 13.5 39.4 15L39.8 15.5L39.7 15.6H39.8L40.9 15.5C41.6333 15.5 42.4 15.5 43.2 15.5C43.4667 15.5 43.8 15.5 44.2 15.5C44.4 15.5 44.6 15.4667 44.8 15.4C42.9 12.2 41 9.3 39.3 6.5C39.1 6.23333 38.9 5.9 38.7 5.5C37.8 3.9 36.5 1.49999 35.2 1.39999V1.3V1.3ZM5.79998 16.5H5.2C3.9 16.5 2.49999 16.4 1.49999 15.9C1.69999 16.5667 2.13331 17.0667 2.79998 17.4C3.59998 17.9 4.7 18.1 6.2 18.1C7.3 18.1 8.29998 18 9.29998 17.9C10.1 17.9 10.8 17.8 11.5 17.8C12.1667 17.8 12.8333 17.8 13.5 17.8C15.8 17.8 18 17.8 20.2 17.9C22.4 17.9 24.7 18 27 18C28.0667 18 29.1333 17.9667 30.2 17.9C31.0667 17.9 31.9667 17.9 32.9 17.9C34.6 17.9 36.5 17.9 38.6 18C39.2 18 39.8333 18 40.5 18C42.6 18.1 44.8 18.1 46.8 18.6C46.8 17.2 46.8 16.8 45.2 16.8C43.8 16.7333 42.4333 16.7 41.1 16.7C39.7 16.7 38.3333 16.7 37 16.7C35.4667 16.7 33.9667 16.7 32.5 16.7H28.8C26.0666 16.7667 23.3667 16.8 20.7 16.8C18.8333 16.8 16.9667 16.7667 15.1 16.7C11.8 16.7 9.1 16.6 6.6 16.5C6.33333 16.5 6.06665 16.5 5.79998 16.5V16.5ZM50.3 41.5C50.5 41.5 50.7333 41.5 51 41.5C51.2667 41.5 51.5 41.4667 51.7 41.4C53 40.9 53.2 38.8 53.3 37.5V37L53.4 36.5C53.6 34.2 53.9 30.7 51.3 30.1C50.7666 30.1 50.2 30.1 49.6 30.1C48.1 30.1 46.5 30.2 45 30.3C44.2 30.3 43.3667 30.3333 42.5 30.4C40.1 30.5 38.6 31.6 37.7 34.1C37.1 35.8 37.1 37.2 37.7 38.5C38.9 41.3 42.6 41.6 45.2 41.6C46.2 41.6 47.2 41.6 48.1 41.5C48.7 41.5 49.2333 41.5 49.7 41.5C49.9 41.5 50.1 41.5 50.3 41.5V41.5ZM20.7 15.6C23.1667 15.6 25.6 15.5667 28 15.5C30.6667 15.5 33.3 15.5 35.9 15.5H38.2C37.2 14.2 36.1 13 35.3 11.5C34.4 12 33.6 12.2 32.8 12.2C31.7 12.2 30.7 11.8 29.3 11.3L28.7 11.1C28.5667 11.0333 28.4667 11 28.4 11C28.3 11 28.2 11.1 28 11.2C27.9333 11.2667 27.7667 11.3667 27.5 11.5C27.1 11.7667 26.7 12.0333 26.3 12.3C25.8333 12.6333 25.3333 12.9333 24.8 13.2C23.4 14.1 21.9 14.9 20.6 15.6H20.7ZM1.89998 13.1C3.29998 12.5 5.29999 12.3 5.99999 12.3L6.7 11.8L8.6 10.7C8.2 10.7 7.83332 10.6667 7.49999 10.6C6.59999 10.6 5.49999 10.7 4.49999 11C3.49999 11.2 2.49998 12 1.89998 13.1V13.1ZM2.2 14.5L3.79998 13.6C2.49998 13.7 2.1 14 2.1 14.2C2 14.3 2 14.4 2.2 14.5V14.5Z" fill="#333333"/>
        <path fill-rule="evenodd" clip-rule="evenodd" d="M46 34.3998C46.4 35.1998 46.4 36.1998 46 37.1998C45.4 38.7998 44.1 39.7998 42.6 39.7998C42.1334 39.7998 41.6667 39.7331 41.2 39.5998C39.4 38.8998 38.5 36.9998 39.1 34.9998C39.6 33.3998 41.2 32.2998 42.9 32.2998C43.1 32.2998 43.2667 32.3331 43.4 32.3998C43.4667 32.3998 43.5 32.3998 43.5 32.3998C43.5667 32.3998 43.6334 32.3998 43.7 32.3998C43.7667 32.3998 43.8334 32.4331 43.9 32.4998C44.9 32.8998 45.7 33.4998 46 34.3998V34.3998ZM44.7 37.1998C45.1 36.3998 45.2 35.5998 44.9 34.8998C44.7 34.2998 44.1 33.7998 43.3 33.4998C43.1667 33.4998 43.0334 33.4998 42.9 33.4998C41.5 33.4998 40.4 34.7998 40.1 35.9998C39.9 37.0998 40.5 37.9998 41.6 38.3998C41.9334 38.5331 42.2667 38.5998 42.6 38.5998C43.5 38.5998 44.2 38.0998 44.7 37.1998V37.1998Z" fill="#333333"/>
        <path d="M6.59998 22.4002L4.69998 22.5002C4.29998 22.5002 4.09998 22.2002 4.09998 22.0002C4.09998 21.6002 4.29998 21.3002 4.69998 21.3002C5.96665 21.2335 6.59998 21.2002 6.59998 21.2002C6.99998 21.2002 7.09998 21.5002 7.19998 21.7002C7.19998 22.0002 6.99998 22.4002 6.59998 22.4002Z" fill="#333333"/>
        <path d="M11.9999 22.3001L9.69995 22.5001C9.39995 22.5001 9.19995 22.3001 9.19995 22.0001C9.19995 21.7001 9.39995 21.3001 9.69995 21.3001C11.2333 21.1668 11.9999 21.1001 11.9999 21.1001C12.2999 21.1001 12.4999 21.3001 12.4999 21.6001C12.5999 21.9001 12.3999 22.3001 11.9999 22.3001Z" fill="#333333"/>
        <path d="M16.6 22.4998C16.3333 22.4998 16.1666 22.4998 16.1 22.4998C15.7666 22.4998 15.4666 22.4998 15.2 22.4998C14.8 22.4998 14.6 22.1998 14.6 21.8998C14.6 21.5998 14.8 21.2998 15.2 21.2998C15.4666 21.2998 15.7666 21.2998 16.1 21.2998C16.2333 21.2998 16.4 21.2998 16.6 21.2998C17 21.2998 17.2 21.5998 17.2 21.8998C17.2 22.1998 17 22.4998 16.6 22.4998Z" fill="#333333"/>
        <path d="M22.1 22.4998C21.5 22.4998 20.9 22.4998 20.3 22.4998H20.2C19.8 22.4998 19.6 22.1998 19.6 21.8998C19.6 21.5998 19.8 21.2998 20.2 21.2998H20.3C20.9 21.2998 21.5 21.2998 22.1 21.2998C22.5 21.2998 22.7 21.5998 22.7 21.8998C22.7 22.1998 22.5 22.4998 22.1 22.4998Z" fill="#333333"/>
        <path d="M27.4001 22.5998H27.3C26.7 22.5331 26.1001 22.4998 25.5001 22.4998H25.3C25 22.4998 24.8 22.1998 24.8 21.8998C24.8 21.5998 25 21.2998 25.3 21.2998H25.5001C26.1001 21.2998 26.7 21.3331 27.3 21.3998C27.7 21.3998 27.9001 21.7998 27.9001 22.0998C27.9001 22.2998 27.7001 22.5998 27.4001 22.5998Z" fill="#333333"/>
        <path d="M31.9999 22.5002C31.7999 22.4335 31.5999 22.4002 31.3999 22.4002C31.2666 22.4002 31.1333 22.4335 30.9999 22.5002C30.9333 22.5002 30.8666 22.5002 30.7999 22.5002C30.4999 22.5002 30.3 22.2002 30.2 21.9002C30.2 21.6002 30.4 21.4002 30.7 21.3002C30.9 21.2335 31.0999 21.2002 31.2999 21.2002C31.5666 21.2669 31.7999 21.3002 31.9999 21.3002C32.1999 21.3002 32.3999 21.3002 32.5999 21.3002C32.9999 21.4002 33.2 21.7002 33.2 22.0002C33.2 22.2002 32.9999 22.5002 32.5999 22.5002C32.3999 22.5002 32.1999 22.5002 31.9999 22.5002Z" fill="#333333"/>
        <path d="M35 21.8002C35 21.5002 35.2 21.2002 35.6 21.2002C35.9333 21.2002 36.2667 21.2002 36.6 21.2002C37.1333 21.2002 37.6667 21.2002 38.2 21.2002C38.6 21.2002 38.8 21.5002 38.8 21.7002C38.8 22.0002 38.6 22.3002 38.2 22.4002C37.6667 22.4002 37.1333 22.4002 36.6 22.4002C36.2667 22.4002 35.9333 22.4002 35.6 22.4002C35.2 22.4002 35 22.1002 35 21.8002Z" fill="#333333"/>
        <path d="M40.9 21.8002C40.9 21.5002 41.1 21.2002 41.5 21.2002C41.7 21.2002 41.9 21.2002 42.1 21.2002C42.5667 21.2002 43.0334 21.2002 43.5 21.2002C43.9 21.3002 44.1 21.6002 44.1 21.9002C44.1 22.2002 43.9 22.4002 43.6 22.4002H43.5C43.0334 22.4002 42.5667 22.4002 42.1 22.4002C41.9 22.4002 41.7 22.4002 41.5 22.4002C41.1 22.4002 40.9 22.1002 40.9 21.8002Z" fill="#333333"/>
        <path d="M45.7999 22.8999C45.5999 22.7999 45.6 22.4999 45.7 22.2999C45.8 22.0999 45.9999 21.8999 46.2999 21.8999C46.4333 21.8999 46.5666 21.9666 46.7 22.0999C47.1 22.4999 47.4333 22.9666 47.7 23.4999C47.8333 23.6999 47.8333 23.8999 47.7 24.0999C47.6 24.2999 47.4 24.3999 47.1 24.3999C46.9 24.3999 46.7666 24.2999 46.7 24.0999C46.4333 23.6332 46.1333 23.2332 45.7999 22.8999Z" fill="#333333"/>
        <path d="M47.8999 26.6L47.9999 28.3C47.9999 28.4333 47.9333 28.5667 47.7999 28.7C47.7333 28.8333 47.5999 28.9 47.3999 28.9C47.0999 28.9 46.7999 28.7 46.7999 28.3L46.7 26.6C46.7 26.4667 46.7333 26.3333 46.7999 26.2C46.9333 26.0667 47.0999 26 47.2999 26C47.5999 26 47.8999 26.2 47.8999 26.6V26.6Z" fill="#333333"/>
        <path d="M9.00003 50.2C9.00003 50.5 8.80003 50.8 8.50003 50.8L7.00003 50.7C6.60003 50.7 6.40002 50.4 6.40002 50.1C6.40002 49.8 6.60003 49.5 7.00003 49.5L8.40002 49.6C8.80002 49.6 9.00003 49.9 9.00003 50.2Z" fill="#333333"/>
        <path d="M14.4999 50.1999C14.4999 50.3999 14.2999 50.6999 13.9999 50.6999L11.2999 50.5999C10.8999 50.5999 10.7 50.2999 10.7 49.9999C10.7 49.6999 10.8999 49.3999 11.2999 49.3999L13.8999 49.4999C14.2999 49.4999 14.4999 49.8999 14.4999 50.1999V50.1999Z" fill="#333333"/>
        <path d="M20.0999 49.8999C20.0999 50.1999 19.8999 50.5999 19.4999 50.5999C19.0999 50.6666 18.6999 50.6999 18.2999 50.6999C17.9666 50.6999 17.6333 50.6999 17.2999 50.6999C16.8999 50.5999 16.7 50.2999 16.7 49.9999C16.7 49.6999 16.9 49.4999 17.2 49.4999C17.6 49.4999 17.8999 49.4999 18.2999 49.4999C18.6999 49.4999 19.0999 49.4666 19.4999 49.3999C19.7999 49.3999 19.9999 49.5999 20.0999 49.8999Z" fill="#333333"/>
        <path d="M24.9999 49.8999C24.9999 50.1999 24.7999 50.5999 24.4999 50.5999H22.7999C22.3999 50.5999 22.2 50.2999 22.2 50.0999C22.2 49.7999 22.3999 49.4999 22.7999 49.3999H24.3999C24.7999 49.3999 24.9999 49.6999 24.9999 49.8999V49.8999Z" fill="#333333"/>
        <path d="M30.5 50.2001C30.5 50.5001 30.3 50.8001 29.9 50.8001H28.1C27.7 50.8001 27.5 50.5001 27.5 50.2001C27.5 49.9001 27.7 49.6001 28.1 49.6001H29.9C30.3 49.6001 30.5 49.9001 30.5 50.2001Z" fill="#333333"/>
        <path d="M35.7 49.9999C35.7 50.2999 35.5 50.5999 35.2 50.5999C34.6 50.7332 33.9667 50.7999 33.3 50.7999C33.0334 50.7999 32.7667 50.7999 32.5 50.7999C32.1 50.6999 31.9 50.3999 31.9 50.0999C31.9 49.7999 32.1 49.5999 32.4 49.5999C32.8 49.5999 33.1 49.5999 33.3 49.5999C33.9 49.5999 34.4334 49.5666 34.9 49.4999C34.9667 49.4332 35.0334 49.3999 35.1 49.3999C35.4 49.3999 35.6 49.6999 35.7 49.9999Z" fill="#333333"/>
        <path d="M40.3999 50.0999C40.3999 50.3999 40.1999 50.6999 39.7999 50.6999C39.6666 50.6999 39.5333 50.6999 39.3999 50.6999C39.1333 50.6999 38.8333 50.6999 38.4999 50.6999C38.2333 50.6999 37.9666 50.6666 37.7 50.5999C37.5666 50.5999 37.4333 50.6332 37.2999 50.6999C36.8999 50.6999 36.7 50.3999 36.7 50.0999C36.7 49.7999 36.8999 49.4999 37.2999 49.4999C37.4333 49.4332 37.5666 49.3999 37.7 49.3999C37.9666 49.4666 38.2666 49.4999 38.5999 49.4999C38.8666 49.4999 39.1333 49.4999 39.3999 49.4999C39.5333 49.4999 39.6666 49.4999 39.7999 49.4999C40.1999 49.4999 40.3999 49.7999 40.3999 50.0999Z" fill="#333333"/>
        <path d="M43.9 50.4998C43.6334 50.5665 43.3667 50.6331 43.1 50.6998C42.7667 50.7665 42.4334 50.7998 42.1 50.7998H42C41.6 50.7998 41.4 50.3998 41.4 50.0998C41.5 49.8998 41.6 49.5998 42 49.5998L42.1 49.6998V49.5998C42.4334 49.5998 42.7334 49.5665 43 49.4998C43.3334 49.4331 43.6334 49.3665 43.9 49.2998C44.4 49.3998 44.6 49.6998 44.6 49.9998C44.6 50.2998 44.4 50.5998 44.1 50.5998L44 50.4998C44 50.4998 43.9667 50.4998 43.9 50.4998V50.4998Z" fill="#333333"/>
        <path d="M45.3 49.7001C45.3 49.4001 45.5001 49.0001 45.9001 49.0001C46.3001 49.0001 46.7001 48.7001 46.9001 48.4001C47.0334 48.2001 47.2001 48.1001 47.4001 48.1001C47.6001 48.1001 47.8001 48.2001 48.0001 48.4001C48.0667 48.6001 48.0334 48.8001 47.9001 49.0001C47.5001 49.7001 46.8001 50.1001 45.9001 50.2001C45.6001 50.2001 45.4 50.0001 45.3 49.7001Z" fill="#333333"/>
        <path d="M47.1 46.6002C47.0333 46.4669 47 46.3335 47 46.2002L47.2 44.8002C47.2 44.4002 47.5 44.2002 47.8 44.2002C48 44.2669 48.1333 44.3335 48.2 44.4002C48.3333 44.5335 48.4 44.6669 48.4 44.8002L48.2 46.2002C48.2 46.6002 47.8 46.8002 47.6 46.8002C47.4 46.8002 47.2333 46.7335 47.1 46.6002V46.6002Z" fill="#333333"/>
        <path d="M49.8999 32.0999C49.6999 32.0999 49.5333 32.0999 49.3999 32.0999H49.2999C48.8999 32.0999 48.7 31.7999 48.7 31.4999C48.7 31.1999 48.8999 30.8999 49.2999 30.8999C49.4333 30.8999 49.5999 30.8999 49.7999 30.8999C50.4999 30.8999 51.3999 30.9999 51.9999 31.6999C52.4999 32.1999 52.6 32.8999 52.7 33.5999C52.7 33.7999 52.7333 34.0332 52.7999 34.2999C52.8666 34.4332 52.8333 34.5999 52.7 34.7999C52.6 34.8999 52.4 34.9999 52.2 34.9999C51.9 34.9999 51.6999 34.7999 51.5999 34.5999C51.5999 34.3999 51.5999 34.1666 51.5999 33.8999C51.4999 33.4999 51.4999 32.9999 51.2999 32.6999C50.9999 32.0999 50.3999 32.0999 49.8999 32.0999V32.0999Z" fill="#333333"/>
        <path d="M52.6 36.2998C52.6 36.5665 52.5334 36.7331 52.4 36.7998C52.2667 36.9331 52.1334 36.9998 52 36.9998C51.7 36.9998 51.4 36.7998 51.4 36.3998C51.4 35.9998 51.7 35.7998 52 35.7998C52.3 35.7998 52.6 35.9998 52.6 36.2998V36.2998Z" fill="#333333"/>
        <path d="M32 9.1001C32.1333 9.3001 32.1333 9.50009 32 9.70009C31.9 9.90009 31.7 10.0001 31.5 10.0001C31.3 10.0001 31.1333 9.90009 31 9.70009C30.5333 8.96676 30.0667 8.23342 29.6 7.50009C29.4667 7.30009 29.4333 7.10009 29.5 6.90009C29.7 6.70009 29.9 6.6001 30.1 6.6001C30.3 6.6001 30.4667 6.70009 30.6 6.90009C31.0667 7.63342 31.5333 8.36676 32 9.1001Z" fill="#333333"/>
        <path fill-rule="evenodd" clip-rule="evenodd" d="M34.4 6.09981C34.8 6.69981 34.9 7.1998 34.8 7.6998C34.6667 8.03313 34.4334 8.2998 34.1001 8.4998C33.9001 8.63313 33.7 8.6998 33.5 8.6998C32.7 8.6998 32.2 7.9998 31.8 7.4998C31.2 6.4998 31.2 5.69981 31.9 5.09981H32.1001H32C32.2667 4.89981 32.5001 4.7998 32.7001 4.7998C33.6001 4.7998 34.2 5.69981 34.4 6.09981V6.09981ZM33.3 7.3998C33.3667 7.3998 33.4334 7.3998 33.5 7.3998C33.6 7.3998 33.6001 7.2998 33.6001 7.1998C33.6001 6.9998 33.5 6.8998 33.4 6.6998C33.2 6.4998 33 6.09981 32.8 6.09981C32.7334 6.09981 32.7001 6.09981 32.7001 6.09981C32.5001 6.19981 32.5001 6.19981 32.7001 6.59981C32.8001 6.79981 33.1 7.1998 33.3 7.3998V7.3998Z" fill="#333333"/>
        <path fill-rule="evenodd" clip-rule="evenodd" d="M34.7999 3.4998C34.9999 3.36647 35.2333 3.2998 35.5 3.2998C36.3 3.2998 36.9 4.0998 37.2 4.4998C37.5 5.0998 37.6 5.69981 37.5 6.09981C37.4333 6.49981 37.1999 6.76646 36.7999 6.8998C36.5999 7.03313 36.4 7.09981 36.2 7.09981C35.5 7.09981 34.9 6.3998 34.6 5.8998C34 4.9998 34 4.19981 34.7 3.59981L34.7999 3.4998ZM35.3999 4.9998C35.5999 5.1998 35.8 5.5998 36 5.7998C36.0666 5.86647 36.1333 5.8998 36.2 5.8998C36.4 5.7998 36.4 5.69981 36.4 5.59981C36.3 5.39981 36.2 5.29981 36.1 5.09981C36 4.89981 35.7 4.4998 35.5 4.4998C35.5 4.4998 35.4666 4.4998 35.3999 4.4998C35.2999 4.5998 35.2999 4.5998 35.3999 4.9998V4.9998Z" fill="#333333"/>
    </symbol>

 
</svg>   