<svg width="221" height="174" viewBox="0 0 221 174" fill="none" xmlns="http://www.w3.org/2000/svg">
<g style="mix-blend-mode:multiply">
<g style="mix-blend-mode:multiply">
<path d="M89.9 45.8999L220.6 121.3L130.6 173.2L0 97.7999L89.9 45.8999Z" fill="#E8E8E8"/>
</g>
</g>
<path d="M209.2 84.3C205.4 100.5 203.667 108.533 204 108.4C204.267 108.267 197.967 112.933 185.1 122.4L175.2 111.7C178.867 98.5 180.834 91.8001 181.1 91.6001L209.2 84.3Z" fill="#AA6838"/>
<path d="M197.3 110.5L176.8 122.4L131.4 96.2L151.9 84.3L197.3 110.5Z" fill="#C68B51"/>
<path fill-rule="evenodd" clip-rule="evenodd" d="M220.6 59.3V59.4L142.7 104.3L40 44.9L117.8 0L220.6 59.3ZM96.3 31.9C96.3 29.4 94.5 28.4 92.4 29.7L72.8 41C71.8 41.6 70.8 42.6 70.1 43.9C69.4 45.1 68.9 46.5 68.9 47.7C68.9 50.2 70.7 51.2 72.8 50L92.4 38.7C94.5 37.4 96.3 34.4 96.3 31.9V31.9Z" fill="#FFDDA8"/>
<path fill-rule="evenodd" clip-rule="evenodd" d="M217.9 59.3001L163.2 90.9001L117.8 64.7001L97.4002 76.5001L42.7002 44.9001L117.8 1.6001L217.9 59.3001ZM96.3002 31.9001C96.3002 29.4001 94.6002 28.4001 92.4002 29.6001L72.9002 40.9001C71.8002 41.6001 70.8002 42.6001 70.1002 43.8001C69.4002 45.1001 69.0002 46.4001 69.0002 47.7001C69.0002 50.2001 70.7002 51.2001 72.9002 49.9001L92.4002 38.7001C94.6002 37.4001 96.3002 34.4001 96.3002 31.9001Z" fill="#AA6838"/>
<path fill-rule="evenodd" clip-rule="evenodd" d="M117.8 1.6001V64.7001L97.4002 76.5001L42.7002 44.9001L117.8 1.6001ZM96.2002 32.0001C96.2002 29.5001 94.5002 28.5001 92.3002 29.8001L72.8002 41.1001C71.7002 41.7001 70.7002 42.8001 70.0002 44.0001C69.3002 45.2001 68.9002 46.6001 68.9002 47.8001C68.9002 50.3001 70.6002 51.3001 72.8002 50.1001L92.3002 38.8001C94.5002 37.5001 96.2002 34.5001 96.2002 32.0001V32.0001Z" fill="#DDA866"/>
<path d="M163.2 90.8999L142.7 102.7L97.3999 76.5L117.8 64.7L163.2 90.8999Z" fill="#C68B51"/>
<path d="M40 107V44.8999L142.7 104.3V165.8L40 107Z" fill="#BC7C46"/>
<path fill-rule="evenodd" clip-rule="evenodd" d="M220.6 59.3999V121.3L142.7 165.8V104.3L220.6 59.3999ZM199.7 94.3999C199.7 91.8999 198 90.8999 195.8 92.0999L176.3 103.4C175.2 104 174.2 105.1 173.5 106.3C172.8 107.5 172.4 108.9 172.4 110.2C172.4 112.6 174.1 113.6 176.3 112.4L195.8 101.1C198 99.8999 199.7 96.8999 199.7 94.3999V94.3999Z" fill="#DDA866"/>
<path d="M199.6 94.3001C199.6 96.8001 197.9 99.9001 195.7 101.1L176.2 112.4C174.8 113.2 173.5 113 172.8 112.1C173.5 112.3 174.3 112.2 175.2 111.7L194.7 100.4C196.9 99.2001 198.6 96.2001 198.6 93.7001C198.6 92.8334 198.4 92.1334 198 91.6001C199 91.9001 199.6 92.9001 199.6 94.3001Z" fill="#FFDDA8"/>
<path d="M96.2998 32C96.2998 34.4 94.4998 37.5 92.3998 38.7L72.7998 50C71.2998 50.9 69.9998 50.6 69.2998 49.5C69.9998 49.8 70.8998 49.7 71.8998 49.2L91.3998 37.9C93.5998 36.6 95.2998 33.6001 95.2998 31.1001C95.2998 30.3667 95.1665 29.7667 94.8998 29.3C95.6998 29.7 96.2998 30.6 96.2998 32V32Z" fill="#FFDDA8"/>
</svg>
