<svg width="60" height="60" viewBox="0 0 60 60" fill="none" xmlns="http://www.w3.org/2000/svg">
<g clip-path="url(#clip0_312_332)">
<path d="M60 50.4313V49.3196C59.9641 49.2801 59.9062 49.2455 59.8953 49.1994C58.6781 43.8913 57.4656 38.5815 56.25 33.2717C55.9953 32.1551 55.7453 31.0352 55.4734 29.9218C55.3437 29.3915 54.9875 29.1297 54.4672 29.2054C53.9812 29.2762 53.7094 29.7341 53.775 30.3105C53.7906 30.4522 53.8281 30.5922 53.8609 30.7305C55.2859 36.9576 56.7031 43.188 58.1516 49.4085C58.2984 50.0377 58.1094 50.26 57.5859 50.4198C55.9422 50.927 54.3063 51.4623 52.6672 51.9877C51.9281 52.2248 51.8703 52.1985 51.5984 51.4343C49.7766 46.3057 47.9563 41.1771 46.1297 36.0501C46.0313 35.7751 45.975 35.505 45.975 35.2118C45.9781 26.8124 45.9766 18.413 45.9812 10.0152C45.9812 9.86205 45.8906 9.65288 46.0516 9.5623C46.2094 9.47172 46.3297 9.65618 46.4516 9.74346C48.4703 11.1927 49.7969 13.1609 50.3906 15.6593C50.9531 18.0292 51.4844 20.4074 52.0328 22.7823C52.3359 24.0982 52.6281 25.4174 52.9563 26.7284C53.0938 27.2752 53.5188 27.5206 53.9766 27.4037C54.4563 27.2801 54.7031 26.8898 54.6422 26.3381C54.6281 26.1948 54.5984 26.0532 54.5672 25.9148C53.7953 22.5402 53.0094 19.1722 52.2516 15.7943C51.2719 11.425 48.825 8.41767 44.8313 6.81684C43.6313 6.33593 42.4672 5.73315 41.2406 5.35105C39.9703 4.95579 39.1359 4.2443 38.8922 2.84275C38.8719 2.72417 38.8141 2.61053 38.7609 2.50019C38.0156 0.966877 36.85 0.0478796 35.1953 0.0297632C31.7391 -0.00811665 28.2813 -0.0097636 24.825 0.0297632C23.125 0.0495265 21.9219 0.981699 21.2109 2.599C20.9828 3.11944 20.7984 3.66293 20.6188 4.20478C20.5203 4.50123 20.3547 4.65769 20.075 4.77297C18.3328 5.48446 16.6 6.21735 14.8656 6.95024C11.2109 8.49672 8.83437 11.2751 7.88125 15.2969C6.38281 21.6097 4.96719 27.9455 3.51875 34.2731C3.15781 35.8492 2.8 37.427 2.44375 39.0048C2.34219 39.4511 2.45469 39.8217 2.84219 40.0638C3.15781 40.2614 3.47656 40.235 3.77969 40.0275C4.06719 39.8282 4.13594 39.5005 4.20938 39.181C5.9375 31.6363 7.68906 24.0982 9.37656 16.5437C9.9875 13.8147 11.1594 11.5188 13.3609 9.87851C13.5422 9.74346 13.7063 9.54912 14.0234 9.54254V10.3314C14.0234 11.9569 14.0156 13.5841 14.0297 15.2097C14.0344 15.791 14.3953 16.1814 14.8734 16.1962C15.3438 16.2094 15.725 15.819 15.7781 15.2574C15.7938 15.0944 15.7844 14.928 15.7844 14.7633C15.7844 12.8693 15.7953 10.9754 15.7766 9.08139C15.7719 8.69601 15.8719 8.50661 16.2281 8.36497C17.6469 7.79677 19.0547 7.20222 20.4578 6.58956C20.8172 6.4331 21.0344 6.4858 21.3141 6.78225C23.7859 9.41737 26.275 12.0343 28.7703 14.6448C29.0281 14.9149 29.125 15.1866 29.125 15.5654C29.1172 28.0608 29.1156 40.5562 29.1313 53.0516C29.1313 53.5638 28.9734 53.6445 28.5391 53.6428C24.7891 53.6264 21.0391 53.633 17.2891 53.633C16.0047 53.633 15.7844 53.4057 15.7844 52.0684C15.7844 41.2199 15.7859 30.3698 15.7828 19.5214C15.7828 19.276 15.7875 19.024 15.7391 18.7868C15.6375 18.2993 15.3281 18.0441 14.8547 18.0671C14.3812 18.0902 14.1031 18.3751 14.0406 18.8692C14.0156 19.0734 14.0234 19.2809 14.0234 19.4868C14.0234 24.6747 14.0219 29.8609 14.0234 35.0488C14.0234 35.3584 14.0188 35.6615 13.9125 35.9596C12.0469 41.1804 10.1844 46.4029 8.32969 51.627C8.17813 52.0552 7.97344 52.1985 7.53438 52.0535C5.79063 51.4738 4.03906 50.9155 2.28437 50.3687C1.8375 50.2287 1.71094 50.0047 1.82969 49.5074C2.32656 47.4586 2.7875 45.3999 3.25469 43.3445C3.42187 42.605 3.1875 42.1126 2.62656 41.9792C2.09844 41.854 1.69844 42.185 1.53437 42.8982C1.36875 43.6162 1.22813 44.3409 1.04531 45.054C0.679688 46.472 0.473437 47.9329 0 49.3196V50.4313C0.114063 50.7541 0.107813 51.1197 0.334375 51.4014C0.571875 51.6978 0.571875 52.0338 0.46875 52.3928C0.3125 52.9429 0.171875 53.4979 0.109375 54.0743C-0.053125 55.6159 0.445313 56.4558 1.84219 56.9005C2.79531 57.2035 3.75312 57.4901 4.71406 57.7685C5.97031 58.1324 7.0625 57.5395 7.52969 56.245C7.70937 55.7444 7.8625 55.2338 8.01719 54.7249C8.12656 54.3659 8.325 54.1238 8.66875 53.9953C9.42656 53.7104 9.86563 53.0977 10.1359 52.3352C11.3469 48.9243 12.5687 45.5185 13.7703 42.1027C13.8391 41.9116 13.9281 41.7255 13.9281 41.5131C13.9297 41.4686 13.9281 41.4521 13.9062 41.462C13.8344 41.495 13.9266 41.3665 13.9203 41.4373C13.975 41.63 13.8953 41.8062 13.8953 41.9857C13.8969 45.6074 13.8875 49.229 13.9031 52.8507C13.9063 53.7581 14.2563 54.6113 15.0016 54.9736C16.0078 55.4627 16.0828 56.2351 16.0078 57.1756C15.9969 57.3188 16.0125 57.4638 16.0281 57.6071C16.1125 58.4141 16.3594 59.1222 17.0375 59.6048C17.5188 59.9474 18.0469 59.9984 18.6031 59.9984C25.1031 59.9935 31.6047 59.9951 38.1047 59.9951C39.3156 59.9951 40.5266 60.0116 41.7359 59.9885C42.8578 59.9688 43.6422 59.2589 43.8922 58.1061C44.0281 57.4753 43.9937 56.8379 43.9922 56.2006C43.9906 55.8152 44.0938 55.5352 44.4484 55.3573C45.6344 54.7578 46.1281 53.7532 46.1156 52.3681C46.0828 49.0363 46.1016 45.7013 46.1078 42.3678C46.1094 42.129 46.0766 41.8869 46.0672 41.6844C46.0953 41.7782 46.1531 41.882 46.1906 41.9874C47.4094 45.4608 48.6516 48.9243 49.8859 52.3928C50.15 53.1339 50.5953 53.7219 51.3312 53.9953C51.6766 54.1238 51.8719 54.3675 51.9828 54.7249C52.1594 55.2914 52.3156 55.8662 52.5359 56.4163C52.9844 57.5313 54.0625 58.1011 55.1734 57.7997C55.8531 57.6153 56.5266 57.3995 57.2 57.1904C57.65 57.052 58.1109 56.9499 58.5437 56.7572C59.6156 56.278 60.0437 55.4775 59.9156 54.2572C59.8484 53.6198 59.7078 53.0022 59.5344 52.3912C59.4547 52.1095 59.3906 51.8164 59.575 51.5611C59.8203 51.2218 59.9078 50.8282 60 50.4313ZM6.29687 53.7548C6.0875 54.4004 5.89844 55.0263 5.67813 55.6389C5.59688 55.8679 5.40313 55.8695 5.18438 55.8003C4.23281 55.5006 3.27813 55.2107 2.32031 54.9373C1.95625 54.8336 1.85781 54.6409 1.97656 54.2621C2.16562 53.661 2.15312 52.8144 2.5375 52.5081C2.89219 52.2265 3.60313 52.7469 4.15781 52.9083C4.77656 53.0895 5.38594 53.3036 6 53.5029C6.13594 53.5473 6.33437 53.5226 6.29687 53.7548ZM36.5531 2.96792C36.8141 2.67806 36.9375 2.80322 37.0453 3.07168C37.2812 3.65634 37.5016 4.2476 37.7344 4.83391C37.8016 5.00355 37.7859 5.13036 37.6531 5.26871C35.5141 7.51679 33.3781 9.76982 31.2406 12.0212C31.5813 9.64794 32.4906 7.58102 33.9531 5.81385C34.7734 4.82238 35.6953 3.92644 36.5531 2.96792ZM24.2078 7.22528C23.6156 6.59944 23.0219 5.9736 22.4297 5.34611C22.3109 5.22094 22.1547 5.12048 22.25 4.88497C22.5031 4.26407 22.7312 3.63164 22.9875 3.01239C23.0516 2.85922 23.1422 2.65665 23.3672 2.88887C25.3125 4.88661 27.2734 6.87119 28.2297 9.65782C28.4875 10.4088 28.7281 11.1648 28.7484 12.0228C27.2344 10.4236 25.7219 8.82447 24.2078 7.22528ZM28.9969 57.8755C28.6594 58.1983 27.8484 57.9793 27.2469 57.9793C24.3766 57.9842 21.5062 57.9694 18.6375 57.9941C18.1156 57.9974 17.9359 57.8228 17.9734 57.2875C18.0141 56.7177 17.7984 55.9552 18.0719 55.6192C18.3891 55.2289 19.1328 55.5072 19.6891 55.499C20.9766 55.4775 22.2656 55.4924 23.5547 55.4924C25.2531 55.4924 26.9516 55.5055 28.65 55.4825C29.0375 55.4759 29.1594 55.5928 29.1234 55.993C29.0656 56.6403 29.3797 57.5099 28.9969 57.8755ZM24.9531 1.9254H35.0922C32.9219 4.0302 31.0281 6.25852 30.0328 9.30538C28.3953 5.73479 28.3953 5.73479 24.9531 1.9254ZM41.8641 57.859C41.4953 58.2428 40.7453 57.9743 40.1656 57.976C37.2375 57.9891 34.3078 57.9727 31.3797 57.9924C30.9641 57.9957 30.8406 57.8739 30.8734 57.4456C30.9109 56.9763 30.9109 56.4987 30.8734 56.0276C30.8406 55.6027 30.9578 55.4743 31.3766 55.4808C33.075 55.5072 34.7734 55.4924 36.4719 55.4924C38.1703 55.4924 39.8687 55.5023 41.5672 55.4825C41.9203 55.4792 42.0672 55.5665 42.0234 55.9585C41.9531 56.6041 42.2859 57.4226 41.8641 57.859ZM44.2156 30.7289C44.2156 37.8733 44.2156 45.0161 44.2141 52.1589C44.2141 53.3695 43.9609 53.633 42.7984 53.633C39.0109 53.6346 35.2219 53.6264 31.4328 53.6428C31.0172 53.6445 30.8703 53.572 30.8703 53.0829C30.8859 40.5677 30.8828 28.0509 30.8766 15.5341C30.8766 15.1784 30.9703 14.9231 31.2125 14.6695C33.7203 12.0426 36.2203 9.40913 38.7094 6.76413C38.9688 6.48909 39.1719 6.43145 39.5156 6.57968C40.9187 7.18905 42.3313 7.77701 43.75 8.3452C44.1203 8.49343 44.2266 8.6993 44.225 9.11433C44.2109 16.3197 44.2156 23.5251 44.2156 30.7289ZM57.7531 54.9077C56.7609 55.2025 55.7703 55.5039 54.7813 55.8135C54.4813 55.9074 54.3438 55.7625 54.2594 55.4924C54.0953 54.9653 53.9469 54.4334 53.7563 53.9179C53.6547 53.6396 53.7375 53.5753 53.9781 53.5029C55.0609 53.1685 56.1375 52.8128 57.2156 52.4636C57.3625 52.4159 57.5125 52.3203 57.5797 52.5789C57.7422 53.213 57.9125 53.8438 58.0797 54.4762C58.0969 54.7282 57.9703 54.8418 57.7531 54.9077Z" fill="black" stroke="#F2F1F1" stroke-width="0.34"/>
<path d="M22.2517 38.952C21.9845 41.0271 21.4063 42.992 20.4188 44.8168C19.9235 45.7308 19.3454 46.5823 18.6517 47.3382C18.1876 47.8439 17.6423 47.8982 17.2657 47.4996C16.872 47.083 16.9142 46.5807 17.3923 46.0421C19.0392 44.1827 19.9438 41.9445 20.3923 39.4757C20.4407 39.2139 20.4517 38.9405 20.5251 38.6885C20.6688 38.1944 21.0032 37.9408 21.497 38C21.9376 38.0544 22.2501 38.4711 22.2517 38.952Z" fill="black" stroke="#F2F1F1" stroke-width="0.34"/>
<path d="M43.0063 46.8458C42.9985 47.1983 42.8219 47.4914 42.5094 47.6611C42.1672 47.8472 41.8047 47.8011 41.5329 47.5161C41.1625 47.1242 40.8047 46.7124 40.4891 46.271C38.9672 44.1399 38.1282 41.7139 37.761 39.0936C37.6844 38.5485 37.9985 38.0972 38.4844 38.0001C38.9563 37.9062 39.3985 38.2224 39.4891 38.7889C39.7266 40.2943 40.0922 41.7535 40.7297 43.132C41.2204 44.1909 41.8219 45.1692 42.5938 46.024C42.8 46.2513 42.9938 46.4769 43.0063 46.8458Z" fill="black" stroke="#F2F1F1" stroke-width="0.34"/>
<path d="M34.0298 20.6033C34.0205 20.7878 34.0283 20.9739 34.0001 21.1534C33.9267 21.6146 33.6564 21.8781 33.2142 21.9094C32.7736 21.9423 32.4611 21.7282 32.3267 21.2819C32.2017 20.8636 32.2298 20.4255 32.2892 20.0038C32.3611 19.4949 32.6814 19.2117 33.172 19.2001C33.6283 19.1903 33.9767 19.5806 34.0158 20.1093C34.0283 20.2723 34.0173 20.437 34.0173 20.6C34.022 20.6033 34.0251 20.6033 34.0298 20.6033Z" fill="black" stroke="#F2F1F1" stroke-width="0.34"/>
<path d="M34.03 29.6204C34.0206 29.8049 34.0284 29.991 34.0003 30.1705C33.9269 30.6316 33.6581 30.8951 33.2144 30.9281C32.7753 30.9594 32.4597 30.7502 32.3269 30.3022C32.2019 29.8839 32.23 29.4458 32.2878 29.0242C32.3581 28.5136 32.68 28.232 33.1706 28.2188C33.6269 28.2073 33.9753 28.5976 34.0159 29.128C34.0284 29.291 34.0175 29.4557 34.0175 29.6187C34.0222 29.6204 34.0253 29.6204 34.03 29.6204Z" fill="black" stroke="#F2F1F1" stroke-width="0.34"/>
<path d="M34.0315 38.5864C34.0221 38.7906 34.03 38.9981 33.9987 39.199C33.9315 39.6322 33.6784 39.8908 33.2643 39.9435C32.8284 39.9978 32.4846 39.815 32.3456 39.372C32.1924 38.8795 32.1956 38.3575 32.3378 37.8617C32.4659 37.4171 32.8065 37.198 33.2346 37.2491C33.655 37.3001 33.9503 37.5603 34.0018 38.0363C34.0221 38.2175 34.005 38.4036 34.005 38.588C34.0143 38.5864 34.0221 38.5864 34.0315 38.5864Z" fill="black" stroke="#F2F1F1" stroke-width="0.34"/>
<path d="M34.0236 47.4783C34.022 48.5982 33.6939 49.0363 33.0439 48.9638C32.447 48.8963 32.2267 48.45 32.2595 47.3696C32.2798 46.7009 32.5986 46.2595 33.1079 46.2579C33.5626 46.2562 33.8908 46.4901 33.9892 46.9792C34.0329 47.1983 34.0204 47.4272 34.0236 47.4783Z" fill="black" stroke="#F2F1F1" stroke-width="0.34"/>
</g>
<defs>
<clipPath id="clip0_312_332">
<rect width="60" height="60" fill="white"/>
</clipPath>
</defs>
</svg>
