<svg width="34" height="35" viewBox="0 0 34 35" fill="none" xmlns="http://www.w3.org/2000/svg">
<g clip-path="url(#clip0_271_330)">
<path d="M31.5747 21.1077C31.0382 20.9416 31.0382 20.9416 31.0382 20.3586C31.0382 16.7221 31.0296 13.0847 31.0449 9.44727C31.0487 8.53595 30.6866 7.92742 29.8991 7.50469C25.446 5.11381 21.0006 2.71015 16.561 0.29273C15.8501 -0.0946076 15.2082 -0.100506 14.4945 0.288798C10.0338 2.71802 5.5654 5.12954 1.09319 7.53615C0.345907 7.93823 -0.00474188 8.53202 4.84067e-05 9.39812C0.0125031 12.0888 0.00483869 14.7796 0.00483869 17.4703C0.00483869 20.2111 0.00579675 22.951 0.00388063 25.6909C0.00292258 26.4636 0.325788 27.024 0.996427 27.3867C5.52803 29.8336 10.0587 32.2815 14.5855 34.7393C15.2226 35.0853 15.8243 35.0873 16.4604 34.7412C19.2014 33.2479 21.951 31.7703 24.692 30.278C24.9028 30.163 25.035 30.1551 25.2199 30.3262C25.7363 30.802 26.2901 31.2355 26.8831 31.6052C27.8134 32.1862 28.7801 32.2009 29.7008 31.616C30.5649 31.0664 31.3678 30.4215 32.0863 29.6744C32.5337 29.2084 32.8384 28.6697 32.9869 28.0297C33.1718 27.2284 33.2973 26.4174 33.4104 25.6044C33.4717 25.1669 33.5177 24.7275 33.5713 24.289C33.76 22.7583 33.0013 21.5491 31.5747 21.1077ZM20.7439 3.55561C21.793 4.13662 22.8507 4.70189 23.939 5.29077C22.7711 5.90028 21.6349 6.49407 20.4967 7.08491C17.1129 8.84169 13.729 10.6004 10.3413 12.3513C9.61606 12.7259 9.25679 13.2961 9.26254 14.1396C9.27595 16.2267 9.26829 18.3148 9.26446 20.4019C9.26446 20.5523 9.3296 20.742 9.13703 20.8236C8.94255 20.9082 8.86399 20.7184 8.76243 20.6142C8.45873 20.3006 8.15024 19.989 7.87144 19.6537C7.47864 19.1818 7.0159 19.0334 6.43052 19.1966C5.5539 19.4404 5.64396 19.3883 5.643 18.5458C5.64013 16.3348 5.65354 14.1238 5.63438 11.9138C5.62959 11.3496 5.8394 11.0192 6.33184 10.7646C10.9669 8.37276 15.5934 5.9632 20.2189 3.55266C20.4105 3.45337 20.5532 3.45042 20.7439 3.55561ZM5.31247 6.26304L14.9007 1.06741C15.3376 0.828515 15.7112 0.82065 16.1433 1.06446C17.1349 1.6258 18.1447 2.15372 19.1468 2.69639C19.2618 2.75931 19.3729 2.82812 19.5319 2.92152C18.9581 3.22038 18.4235 3.50056 17.8879 3.77779C13.888 5.85703 9.88719 7.93528 5.88635 10.0135C5.84419 10.0352 5.79054 10.046 5.75988 10.0794C5.40157 10.4618 5.06146 10.3271 4.66483 10.1089C3.59468 9.51904 2.50345 8.97047 1.38444 8.38652C2.71805 7.66493 4.01526 6.96399 5.31247 6.26304ZM15.0904 18.7326V34C14.2799 33.5645 13.501 33.1476 12.723 32.7269C8.97512 30.6997 5.22912 28.6697 1.47737 26.6494C1.0769 26.4331 0.862299 26.149 0.863257 25.6693C0.869964 20.2279 0.869964 14.7855 0.870922 9.34307V9.1199C1.6 9.49741 2.27927 9.84739 2.95757 10.1993C3.51037 10.4864 4.06221 10.7784 4.61692 11.0635C4.73764 11.1254 4.82386 11.1696 4.81716 11.3515C4.73668 13.6598 4.79895 15.9701 4.77979 18.2784C4.77788 18.5615 4.77021 18.8446 4.78362 19.1258C4.81907 19.8749 5.41594 20.3891 6.10479 20.163C6.77638 19.9428 7.23625 20.0902 7.62522 20.6702C7.78617 20.9101 8.01611 21.1018 8.2173 21.3112C8.61968 21.731 9.0374 21.849 9.47619 21.6474C9.94563 21.4321 10.1315 21.0379 10.1305 20.5228C10.1267 18.4711 10.1286 16.4194 10.1286 14.3686V13.9253C11.1451 14.4522 12.1204 14.9605 13.0976 15.4658C13.706 15.7794 14.3115 16.0969 14.9275 16.3908C15.0875 16.4675 15.0923 16.5668 15.0914 16.7064C15.0894 17.3818 15.0904 18.0572 15.0904 18.7326ZM14.8643 15.4028C13.5776 14.7039 12.2708 14.0442 10.9727 13.3688C10.8788 13.3197 10.7878 13.2656 10.6527 13.1899C11.6931 12.6463 12.6953 12.1213 13.6993 11.6002C17.3188 9.72254 20.9393 7.84778 24.555 5.96123C24.7974 5.8354 24.9728 5.83933 25.2104 5.97106C26.6704 6.7772 28.141 7.56269 29.6663 8.3875C28.2081 9.14645 26.8046 9.87787 25.401 10.6073C22.3247 12.2058 19.2445 13.7965 16.1759 15.4078C15.7131 15.6506 15.3232 15.6516 14.8643 15.4028ZM15.9526 34.0069V33.5625C15.9526 28.0464 15.9574 22.5293 15.9431 17.0131C15.9421 16.6229 16.0408 16.44 16.3972 16.2591C19.3787 14.7393 22.3448 13.187 25.3148 11.6445C26.8371 10.8541 28.3585 10.0607 29.8818 9.27228C29.9623 9.23001 30.0351 9.15136 30.1721 9.18381V9.45907C30.1731 13.1083 30.1702 16.7575 30.1827 20.4058C30.1836 20.7115 30.1012 20.7676 29.8263 20.7233C28.165 20.4549 26.5344 20.6231 24.9383 21.1421C23.5682 21.5884 22.8305 22.8557 23.0327 24.3195C23.1898 25.449 23.3144 26.5826 23.5491 27.6993C23.6832 28.3433 23.8777 28.9518 24.3414 29.4719C21.54 30.9858 18.7684 32.485 15.9526 34.0069ZM32.7474 23.8938C32.5979 25.2092 32.4466 26.5245 32.1448 27.8173C32.0279 28.3138 31.7893 28.7198 31.4463 29.0767C30.7949 29.753 30.0629 30.3271 29.2859 30.8374C28.6574 31.2483 27.9868 31.264 27.3545 30.857C26.543 30.334 25.7957 29.7225 25.1098 29.0295C24.5704 28.4829 24.419 27.779 24.3012 27.0662C24.1364 26.0753 23.9994 25.0784 23.8729 24.0806C23.7493 23.1083 24.2849 22.2815 25.1941 21.9856C27.2022 21.3309 29.216 21.325 31.2356 21.9237C32.0537 22.1665 32.0576 22.1842 31.4923 22.7967C30.4883 23.8859 29.4852 24.9752 28.4792 26.0615C28.1228 26.4469 27.9925 26.4449 27.6227 26.0733C27.5116 25.9622 27.4053 25.8433 27.2817 25.7489C27.1178 25.624 26.9406 25.6417 26.7844 25.7686C26.6273 25.8973 26.5842 26.0694 26.6532 26.264C26.8927 26.9394 27.8623 27.3946 28.5099 27.135C28.7379 27.0446 28.9142 26.8804 29.0809 26.6995C30.1654 25.5208 31.2538 24.345 32.3402 23.1663C32.3967 23.1044 32.4418 23.0306 32.5079 22.9412C32.7225 23.2627 32.7828 23.5782 32.7474 23.8938Z" fill="#262834" stroke="#262834" stroke-width="0.7"/>
</g>
<defs>
<clipPath id="clip0_271_330">
<rect width="33.6" height="35" fill="white"/>
</clipPath>
</defs>
</svg>
