<svg width="35" height="35" viewBox="0 0 35 35" fill="none" xmlns="http://www.w3.org/2000/svg">
<g clip-path="url(#clip0_271_334)">
<path d="M18.0469 -6.51039e-05C18.6913 0.0664714 19.3385 0.111133 19.9792 0.20319C23.8374 0.755534 27.1433 2.42168 29.9078 5.16426C30.338 5.59082 30.3425 6.2334 29.9469 6.63718C29.5395 7.05371 28.9006 7.05098 28.4503 6.60163C26.8298 4.9847 24.9503 3.77884 22.8039 2.98223C15.8686 0.406445 7.85593 3.30215 4.1627 9.71062C2.64421 12.3456 1.92324 15.1785 2.06908 18.2091C2.25046 21.9779 3.64043 25.2592 6.20528 28.0355C6.29824 28.1358 6.39486 28.2324 6.48874 28.3317C6.94082 28.8166 6.95996 29.451 6.53522 29.8548C6.09681 30.2722 5.48158 30.2367 5.01673 29.7609C3.36426 28.0701 2.09642 26.1287 1.23327 23.9275C0.555143 22.1985 0.157747 20.4066 0.0583985 18.549C0.0520182 18.426 0.0201172 18.3048 0.000976562 18.1826C0.000976562 17.7725 0.000976562 17.3623 0.000976562 16.9522C0.0201172 16.8072 0.047461 16.6623 0.0556641 16.5165C0.198763 13.9808 0.82767 11.5718 2.05176 9.34694C4.81074 4.33392 9.0071 1.28236 14.6545 0.269727C15.391 0.137565 16.1411 0.0874349 16.8848 -0.000976562C17.2722 -6.51039e-05 17.6596 -6.51039e-05 18.0469 -6.51039e-05Z" fill="#262834" stroke="white" stroke-width="0.1"/>
<path d="M16.6114 35C15.8941 34.8879 15.1668 34.8204 14.4631 34.6536C13.27 34.3711 12.0869 34.043 10.9103 33.7003C10.2841 33.518 9.99788 32.9237 10.2002 32.3622C10.3962 31.8163 10.9631 31.5702 11.5784 31.7762C13.178 32.3139 14.804 32.7405 16.4902 32.8891C18.8837 33.1014 21.2024 32.7314 23.3972 31.7826C28.7311 29.4766 31.8702 25.4033 32.7825 19.6839C33.3385 16.1984 32.6504 12.8917 30.9067 9.81368C30.801 9.62683 30.6853 9.43451 30.636 9.23034C30.5176 8.7336 30.7883 8.24506 31.2458 8.0655C31.7353 7.87227 32.2803 8.03634 32.5273 8.54219C33.076 9.66329 33.6384 10.7844 34.0841 11.9474C34.59 13.2681 34.836 14.6626 34.9436 16.0763C34.95 16.1647 34.9819 16.2522 35.0019 16.3397C35.0019 17.1145 35.0019 17.8892 35.0019 18.6639C34.9819 18.7615 34.9509 18.8581 34.9436 18.9565C34.7349 21.5505 33.9884 23.9859 32.6659 26.2208C29.906 30.8848 25.8509 33.7331 20.5152 34.7311C19.8808 34.8496 19.2355 34.9125 18.5957 35.0009C17.933 35 17.2722 35 16.6114 35Z" fill="#262834" stroke="white" stroke-width="0.1"/>
<path d="M4.38137 17.5227C4.39321 10.2675 10.2739 4.37764 17.5027 4.38037C24.7342 4.38311 30.6469 10.3112 30.6186 17.5291C30.5894 24.7588 24.7005 30.6249 17.4772 30.6194C10.273 30.6131 4.36952 24.7095 4.38137 17.5227ZM17.49 28.5687C23.5821 28.5714 28.5614 23.6003 28.5678 17.5072C28.5742 11.4177 23.5995 6.43662 17.5055 6.43206C11.4178 6.4266 6.43579 11.4041 6.43215 17.4963C6.4285 23.5985 11.3877 28.565 17.49 28.5687Z" fill="#262834" stroke="white" stroke-width="0.1"/>
<path d="M18.5256 23.8949C18.5256 24.2713 18.531 24.624 18.5247 24.9759C18.5137 25.5874 18.0826 26.0377 17.5102 26.0432C16.925 26.0486 16.4857 25.5911 16.4757 24.9613C16.4702 24.6313 16.5778 24.2412 16.4374 23.9878C16.3125 23.7627 15.906 23.7035 15.6408 23.544C14.4276 22.8139 13.7696 21.7456 13.7295 20.3201C13.7131 19.7231 14.115 19.2765 14.6819 19.2318C15.2106 19.1899 15.6782 19.591 15.7638 20.1615C15.7957 20.3748 15.8003 20.5963 15.8641 20.7996C16.1302 21.6408 16.9861 22.1257 17.8593 21.948C18.7297 21.7712 19.2985 20.9727 19.2137 20.0503C19.1372 19.2236 18.4062 18.5528 17.553 18.5255C15.6499 18.4644 14.1679 17.2841 13.8051 15.5386C13.4177 13.6783 14.3985 11.8764 16.1868 11.2083C16.4319 11.1171 16.4903 10.9995 16.4793 10.7671C16.4638 10.4372 16.4684 10.1063 16.4775 9.77637C16.4939 9.19395 16.9396 8.75189 17.4984 8.75098C18.0571 8.75007 18.5046 9.1903 18.5228 9.77272C18.5338 10.1145 18.5438 10.4572 18.5192 10.7972C18.5019 11.0378 18.5976 11.1253 18.8118 11.2037C20.2655 11.7342 21.2353 13.0923 21.2709 14.6189C21.2864 15.2661 20.9008 15.7264 20.3102 15.7683C19.746 15.8084 19.283 15.3636 19.2247 14.7274C19.139 13.785 18.6258 13.187 17.7745 13.0394C16.823 12.8735 15.8869 13.568 15.7875 14.5132C15.6791 15.5514 16.4128 16.4328 17.4209 16.4738C19.2766 16.5494 20.7185 17.6723 21.1196 19.3522C21.5689 21.2343 20.5809 23.1065 18.7744 23.7973C18.7006 23.8265 18.6267 23.8557 18.5256 23.8949Z" fill="#262834" stroke="white" stroke-width="0.1"/>
</g>
<defs>
<clipPath id="clip0_271_334">
<rect width="35" height="35" fill="white"/>
</clipPath>
</defs>
</svg>
