<svg width="60" height="60" viewBox="0 0 60 60" fill="none" xmlns="http://www.w3.org/2000/svg">
<g clip-path="url(#clip0_312_341)">
<path d="M59.5161 47.367C58.8393 46.7319 58.1456 46.1109 57.4872 45.4605C50.937 38.9908 45.4654 31.8285 40.5829 24.2858C40.4088 24.0193 40.3512 23.7563 40.3499 23.4558C40.3486 21.0562 40.2609 18.6543 40.8748 16.2876C41.028 15.6982 40.6497 15.2404 40.0606 15.1512C39.5187 15.0702 39.0514 15.3883 38.9336 15.9741C38.749 16.8945 38.5801 17.8184 38.444 18.7458C38.4034 19.0241 38.3066 19.0969 38.0081 19.0969C32.6727 19.0898 27.3386 19.0898 22.0044 19.0957C21.7256 19.0957 21.5908 19.0558 21.5502 18.7588C21.1628 15.8297 20.4206 12.9629 19.5907 10.1161C19.3184 9.18277 19.4676 8.86346 20.4507 8.1356C20.9468 7.76815 21.5764 7.64488 22.2191 7.60849C24.2323 7.49344 26.1487 7.9419 27.8674 8.78011C29.3819 9.51853 30.6163 9.51617 32.1334 8.77892C33.8717 7.93367 35.809 7.47231 37.8458 7.61436C38.8747 7.68597 39.7255 8.05108 40.3185 8.8435C40.5384 9.13699 40.6078 9.41874 40.5017 9.76976C40.2609 10.5586 40.0528 11.3558 39.8446 12.1517C39.664 12.8443 39.9271 13.3057 40.5528 13.4337C41.1287 13.5522 41.5908 13.2306 41.7793 12.5626C42.0503 11.5999 42.3147 10.6349 42.5739 9.66996C42.6459 9.4023 42.6563 9.13463 42.5385 8.86462C42.1995 8.08863 41.744 7.3737 40.9848 6.88298C40.5633 6.6118 40.4389 6.29131 40.3761 5.86399C40.0619 3.72972 39.1391 1.85725 37.3392 0.38158C36.6324 -0.198357 35.9975 -0.118528 35.542 0.629286C34.504 2.33271 33.7107 4.11596 33.4581 6.06121C33.4254 6.31361 33.3206 6.42631 33.0549 6.50614C32.1072 6.79024 31.1844 7.13186 30.293 7.53571C30.0704 7.63667 29.9042 7.6261 29.6882 7.52866C28.7981 7.12247 27.8739 6.78085 26.9262 6.50027C26.6461 6.41692 26.5676 6.28192 26.5362 6.04243C26.2914 4.13591 25.506 2.39023 24.5138 0.711463C24.0124 -0.138485 23.371 -0.221836 22.5909 0.433234C21.0279 1.74573 20.0999 3.37519 19.7412 5.25C19.592 6.03421 19.4401 6.74328 18.6168 7.21639C18.3236 7.38309 18.1377 7.71532 17.9361 7.9912C17.4374 8.6721 17.313 9.36356 17.5591 10.1994C18.8288 14.5231 19.9873 18.8679 19.6522 23.3994C19.6299 23.6917 19.6286 23.9688 19.4532 24.24C14.6047 31.7076 9.20129 38.8194 2.72835 45.2445C1.96914 45.9982 1.16542 46.7143 0.393126 47.4562C-0.168429 47.9951 -0.126541 48.487 0.507008 48.953C0.691575 49.0881 0.886614 49.2148 1.07903 49.3416C2.81998 50.4804 4.65518 51.4829 6.54929 52.4021C6.71291 52.482 7.08597 52.4808 6.9302 52.8177C6.654 53.4153 6.99041 53.7686 7.51139 54.0786C8.96306 54.9403 10.4985 55.6658 12.0679 56.3373C12.7997 56.6495 13.3625 56.5286 13.6374 56.0156C13.911 55.5049 13.6649 55.0447 12.9266 54.7278C11.8101 54.2488 10.7171 53.7322 9.64111 53.1817C9.35052 53.0337 9.29554 52.9328 9.51676 52.6663C13.6924 47.6558 17.1507 42.2533 20.3159 36.6934C21.4809 34.6483 22.5804 32.5739 23.6368 30.4819C23.9522 29.8539 23.8606 29.4019 23.388 29.1237C22.8134 28.7879 22.1851 29.0168 21.8395 29.7059C20.1143 33.1527 18.2385 36.5314 16.2148 39.8455C13.9162 43.608 11.4344 47.2684 8.63974 50.7563C8.35045 51.1155 8.13709 51.1589 7.71559 50.9476C6.08329 50.1294 4.47323 49.2841 2.92994 48.3379C2.59746 48.1348 2.52546 48.0303 2.84224 47.7474C3.49018 47.1698 4.09886 46.5558 4.70623 45.943C10.9317 39.6658 16.1939 32.7735 20.8984 25.5266C21.1353 25.1604 21.3774 25.0183 21.8578 25.0207C27.2797 25.0371 32.7015 25.0371 38.1233 25.0207C38.5959 25.0195 38.8472 25.1428 39.0907 25.5149C44.2769 33.4661 50.0717 41.0206 57.1481 47.7357C57.423 47.9963 57.4492 48.116 57.0853 48.3344C55.5512 49.2583 53.9712 50.1106 52.3559 50.9147C51.8965 51.1437 51.6726 51.1484 51.3323 50.7246C47.3896 45.8057 44.0687 40.5592 41.0476 35.1531C40.037 33.3452 39.1051 31.5009 38.1469 29.6684C37.9361 29.2645 37.6455 28.9699 37.1246 28.9781C36.7279 28.9851 36.4164 29.1706 36.2515 29.5029C36.0747 29.8562 36.2109 30.1861 36.3784 30.5125C40.3276 38.25 44.7664 45.7376 50.4291 52.597C50.7027 52.9281 50.6294 53.0337 50.2681 53.2227C48.2915 54.2511 46.2325 55.121 44.0949 55.8383C37.9165 57.9104 31.5679 58.704 25.0007 57.9115C22.278 57.584 19.6273 56.997 17.0251 56.2175C16.2174 55.9757 15.6742 56.167 15.4818 56.7388C15.3051 57.26 15.6362 57.6638 16.4269 57.9069C19.5004 58.8519 22.6445 59.5023 25.8817 59.804C26.3123 59.8439 26.7836 59.7629 27.1828 60H27.836C28.3583 59.9002 28.8819 59.9002 29.4042 60H32.4083C32.4619 59.8815 32.5798 59.9073 32.6832 59.9014C36.9937 59.6725 41.1431 58.7944 45.1617 57.402C47.7195 56.5169 50.1725 55.4415 52.4711 54.0915C52.8926 53.8449 53.3154 53.5338 53.1374 53.0631C52.9607 52.5994 53.2264 52.5043 53.5628 52.3423C55.593 51.3632 57.5552 50.2831 59.3878 49.0235C60.164 48.4905 60.1954 48.0057 59.5161 47.367ZM35.5616 5.5118C35.809 4.46461 36.2017 3.45971 36.7607 2.42897C37.6429 3.46793 38.1246 4.5785 38.3746 5.86986C37.4741 5.74424 36.6023 5.82524 35.7279 5.88864C35.3627 5.91564 35.5341 5.63271 35.5616 5.5118ZM23.2388 2.42897C23.8004 3.4785 24.214 4.50689 24.4549 5.59397C24.5177 5.87807 24.3986 5.91212 24.1145 5.88512C23.3213 5.80764 22.5241 5.73015 21.6458 5.89099C21.8382 4.58437 22.3592 3.47967 23.2388 2.42897ZM38.2215 23.1353C37.8484 23.4405 36.94 23.2339 36.2685 23.2351C31.615 23.2386 26.9616 23.2269 22.3081 23.2492C21.7557 23.2515 21.5843 23.1235 21.6445 22.641C21.6916 22.2548 21.7021 21.8557 21.6432 21.473C21.5568 20.9212 21.8238 20.8519 22.3605 20.8566C24.9261 20.8813 27.493 20.8684 30.0586 20.8684C32.6465 20.8684 35.2344 20.8766 37.8222 20.859C38.2503 20.8555 38.3995 20.9564 38.3615 21.3415C38.2987 21.9578 38.6469 22.7831 38.2215 23.1353Z" fill="black" stroke="#F2F1F1" stroke-width="0.34"/>
<path d="M27.8359 60C28.3582 59.7828 28.8805 59.8415 29.404 60C28.8818 60 28.3595 60 27.8359 60Z" fill="black" stroke="#F2F1F1" stroke-width="0.34"/>
</g>
<defs>
<clipPath id="clip0_312_341">
<rect width="60" height="60" fill="white"/>
</clipPath>
</defs>
</svg>
