<svg width="60" height="60" viewBox="0 0 60 60" fill="none" xmlns="http://www.w3.org/2000/svg">
<path d="M35.8856 2.06097C36.0832 2.1251 36.2212 2.26795 36.3287 2.49388C36.4304 2.70669 36.4551 2.94865 36.4478 3.18333C36.4188 4.18471 36.4522 5.18754 36.4319 6.18892C36.4261 6.50377 36.5278 6.67431 36.8038 6.8259C37.8805 7.41769 38.8394 8.16399 39.5746 9.16391C40.2808 10.1245 40.599 11.1681 40.3999 12.3925C40.0497 14.5469 39.7795 16.7158 39.4744 18.8774C39.4569 19.0028 39.4322 19.1296 39.4032 19.2535C39.2811 19.7855 38.9004 20.0566 38.4224 19.9575C37.9865 19.8672 37.7381 19.4765 37.8107 18.9547C38.02 17.4402 38.2379 15.9272 38.4544 14.4142C38.575 13.5674 38.7057 12.7219 38.822 11.8751C38.9092 11.2395 38.6607 10.6944 38.3076 10.1944C37.6494 9.26448 36.7443 8.62896 35.749 8.12171C35.5717 8.03134 35.2869 8.06195 35.0806 8.129C33.0901 8.76744 31.5005 9.85482 30.7595 11.9436C30.6709 12.1943 30.2582 12.4814 29.9996 12.4785C29.741 12.4756 29.3443 12.1782 29.2528 11.9232C28.5074 9.83878 26.9324 8.73391 24.9288 8.11588C24.7239 8.05321 24.4159 8.02551 24.2662 8.13483C23.4497 8.72954 22.6157 9.31841 21.8892 10.0166C21.2775 10.604 21.1118 11.3809 21.2513 12.2774C21.741 15.4244 22.1594 18.5815 22.6084 21.7343C22.6258 21.8582 22.6636 21.9778 22.7014 22.1454C22.9266 22.1454 23.1402 22.1454 23.3538 22.1454C28.1296 22.1454 32.9055 22.1454 37.6814 22.1454C38.6883 22.1454 38.9513 22.4457 38.8205 23.4427C38.79 23.6773 38.7857 23.9222 38.713 24.1438C38.2989 25.4032 38.6636 26.4556 39.4395 27.473C40.0105 28.2222 40.458 29.0647 40.9491 29.8722C41.6465 31.0179 41.9938 32.2671 41.9938 33.6095C41.9953 41.0973 41.9894 48.585 42.0011 56.0713C42.0025 57.0435 41.4998 57.6149 40.6876 58.0012C37.9633 58.0012 35.239 58.0012 32.5147 58.0012C31.7199 57.7082 31.1998 57.1908 31.1126 56.3045C30.8162 53.2785 30.5154 50.254 30.2146 47.2294C30.1696 46.779 30.11 46.3301 30.0577 45.8797C29.9546 45.9365 29.9255 45.9832 29.9197 46.0327C29.587 49.3284 29.231 52.6226 28.9419 55.9226C28.8532 56.9415 28.4798 57.6557 27.5005 57.9997C24.7762 57.9997 22.0519 57.9997 19.3276 57.9997C18.3207 57.5522 17.9429 56.7768 18.0069 55.6836C18.0679 54.6487 18.0156 53.6079 18.0214 52.5687C18.0258 51.9477 18.3628 51.5615 18.8641 51.5819C19.3465 51.6008 19.6487 51.9696 19.6516 52.5701C19.6574 53.8062 19.6531 55.0422 19.6531 56.3279C19.871 56.3395 20.0454 56.3585 20.2197 56.3585C22.3803 56.3599 24.5423 56.3468 26.7028 56.3701C27.1605 56.376 27.2622 56.2185 27.3044 55.7885C27.8565 50.1709 28.4464 44.5576 28.9898 38.9385C29.1206 37.5815 29.1627 36.2128 29.1787 34.8499C29.2077 32.4274 29.1874 30.0034 29.1874 27.5808C29.1874 27.3666 29.1874 27.1523 29.1874 26.8739C28.583 26.8739 28.041 26.8477 27.5049 26.8943C27.3857 26.9045 27.2375 27.1494 27.1867 27.3126C26.7987 28.5633 26.4326 29.8197 26.0563 31.0733C25.9444 31.4464 25.7337 31.7933 25.3182 31.7481C25.0363 31.7175 24.6992 31.5353 24.5336 31.3123C24.4072 31.1418 24.4522 30.7847 24.519 30.5369C24.7936 29.5369 25.1075 28.5501 25.4024 27.5561C25.462 27.3534 25.5071 27.1465 25.5768 26.871C24.6919 26.871 23.8797 26.8564 23.0675 26.8856C22.9295 26.8899 22.7566 27.0517 22.6723 27.1858C21.911 28.3825 21.1583 29.585 20.4202 30.7963C19.8667 31.7059 19.6487 32.7058 19.6516 33.7684C19.6589 38.5421 19.6545 43.3157 19.6545 48.0894C19.6545 48.2716 19.672 48.4567 19.6429 48.6346C19.5688 49.0879 19.3 49.3619 18.8322 49.359C18.3658 49.3561 18.1013 49.0762 18.0301 48.6229C18.0054 48.4626 18.0199 48.295 18.0199 48.1317C18.0199 43.377 18.0301 38.6208 18.0141 33.8661C18.0083 32.3079 18.3992 30.8852 19.239 29.5763C19.9349 28.4889 20.6266 27.3972 21.2804 26.2836C21.4315 26.027 21.5114 25.6641 21.4707 25.3711C20.8532 20.937 20.2125 16.5059 19.5688 12.0748C19.4482 11.2395 19.6429 10.4845 20.0773 9.78193C20.859 8.51527 21.9168 7.53284 23.2114 6.81715C23.4903 6.66265 23.5906 6.49794 23.5848 6.18455C23.5659 5.18317 23.5993 4.18033 23.5688 3.17895C23.5601 2.90784 23.595 2.62798 23.7403 2.3933C23.8376 2.23588 23.9582 2.10469 24.1384 2.04785C24.907 1.80297 25.2368 2.54635 25.2208 3.18041C25.1918 4.2707 25.2121 5.361 25.2121 6.46733C27.1663 7.046 28.8242 8.02114 30.017 9.74549C31.2201 8.01385 32.8823 7.07078 34.8016 6.46733C34.8016 5.361 34.822 4.26925 34.7929 3.17895C34.7871 2.94136 34.8118 2.69648 34.9179 2.48076C35.0051 2.30293 35.146 2.11344 35.3421 2.0493C35.4293 2.02161 35.5238 2.02015 35.6153 2.02015C35.717 2.02307 35.8056 2.03473 35.8856 2.06097ZM40.3273 56.3628C40.3418 56.1529 40.3607 56.0115 40.3607 55.8702C40.3621 48.4363 40.3621 41.004 40.3607 33.5702C40.3607 32.5644 40.1006 31.6228 39.579 30.7657C38.851 29.569 38.1042 28.3854 37.3545 27.2019C37.2746 27.075 37.1336 26.8987 37.0174 26.8943C36.1761 26.8681 35.3334 26.8797 34.4399 26.8797C34.5023 27.129 34.5358 27.2849 34.5808 27.438C34.8975 28.5006 35.2303 29.5588 35.531 30.6258C35.7315 31.3356 35.239 31.9508 34.6142 31.7379C34.344 31.6461 34.0592 31.3167 33.9647 31.0339C33.5492 29.7935 33.2077 28.5283 32.8184 27.2791C32.7704 27.1231 32.6004 26.9045 32.4725 26.8943C31.9538 26.8506 31.4293 26.8753 30.8278 26.8753C30.8278 27.145 30.8278 27.3564 30.8278 27.5677C30.8278 30.5558 30.8234 33.5439 30.8322 36.532C30.8336 37.0232 30.8772 37.5145 30.9251 38.0028C31.3073 41.8436 31.6967 45.6844 32.0832 49.5252C32.2996 51.681 32.5118 53.8368 32.7486 55.9911C32.7631 56.1252 32.9622 56.3453 33.077 56.3468C35.4729 56.3672 37.8674 56.3628 40.3273 56.3628ZM22.9077 23.8085C22.9542 24.1263 23.0268 24.3785 23.021 24.6292C23.0094 25.1364 23.2419 25.2545 23.7185 25.2457C25.3167 25.2166 26.915 25.2341 28.5132 25.2341C28.7239 25.2341 28.9346 25.2341 29.1496 25.2341C29.1496 24.7108 29.1496 24.2677 29.1496 23.8085C27.0603 23.8085 25.0145 23.8085 22.9077 23.8085ZM37.1119 23.8289C34.9775 23.8289 32.9201 23.8289 30.8569 23.8289C30.8569 24.3027 30.8569 24.7341 30.8569 25.2006C32.875 25.2006 34.8641 25.2006 36.8997 25.2006C36.9695 24.7501 37.0378 24.3056 37.1119 23.8289Z" fill="black" stroke="#F2F1F1" stroke-width="0.34"/>
</svg>
