<svg width="60" height="60" viewBox="0 0 60 60" fill="none" xmlns="http://www.w3.org/2000/svg">
<g clip-path="url(#clip0_312_347)">
<path d="M59.4067 36.5906C58.9799 31.9219 58.3432 27.2812 57.3127 22.6875C57.1704 22.0578 56.7367 21.725 56.1728 21.8078C55.5708 21.8969 55.2516 22.3781 55.3939 23.0125C56.2318 26.7234 56.7957 30.4688 57.2103 34.2359C57.8158 39.7188 58.0865 45.2141 58.0448 50.725C58.0413 51.2766 57.8175 51.4813 57.1982 51.475C54.8352 51.4531 52.4706 51.4516 50.1094 51.4781C49.5993 51.4828 49.4744 51.3641 49.4761 50.9078C49.4935 43.7219 49.4952 36.5375 49.4848 29.3516C49.4796 25.525 50.0486 21.7703 51.1989 18.0891C51.5736 16.8891 51.9796 15.6953 52.5521 14.5031C52.9095 14.9828 53.1368 15.4438 53.3068 15.9266C53.6399 16.8719 53.9608 17.8219 54.2939 18.7672C54.5108 19.3828 54.9688 19.6328 55.5535 19.4687C56.0982 19.3156 56.3377 18.8766 56.1503 18.2922C55.864 17.3953 55.5587 16.5031 55.2447 15.6125C54.379 13.1687 52.6874 11.3437 50.1284 10.2094C48.5393 9.50625 46.9137 8.87187 45.3089 8.19687C45.1336 8.12344 44.8422 8.11563 44.8908 7.83281C45.0781 6.75938 44.6028 5.79219 44.2575 4.81875C43.6191 3.02344 42.2572 1.83906 40.2429 1.30469C38.5826 0.864063 36.8894 0.548437 35.1736 0.321875C34.3113 0.207812 33.4282 0.228125 32.5833 0H27.3786C27.3092 0.0546875 27.2242 0.059375 27.1357 0.0609375C24.5299 0.0703125 22.0195 0.578125 19.5473 1.2625C18.4161 1.575 17.4879 2.16719 16.7853 3.03125C15.7426 4.31562 15.3245 5.80625 15.118 7.34844C15.0608 7.77344 14.9185 8.025 14.4952 8.20312C13.2565 8.72031 12.0143 9.23125 10.7617 9.72188C8.07085 10.7766 6.11388 12.4844 5.03477 14.9609C4.55073 16.0703 4.1864 17.2172 3.84115 18.3672C2.65274 22.3344 1.90153 26.3766 1.32727 30.4484C0.983763 32.8875 0.707913 35.3328 0.524013 37.7859C0.407774 39.3422 0.29674 40.8984 0.229079 42.4578C0.111105 45.1859 -0.0415664 47.9141 0.0104808 50.6469C0.0312997 51.6531 0.378281 52.5297 1.40708 53.0766C1.72283 53.2453 1.83213 53.5 1.82346 53.8172C1.81478 54.0516 1.81652 54.2859 1.82519 54.5203C1.87897 56.1234 2.9737 57.1016 4.74851 57.1156C6.13643 57.1266 7.52436 57.0953 8.91228 57.125C10.1736 57.1516 11.3689 57.1125 12.33 56.1906C12.7083 55.8266 13.345 56.1312 13.397 56.6437C13.4126 56.7984 13.4022 56.9563 13.404 57.1109C13.4196 58.675 14.2645 59.6391 15.9282 60H44.1638C46.1191 59.2984 46.6395 58.6016 46.6413 56.6891C46.6413 56.5531 46.6378 56.4156 46.6413 56.2797C46.6569 55.7453 47.245 55.8797 47.5434 55.6766C47.795 55.5047 47.8401 55.8141 47.9338 55.9328C48.4629 56.6031 49.176 56.9453 50.0851 56.9469C51.9275 56.9516 53.77 56.9562 55.6125 56.9469C57.1253 56.9391 58.1732 55.9922 58.201 54.6234C58.2096 54.2344 58.1992 53.8438 58.2044 53.4531C58.2062 53.3031 58.1749 53.1594 58.4005 53.0734C59.6982 52.5844 59.9948 51.6203 59.9983 50.4563C60.0174 45.8266 59.8283 41.2062 59.4067 36.5906ZM41.6395 4.08437C42.4844 5.09062 42.7863 6.22656 42.9529 7.37813C43.0396 7.96719 42.6683 8.52187 42.0472 8.75469C39.7502 9.62031 37.4289 10.4344 35.092 11.2266C37.4862 9.02969 39.7242 6.7375 41.6395 4.08437ZM30.5015 12.55C30.2794 12.7219 30.1232 12.8687 29.804 12.6219C27.8956 11.1406 26.0566 9.59844 24.372 7.91094C24.3495 7.8875 24.3495 7.84375 24.3235 7.76719C28.201 7.5875 32.0316 7.5875 35.9803 7.77031C35.6975 8.05625 35.4685 8.29844 35.2273 8.52969C33.7353 9.94844 32.1531 11.2828 30.5015 12.55ZM31.9275 1.80156C34.4848 1.92656 36.9952 2.31094 39.4657 2.92344C39.9636 3.04687 40.0313 3.17031 39.7155 3.53906C39.0944 4.26406 38.5011 5.00781 37.913 5.75469C37.7187 6.00313 37.5053 6.09062 37.1583 6.07031C32.4619 5.80469 27.7655 5.80781 23.0691 6.06406C22.8054 6.07813 22.5885 6.08281 22.3908 5.85156C21.6396 4.97188 20.8987 4.0875 20.1961 3.08437C24.0702 2.04375 27.9563 1.60781 31.9275 1.80156ZM17.389 6.65937C17.6059 6.01094 17.7325 5.33281 18.1108 4.73281C18.2374 4.53125 18.3849 4.34219 18.574 4.075C20.4806 6.71406 22.7117 9.0125 25.0955 11.2484C24.8994 11.1766 24.7051 11.1031 24.5091 11.0344C22.5608 10.3469 20.6125 9.66562 18.6659 8.975C17.448 8.54219 17.0143 7.78125 17.389 6.65937ZM9.03373 55.1922C7.60763 55.1875 6.18154 55.1813 4.75545 55.1969C4.20722 55.2016 3.97648 55.0031 3.96433 54.5062C3.93484 53.2234 3.92269 53.2234 5.35746 53.2234H7.36648C8.33976 53.2234 9.31131 53.2328 10.2829 53.2188C10.5969 53.2141 10.7478 53.2594 10.7426 53.5922C10.7148 55.3141 10.9439 55.2 9.03373 55.1922ZM44.693 56.6906C44.6687 56.8422 44.693 57.0016 44.6878 57.1578C44.667 57.8687 44.2714 58.2391 43.4768 58.2391C34.5715 58.2438 25.6663 58.2438 16.7593 58.2391C15.9317 58.2391 15.5483 57.8703 15.5327 57.1141C15.5119 56.1234 15.5119 56.1234 16.5823 56.1234H30.1024C34.7624 56.1234 39.4206 56.1328 44.0788 56.1109C44.6062 56.1094 44.7641 56.25 44.693 56.6906ZM47.533 29.4547C47.5469 37.0312 47.5365 44.6078 47.5365 52.1844C47.5348 53.7672 46.8651 54.3656 45.0955 54.3656H14.6514C13.1628 54.3656 12.6857 53.9297 12.6857 52.5688C12.6857 50.7531 12.6874 48.9359 12.684 47.1203C12.684 46.4 12.3665 46.0375 11.7436 46.025C11.0983 46.0109 10.7374 46.4 10.7357 47.1313C10.7305 48.4391 10.7218 49.7484 10.7426 51.0563C10.7478 51.3922 10.635 51.475 10.2724 51.4734C7.84358 51.4594 5.41471 51.4547 2.98758 51.475C2.39251 51.4797 2.18258 51.2703 2.17738 50.75C2.14615 46.8234 2.25718 42.9 2.56079 38.9828C2.88175 34.8547 3.35017 30.7406 4.08924 26.6547C4.73463 23.0937 5.54657 19.5688 6.82519 16.1406C7.03164 15.5875 7.26239 15.0437 7.68397 14.4859C8.88105 17.2687 9.69299 20.0703 10.1978 22.9453C10.6472 25.4984 10.7565 28.0688 10.7409 30.65C10.7166 34.5547 10.7339 38.4609 10.7357 42.3656C10.7357 42.6172 10.7027 42.8719 10.8363 43.1141C11.0445 43.4922 11.3811 43.6594 11.8391 43.6109C12.3058 43.5625 12.5764 43.3078 12.6684 42.9047C12.6978 42.7719 12.6857 42.6313 12.6857 42.4953C12.684 37.9063 12.7083 33.3172 12.6736 28.7281C12.6337 23.4656 11.506 18.3859 9.33907 13.5016C9.12741 13.0266 9.20722 12.7687 9.64441 12.4937C10.269 12.1016 10.9265 11.7719 11.6153 11.4875C13.0101 10.9109 14.4085 10.3437 15.7981 9.75937C16.0774 9.64375 16.277 9.59687 16.525 9.84062C16.9102 10.2203 17.4341 10.4266 17.9616 10.6141C20.5362 11.525 23.1021 12.45 25.6854 13.3375C26.1798 13.5063 26.3741 13.6969 26.3672 14.2C26.3359 17.05 26.3516 19.9016 26.3533 22.7531C26.3533 22.9281 26.3325 23.1094 26.3741 23.2781C26.4956 23.7516 26.8217 24.0469 27.3821 24.0156C27.9303 23.9875 28.2478 23.6937 28.2964 23.1953C28.3155 23 28.3033 22.8047 28.3033 22.6094C28.3051 19.8562 28.3033 17.1031 28.3033 14.2906C29.5178 14.6859 30.7044 14.7187 31.9189 14.2844C31.9189 15.8844 31.9171 17.4266 31.9189 18.9672C31.9206 19.7016 32.2745 20.0938 32.9095 20.0813C33.5115 20.0688 33.8654 19.6719 33.8689 18.9828C33.8741 17.3625 33.8845 15.7406 33.8585 14.1203C33.8533 13.7344 33.9609 13.5359 34.3807 13.3922C36.9605 12.4984 39.5299 11.575 42.1045 10.6672C42.7135 10.4531 43.3068 10.2187 43.7683 9.7875C43.9227 9.64219 44.0441 9.60156 44.2697 9.70156C46.1069 10.525 48.0448 11.1578 49.837 12.0656C51.1781 12.7453 51.1729 12.7656 50.6472 14.0078C48.5462 18.9828 47.5226 24.1312 47.533 29.4547ZM54.634 55.1937C53.1871 55.1828 51.7384 55.1781 50.2915 55.1984C49.7121 55.2062 49.4779 55.0125 49.4796 54.4797C49.4813 53.2234 49.4622 53.2234 50.8328 53.2234H52.906C53.8568 53.2234 54.8092 53.2422 55.7582 53.2156C56.1694 53.2031 56.2631 53.325 56.2596 53.6781C56.244 55.2594 56.381 55.2062 54.634 55.1937Z" fill="black" stroke="#F2F1F1" stroke-width="0.5"/>
<path d="M44.9549 43.6234C44.9618 42.7125 44.5732 42.0078 43.763 41.4703C41.8911 40.2297 40.3262 38.7469 39.2471 36.8672C38.7804 36.0562 37.9771 35.6391 36.9709 35.6359C32.3976 35.6234 27.8262 35.6234 23.253 35.6359C22.2467 35.6391 21.4434 36.0547 20.9768 36.8656C19.8959 38.7438 18.3345 40.2313 16.4625 41.4719C15.6506 42.0109 15.2602 42.7094 15.2672 43.6203C15.2845 45.5328 15.2707 47.4469 15.2724 49.3594C15.2741 51.1844 16.2613 52.0687 18.3085 52.0687C22.2311 52.0719 26.1537 52.0703 30.0763 52.0703C34.1065 52.0703 38.1385 52.0766 42.1686 52.0656C43.9035 52.0609 44.9445 51.1 44.948 49.5375C44.9532 47.5656 44.9375 45.5953 44.9549 43.6234ZM42.9962 49.4078C42.9962 50.1922 42.8626 50.3109 41.9622 50.3109C37.9945 50.3141 34.025 50.3125 30.0573 50.3125H18.3466C17.3248 50.3109 17.2242 50.2219 17.2242 49.3125C17.2242 47.4766 17.238 45.6406 17.2155 43.8047C17.2085 43.35 17.3595 43.05 17.7741 42.7734C19.7641 41.4453 21.4504 39.8672 22.5798 37.8547C22.7672 37.5219 23.0413 37.3813 23.4629 37.3813C27.8869 37.3891 32.3109 37.3906 36.7349 37.3813C37.1825 37.3797 37.4601 37.5328 37.6596 37.8859C38.7856 39.8781 40.458 41.4422 42.4306 42.7594C42.8348 43.0313 43.0135 43.3219 43.0083 43.7828C42.9823 45.6578 42.9997 47.5328 42.9962 49.4078Z" fill="black" stroke="#F2F1F1" stroke-width="0.5"/>
</g>
<defs>
<clipPath id="clip0_312_347">
<rect width="60" height="60" fill="white"/>
</clipPath>
</defs>
</svg>
