<svg width="62" height="62" viewBox="0 0 62 62" fill="none" xmlns="http://www.w3.org/2000/svg">
<path d="M60.4782 34.0847C57.8734 30.7173 55.2461 27.3674 52.6151 24.0186C52.0618 23.3144 51.2919 23.0567 50.4006 23.1563C49.9556 23.2055 49.5725 23.4023 49.2179 23.6648C45.1792 26.6503 41.1394 29.637 37.0983 32.6201C36.8544 32.7994 36.6367 32.9869 36.5902 33.3056C36.5296 33.7098 36.6474 34.0449 37.0055 34.2652C37.4613 34.5441 37.8659 34.3999 38.2621 34.107C41.3964 31.7859 44.5414 29.4776 47.6662 27.1436C48.0208 26.8799 48.1719 26.8952 48.4384 27.2443C49.9294 29.1917 51.4478 31.118 52.9566 33.0513C53.5802 33.8492 54.0918 34.0215 54.6166 33.6055C55.1068 33.2165 55.0628 32.667 54.4786 31.9194C52.9673 29.9873 51.4549 28.0563 49.952 26.1183C49.8461 25.9836 49.5998 25.8746 49.7379 25.6344C50.1305 24.949 50.9076 24.8997 51.3942 25.5231C53.2196 27.8571 55.0438 30.1912 56.8691 32.5252C57.5212 33.3595 58.1757 34.1937 58.8242 35.0303C58.9777 35.2295 59.1871 35.4369 59.011 35.7099C58.7968 36.0427 58.4827 36.2887 58.1507 36.4961C58.0353 36.5676 57.9686 36.3825 57.9008 36.2981C57.6271 35.9642 57.3808 35.6068 57.0905 35.2893C56.7347 34.9014 56.198 34.8686 55.8065 35.1697C55.4091 35.4756 55.3187 35.9771 55.6114 36.4235C55.8149 36.734 56.0374 37.0386 56.2944 37.3069C56.6478 37.6737 56.6359 37.9045 56.223 38.2677C48.8882 44.7156 41.5713 51.1823 34.2485 57.6419C34.1544 57.7239 34.089 57.8751 33.8796 57.8317V57.2048C33.8796 39.2238 33.8808 21.2429 33.8796 3.26069C33.8796 2.2167 33.6047 1.94721 32.5492 1.94604C31.1725 1.94604 29.7945 1.92729 28.4178 1.95541C28.3773 1.95658 28.3357 1.95658 28.2976 1.94369C28.1822 1.90503 28.1429 1.76911 28.1048 1.65545C28.0191 1.39416 27.8383 1.1481 27.5765 1.05671C27.4325 1.00633 27.2754 1.00516 27.1219 1.00633C26.5448 1.00633 25.9665 1.0075 25.3882 1.0075C25.1062 1.00867 24.823 1.00867 24.5409 1.00867C24.303 1.00867 24.0424 0.981722 23.8187 1.07897C23.5414 1.19849 23.4724 1.47032 23.2463 1.63436C23.05 1.77614 22.7941 1.79137 22.5585 1.78668C21.9243 1.7738 21.29 1.77262 20.6558 1.78668C20.375 1.79254 20.0608 1.80309 19.8133 1.65194C19.5968 1.52071 19.517 1.26176 19.2921 1.13639C19.0458 0.999298 18.74 0.998126 18.4639 1.00047C17.6203 1.00633 16.7778 1.0075 15.9353 1.00398C15.6283 1.00164 15.0988 1.00164 14.937 1.3262C14.7133 1.77965 14.3099 1.79371 13.8767 1.78903C12.7273 1.77965 11.5778 1.77965 10.4283 1.78786C9.41924 1.79489 8.97896 2.22022 8.95873 3.21148C8.94207 3.99183 8.93255 4.77336 8.9623 5.55255C8.98253 6.12434 8.8207 6.6106 8.52202 7.09685C6.45272 10.4714 4.40722 13.8599 2.33316 17.2321C0.973065 19.4443 0.648213 21.7455 1.3836 24.2495C3.90745 32.8545 6.39442 41.4712 8.88852 50.0844C9.83452 53.3499 10.7889 56.612 11.7313 59.8787C11.8693 60.3544 12.0204 60.8207 12.5678 61H33.2727C33.4917 60.8137 33.7142 60.6309 33.9295 60.4399C39.0974 55.882 44.2641 51.3229 49.4309 46.7638C52.959 43.6506 56.4896 40.5385 60.0118 37.4194C61.1255 36.434 61.3219 35.1756 60.4782 34.0847ZM25.5619 3.1693C25.5619 3.02283 25.6833 2.90449 25.8308 2.90449H26.2342C26.383 2.90449 26.5032 3.02283 26.5032 3.1693V6.32001C26.5032 6.46648 26.383 6.58482 26.2342 6.58482H25.8308C25.6833 6.58482 25.5619 6.46648 25.5619 6.32001V3.1693ZM19.4183 4.13595C19.4183 3.8981 19.6134 3.70594 19.855 3.70594H23.1368C23.3784 3.70594 23.5735 3.8981 23.5735 4.13595V5.44358C23.5735 5.68143 23.3784 5.87359 23.1368 5.87359H19.855C19.6134 5.87359 19.4183 5.68143 19.4183 5.44358V4.13595ZM16.7338 3.19273C16.735 3.17398 16.7362 3.15524 16.7397 3.13883C16.7588 3.00526 16.8171 2.93964 16.9063 2.90801C16.9884 2.87754 17.0967 2.8752 17.2252 2.87403C17.3418 2.87286 17.4418 2.8752 17.5203 2.89746C17.5215 2.89746 17.5227 2.89746 17.5227 2.89863C17.6417 2.93261 17.7107 3.0158 17.7107 3.21031C17.7107 3.23726 17.7095 3.26655 17.7071 3.29818C17.6655 3.7821 17.6976 4.27187 17.6976 4.7593C17.6976 5.20689 17.6786 5.65683 17.7036 6.10325C17.7083 6.18878 17.7095 6.26377 17.7048 6.33056C17.7048 6.33407 17.7036 6.33759 17.7036 6.33993C17.681 6.54615 17.5774 6.65629 17.224 6.65395C16.8944 6.65161 16.7826 6.55787 16.7492 6.37508C16.7492 6.37508 16.7492 6.37508 16.7492 6.37391C16.7362 6.29775 16.735 6.20753 16.7373 6.10208C16.7588 5.16705 16.7695 4.23086 16.7338 3.29701C16.7326 3.28061 16.7326 3.2642 16.7326 3.24897C16.7326 3.22905 16.7338 3.21031 16.7338 3.19273ZM10.8507 4.03402C10.8507 3.8524 10.9995 3.70594 11.1839 3.70594H14.6728C14.8572 3.70594 15.006 3.8524 15.006 4.03402V5.54552C15.006 5.72713 14.8572 5.87359 14.6728 5.87359H11.1839C10.9995 5.87359 10.8507 5.72713 10.8507 5.54552V4.03402ZM31.3093 59.137C25.6381 59.1182 19.9656 59.1182 14.2944 59.137C13.7911 59.1393 13.6161 58.9987 13.4757 58.5125C10.1237 46.8845 6.75378 35.2611 3.36603 23.6425C2.81271 21.7443 3.04356 19.9973 4.07761 18.3148C6.18737 14.8817 8.27809 11.4369 10.364 7.98852C10.5449 7.68856 10.7282 7.55148 11.0994 7.56085C12.1894 7.5878 13.2806 7.57725 14.3718 7.56554C14.649 7.56202 14.8394 7.57374 14.937 7.90299C15.0595 8.32246 15.4141 8.50524 15.8532 8.50641C16.7647 8.50876 17.6774 8.50642 18.5901 8.50759C19.0304 8.50759 19.3933 8.33066 19.5182 7.91705C19.6134 7.59951 19.7693 7.55968 20.0573 7.56436C21.0283 7.58077 22.0004 7.57491 22.9714 7.56788C23.2201 7.56554 23.4057 7.56671 23.495 7.87838C23.6223 8.32714 23.99 8.50876 24.4541 8.50759C25.3453 8.50642 26.2378 8.50524 27.1303 8.50876C27.6241 8.50993 27.9834 8.29902 28.1227 7.83386C28.1869 7.61943 28.2714 7.56554 28.4784 7.56671C29.5304 7.57491 30.5811 7.59014 31.6318 7.56085C32.0804 7.54913 31.9745 7.82214 31.9745 8.05414C31.9769 11.0619 31.9757 14.0685 31.9757 17.0751V33.3606C31.9757 41.7372 31.9697 50.1137 31.9911 58.4902C31.9923 59.0444 31.8234 59.1382 31.3093 59.137ZM32.1411 5.44358C32.1411 5.68143 31.9459 5.87359 31.7044 5.87359H28.4225C28.181 5.87359 27.9858 5.68143 27.9858 5.44358V4.13595C27.9858 3.8981 28.181 3.70594 28.4225 3.70594H31.7044C31.9459 3.70594 32.1411 3.8981 32.1411 4.13595V5.44358Z" fill="black" stroke="#F2F1F1" stroke-width="0.34"/>
<path d="M25.3307 21.3106C25.245 18.4036 25.3128 15.4931 25.3116 12.5838C25.3116 11.6148 25.0153 11.3207 24.0479 11.3195C21.9465 11.3183 19.845 11.3195 17.7436 11.3195C15.5815 11.3195 13.4206 11.3172 11.2597 11.3207C10.4434 11.3219 10.0852 11.6593 10.084 12.4467C10.078 15.5705 10.0602 18.6942 10.0899 21.818C10.1066 23.524 10.7147 25.0437 11.9641 26.2353C14.0453 28.2202 16.5918 28.8084 19.375 28.294C23.5898 27.5148 25.4223 24.4016 25.3307 21.3106ZM19.5023 26.3349C17.1808 26.9055 15.0496 26.5458 13.2802 24.8691C12.4008 24.036 12.0069 22.951 11.9903 21.7547C11.97 20.3112 11.9986 18.8653 11.976 17.4218C11.97 17.0456 12.0641 16.9308 12.4603 16.9343C14.7807 16.9531 17.0999 16.939 19.419 16.9472C19.9819 16.9496 20.3972 16.7586 20.5305 16.1926C20.6792 15.5587 20.2044 15.0725 19.4464 15.0713C17.1665 15.0655 14.8854 15.0491 12.6067 15.0842C12.0652 15.0924 11.957 14.9413 11.9724 14.4421C12.0105 13.1954 11.9843 13.1942 13.2242 13.1942H17.7448C19.4298 13.1942 21.1159 13.213 22.7997 13.1825C23.2744 13.1743 23.4291 13.261 23.422 13.7696C23.3911 16.2688 23.3435 18.7692 23.4268 21.2649C23.5041 23.5545 22.2487 25.6612 19.5023 26.3349Z" fill="black" stroke="#F2F1F1" stroke-width="0.34"/>
<path d="M18.66 56.3142C17.7687 56.3142 16.8763 56.3001 15.985 56.3189C15.3817 56.3317 15.0117 56.0705 14.8415 55.5092C13.9205 52.4721 12.9959 49.4363 12.0808 46.398C11.8869 45.7547 12.1427 45.2486 12.7056 45.0951C13.2208 44.9545 13.7003 45.2544 13.8919 45.8754C14.7237 48.5739 15.5555 51.2711 16.3599 53.9778C16.4705 54.3481 16.6228 54.4547 17.0024 54.4488C18.4292 54.4266 19.8559 54.4371 21.2826 54.4406C22.0394 54.4418 22.4547 54.7792 22.4523 55.3792C22.4511 55.9779 22.0358 56.3107 21.2767 56.313C20.4033 56.3165 19.5322 56.313 18.66 56.3142Z" fill="black" stroke="#F2F1F1" stroke-width="0.34"/>
<path d="M25.7628 56.3141C25.645 56.3141 25.526 56.3177 25.4082 56.313C24.7799 56.2895 24.3539 55.8982 24.367 55.358C24.3789 54.8378 24.7906 54.464 25.3856 54.4406C25.6414 54.4312 25.8985 54.4335 26.1543 54.4394C26.8064 54.4546 27.2062 54.8062 27.2122 55.3639C27.2181 55.9263 26.8231 56.2907 26.1769 56.3118C26.0389 56.3177 25.9008 56.3141 25.7628 56.3141Z" fill="black" stroke="#F2F1F1" stroke-width="0.34"/>
</svg>
