<?xml version="1.0" encoding="iso-8859-1"?>
<!-- Generator: Adobe Illustrator 19.0.0, SVG Export Plug-In . SVG Version: 6.00 Build 0)  -->
<svg version="1.1" id="Layer_1" xmlns="http://www.w3.org/2000/svg" xmlns:xlink="http://www.w3.org/1999/xlink" x="0px" y="0px"
	 viewBox="0 0 511.999 511.999" style="enable-background:new 0 0 511.999 511.999;" xml:space="preserve">
<g>
	<g>
		<g>
			<path d="M56.666,167.43c5.165-3.224,10.642-6.09,16.419-8.546c1.343-0.573,2.693-1.108,4.045-1.625
				c-3.459-5.516-9.167-13.074-17.567-19.873c6.406,0.712,35.362,2.913,51.553-13.177c18.279-18.164,13.344-52.767,13.344-52.767
				s-34.573-5.149-52.85,13.016c-16.472,16.371-14.093,46.08-13.462,51.793c-10.925-8.416-26.155-15.374-46.619-15.301
				c-0.077,0-0.16,0.001-0.237,0.001C5.016,120.992-0.04,126.111,0,132.385c0.04,6.266,5.141,11.314,11.402,11.292
				c0.066-0.001,0.131,0,0.198-0.001C36.629,143.587,50.546,158.453,56.666,167.43z"/>
			<path d="M328.007,359.624l0.932-0.939l-91.698,0.331c-6.149,0.023-11.153-4.945-11.176-11.094l-7.674-140.136
				c-0.022-6.149,4.946-11.152,11.095-11.175l128.974-0.465c6.149-0.022,11.152,4.946,11.175,11.094L364.12,323.25l29.214-29.425
				L402.686,61.8c-0.032-8.879-7.256-16.052-16.136-16.02l-186.234,0.67c-8.88,0.032-16.053,7.257-16.021,16.136l5.226,109.963
				l1.521,32.004c-18.273-20.692-44.746-32.471-72.154-32.372c-12.341,0.044-24.863,2.493-36.914,7.614
				c-48.499,20.615-71.186,76.843-50.572,125.342c9.986,23.495,28.523,41.695,52.198,51.248c23.674,9.55,49.65,9.31,73.145-0.674
				c16.213-6.891,29.901-17.858,39.969-31.774l1.521,32.018l0.811,17.067c0.032,8.879,7.257,16.053,16.137,16.02l83.915-0.302
				L328.007,359.624z M125.315,302.697c-7.763,3.301-16.732-0.319-20.032-8.083c-3.298-7.763,0.318-16.732,8.081-20.031
				c7.765-3.301,16.733,0.318,20.033,8.082C136.698,290.428,133.08,299.396,125.315,302.697z M130.822,251.498
				c-3.3-7.763,0.318-16.732,8.081-20.032c7.764-3.301,16.733,0.319,20.033,8.082c3.3,7.763-0.318,16.733-8.082,20.033
				C143.09,262.882,134.122,259.262,130.822,251.498z M172.236,293.836c-7.763,3.3-16.732-0.319-20.032-8.082
				s0.318-16.733,8.082-20.033c7.764-3.3,16.733,0.32,20.033,8.083C183.618,281.567,180,290.537,172.236,293.836z"/>
			<path d="M474.507,249.269l-36.448,36.712c14.248,14.146,22.134,32.993,22.206,53.07c0.149,41.445-33.449,75.286-74.893,75.434
				c-20.075,0.073-38.977-7.678-53.227-21.823l-36.451,36.711c23.047,22.882,54.822,36.971,89.863,36.845
				c70.084-0.251,126.694-57.27,126.442-127.354C511.872,303.822,497.555,272.151,474.507,249.269z"/>
			<path d="M385.248,380.398c22.65-0.082,41.01-18.575,40.928-41.225c-0.04-10.972-4.349-21.273-12.136-29.003l-57.882,58.3
				C363.947,376.201,374.278,380.438,385.248,380.398z"/>
		</g>
	</g>
</g>
<g>
</g>
<g>
</g>
<g>
</g>
<g>
</g>
<g>
</g>
<g>
</g>
<g>
</g>
<g>
</g>
<g>
</g>
<g>
</g>
<g>
</g>
<g>
</g>
<g>
</g>
<g>
</g>
<g>
</g>
</svg>
