<svg width="20" height="25" viewBox="0 0 20 25" fill="none" xmlns="http://www.w3.org/2000/svg">
<path d="M3.02128 0.000488281C7.49711 0.000488281 11.9635 0.000488281 16.4394 0.000488281C16.8241 0.244238 16.9085 0.600488 16.9085 1.04111C16.8992 6.67549 16.8992 12.3099 16.8992 17.9536C16.8992 18.113 16.8992 18.2817 16.8992 18.4224C16.4769 18.4036 16.1203 18.3755 15.7638 18.3755C11.8134 18.3755 7.85367 18.3661 3.90331 18.3755C2.58965 18.3755 1.23846 18.1411 0.0280158 19.088C0.0280158 18.8067 0.0280158 18.638 0.0280158 18.4692C0.0280158 13.6786 0.0749322 8.90674 -0.000134009 4.12549C-0.0376671 1.87549 1.18216 0.375488 2.98375 0.0286133C2.99313 0.0286133 3.00252 0.00986328 3.02128 0.000488281ZM7.95689 9.60049C8.06949 9.50674 8.21962 9.40361 8.33222 9.28174C8.7357 8.86924 8.7357 8.51299 8.33222 8.10049C7.40328 7.15361 6.46495 6.21611 5.51724 5.28799C5.09499 4.87549 4.71966 4.90361 4.30679 5.33486C2.59904 7.13486 2.51459 10.0786 4.19419 11.9067C5.3108 13.1255 6.48371 14.2974 7.70354 15.413C9.51451 17.063 12.3952 16.9974 14.2062 15.338C14.7222 14.8599 14.7316 14.5036 14.2343 13.9974C13.4649 13.2192 12.6861 12.4505 11.9166 11.6817C10.9595 10.7255 10.9595 10.7255 9.96491 11.5974C9.95553 11.6067 9.93676 11.6067 9.95553 11.5974C9.30808 10.9505 8.67002 10.313 7.95689 9.60049Z" fill="#2B2B2B"/>
<path d="M1.70782 24.0006C1.61399 23.9537 1.52015 23.9068 1.41694 23.8693C0.450457 23.4943 -0.121924 22.5193 0.0469757 21.5631C0.234642 20.5412 1.06037 19.8193 2.1113 19.8006C3.14346 19.7818 4.17562 19.8006 5.20779 19.8006C8.77344 19.8006 12.3391 19.8006 15.9047 19.8006C16.6648 19.8006 16.89 20.0162 16.89 20.7662C16.89 21.4974 16.8712 22.2381 16.8994 22.9693C16.9181 23.4099 16.8149 23.7662 16.4302 24.01C11.5227 24.0006 6.61528 24.0006 1.70782 24.0006Z" fill="#2B2B2B"/>
<path d="M18.3535 1.41605C18.6069 1.41605 18.8321 1.3973 19.0479 1.41605C19.4232 1.45355 19.686 1.66917 19.6953 2.0348C19.7235 3.21605 19.7047 4.40667 19.7047 5.61605C19.2356 5.61605 18.8133 5.61605 18.3535 5.61605C18.3535 4.21917 18.3535 2.8223 18.3535 1.41605Z" fill="#2B2B2B"/>
<path d="M18.3535 15.5537C18.8039 15.5537 19.2262 15.5537 19.7141 15.5537C19.7141 16.1068 19.7141 16.6506 19.7141 17.185C19.7141 17.7006 19.7141 18.2162 19.7141 18.7318C19.7141 19.5756 19.5077 19.7818 18.6632 19.7725C18.5693 19.7725 18.4755 19.7631 18.3535 19.7537C18.3535 18.3662 18.3535 16.9881 18.3535 15.5537Z" fill="#2B2B2B"/>
<path d="M18.3438 7.12549C18.7941 7.12549 19.2258 7.12549 19.6762 7.12549C19.6762 8.04424 19.6762 8.93486 19.6762 9.85361C19.2258 9.85361 18.7941 9.85361 18.3438 9.85361C18.3438 8.93486 18.3438 8.03486 18.3438 7.12549Z" fill="#2B2B2B"/>
<path d="M18.3438 14.0536C18.3438 13.1349 18.3438 12.263 18.3438 11.3442C18.7941 11.3442 19.2164 11.3442 19.6762 11.3442C19.6762 12.2349 19.6762 13.1255 19.6762 14.0536C19.2445 14.0536 18.8129 14.0536 18.3438 14.0536Z" fill="#2B2B2B"/>
<path d="M4.95462 6.85376C5.5833 7.49126 6.2026 8.10063 6.91573 8.83188C6.77498 8.92563 6.56855 9.02876 6.4278 9.18813C6.11815 9.51626 6.10877 9.87251 6.41842 10.1913C7.40366 11.1944 8.39829 12.1881 9.39292 13.1725C9.70257 13.4819 10.0685 13.4725 10.4063 13.1819C10.5752 13.0413 10.7253 12.8913 10.8473 12.7694C11.476 13.4069 12.0953 14.0256 12.724 14.6631C11.9264 15.1694 10.9975 15.3381 10.0591 15.0475C9.49613 14.8788 8.91437 14.5881 8.48274 14.1944C7.39428 13.21 6.3715 12.1506 5.3581 11.0913C4.24149 9.91939 4.09136 8.13813 4.95462 6.85376Z" fill="#2B2B2B"/>
</svg>
