<svg width="37" height="52" viewBox="0 0 37 52" fill="none" xmlns="http://www.w3.org/2000/svg">
<path d="M15.7773 52.0001C14.6355 51.4943 13.3394 51.1794 12.389 50.434C11.2678 49.5524 10.2083 48.4251 9.53143 47.186C6.34472 41.3583 3.30819 35.4494 0.18525 29.5852C-0.141856 28.9697 -0.0266486 28.6508 0.485612 28.2466C2.39682 26.7374 4.84497 26.906 6.46198 28.7361C7.34043 29.7294 8.13454 30.7979 9.02945 31.7749C9.30924 32.0816 9.79476 32.2035 10.1877 32.4107C10.3831 31.9821 10.7452 31.5555 10.7473 31.1269C10.7884 23.918 10.7843 16.7091 10.7925 9.5002C10.7925 9.02692 10.7822 8.54958 10.8337 8.08036C10.9777 6.78442 12.0043 5.76677 13.2222 5.67536C14.5368 5.5738 15.6847 6.40458 15.9913 7.7452C16.1106 8.26723 16.1332 8.8177 16.1353 9.35599C16.1455 15.4822 16.1414 21.6085 16.1414 27.7327C16.1414 28.0029 16.053 28.3218 16.1682 28.533C16.3513 28.8722 16.6681 29.1404 16.9273 29.439C17.1886 29.1383 17.6618 28.8499 17.6762 28.5371C17.7543 26.8816 17.7132 25.2221 17.7235 23.5646C17.7255 23.0913 17.7235 22.614 17.7852 22.1468C17.9662 20.7655 18.9846 19.8433 20.3218 19.8088C21.6405 19.7743 22.8337 20.6497 22.988 22.0025C23.1485 23.4082 23.0888 24.8382 23.1197 26.256C23.132 26.8308 23.0333 27.428 23.1629 27.9744C23.2411 28.3076 23.6566 28.5635 23.922 28.854C24.1771 28.5554 24.6277 28.273 24.6544 27.9541C24.7491 26.8796 24.6894 25.7908 24.6997 24.7082C24.7038 24.2694 24.7038 23.8266 24.7676 23.3919C24.9836 21.9071 26.1068 20.8874 27.4358 20.9402C28.7525 20.993 29.8675 22.1 29.9498 23.5666C30.0218 24.8483 29.9827 26.1382 29.9745 27.424C29.9704 28.009 30.0403 28.594 30.7645 28.6061C31.4887 28.6183 31.5998 28.0435 31.5956 27.4524C31.5915 26.843 31.5812 26.2336 31.6039 25.6243C31.6656 24.0175 32.7909 22.8719 34.2907 22.8618C35.7842 22.8516 36.959 23.9972 36.9775 25.6141C37.0166 29.0327 36.996 32.4513 36.996 35.8679C36.996 38.2363 37.0207 40.6068 36.9775 42.9752C36.8952 47.3911 34.159 50.7549 29.8202 51.8457C29.7276 51.868 29.6495 51.9472 29.5651 52.0001C24.9651 52.0001 20.3712 52.0001 15.7773 52.0001Z" fill="#0F8FAC"/>
<path d="M14.7485 0C15.2875 0.186875 15.8389 0.347344 16.3655 0.566719C19.4988 1.87484 21.1569 4.24531 21.4758 7.55828C21.5313 8.13719 21.4244 8.77297 20.7002 8.69172C20.3896 8.65719 19.9452 8.06203 19.902 7.68219C19.4947 4.09906 16.8799 1.60875 13.4278 1.60469C9.97566 1.60063 7.33413 4.07062 6.96999 7.67C6.91033 8.26516 6.8013 8.81359 6.05862 8.72625C5.32623 8.63891 5.32829 8.03562 5.36944 7.47094C5.61837 4.05437 7.89782 1.26953 11.2306 0.298594C11.5166 0.215313 11.7922 0.0995312 12.0741 0C12.9649 0 13.8557 0 14.7485 0Z" fill="#0F8FAC"/>
</svg>
