<svg width="59" height="60" viewBox="0 0 59 60" fill="none" xmlns="http://www.w3.org/2000/svg">
<g clip-path="url(#clip0_312_356)">
<path d="M45.1022 0C45.4222 0 45.9013 0.373438 46.1292 0.575C46.4055 0.820312 46.6162 1.12969 46.7473 1.475C47.1172 2.45781 46.8924 3.57969 46.9049 4.60469C46.9111 5.15625 46.9861 5.76562 46.9143 6.3125C46.8721 6.63594 46.6489 6.87812 46.6708 7.22031C46.6958 7.59375 46.919 7.92031 47.0953 8.23906C49.7924 13.1344 51.6294 18.3703 53.1715 23.7203C53.5555 25.05 53.8879 26.3937 54.2516 27.7297C54.3749 28.1797 54.2765 28.5484 53.8832 28.8031C53.3588 29.1422 52.7563 28.8484 52.5597 28.15C52.0571 26.3672 51.5998 24.5719 51.0675 22.7984C49.6316 18.0078 47.9116 13.3312 45.4877 8.93594C45.2567 8.51719 45.0366 8.29062 44.5138 8.35625C43.9597 8.42656 43.39 8.37188 42.7719 8.37188C42.8094 8.52969 42.8219 8.63906 42.8609 8.7375C45.1428 14.3625 46.5881 20.2266 47.7946 26.1562C47.8679 26.5187 47.9522 26.8812 48.0162 27.2453C48.1411 27.9516 47.9225 28.3844 47.3966 28.4984C46.8284 28.6203 46.4351 28.2969 46.2868 27.5875C45.9294 25.8891 45.6016 24.1844 45.2099 22.4938C44.1407 17.8734 42.889 13.3094 41.0394 8.92656C40.8568 8.49219 40.643 8.34219 40.1794 8.36094C39.2055 8.40156 38.23 8.37969 37.2545 8.38594C37.2186 8.38594 37.1843 8.41406 37.0906 8.45469C37.3201 9.58125 37.5995 10.7141 37.7758 11.8625C38.4439 16.2391 39.1041 20.6172 39.7143 25.0016C39.9937 27.0109 40.1779 29.0344 40.3465 31.0562C40.373 31.3812 40.1638 31.8078 39.9235 32.0422C39.7721 32.1891 39.296 32.1672 39.0775 32.0344C38.8575 31.9 38.6811 31.55 38.6483 31.2734C38.397 29.1812 38.2019 27.0812 37.96 24.9875C37.3326 19.5594 36.5709 14.1516 35.3519 8.81875C35.3223 8.6875 35.2754 8.55937 35.2192 8.37031C35.032 8.37031 34.8415 8.37031 34.6511 8.37031C31.0816 8.37031 27.5105 8.37969 23.941 8.35938C23.4805 8.35625 23.312 8.49531 23.2121 8.94063C22.0118 14.2984 21.2392 19.7219 20.6243 25.1719C20.3964 27.1891 20.1951 29.2078 19.9687 31.225C19.8923 31.9062 19.4943 32.2656 18.9683 32.1828C18.4345 32.0984 18.1598 31.65 18.2394 30.9844C18.7654 26.5672 19.2258 22.1406 19.8392 17.7344C20.245 14.8203 20.8724 11.9375 21.4 9.04062C21.4343 8.85156 21.4671 8.6625 21.5186 8.36875C20.6492 8.36875 19.8205 8.36875 18.9932 8.36875C17.7961 8.36875 17.7961 8.36875 17.3404 9.47656C15.3987 14.2016 14.1204 19.1234 13.0295 24.0984C12.775 25.2609 12.5487 26.4281 12.3115 27.5938C12.221 28.0391 12.0555 28.4219 11.5405 28.5031C10.86 28.6109 10.4245 28.0891 10.579 27.2891C10.8553 25.8734 11.1549 24.4609 11.4655 23.0516C12.5472 18.1531 13.8614 13.3219 15.7655 8.66875C15.7936 8.60156 15.8061 8.52812 15.8592 8.34062C15.071 8.34062 14.3374 8.31719 13.6085 8.36094C13.4649 8.37031 13.3042 8.62187 13.2058 8.79375C11.3422 12.0781 9.92191 15.5594 8.69981 19.125C6.58806 25.2797 5.046 31.5859 3.91754 37.9859C3.12154 42.4984 2.51283 47.0437 1.8214 51.575C1.78862 51.7875 1.77926 52.0031 1.76521 52.2172C1.70122 53.1672 2.06488 53.7172 2.97014 54.0406C6.24625 55.2125 9.62536 55.9813 13.0419 56.5891C18.1176 57.4906 23.2355 58.0516 28.3861 58.1844C30.8163 58.2469 33.2589 58.0484 35.6875 57.8547C40.3745 57.4812 45.0304 56.85 49.6082 55.7594C51.5951 55.2859 53.5508 54.6781 55.508 54.0891C56.5849 53.7641 56.9689 53.1891 56.8081 52.0578C56.1901 47.6938 55.5657 43.3281 54.8696 38.9766C54.5216 36.8031 54.0128 34.6547 53.5742 32.4953C53.4306 31.7891 53.66 31.3141 54.2079 31.1953C54.7401 31.0797 55.135 31.4281 55.2942 32.1437C56.7129 38.5484 57.7571 45.0172 58.5391 51.5281C58.8153 53.8297 58.0365 55.0766 55.8763 55.8203C51.3797 57.3703 46.7473 58.3359 42.0415 58.9156C38.5032 59.3516 34.9399 59.5828 31.3875 59.9094C31.2361 59.9234 31.0863 59.9672 30.9349 59.9984C29.6082 59.9984 28.2815 59.9984 26.9549 59.9984C26.7832 59.9672 26.6146 59.9266 26.4414 59.9078C22.6642 59.5063 18.8746 59.1953 15.1116 58.6859C10.7835 58.1016 6.52407 57.1547 2.39109 55.7016C0.702308 55.1094 -0.168614 53.8375 0.0264846 52.0641C0.290259 49.6797 0.610221 47.3016 0.959839 44.9281C2.05708 37.475 3.54295 30.1016 5.67343 22.8687C7.15775 17.8297 8.93393 12.9031 11.4796 8.28594C11.6466 7.98125 11.862 7.67656 11.9166 7.32656C11.979 6.92656 11.7231 6.66719 11.6809 6.29219C11.6201 5.74844 11.6872 5.15625 11.6934 4.60938C11.6997 4.02031 11.7059 3.42969 11.6747 2.84063C11.5982 1.43281 12.1429 0.46875 13.4961 0C18.1785 0 22.8609 0 27.5433 0C27.9397 0.289062 28.269 0.620312 28.0693 1.16719C27.8726 1.70469 27.4215 1.77969 26.9205 1.76094C26.5116 1.74688 26.1011 1.75781 25.6922 1.75781C24.8025 1.75781 23.9144 1.75781 23.0232 1.75781C23.0232 3.41094 23.0232 4.98281 23.0232 6.58125C26.9127 6.58125 30.7647 6.58125 34.6386 6.58125C34.6386 4.9625 34.6386 3.375 34.6386 1.75781C33.6241 1.75781 32.6502 1.74844 31.6763 1.7625C31.1752 1.77031 30.7242 1.70469 30.5275 1.16719C30.3277 0.620312 30.6539 0.289062 31.0535 0C35.7374 0 40.4198 0 45.1022 0ZM39.6222 6.60156C41.322 6.60156 42.992 6.61875 44.6589 6.575C44.8291 6.57031 45.124 6.19844 45.1318 5.9875C45.1787 4.8 45.1553 3.60938 45.1537 2.41875C45.1537 1.95937 44.9227 1.74687 44.4607 1.75469C43.7989 1.76562 43.1356 1.75781 42.4738 1.75781C41.5264 1.75781 40.579 1.75781 39.6207 1.75781C39.6222 3.40313 39.6222 4.97344 39.6222 6.60156ZM18.0334 6.60156C18.0334 4.96094 18.0334 3.375 18.0334 1.75938C16.6661 1.75938 15.3425 1.7375 14.0206 1.78281C13.8239 1.78906 13.4821 2.1125 13.4743 2.3C13.4259 3.56563 13.4321 4.83594 13.4727 6.10313C13.479 6.27344 13.7708 6.57344 13.9363 6.57812C15.2957 6.61875 16.6536 6.60156 18.0334 6.60156ZM19.8673 1.78594C19.8673 3.40781 19.8673 4.975 19.8673 6.56406C20.3324 6.56406 20.7616 6.56406 21.2018 6.56406C21.2018 4.94844 21.2018 3.38125 21.2018 1.78594C20.7523 1.78594 20.3324 1.78594 19.8673 1.78594ZM36.4554 6.57969C36.9283 6.57969 37.3482 6.57969 37.7961 6.57969C37.7961 4.96406 37.7961 3.37969 37.7961 1.80469C37.3216 1.80469 36.8893 1.80469 36.4554 1.80469C36.4554 3.40781 36.4554 4.9625 36.4554 6.57969Z" fill="black" stroke="#F2F1F1" stroke-width="0.34"/>
</g>
<defs>
<clipPath id="clip0_312_356">
<rect width="59" height="60" fill="white"/>
</clipPath>
</defs>
</svg>
