<?xml version="1.0" encoding="iso-8859-1"?>
<!-- Generator: Adobe Illustrator 19.0.0, SVG Export Plug-In . SVG Version: 6.00 Build 0)  -->
<svg version="1.1" id="Layer_1" xmlns="http://www.w3.org/2000/svg" xmlns:xlink="http://www.w3.org/1999/xlink" x="0px" y="0px"
	 viewBox="0 0 512 512" style="enable-background:new 0 0 512 512;" xml:space="preserve">
<g>
	<g>
		<path d="M450.406,98.193C460.774,87.774,467.2,73.421,467.2,57.6c0-31.761-25.839-57.6-57.6-57.6H102.4C45.935,0,0,45.935,0,102.4
			c0,38.81,21.956,72.235,53.854,89.6C21.956,209.365,0,242.79,0,281.6C0,338.065,45.935,384,102.4,384h76.8
			c7.066,0,12.8,5.734,12.8,12.8v102.4c0,7.066,5.734,12.8,12.8,12.8c7.066,0,12.8-5.734,12.8-12.8V396.8
			c0-21.171-17.229-38.4-38.4-38.4h-76.8c-42.419,0-76.8-34.381-76.8-76.8c0-42.419,34.381-76.8,76.8-76.8h307.2
			c7.066,0,12.8-5.734,12.8-12.8c0-7.074-5.734-12.8-12.8-12.8H102.4c-42.419,0-76.8-34.381-76.8-76.8
			c0-42.419,34.381-76.8,76.8-76.8h307.2c17.672,0,32,14.328,32,32c0,17.673-14.328,32-32,32H102.4c-7.066,0-12.8,5.726-12.8,12.8
			c0,7.066,5.734,12.8,12.8,12.8h307.2c42.419,0,76.8,34.381,76.8,76.8s-34.381,76.8-76.8,76.8H102.4c-7.066,0-12.8,5.726-12.8,12.8
			c0,7.066,5.734,12.8,12.8,12.8h102.4c42.419,0,76.8,34.381,76.8,76.8v128c0,7.066,5.734,12.8,12.8,12.8s12.8-5.734,12.8-12.8v-128
			c0-30.729-13.884-58.018-35.388-76.8H409.6c56.465,0,102.4-45.935,102.4-102.4C512,150.05,486.596,114.005,450.406,98.193z"/>
	</g>
</g>
<g>
</g>
<g>
</g>
<g>
</g>
<g>
</g>
<g>
</g>
<g>
</g>
<g>
</g>
<g>
</g>
<g>
</g>
<g>
</g>
<g>
</g>
<g>
</g>
<g>
</g>
<g>
</g>
<g>
</g>
</svg>
