<svg width="32" height="40" viewBox="0 0 32 40" fill="none" xmlns="http://www.w3.org/2000/svg">
<g clip-path="url(#clip0_271_343)">
<path d="M10.3007 40.0001C9.92913 39.8398 9.76656 39.5388 9.66945 39.1639C9.33798 37.8933 8.98752 36.627 8.64233 35.3596C8.61911 35.2731 8.58638 35.1898 8.54521 35.0617C7.57193 35.3179 6.61027 35.572 5.64754 35.8251C5.18941 35.9459 4.72705 36.0531 4.27419 36.1875C3.89416 36.3 3.56164 36.2614 3.31252 35.9438C3.06339 35.6262 3.11617 35.2981 3.31252 34.9628C4.50959 32.9268 5.69927 30.8877 6.89106 28.8486C6.97551 28.7049 7.05363 28.557 7.14758 28.3862C6.81189 28.33 6.50259 28.2956 6.20174 28.2248C4.4832 27.8197 3.26818 26.3533 3.28191 24.609C3.29035 23.5144 2.84488 22.7688 1.88532 22.2293C0.102385 21.2264 -0.533097 18.9613 0.492963 17.2096C1.07039 16.2245 1.063 15.3372 0.488741 14.353C-0.527819 12.6128 0.0971068 10.3602 1.86104 9.3594C2.82905 8.81057 3.28718 8.06595 3.28296 6.95267C3.27452 4.9094 4.96245 3.23584 7.03146 3.23896C8.15675 3.24104 8.91996 2.80677 9.47838 1.84866C10.5044 0.0886575 12.7877 -0.52474 14.5707 0.489605C15.5556 1.04989 16.4455 1.05406 17.4293 0.491688C19.2091 -0.525782 21.4945 0.0844918 22.5226 1.84554C23.0811 2.80156 23.8422 3.24104 24.9685 3.23792C27.0375 3.23167 28.7233 4.90107 28.7191 6.94747C28.717 8.04096 29.1519 8.78662 30.1062 9.33337C31.9345 10.3821 32.5362 12.6159 31.4806 14.4197C30.937 15.3486 30.9275 16.2057 31.4732 17.1357C32.532 18.9384 31.9377 21.1837 30.1178 22.2272C29.1656 22.7729 28.7128 23.5092 28.7191 24.6069C28.7307 26.5012 27.3067 28.0509 25.415 28.2987C25.2461 28.3206 25.0772 28.3425 24.8461 28.3727C24.9231 28.5122 24.9843 28.6309 25.0519 28.7465C26.2184 30.7398 27.3848 32.732 28.5513 34.7253C28.6104 34.8263 28.6727 34.9263 28.7286 35.0294C28.9007 35.3419 28.9186 35.6564 28.6896 35.9438C28.4637 36.2281 28.1607 36.302 27.8039 36.2062C26.4443 35.8428 25.0815 35.4866 23.7208 35.1284C23.6458 35.1086 23.5698 35.093 23.4484 35.0648C23.3408 35.4439 23.2331 35.8136 23.1328 36.1854C22.8604 37.1893 22.5818 38.1922 22.3231 39.1993C22.2292 39.5627 22.054 39.8418 21.7014 39.9981C21.543 39.9981 21.3847 39.9981 21.2264 39.9981C21.0258 39.7658 20.7851 39.5575 20.632 39.2993C19.1595 36.8061 17.7016 34.3056 16.2396 31.8073C16.171 31.6906 16.0971 31.5771 16.001 31.4209C15.8923 31.6 15.8174 31.7198 15.7456 31.8416C14.2899 34.3285 12.8384 36.8186 11.3722 39.3003C11.2191 39.5596 10.9774 39.7679 10.7768 39.9991C10.6174 40.0001 10.459 40.0001 10.3007 40.0001ZM30.425 12.7753C30.3764 11.7213 30.0049 11.0569 29.2385 10.632C27.8366 9.85408 27.1368 8.6856 27.1473 7.09014C27.1568 5.72796 26.1909 4.78547 24.8028 4.79068C23.2046 4.79797 22.0286 4.11167 21.2369 2.75053C20.555 1.57997 19.2545 1.23318 18.0785 1.91115C16.6882 2.71304 15.3138 2.71096 13.9225 1.91011C12.7434 1.2311 11.4513 1.57997 10.7662 2.75366C9.97135 4.11376 8.79434 4.79797 7.19613 4.79068C5.81011 4.78443 4.84633 5.73004 4.85478 7.09327C4.86533 8.67102 4.17496 9.83325 2.79632 10.6164C1.59081 11.3017 1.24984 12.5691 1.95288 13.7625C2.7446 15.1081 2.74987 16.4484 1.96027 17.7949C1.24879 19.0082 1.58658 20.2652 2.81743 20.9671C4.18129 21.7461 4.86322 22.901 4.85478 24.4621C4.84739 25.8462 5.81116 26.7897 7.22041 26.7824C8.80384 26.7751 9.9703 27.4583 10.7567 28.8038C11.4534 29.9962 12.7297 30.3409 13.9426 29.6494C15.3223 28.8632 16.6861 28.86 18.0637 29.6515C19.265 30.342 20.5529 29.9931 21.2485 28.8007C22.035 27.4541 23.2035 26.7762 24.7859 26.7824C26.1973 26.7876 27.1558 25.8451 27.1484 24.4579C27.1399 22.8958 27.825 21.7419 29.1889 20.9661C30.3997 20.2777 30.7575 19.0051 30.0598 17.8251C29.2564 16.4671 29.2575 15.1237 30.045 13.7563C30.2477 13.4053 30.3437 12.994 30.425 12.7753ZM10.7842 37.1904C11.9517 35.195 13.0706 33.283 14.2097 31.3365C14.1052 31.3365 14.064 31.3261 14.0313 31.3376C12.1016 32.0239 10.1392 31.0689 9.32004 29.4901C9.19231 29.2433 8.97802 29.0392 8.76689 28.7684C7.69333 30.6034 6.65671 32.3748 5.57999 34.214C5.80061 34.1609 5.93784 34.1317 6.07401 34.0953C6.97657 33.8557 7.87806 33.6089 8.78273 33.3756C9.39076 33.2194 9.74334 33.4277 9.91646 34.0182C9.9418 34.1057 9.96608 34.1932 9.99035 34.2806C10.2458 35.22 10.5023 36.1583 10.7842 37.1904ZM21.2063 37.1695C21.2601 37.0113 21.2886 36.9404 21.3087 36.8675C21.5694 35.9146 21.8259 34.9607 22.092 34.0099C22.2524 33.436 22.6071 33.233 23.193 33.3715C23.5128 33.4465 23.8295 33.5371 24.1472 33.6204C24.8777 33.813 25.6082 34.0057 26.4295 34.2213C25.3433 32.3665 24.3088 30.5992 23.2246 28.7476C22.966 29.1152 22.7412 29.4005 22.5533 29.7078C21.7214 31.0668 20.1908 31.7687 18.6074 31.4969C18.353 31.4532 18.1038 31.3844 17.7798 31.3105C18.9304 33.2798 20.0462 35.1867 21.2063 37.1695Z" fill="#262834" stroke="#262834" stroke-width="0.1"/>
<path d="M15.525 4.22803C22.0234 4.22282 27.0935 8.76864 27.6572 14.6797C28.2515 20.8991 23.7472 26.4697 17.4916 27.2539C11.0935 28.0568 5.18203 23.56 4.37976 17.2698C4.10003 15.0765 4.41671 12.9666 5.35938 10.9535C5.66023 10.312 6.06558 10.0933 6.5385 10.3204C6.99981 10.5411 7.08848 10.9733 6.80135 11.5971C4.67956 16.2023 6.27354 21.5115 10.5942 24.2338C16.6576 28.0537 24.8102 24.4597 25.9872 17.4468C26.9193 11.8898 23.0652 6.67329 17.4314 5.88598C15.4785 5.61312 13.5953 5.87973 11.7955 6.68995C11.1114 6.99822 10.6649 6.90761 10.4485 6.41918C10.2416 5.95263 10.4665 5.57563 11.1336 5.27258C12.679 4.57066 14.3036 4.23532 15.525 4.22803Z" fill="#262834" stroke="#262834" stroke-width="0.1"/>
<path d="M19.4056 13.5156C19.889 13.5406 20.3387 13.5343 20.781 13.5906C22.0055 13.7478 22.9461 14.7768 22.9662 15.99C22.9862 17.1741 22.9873 18.3592 22.9662 19.5433C22.9429 20.8482 21.8683 21.9376 20.5467 21.9636C19.0034 21.9938 17.459 21.998 15.9167 21.9459C15.3499 21.9272 14.7904 21.7074 14.2235 21.6012C14.0821 21.5741 13.9185 21.6116 13.7749 21.6543C13.454 21.7501 13.1447 21.9417 12.8227 21.9605C12.0606 22.0063 11.2931 21.9834 10.5278 21.973C9.6411 21.9605 9.03518 21.3658 9.03201 20.4962C9.02462 18.3874 9.02568 16.2785 9.03201 14.1706C9.03518 13.3073 9.64743 12.6949 10.5236 12.6793C11.2889 12.6658 12.0542 12.6731 12.8196 12.6793C12.9631 12.6804 13.1373 12.6752 13.2429 12.7481C13.6524 13.0345 13.9216 12.7793 14.2098 12.5492C14.9139 11.9857 15.4734 11.3036 15.9653 10.5538C16.4762 9.7748 17.2437 9.46862 18.1547 9.63109C19.0551 9.79251 19.6494 10.3601 19.8278 11.2442C19.9059 11.6327 19.8215 12.0659 19.7465 12.4679C19.6811 12.821 19.527 13.1553 19.4056 13.5156ZM14.3228 17.122C14.3228 17.9552 14.3333 18.7873 14.3164 19.6204C14.3112 19.8724 14.3988 20.0234 14.6352 20.0745C15.1841 20.1942 15.7341 20.3786 16.2883 20.3983C17.6184 20.4463 18.9516 20.4181 20.2838 20.4129C21.0238 20.4098 21.387 20.038 21.3901 19.2955C21.3933 18.3072 21.3922 17.3178 21.3912 16.3295C21.3901 15.4568 21.0344 15.1069 20.1413 15.1038C19.376 15.1006 18.6117 15.1048 17.8464 15.0986C17.4738 15.0954 17.2194 14.9069 17.1096 14.5591C17.0051 14.229 17.0705 13.8895 17.3767 13.7332C17.7166 13.5593 17.8137 13.2875 17.9119 12.9782C18.01 12.6679 18.1251 12.3638 18.2285 12.0555C18.3721 11.6275 18.2961 11.3484 18.0026 11.2099C17.705 11.0703 17.4284 11.1807 17.1898 11.5556C16.5058 12.6283 15.6286 13.5125 14.5729 14.2331C14.4431 14.3217 14.3397 14.5403 14.3344 14.7018C14.309 15.5089 14.3228 16.316 14.3228 17.122ZM10.6281 20.3859C11.347 20.3859 12.0247 20.3859 12.7056 20.3859C12.7056 18.327 12.7056 16.2972 12.7056 14.2665C11.9951 14.2665 11.3174 14.2665 10.6281 14.2665C10.6281 16.316 10.6281 18.3384 10.6281 20.3859Z" fill="#262834" stroke="#262834" stroke-width="0.1"/>
<path d="M9.0563 8.1585C9.05841 8.59173 8.72695 8.92707 8.28992 8.93332C7.83917 8.94061 7.47921 8.58757 7.48871 8.14809C7.49715 7.72527 7.8529 7.38264 8.28042 7.38576C8.71006 7.38889 9.05313 7.73152 9.0563 8.1585Z" fill="#262834" stroke="#262834" stroke-width="0.1"/>
</g>
<defs>
<clipPath id="clip0_271_343">
<rect width="32" height="40" fill="white"/>
</clipPath>
</defs>
</svg>
