<svg width="56" height="37" viewBox="0 0 56 37" fill="none" xmlns="http://www.w3.org/2000/svg">
<path d="M6.4002 30.6155H2.50139C1.67249 30.6155 1.00019 29.9452 1.00019 29.1186V17.5148C1.00019 17.2765 1.0569 17.0423 1.16625 16.8309L6.1329 7.19785C6.3894 6.69842 6.9051 6.38477 7.46805 6.38477H23.9502V30.6155" stroke="#262834" stroke-width="1.5" stroke-miterlimit="10" stroke-linecap="round" stroke-linejoin="round"/>
<path d="M5.12295 18.4998L9.14461 10.4229H18.55V18.4998H5.12295Z" stroke="#262834" stroke-width="1.5" stroke-miterlimit="10" stroke-linecap="round" stroke-linejoin="round"/>
<path d="M38.8 30.6152H23.2251H18.55" stroke="#262834" stroke-width="1.5" stroke-miterlimit="10" stroke-linecap="round" stroke-linejoin="round"/>
<path d="M49.6 30.6154H55V3.16864C55 1.97057 54.0267 1 52.8252 1H26.1262C24.9247 1 23.9514 1.97057 23.9514 3.16864V8.62731" stroke="#262834" stroke-width="1.5" stroke-miterlimit="10" stroke-linecap="round" stroke-linejoin="round"/>
<path d="M37.45 25.231H23.95" stroke="#262834" stroke-width="1.5" stroke-miterlimit="10" stroke-linecap="round" stroke-linejoin="round"/>
<path d="M55 25.231H52.3" stroke="#262834" stroke-width="1.5" stroke-miterlimit="10" stroke-linecap="round" stroke-linejoin="round"/>
<path d="M44.2001 36.0002C41.2178 36.0002 38.8001 33.5894 38.8001 30.6156C38.8001 27.6417 41.2178 25.231 44.2001 25.231C47.1824 25.231 49.6001 27.6417 49.6001 30.6156C49.6001 33.5894 47.1824 36.0002 44.2001 36.0002Z" stroke="#262834" stroke-width="1.5" stroke-miterlimit="10" stroke-linecap="round" stroke-linejoin="round"/>
<path d="M11.7999 36.0002C8.81761 36.0002 6.39995 33.5894 6.39995 30.6156C6.39995 27.6417 8.81761 25.231 11.7999 25.231C14.7823 25.231 17.2 27.6417 17.2 30.6156C17.2 33.5894 14.7823 36.0002 11.7999 36.0002Z" stroke="#262834" stroke-width="1.5" stroke-miterlimit="10" stroke-linecap="round" stroke-linejoin="round"/>
</svg>
