<svg width="20" height="20" viewBox="0 0 20 20" fill="none" xmlns="http://www.w3.org/2000/svg">
<path fill-rule="evenodd" clip-rule="evenodd" d="M6.221 0.888496C7.1985 0.843496 7.51016 0.833496 10.0002 0.833496C12.4902 0.833496 12.8018 0.844329 13.7785 0.888496C14.7552 0.932663 15.4218 1.0885 16.0052 1.31433C16.616 1.54516 17.1702 1.906 17.6285 2.37266C18.0952 2.83016 18.4552 3.3835 18.6852 3.99516C18.9118 4.5785 19.0668 5.24516 19.1118 6.22016C19.1568 7.19933 19.1668 7.511 19.1668 10.0002C19.1668 12.4902 19.156 12.8018 19.1118 13.7793C19.0677 14.7543 18.9118 15.421 18.6852 16.0043C18.4552 16.6161 18.0946 17.1703 17.6285 17.6285C17.1702 18.0952 16.616 18.4552 16.0052 18.6852C15.4218 18.9118 14.7552 19.0668 13.7802 19.1118C12.8018 19.1568 12.4902 19.1668 10.0002 19.1668C7.51016 19.1668 7.1985 19.156 6.221 19.1118C5.246 19.0677 4.57933 18.9118 3.996 18.6852C3.38426 18.4551 2.83001 18.0945 2.37183 17.6285C1.90548 17.1707 1.54459 16.6167 1.31433 16.0052C1.0885 15.4218 0.933496 14.7552 0.888496 13.7802C0.843496 12.801 0.833496 12.4893 0.833496 10.0002C0.833496 7.51016 0.844329 7.1985 0.888496 6.22183C0.932663 5.24516 1.0885 4.5785 1.31433 3.99516C1.54493 3.38356 1.90609 2.82959 2.37266 2.37183C2.8302 1.90558 3.38389 1.5447 3.99516 1.31433C4.5785 1.0885 5.24516 0.933496 6.22016 0.888496H6.221ZM13.7043 2.5385C12.7377 2.49433 12.4477 2.48516 10.0002 2.48516C7.55266 2.48516 7.26266 2.49433 6.296 2.5385C5.40183 2.57933 4.91683 2.7285 4.5935 2.85433C4.166 3.021 3.86016 3.2185 3.53933 3.53933C3.2352 3.83521 3.00115 4.1954 2.85433 4.5935C2.7285 4.91683 2.57933 5.40183 2.5385 6.296C2.49433 7.26266 2.48516 7.55266 2.48516 10.0002C2.48516 12.4477 2.49433 12.7377 2.5385 13.7043C2.57933 14.5985 2.7285 15.0835 2.85433 15.4068C3.001 15.8043 3.23516 16.1652 3.53933 16.461C3.83516 16.7652 4.196 16.9993 4.5935 17.146C4.91683 17.2718 5.40183 17.421 6.296 17.4618C7.26266 17.506 7.55183 17.5152 10.0002 17.5152C12.4485 17.5152 12.7377 17.506 13.7043 17.4618C14.5985 17.421 15.0835 17.2718 15.4068 17.146C15.8343 16.9793 16.1402 16.7818 16.461 16.461C16.7652 16.1652 16.9993 15.8043 17.146 15.4068C17.2718 15.0835 17.421 14.5985 17.4618 13.7043C17.506 12.7377 17.5152 12.4477 17.5152 10.0002C17.5152 7.55266 17.506 7.26266 17.4618 6.296C17.421 5.40183 17.2718 4.91683 17.146 4.5935C16.9793 4.166 16.7818 3.86016 16.461 3.53933C16.1651 3.23522 15.8049 3.00117 15.4068 2.85433C15.0835 2.7285 14.5985 2.57933 13.7043 2.5385ZM8.82933 12.826C9.48321 13.0982 10.2113 13.1349 10.8893 12.9299C11.5672 12.7249 12.153 12.2909 12.5465 11.702C12.94 11.1131 13.1169 10.4059 13.0469 9.70108C12.9769 8.99628 12.6643 8.33764 12.1627 7.83766C11.8429 7.51806 11.4562 7.27334 11.0304 7.12112C10.6047 6.9689 10.1505 6.91296 9.70057 6.95734C9.25063 7.00172 8.81612 7.14531 8.42833 7.37777C8.04054 7.61023 7.70912 7.92578 7.45791 8.3017C7.20671 8.67763 7.04199 9.10457 6.97559 9.5518C6.9092 9.99902 6.94279 10.4554 7.07395 10.8881C7.2051 11.3208 7.43056 11.719 7.7341 12.0541C8.03763 12.3892 8.41168 12.6528 8.82933 12.826ZM6.6685 6.6685C7.10602 6.23097 7.62543 5.88391 8.19708 5.64713C8.76873 5.41035 9.38141 5.28847 10.0002 5.28847C10.6189 5.28847 11.2316 5.41035 11.8032 5.64713C12.3749 5.88391 12.8943 6.23097 13.3318 6.6685C13.7693 7.10602 14.1164 7.62543 14.3532 8.19708C14.59 8.76873 14.7119 9.38141 14.7119 10.0002C14.7119 10.6189 14.59 11.2316 14.3532 11.8032C14.1164 12.3749 13.7693 12.8943 13.3318 13.3318C12.4482 14.2154 11.2498 14.7119 10.0002 14.7119C8.75054 14.7119 7.55211 14.2154 6.6685 13.3318C5.78488 12.4482 5.28847 11.2498 5.28847 10.0002C5.28847 8.75054 5.78488 7.55211 6.6685 6.6685ZM15.7568 5.99016C15.8652 5.88789 15.952 5.7649 16.0121 5.62847C16.0721 5.49205 16.1042 5.34497 16.1063 5.19594C16.1085 5.04691 16.0808 4.89895 16.0247 4.76084C15.9687 4.62272 15.8855 4.49725 15.7801 4.39186C15.6747 4.28647 15.5493 4.20329 15.4112 4.14726C15.273 4.09123 15.1251 4.06348 14.9761 4.06565C14.827 4.06782 14.6799 4.09987 14.5435 4.15991C14.4071 4.21994 14.2841 4.30674 14.1818 4.41516C13.9829 4.62602 13.874 4.9061 13.8782 5.19594C13.8825 5.48578 13.9995 5.76256 14.2045 5.96753C14.4094 6.1725 14.6862 6.28952 14.9761 6.29374C15.2659 6.29797 15.546 6.18907 15.7568 5.99016Z" fill="white"/>
</svg>
