<svg width="20" height="20" viewBox="0 0 20 20" fill="none" xmlns="http://www.w3.org/2000/svg">
<path d="M7.07484 15.9923C7.09484 15.7123 7.13484 15.4332 7.19484 15.1582C7.24734 14.9123 7.4065 14.2165 7.63984 13.2082L7.64567 13.1832L7.96817 11.7932C8.034 11.5098 8.08484 11.2898 8.119 11.2165C7.95718 10.8424 7.87652 10.4382 7.88234 10.0307C7.88234 8.9165 8.51234 8.05317 9.329 8.05317C9.629 8.04817 9.91567 8.17817 10.114 8.40817C10.3123 8.63734 10.404 8.94484 10.3657 9.23817C10.3657 9.61567 10.2948 9.90317 9.98817 10.934C9.929 11.1323 9.88817 11.2707 9.84984 11.4098C9.80734 11.5665 9.77067 11.7082 9.73984 11.8448C9.65984 12.1665 9.73317 12.509 9.93734 12.7665C10.0364 12.8924 10.1643 12.9926 10.3102 13.0587C10.4561 13.1248 10.6157 13.1549 10.7757 13.1465C12.019 13.1465 12.9423 11.4923 12.9423 9.3565C12.9423 7.71484 11.8673 6.62817 10.0823 6.62817C9.6355 6.61156 9.19007 6.68786 8.77424 6.85224C8.3584 7.01663 7.9812 7.26552 7.6665 7.58317C7.34506 7.90779 7.09145 8.29315 6.92048 8.71679C6.74951 9.14043 6.66459 9.59387 6.67067 10.0507C6.64995 10.543 6.80076 11.0272 7.09734 11.4207C7.24817 11.5373 7.30567 11.7398 7.24317 11.9123C7.209 12.0523 7.1265 12.3723 7.0965 12.479C7.08781 12.5314 7.06701 12.5811 7.03576 12.624C7.00452 12.667 6.96368 12.7021 6.9165 12.7265C6.87088 12.7503 6.82024 12.7629 6.76879 12.7632C6.71734 12.7634 6.66656 12.7515 6.62067 12.7282C5.654 12.329 5.124 11.2465 5.124 9.8615C5.124 7.374 7.19984 5.20817 10.284 5.20817C12.8965 5.20817 14.8515 7.149 14.8515 9.4915C14.8515 12.4348 13.2415 14.5782 10.9432 14.5782C10.6163 14.5877 10.2917 14.5203 9.99557 14.3815C9.69944 14.2427 9.44002 14.0363 9.23817 13.779L9.20234 13.9265L9.02984 14.6365L9.02817 14.6423C8.9065 15.1423 8.8215 15.4898 8.78817 15.6207C8.69984 15.9165 8.58817 16.2065 8.45484 16.4873C10.1131 16.8821 11.8595 16.6267 13.3353 15.7736C14.811 14.9205 15.9039 13.5345 16.3893 11.9005C16.8748 10.2665 16.7159 8.50864 15.9453 6.98818C15.1748 5.46772 13.8511 4.30018 12.2463 3.72552C10.6415 3.15085 8.87752 3.21273 7.31695 3.89843C5.75637 4.58413 4.51773 5.84155 3.8556 7.41227C3.19346 8.98299 3.15813 10.7477 3.75688 12.3436C4.35562 13.9396 5.54295 15.2456 7.07484 15.9932V15.9923ZM9.99984 18.3332C5.39734 18.3332 1.6665 14.6023 1.6665 9.99984C1.6665 5.39734 5.39734 1.6665 9.99984 1.6665C14.6023 1.6665 18.3332 5.39734 18.3332 9.99984C18.3332 14.6023 14.6023 18.3332 9.99984 18.3332Z" fill="white"/>
</svg>
