<svg width="32" height="32" viewBox="0 0 32 32" fill="none" xmlns="http://www.w3.org/2000/svg">
<path d="M10 9.5H26C26.2761 9.5 26.5 9.72386 26.5 10C26.5 10.2761 26.2761 10.5 26 10.5H10C9.72386 10.5 9.5 10.2761 9.5 10C9.5 9.72386 9.72386 9.5 10 9.5Z" stroke="black"/>
<rect x="5.5" y="9.5" width="1" height="1" rx="0.5" stroke="black"/>
<path d="M10 15.5H26C26.2761 15.5 26.5 15.7239 26.5 16C26.5 16.2761 26.2761 16.5 26 16.5H10C9.72386 16.5 9.5 16.2761 9.5 16C9.5 15.7239 9.72386 15.5 10 15.5Z" stroke="black"/>
<rect x="5.5" y="15.5" width="1" height="1" rx="0.5" stroke="black"/>
<path d="M10 21.5H26C26.2761 21.5 26.5 21.7239 26.5 22C26.5 22.2761 26.2761 22.5 26 22.5H10C9.72386 22.5 9.5 22.2761 9.5 22C9.5 21.7239 9.72386 21.5 10 21.5Z" stroke="black"/>
<rect x="5.5" y="21.5" width="1" height="1" rx="0.5" stroke="black"/>
</svg>
