<svg width="412" height="427" viewBox="0 0 412 427" fill="none" xmlns="http://www.w3.org/2000/svg">
<g clip-path="url(#clip0_540_596)">
<path fill-rule="evenodd" clip-rule="evenodd" d="M47.6002 274.1L32.8002 274.4L25.3002 274.5C22.8002 274.6 20.3002 274.6 17.7002 274.6H17.3002V274.1L17.2002 261.5V261H17.7002L32.7002 261.1C37.7002 261.1 42.7002 261.2 47.6002 261.2H47.9002V261.5C47.9002 263.7 47.8002 265.8 47.8002 267.9L47.6002 274.1ZM47.6002 274.1L47.4002 267.7C47.4002 265.7 47.3669 263.7 47.3002 261.7C42.4002 261.8 37.5002 261.9 32.6002 261.9L18.2002 262L18.1002 273.6C20.4002 273.7 22.8002 273.7 25.1002 273.7L32.5002 273.8L47.6002 274.1ZM47.3002 261.8C47.4335 261.733 47.5335 261.7 47.6002 261.7L47.3002 261.5C47.3002 261.567 47.3002 261.667 47.3002 261.8ZM18.2002 262V261.5L17.7002 262H18.2002ZM18.2002 273.7C18.0002 273.7 17.8335 273.7 17.7002 273.7L18.2002 274.1V273.7Z" fill="#EBEBEB"/>
<path fill-rule="evenodd" clip-rule="evenodd" d="M31.0001 290.1L16.1001 290.4L8.6001 290.5C6.1001 290.5 3.6001 290.5 1.1001 290.5H0.600098V290.1V277.4V276.9H1.1001L16.0001 277C21.0001 277 26.0001 277.1 31.0001 277.2H31.2001V277.4C31.2001 279.6 31.1001 281.7 31.1001 283.8L31.0001 290.1ZM31.0001 290.1L30.9001 283.7C30.8334 281.7 30.7668 279.733 30.7001 277.8C25.8001 277.8 20.9001 277.9 16.1001 277.9L1.6001 278V289.7C3.9001 289.7 6.2001 289.7 8.5001 289.7L15.9001 289.8L31.0001 290.1ZM30.8001 277.8C30.8668 277.8 30.9334 277.8 31.0001 277.8L30.8001 277.5C30.8001 277.567 30.8001 277.667 30.8001 277.8ZM1.6001 278V277.5L1.1001 278H1.6001ZM1.6001 289.7C1.46676 289.7 1.3001 289.7 1.1001 289.7L1.6001 290.1V289.7Z" fill="#EBEBEB"/>
<path fill-rule="evenodd" clip-rule="evenodd" d="M31.0001 16.7L16.1001 17L8.6001 17.1C6.1001 17.2 3.6001 17.1 1.1001 17.2H0.600098V16.7V4.1V3.6H1.1001H16.0001C21.0001 3.6 26.0001 3.8 31.0001 3.8H31.2001V4.1C31.2001 6.2 31.1001 8.3 31.1001 10.5L31.0001 16.7ZM31.0001 16.7L30.9001 10.3C30.8334 8.3 30.7668 6.3 30.7001 4.3C25.8001 4.4 20.9001 4.5 16.1001 4.5H1.6001V16.2C3.9001 16.2 6.2001 16.2 8.5001 16.3L15.9001 16.4L31.0001 16.7ZM30.8001 4.3C30.8668 4.3 30.9334 4.3 31.0001 4.3L30.8001 4C30.8001 4.13333 30.8001 4.23333 30.8001 4.3ZM1.6001 4.5V4L1.1001 4.5H1.6001ZM1.6001 16.2C1.46676 16.2 1.3001 16.2 1.1001 16.2L1.6001 16.7V16.2Z" fill="#EBEBEB"/>
<path fill-rule="evenodd" clip-rule="evenodd" d="M408.9 16.7L394.1 17L386.6 17.1C384.1 17.2 381.6 17.1 379 17.2H378.6V16.7L378.5 4.1V3.6H379H394C399 3.6 404 3.8 408.9 3.8H409.2V4.1C409.2 6.2 409.1 8.3 409.1 10.5L408.9 16.7ZM408.9 16.7L408.7 10.3C408.7 8.3 408.667 6.3 408.6 4.3C403.7 4.4 398.8 4.5 393.9 4.5H379.5L379.4 16.2C381.7 16.2 384.1 16.2 386.4 16.3L393.8 16.4L408.9 16.7ZM408.6 4.3C408.733 4.3 408.833 4.3 408.9 4.3L408.6 4C408.6 4.13333 408.6 4.23333 408.6 4.3ZM379.5 4.5V4L379 4.5H379.5ZM379.5 16.2C379.3 16.2 379.133 16.2 379 16.2L379.5 16.7V16.2Z" fill="#EBEBEB"/>
<path fill-rule="evenodd" clip-rule="evenodd" d="M392.3 32.6L377.4 32.9L369.9 33C367.4 33.1 364.9 33.1 362.4 33.1H361.9V32.6V20V19.5H362.4L377.3 19.6C382.3 19.6 387.3 19.7 392.3 19.7H392.5V20C392.5 22.1 392.4 24.3 392.4 26.4L392.3 32.6ZM392.3 32.6L392.2 26.2C392.133 24.2 392.067 22.2 392 20.2C387.1 20.3 382.2 20.4 377.4 20.4L362.9 20.5V32.1C365.2 32.2 367.5 32.2 369.8 32.2L377.2 32.3L392.3 32.6ZM392.1 20.2C392.167 20.2 392.233 20.2 392.3 20.2L392.1 20C392.1 20.0667 392.1 20.1333 392.1 20.2ZM362.9 20.5V20L362.4 20.5H362.9ZM362.9 32.2C362.767 32.2 362.6 32.2 362.4 32.2L362.9 32.6V32.2Z" fill="#EBEBEB"/>
<path fill-rule="evenodd" clip-rule="evenodd" d="M315.7 180.4L300.9 180.7L293.3 180.8C290.8 180.9 288.3 180.9 285.8 180.9H285.4L285.3 180.4V167.8V167.3H285.8L300.7 167.4C305.7 167.4 310.7 167.5 315.7 167.5H316V167.8C315.9 169.9 315.9 172.1 315.8 174.2L315.7 180.4ZM315.7 180.4L315.6 174C315.534 172 315.5 170 315.5 168C310.6 168.1 305.7 168.2 300.8 168.2H286.3V179.9C288.6 180 290.9 179.9 293.2 180L300.7 180.1L315.7 180.4ZM315.4 168C315.467 168 315.567 168 315.7 168L315.4 167.8C315.4 167.867 315.4 167.933 315.4 168ZM286.3 168.3V167.8L285.8 168.3H286.3ZM286.2 180C286.067 180 285.934 180 285.8 180L286.2 180.4V180Z" fill="#EBEBEB"/>
<path fill-rule="evenodd" clip-rule="evenodd" d="M299 196.4L284.2 196.6L276.7 196.8C274.2 196.8 271.6 196.8 269.1 196.8H268.7V196.4L268.6 183.7V183.2H269.1L284.1 183.3C289 183.3 294 183.4 299 183.5H299.3V183.7C299.3 185.9 299.2 188 299.2 190.1L299 196.4ZM299 196.4L298.8 190C298.733 188 298.7 186.033 298.7 184.1C293.8 184.1 288.9 184.2 284 184.2L269.6 184.3L269.5 196C271.8 196 274.1 196 276.5 196L283.9 196.1L299 196.4ZM298.7 184.1C298.833 184.1 298.933 184.1 299 184.1L298.7 183.8C298.7 183.867 298.7 183.967 298.7 184.1ZM269.6 184.3V183.8L269.1 184.3H269.6ZM269.5 196C269.367 196 269.233 196 269.1 196L269.5 196.4V196Z" fill="#EBEBEB"/>
<path fill-rule="evenodd" clip-rule="evenodd" d="M282.4 180.4L267.6 180.7L260.1 180.8C257.5 180.9 255 180.9 252.5 180.9H252.1V180.4L252 167.8V167.3H252.5L267.5 167.4C272.4 167.4 277.4 167.5 282.4 167.5H282.7V167.8C282.7 169.9 282.6 172.1 282.5 174.2L282.4 180.4ZM282.4 180.4L282.3 174C282.233 172 282.2 170 282.2 168C277.3 168.1 272.4 168.2 267.5 168.2H253V179.9C255.3 180 257.6 179.9 259.9 180L267.4 180.1L282.4 180.4ZM282.1 168C282.167 168 282.267 168 282.4 168L282.1 167.8C282.1 167.867 282.1 167.933 282.1 168ZM253 168.3V167.8L252.5 168.3H253ZM252.9 180C252.767 180 252.633 180 252.5 180L252.9 180.4V180Z" fill="#EBEBEB"/>
<path fill-rule="evenodd" clip-rule="evenodd" d="M408.9 290.1L394.1 290.4L386.6 290.5C384.1 290.5 381.6 290.5 379 290.5H378.6V290.1L378.5 277.4V276.9H379L394 277C399 277 404 277.1 408.9 277.2H409.2V277.4C409.2 279.6 409.1 281.7 409.1 283.8L408.9 290.1ZM408.9 290.1L408.7 283.7C408.7 281.7 408.667 279.733 408.6 277.8C403.7 277.8 398.8 277.9 393.9 277.9L379.5 278L379.4 289.7C381.7 289.7 384.1 289.7 386.4 289.7L393.8 289.8L408.9 290.1ZM408.6 277.8C408.733 277.8 408.833 277.8 408.9 277.8L408.6 277.5C408.6 277.567 408.6 277.667 408.6 277.8ZM379.5 278V277.5L379 278H379.5ZM379.5 289.7C379.3 289.7 379.133 289.7 379 289.7L379.5 290.1V289.7Z" fill="#EBEBEB"/>
<path fill-rule="evenodd" clip-rule="evenodd" d="M154.9 54.3L140.1 54.6L132.6 54.7C130.1 54.7 127.5 54.7 125 54.7H124.6V54.3L124.5 41.6V41.1H125L140 41.2C145 41.2 149.9 41.3 154.9 41.4H155.2V41.6C155.2 43.8 155.1 45.9 155.1 48L154.9 54.3ZM154.9 54.3L154.7 47.9C154.633 45.9 154.6 43.9333 154.6 42C149.7 42 144.8 42.1 139.9 42.1L125.5 42.2L125.4 53.9C127.7 53.9 130 53.9 132.4 53.9L139.8 54L154.9 54.3ZM154.6 42C154.733 42 154.833 42 154.9 42L154.6 41.7C154.6 41.7667 154.6 41.8667 154.6 42ZM125.5 42.2V41.7L125 42.2H125.5ZM125.5 53.9C125.3 53.9 125.133 53.9 125 53.9L125.5 54.3V53.9Z" fill="#EBEBEB"/>
<path fill-rule="evenodd" clip-rule="evenodd" d="M375.3 136.2C374.5 135.6 373.4 135.7 372.5 136.2C372.3 136.333 372.067 136.467 371.8 136.6C371.534 136.733 371.3 136.867 371.1 137C370.2 137.4 369.6 138.3 369.5 139.3L369.4 142.7L358.3 142.3L358.4 138.9C358.4 137.9 357.8 137 357 136.5C356.467 136.233 355.967 135.933 355.5 135.6C354.7 135.1 353.7 135 352.8 135.5L349.8 137.1L344.5 127.2L347.5 125.6C348.4 125.1 348.9 124.2 348.9 123.2C348.9 122.667 348.9 122.1 348.9 121.5C349 120.5 348.601 119.6 347.701 119L344.8 117.2L350.701 107.8L353.6 109.6C354.5 110.1 355.5 110.1 356.4 109.5C356.6 109.367 356.834 109.233 357.1 109.1C357.367 108.967 357.6 108.867 357.8 108.8C358.7 108.3 359.4 107.5 359.4 106.5L359.5 103L370.6 103.4L370.5 106.8C370.5 107.8 371.1 108.7 371.9 109.2C372.434 109.467 372.934 109.767 373.4 110.1C374.2 110.7 375.2 110.7 376.1 110.3L379.1 108.6L384.4 118.5L381.4 120.1C380.5 120.6 380 121.5 380 122.5C380 123.1 380 123.667 380 124.2C379.9 125.2 380.401 126.2 381.201 126.7L384.1 128.5L378.201 138L375.3 136.2ZM372.5 118.5C370.1 114.1 364.6 112.4 360.1 114.8C355.7 117.2 354 122.7 356.4 127.2C358.8 131.6 364.3 133.3 368.8 130.9C373.2 128.5 374.9 123 372.5 118.5Z" fill="#EBEBEB"/>
<path fill-rule="evenodd" clip-rule="evenodd" d="M53.6003 243.7C52.8003 243.2 51.7003 243.2 50.8003 243.7C50.6003 243.833 50.367 243.967 50.1003 244.1C49.9003 244.233 49.667 244.367 49.4003 244.5C48.5003 244.9 47.9003 245.8 47.8003 246.8L47.7003 250.2L36.6003 249.9L36.7003 246.5C36.7003 245.5 36.1003 244.5 35.3003 244.1C34.767 243.833 34.267 243.533 33.8003 243.2C33.0003 242.6 32.0003 242.5 31.1003 243L28.1003 244.6L22.8003 234.8L25.8003 233.2C26.7003 232.7 27.2003 231.8 27.2003 230.8C27.2003 230.2 27.2003 229.633 27.2003 229.1C27.3003 228.1 26.9003 227.1 26.0003 226.6L23.1003 224.8L29.0003 215.3L31.9003 217.1C32.8003 217.6 33.8003 217.6 34.7003 217.1C34.9003 216.967 35.1336 216.833 35.4003 216.7C35.667 216.567 35.9003 216.433 36.1003 216.3C37.0003 215.9 37.7003 215 37.7003 214L37.8003 210.6L49.0003 210.9L48.8003 214.3C48.8003 215.3 49.4003 216.3 50.2003 216.7C50.7336 216.967 51.2336 217.267 51.7003 217.6C52.5003 218.2 53.6003 218.3 54.4003 217.8L57.4003 216.2L62.7003 226L59.7003 227.6C58.8003 228.1 58.3003 229 58.3003 230.1C58.3003 230.633 58.3003 231.167 58.3003 231.7C58.2003 232.7 58.7003 233.7 59.5003 234.2L62.4003 236L56.5003 245.5L53.6003 243.7ZM50.8003 226.1C48.4003 221.6 42.9003 220 38.4003 222.3C34.0003 224.7 32.3003 230.3 34.7003 234.7C37.1003 239.2 42.6003 240.9 47.1003 238.5C51.5003 236.1 53.2003 230.5 50.8003 226.1Z" fill="#263238"/>
<path fill-rule="evenodd" clip-rule="evenodd" d="M168.8 64.9C168.2 65.3 167.8 66 167.9 66.7C167.9 66.9 167.9 67.0667 167.9 67.2C167.9 67.4 167.9 67.6 167.9 67.8C167.8 68.5 168.2 69.2 168.8 69.5L170.9 70.7L167 77.5L164.9 76.3C164.3 76 163.5 76 162.9 76.4C162.567 76.6 162.233 76.8 161.9 77C161.3 77.3 160.9 77.9 160.9 78.6V81H153.1V78.6C153.1 77.9 152.7 77.3 152 77C151.667 76.8 151.333 76.6 151 76.4C150.4 76 149.7 76 149.1 76.3L147 77.5L143.1 70.7L145.2 69.5C145.8 69.2 146.1 68.5 146.1 67.8C146.1 67.6 146.1 67.4 146.1 67.2C146.1 67.0667 146.1 66.9 146.1 66.7C146.1 66 145.8 65.3 145.2 64.9L143.1 63.7L147 57L149.1 58.2C149.7 58.5 150.4 58.5 151 58.1C151.333 57.9 151.667 57.7 152 57.5C152.7 57.2 153.1 56.6 153.1 55.9V53.5H160.9V55.9C160.9 56.6 161.3 57.2 161.9 57.5C162.233 57.7 162.567 57.9 162.9 58.1C163.5 58.5 164.3 58.5 164.9 58.2L167 57L170.9 63.7L168.8 64.9ZM157 60.8C153.4 60.8 150.5 63.7 150.5 67.2C150.5 70.8 153.4 73.6 157 73.6C160.5 73.6 163.4 70.8 163.4 67.2C163.4 63.7 160.5 60.8 157 60.8Z" fill="#EBEBEB"/>
<path d="M43.7999 260.8C30.7999 273.6 28.5999 293.4 31.2999 310.8C31.3999 311.2 31.9999 311.1 31.9999 310.7C31.9999 306.7 31.8999 302.8 31.8999 298.9C31.9666 298.767 32.0332 298.6 32.0999 298.4C35.4999 295.9 38.5999 293.1 40.5999 289.3C42.7999 285 43.5999 280.1 45.2999 275.7C45.4999 275.2 44.9999 275.4 44.6999 275.6C36.7999 281.4 34.1999 287.8 31.8999 296.2C31.9999 291.8 32.3999 287.4 33.2999 283.1C34.9999 275.1 38.3999 267.1 44.1999 261.2C44.3999 261 44.0999 260.6 43.7999 260.8V260.8Z" fill="#263238"/>
<path d="M41.7999 261.8C41.8999 258.9 44.5999 256.2 46.7999 254.4C48.2999 253.2 52.8999 249.5 55.0999 250.8C57.1999 252.1 53.1999 254.7 51.7999 255.6C54.6999 255.7 58.7999 257.2 58.0999 260.5C57.7999 261.5 56.9999 261.9 55.9999 261.7C54.1999 261.4 52.8999 260.2 51.2999 259.6C53.4999 261.2 55.8999 264.2 54.1999 266.7C53.4999 267.6 52.5999 267.6 51.6999 267C49.8999 266 48.4999 262.4 46.2999 262.3C44.5999 263 41.6999 265 41.7999 261.8Z" fill="#93C2CD"/>
<path opacity="0.1" d="M41.7999 261.8C41.8999 258.9 44.5999 256.2 46.7999 254.4C48.2999 253.2 52.8999 249.5 55.0999 250.8C57.1999 252.1 53.1999 254.7 51.7999 255.6C54.6999 255.7 58.7999 257.2 58.0999 260.5C57.7999 261.5 56.9999 261.9 55.9999 261.7C54.1999 261.4 52.8999 260.2 51.2999 259.6C53.4999 261.2 55.8999 264.2 54.1999 266.7C53.4999 267.6 52.5999 267.6 51.6999 267C49.8999 266 48.4999 262.4 46.2999 262.3C44.5999 263 41.6999 265 41.7999 261.8Z" fill="black"/>
<path d="M42 263.4C41.3 262.8 41.3 259.8 45.3 256.8C48.5 254.3 54.8 252.1 54.9 254.7C55.1 256.8 50.9 257.7 48.7 258.3C51 258.6 55.5 260.2 54.5 262.4C54 263.5 48.5 261.6 45.6 262.9C45.2 263.1 42.9 264.2 42 263.4V263.4Z" fill="#93C2CD"/>
<path d="M13.7002 259.9C19.7002 265.6 23.4002 273.4 25.4002 281.4C26.5002 285.7 27.0002 290.1 27.3002 294.4C24.7002 286.1 21.9002 279.9 13.8002 274.3C13.5002 274.1 13.0002 274 13.2002 274.4C15.0002 278.9 16.1002 283.7 18.4002 287.9C20.5002 291.6 23.7002 294.3 27.2002 296.7C27.2669 296.833 27.3336 297 27.4002 297.2C27.6002 301.1 27.6002 305 27.8002 308.9C27.8002 309.3 28.4002 309.4 28.5002 309C30.6002 291.6 27.6002 271.9 14.1002 259.6C13.8002 259.4 13.5002 259.7 13.7002 259.9V259.9Z" fill="#263238"/>
<path d="M11.7 261.2C9.4 261.3 8.2 265 6.4 266.1C5.5 266.7 4.6 266.7 4 265.8C2.1 263.4 4.4 260.3 6.6 258.6C5 259.3 3.7 260.5 2 260.9C0.999997 261.1 0.0999963 260.8 -0.200004 259.7C-1 256.5 3 254.8 5.9 254.7C4.5 253.8 0.399997 251.3 2.5 249.9C4.5 248.6 9.3 252.1 10.9 253.3C13.2 255 15.9 257.6 16.1 260.4C16.4 263.7 13.4 261.8 11.7 261.2V261.2Z" fill="#93C2CD"/>
<path opacity="0.1" d="M11.7 261.2C9.4 261.3 8.2 265 6.4 266.1C5.5 266.7 4.6 266.7 4 265.8C2.1 263.4 4.4 260.3 6.6 258.6C5 259.3 3.7 260.5 2 260.9C0.999997 261.1 0.0999963 260.8 -0.200004 259.7C-1 256.5 3 254.8 5.9 254.7C4.5 253.8 0.399997 251.3 2.5 249.9C4.5 248.6 9.3 252.1 10.9 253.3C13.2 255 15.9 257.6 16.1 260.4C16.4 263.7 13.4 261.8 11.7 261.2V261.2Z" fill="black"/>
<path d="M12.3001 261.7C9.40009 260.5 4.00009 262.6 3.50009 261.5C2.40009 259.3 6.8001 257.6 9.2001 257.3C6.9001 256.8 2.70009 256 2.80009 253.8C2.80009 251.3 9.20009 253.2 12.5001 255.6C16.6001 258.5 16.7001 261.4 16.0001 262.1C15.1001 262.9 12.8001 261.9 12.3001 261.7V261.7Z" fill="#93C2CD"/>
<path d="M27.1998 286.5C20.3998 280.1 17.0998 274 15.7998 262.2C15.7998 261.7 15.9998 261.6 16.2998 261.9C23.3998 268.3 25.2998 275.6 27.0998 282C27.0998 280.3 24.9998 261.5 38.1998 246.1C38.3998 245.9 38.6998 246.2 38.4998 246.4C31.8998 254.3 29.1998 265 28.5998 275.1C28.2998 281.2 28.7998 287.4 29.6998 293.4C30.5998 299.4 32.1998 305.3 33.0998 311.3C33.1998 311.9 32.2998 312 32.0998 311.5C30.1998 305.2 28.8998 298.5 27.8998 292C27.6331 290.2 27.3998 288.367 27.1998 286.5V286.5Z" fill="#263238"/>
<path d="M33.6998 249.8C32.3998 246.8 33.7998 242.7 35.1998 239.7C36.0998 237.7 39.0998 231.5 41.8998 231.7C44.7998 232 41.9998 236.7 40.9998 238.4C43.9998 237 48.9998 236.5 49.8998 240.3C50.1998 241.5 49.4998 242.3 48.3998 242.6C46.3998 243.2 44.3998 242.6 42.4998 242.8C45.5998 243.4 49.5998 245.3 48.9998 248.7C48.7998 249.9 47.8998 250.4 46.5998 250.3C44.2998 250.1 40.9998 247.1 38.5998 248.1C37.1998 249.7 35.1998 253.3 33.6998 249.8V249.8Z" fill="#93C2CD"/>
<path opacity="0.1" d="M33.6998 249.8C32.3998 246.8 33.7998 242.7 35.1998 239.7C36.0998 237.7 39.0998 231.5 41.8998 231.7C44.7998 232 41.9998 236.7 40.9998 238.4C43.9998 237 48.9998 236.5 49.8998 240.3C50.1998 241.5 49.4998 242.3 48.3998 242.6C46.3998 243.2 44.3998 242.6 42.4998 242.8C45.5998 243.4 49.5998 245.3 48.9998 248.7C48.7998 249.9 47.8998 250.4 46.5998 250.3C44.2998 250.1 40.9998 247.1 38.5998 248.1C37.1998 249.7 35.1998 253.3 33.6998 249.8V249.8Z" fill="black"/>
<path d="M34.7 251.4C33.7 251.1 32.2 248.1 34.8 242.9C36.9 238.7 42.3 233.3 43.8 235.9C45 238 41.1 241.1 39.1 242.8C41.7 241.9 47.1 241.3 47.2 244C47.3 245.4 40.6 246.2 38.3 249C37.9 249.5 36.1 251.8 34.7 251.4V251.4Z" fill="#93C2CD"/>
<path d="M41.4999 295.5C45.8999 322.567 48.3332 337.4 48.7999 340H13.3999L19.2999 295.6L41.4999 295.5Z" fill="#93C2CD"/>
<path d="M-1.6001 340.1L49.9999 339.9L101.7 339.8L205 339.6L308.3 339.8L360 339.9L411.6 340.1L360 340.4L308.3 340.5L205 340.6L101.7 340.5L49.9999 340.4L-1.6001 340.1Z" fill="#263238"/>
<path d="M205 427.1C287.346 427.1 354.1 417.653 354.1 406C354.1 394.347 287.346 384.9 205 384.9C122.654 384.9 55.8999 394.347 55.8999 406C55.8999 417.653 122.654 427.1 205 427.1Z" fill="#EBEBEB"/>
<path fill-rule="evenodd" clip-rule="evenodd" d="M112.6 184.7L106.4 160.2L57.2998 172.7L50.7998 147.2L89.9998 57.9L109.5 53L128.4 127.3L144.1 123.3L150.6 149L134.9 153L141.1 177.4L112.6 184.7ZM78.9998 139.9L103.3 133.8L95.1998 102.2L78.9998 139.9Z" fill="#263238"/>
<path fill-rule="evenodd" clip-rule="evenodd" d="M253 103.1C253 111.233 251.767 118.7 249.3 125.5C246.9 132.3 243.533 138.167 239.2 143.1C234.933 148.1 229.867 151.967 224 154.7C218.2 157.5 211.867 158.9 205 158.9C198.133 158.9 191.767 157.5 185.9 154.7C179.967 151.967 174.867 148.1 170.6 143.1C166.333 138.167 163 132.3 160.6 125.5C158.2 118.7 157 111.233 157 103.1C157 95.0333 158.2 87.6 160.6 80.8C163 74 166.333 68.1 170.6 63.1C174.867 58.1667 179.967 54.2667 185.9 51.4C191.767 48.6 198.133 47.2 205 47.2C211.867 47.2 218.2 48.6 224 51.4C229.867 54.2667 234.933 58.1667 239.2 63.1C243.533 68.1 246.9 74 249.3 80.8C251.767 87.6 253 95.0333 253 103.1ZM223.4 103.1C223.4 94.5 221.667 87.5333 218.2 82.2C214.8 76.8667 210.4 74.2 205 74.2C199.333 74.2 194.833 76.8667 191.5 82.2C188.1 87.5333 186.4 94.5 186.4 103.1C186.4 111.7 188.1 118.633 191.5 123.9C194.833 129.167 199.333 131.8 205 131.8C210.4 131.8 214.8 129.167 218.2 123.9C221.667 118.633 223.4 111.7 223.4 103.1Z" fill="#263238"/>
<path fill-rule="evenodd" clip-rule="evenodd" d="M305.8 180L309.9 155.1L259.9 147L264.1 121L335.6 54.7L355.4 57.9L343.2 133.6L359.2 136.2L354.9 162.4L338.9 159.8L334.9 184.7L305.8 180ZM292.8 125.5L317.5 129.5L322.7 97.3L292.8 125.5Z" fill="#263238"/>
<path fill-rule="evenodd" clip-rule="evenodd" d="M163.7 29.5C161.566 29.5 159.666 29.0667 158 28.2C156.266 27.4 154.8 26.3333 153.6 25C152.333 23.6 151.366 22.0333 150.7 20.3C150.033 18.5667 149.7 16.7667 149.7 14.9C149.7 13.0333 150.066 11.2 150.8 9.40001C151.466 7.66668 152.433 6.13334 153.7 4.80001C154.966 3.46667 156.466 2.40001 158.2 1.60001C159.933 0.800006 161.8 0.400009 163.8 0.400009C165.866 0.400009 167.766 0.800006 169.5 1.60001C171.166 2.46667 172.633 3.60001 173.9 5.00001C175.1 6.33334 176.033 7.90001 176.7 9.70001C177.366 11.4333 177.7 13.2 177.7 15C177.7 16.9333 177.333 18.7667 176.6 20.5C175.933 22.2333 174.966 23.7667 173.7 25.1C172.5 26.4333 171.033 27.5 169.3 28.3C167.566 29.1 165.7 29.5 163.7 29.5ZM155.4 14.9C155.4 16.1667 155.566 17.3667 155.9 18.5C156.3 19.7 156.866 20.7333 157.6 21.6C158.266 22.4667 159.133 23.1667 160.2 23.7C161.2 24.2333 162.366 24.5 163.7 24.5C165.033 24.5 166.233 24.2333 167.3 23.7C168.3 23.1667 169.166 22.4333 169.9 21.5C170.633 20.5667 171.166 19.5333 171.5 18.4C171.9 17.2667 172.1 16.1 172.1 14.9C172.1 13.7 171.9 12.5 171.5 11.3C171.1 10.1667 170.533 9.16667 169.8 8.30001C169.133 7.36667 168.266 6.63334 167.2 6.10001C166.2 5.56667 165.033 5.30001 163.7 5.30001C162.366 5.30001 161.166 5.60001 160.1 6.20001C159.033 6.73334 158.166 7.46668 157.5 8.40001C156.766 9.26668 156.233 10.2667 155.9 11.4C155.566 12.5333 155.4 13.7 155.4 14.9V14.9Z" fill="#263238"/>
<path fill-rule="evenodd" clip-rule="evenodd" d="M191.2 29.7C189.466 29.7 187.933 29.4 186.6 28.8C185.2 28.2 184.033 27.4 183.1 26.4C182.166 25.4 181.433 24.2333 180.9 22.9C180.366 21.5667 180.1 20.1667 180.1 18.7C180.1 17.2333 180.366 15.8333 180.9 14.5C181.433 13.1667 182.166 12 183.1 11C184.033 10 185.2 9.2 186.6 8.6C187.933 8 189.466 7.7 191.2 7.7C192.933 7.7 194.5 8 195.9 8.6C197.233 9.2 198.366 10 199.3 11C200.3 12 201.033 13.1667 201.5 14.5C202.033 15.8333 202.3 17.2333 202.3 18.7C202.3 20.1667 202.033 21.5667 201.5 22.9C201.033 24.2333 200.3 25.4 199.3 26.4C198.366 27.4 197.233 28.2 195.9 28.8C194.5 29.4 192.933 29.7 191.2 29.7ZM185.7 18.7C185.7 19.6333 185.833 20.5 186.1 21.3C186.366 22.0333 186.766 22.7 187.3 23.3C187.766 23.8333 188.333 24.2667 189 24.6C189.733 24.9333 190.466 25.1 191.2 25.1C192 25.1 192.733 24.9333 193.4 24.6C194.066 24.2667 194.666 23.8333 195.2 23.3C195.666 22.7 196.033 22.0333 196.3 21.3C196.633 20.5 196.8 19.6333 196.8 18.7C196.8 17.7667 196.633 16.9 196.3 16.1C196.033 15.3667 195.666 14.7 195.2 14.1C194.666 13.5667 194.066 13.1333 193.4 12.8C192.733 12.4667 192 12.3 191.2 12.3C190.466 12.3 189.733 12.4667 189 12.8C188.333 13.1333 187.766 13.6 187.3 14.2C186.766 14.7333 186.366 15.4 186.1 16.2C185.833 16.9333 185.7 17.7667 185.7 18.7V18.7Z" fill="#263238"/>
<path fill-rule="evenodd" clip-rule="evenodd" d="M218.6 29.7C216.933 29.7 215.5 29.3333 214.3 28.6C213.033 27.8 212.033 26.7667 211.3 25.5V37.9H205.9V8.1H210.7V11.7C211.433 10.5 212.433 9.53334 213.7 8.8C214.9 8.06667 216.333 7.7 218 7.7C219.4 7.7 220.7 8 221.9 8.6C223.1 9.2 224.167 9.96667 225.1 10.9C225.967 11.9 226.633 13.0667 227.1 14.4C227.633 15.7333 227.9 17.1333 227.9 18.6C227.9 20.1333 227.667 21.6 227.2 23C226.733 24.3333 226.1 25.5 225.3 26.5C224.433 27.5 223.433 28.2667 222.3 28.8C221.167 29.4 219.933 29.7 218.6 29.7V29.7ZM216.8 25.1C217.6 25.1 218.333 24.9 219 24.5C219.733 24.1667 220.333 23.7 220.8 23.1C221.267 22.5 221.633 21.8333 221.9 21.1C222.167 20.3 222.3 19.4667 222.3 18.6C222.3 17.7333 222.167 16.9333 221.9 16.2C221.567 15.4 221.167 14.7333 220.7 14.2C220.167 13.6 219.533 13.1333 218.8 12.8C218.067 12.4667 217.3 12.3 216.5 12.3C215.967 12.3 215.433 12.4 214.9 12.6C214.367 12.8 213.867 13.0333 213.4 13.3C212.933 13.6333 212.533 14.0333 212.2 14.5C211.8 14.9 211.5 15.3667 211.3 15.9V20.9C211.833 22.1 212.6 23.1 213.6 23.9C214.6 24.7 215.667 25.1 216.8 25.1V25.1Z" fill="#263238"/>
<path d="M239.5 29.7C237.766 29.7 236.033 29.4 234.299 28.8C232.633 28.2667 231.2 27.4667 230 26.4L232 23C233.266 23.9333 234.533 24.6333 235.799 25.1C236.999 25.5667 238.2 25.8 239.4 25.8C240.466 25.8 241.333 25.6 242 25.2C242.6 24.8 242.9 24.2 242.9 23.4C242.9 22.6667 242.533 22.1333 241.799 21.8C241.066 21.4667 239.866 21.0667 238.2 20.6C236.866 20.2 235.7 19.8333 234.7 19.5C233.766 19.1667 233 18.7667 232.4 18.3C231.8 17.8333 231.366 17.3333 231.1 16.8C230.833 16.2 230.7 15.5 230.7 14.7C230.7 13.6333 230.899 12.6667 231.299 11.8C231.699 10.9333 232.3 10.2 233.1 9.6C233.833 9 234.7 8.53334 235.7 8.2C236.7 7.86667 237.8 7.7 239 7.7C240.6 7.7 242.1 7.93334 243.5 8.40001C244.9 8.86667 246.166 9.6 247.299 10.6L245.1 13.9C244.033 13.1 243 12.5 242 12.1C241 11.7 240 11.5 239 11.5C238.066 11.5 237.3 11.7 236.7 12.1C236.033 12.5 235.7 13.1 235.7 13.9C235.7 14.3 235.8 14.6 236 14.8C236.133 15.0667 236.366 15.3 236.7 15.5C237.033 15.7 237.433 15.8667 237.9 16C238.433 16.2 239.1 16.4 239.9 16.6C241.366 16.9333 242.6 17.3 243.6 17.7C244.666 18.1 245.533 18.5333 246.2 19C246.866 19.4667 247.333 20.0333 247.6 20.7C247.933 21.3 248.1 22.0667 248.1 23C248.1 25.0667 247.333 26.7 245.799 27.9C244.266 29.1 242.166 29.7 239.5 29.7Z" fill="#263238"/>
<path d="M252.7 18.5V0.300003H258.1V18.5H252.7ZM252.7 29.3V23.2H258.1V29.3H252.7Z" fill="#263238"/>
<path d="M225.6 273.8H190.1V270.8H225.6V273.8Z" fill="#37474F"/>
<path d="M225.6 277.5H190.1V274.6H225.6V277.5Z" fill="#37474F"/>
<path d="M225.6 281.3H190.1V278.4H225.6V281.3Z" fill="#37474F"/>
<path d="M225.6 285.1H190.1V282.2H225.6V285.1Z" fill="#37474F"/>
<path d="M225.6 288.9H190.1V286H225.6V288.9Z" fill="#37474F"/>
<path d="M241 364.5H173.5V361.6H241V364.5Z" fill="#37474F"/>
<path d="M241 368.3H173.5V365.4H241V368.3Z" fill="#37474F"/>
<path d="M241 372.1H173.5V369.2H241V372.1Z" fill="#37474F"/>
<path d="M241 375.9H173.5V373H241V375.9Z" fill="#37474F"/>
<path d="M241 379.7H173.5V376.8H241V379.7Z" fill="#37474F"/>
<path d="M143.8 246.8C143.866 246.533 138.966 244.733 129.1 241.4L129.9 190.6L149.6 186.3L143.8 246.8Z" fill="#93C2CD"/>
<path opacity="0.2" d="M143.8 246.8C143.866 246.533 138.966 244.733 129.1 241.4L129.9 190.6L149.6 186.3L143.8 246.8Z" fill="black"/>
<path d="M294.9 208L311.9 218.8L295.2 266.8C284.8 266.533 279.566 266.533 279.5 266.8L294.9 208Z" fill="#93C2CD"/>
<path opacity="0.2" d="M294.9 208L311.9 218.8L295.2 266.8C284.8 266.533 279.566 266.533 279.5 266.8L294.9 208Z" fill="black"/>
<path d="M141 265.5C144.666 210.633 148.1 174.2 151.3 156.2C217.566 161.2 268.6 170.533 304.4 184.2C285.933 248.267 276.233 281.9 275.299 285.1C228.633 275.9 183.866 269.367 141 265.5V265.5Z" fill="#93C2CD"/>
<path opacity="0.1" d="M229.699 167.2C228.099 177.067 226.466 186.967 224.799 196.9L219.699 226.5L219.399 226.1L252.699 234L269.299 238.1L285.899 242.2L269.199 238.4L252.499 234.6L219.199 226.8H218.899V226.4L224.199 196.8C225.999 186.933 227.833 177.067 229.699 167.2V167.2Z" fill="black"/>
<path opacity="0.1" fill-rule="evenodd" clip-rule="evenodd" d="M226.1 172.8C226.1 173.7 225.4 174.6 224.3 174.7C223.8 174.8 223.3 174.6 222.9 174.3C222.4 173.9 222.2 173.4 222.2 172.8C222.2 172.2 222.4 171.7 222.9 171.3C223.3 171 223.8 170.8 224.3 170.9C225.4 171 226.1 171.9 226.1 172.8ZM226.1 172.8C226.1 172.3 225.9 171.9 225.5 171.6C225.2 171.3 224.7 171.2 224.3 171.2C223.5 171.3 222.9 172.1 223 172.8C222.9 173.5 223.5 174.3 224.3 174.4C224.7 174.4 225.2 174.3 225.5 174C225.9 173.7 226.1 173.3 226.1 172.8Z" fill="black"/>
<path opacity="0.1" fill-rule="evenodd" clip-rule="evenodd" d="M224.299 185C224.299 186 223.6 186.9 222.6 187C222.1 187 221.5 186.9 221.1 186.5C220.7 186.2 220.5 185.6 220.5 185C220.5 184.5 220.7 183.9 221.1 183.6C221.5 183.2 222.1 183.1 222.6 183.1C223.6 183.2 224.299 184.1 224.299 185ZM224.299 185C224.299 184.6 224.099 184.1 223.799 183.9C223.399 183.6 223 183.4 222.6 183.5C221.7 183.6 221.2 184.3 221.2 185C221.2 185.8 221.7 186.5 222.6 186.6C223 186.7 223.399 186.5 223.799 186.2C224.099 186 224.299 185.5 224.299 185Z" fill="black"/>
<path opacity="0.1" fill-rule="evenodd" clip-rule="evenodd" d="M222.199 198C222.199 198.9 221.499 199.8 220.399 199.9C219.899 200 219.399 199.8 218.999 199.4C218.599 199.1 218.299 198.5 218.299 198C218.299 197.4 218.599 196.9 218.999 196.5C219.399 196.2 219.899 196 220.399 196.1C221.499 196.1 222.199 197.1 222.199 198ZM222.199 198C222.199 197.5 221.999 197.1 221.599 196.8C221.299 196.5 220.799 196.4 220.399 196.4C219.599 196.5 218.999 197.3 219.099 198C218.999 198.7 219.599 199.5 220.399 199.5C220.799 199.6 221.299 199.5 221.599 199.2C221.999 198.9 222.199 198.4 222.199 198Z" fill="black"/>
<path opacity="0.1" fill-rule="evenodd" clip-rule="evenodd" d="M220 210.9C220 211.8 219.3 212.8 218.3 212.9C217.8 212.9 217.2 212.7 216.8 212.4C216.4 212 216.2 211.5 216.2 210.9C216.2 210.4 216.4 209.8 216.8 209.5C217.2 209.1 217.8 208.9 218.3 209C219.3 209.1 220 210 220 210.9ZM220 210.9C220 210.5 219.8 210 219.5 209.7C219.1 209.4 218.7 209.3 218.3 209.4C217.4 209.5 216.9 210.2 216.9 210.9C216.9 211.6 217.4 212.4 218.3 212.5C218.7 212.5 219.1 212.4 219.5 212.1C219.8 211.8 220 211.4 220 210.9Z" fill="black"/>
<path opacity="0.1" fill-rule="evenodd" clip-rule="evenodd" d="M227.299 231.6C227.399 232.5 226.6 233.4 225.6 233.5C225.1 233.5 224.5 233.4 224.1 233C223.7 232.7 223.5 232.1 223.5 231.6C223.5 231 223.7 230.5 224.1 230.1C224.5 229.7 225.1 229.6 225.6 229.6C226.6 229.7 227.399 230.7 227.299 231.6ZM227.299 231.6C227.299 231.1 227.099 230.7 226.799 230.4C226.499 230.1 226 230 225.6 230C224.8 230.1 224.2 230.9 224.2 231.6C224.2 232.3 224.8 233 225.6 233.1C226 233.2 226.499 233 226.799 232.8C227.099 232.5 227.299 232 227.299 231.6V231.6Z" fill="black"/>
<path opacity="0.1" fill-rule="evenodd" clip-rule="evenodd" d="M239.6 234.5C239.6 235.4 238.9 236.4 237.8 236.5C237.3 236.5 236.8 236.4 236.4 236C235.9 235.6 235.7 235.1 235.7 234.5C235.7 234 235.9 233.4 236.4 233.1C236.8 232.7 237.3 232.6 237.8 232.6C238.9 232.7 239.6 233.6 239.6 234.5ZM239.6 234.5C239.6 234.1 239.4 233.6 239 233.3C238.7 233.1 238.2 232.9 237.8 233C237 233.1 236.4 233.8 236.4 234.5C236.4 235.2 237 236 237.8 236.1C238.2 236.1 238.7 236 239 235.7C239.4 235.4 239.6 235 239.6 234.5V234.5Z" fill="black"/>
<path opacity="0.1" fill-rule="evenodd" clip-rule="evenodd" d="M251.799 237.5C251.799 238.4 251.099 239.4 249.999 239.5C249.499 239.5 248.999 239.3 248.599 239C248.199 238.6 247.899 238.1 247.899 237.5C247.899 237 248.199 236.4 248.599 236.1C248.999 235.7 249.499 235.5 249.999 235.6C251.099 235.7 251.799 236.6 251.799 237.5ZM251.799 237.5C251.799 237.1 251.599 236.6 251.199 236.3C250.899 236 250.399 235.9 249.999 236C249.199 236.1 248.599 236.8 248.699 237.5C248.599 238.2 249.199 239 249.999 239.1C250.399 239.1 250.899 239 251.199 238.7C251.599 238.4 251.799 238 251.799 237.5V237.5Z" fill="black"/>
<path opacity="0.1" fill-rule="evenodd" clip-rule="evenodd" d="M264 240.5C264 241.4 263.3 242.3 262.2 242.4C261.7 242.5 261.2 242.3 260.8 242C260.4 241.6 260.1 241.1 260.1 240.5C260.1 239.9 260.4 239.4 260.8 239C261.2 238.7 261.7 238.5 262.2 238.6C263.3 238.7 264 239.6 264 240.5ZM264 240.5C264 240 263.8 239.6 263.4 239.3C263.1 239 262.6 238.9 262.2 238.9C261.4 239 260.9 239.8 260.9 240.5C260.9 241.2 261.4 242 262.2 242.1C262.6 242.1 263.1 242 263.4 241.7C263.8 241.4 264 241 264 240.5V240.5Z" fill="black"/>
<path opacity="0.1" fill-rule="evenodd" clip-rule="evenodd" d="M276.199 243.6C276.099 244.5 275.299 245.4 274.299 245.4C273.799 245.4 273.299 245.2 272.899 244.8C272.499 244.4 272.299 243.9 272.299 243.3C272.399 242.8 272.699 242.2 273.099 241.9C273.499 241.6 274.099 241.5 274.599 241.5C275.599 241.7 276.299 242.7 276.199 243.6V243.6ZM276.199 243.6C276.199 243.2 276.099 242.7 275.699 242.4C275.399 242.1 274.999 241.9 274.599 241.9C273.699 242 273.099 242.7 273.099 243.4C272.999 244.1 273.499 244.9 274.299 245C274.699 245.1 275.199 245 275.599 244.8C275.899 244.5 276.199 244.1 276.199 243.6V243.6Z" fill="black"/>
<path opacity="0.1" fill-rule="evenodd" clip-rule="evenodd" d="M217.9 223.9C217.9 224.8 217.2 225.7 216.1 225.8C215.6 225.8 215.1 225.7 214.7 225.3C214.3 225 214 224.4 214 223.9C214 223.3 214.3 222.8 214.7 222.4C215.1 222 215.6 221.9 216.1 221.9C217.2 222 217.9 223 217.9 223.9ZM217.9 223.9C217.9 223.4 217.699 223 217.299 222.7C216.999 222.4 216.5 222.3 216.1 222.3C215.3 222.4 214.699 223.2 214.799 223.9C214.699 224.6 215.3 225.3 216.1 225.4C216.5 225.5 216.999 225.4 217.299 225.1C217.699 224.8 217.9 224.3 217.9 223.9V223.9Z" fill="black"/>
<path opacity="0.2" d="M206.299 228.8C203.799 244.2 189.299 254.7 173.899 252.2C158.499 249.7 148.099 235.2 150.599 219.8C153.099 204.4 167.599 193.9 182.899 196.4C198.299 198.9 208.799 213.4 206.299 228.8V228.8Z" fill="black"/>
<path d="M200.799 227.9C198.799 240.3 187.199 248.7 174.799 246.7C162.499 244.7 154.099 233 156.099 220.7C158.099 208.3 169.699 200 182.099 202C194.399 204 202.799 215.6 200.799 227.9Z" fill="#263238"/>
<path d="M176.199 221.3L170.899 220.4L171.799 215.1L177.099 216L176.199 221.3Z" fill="#93C2CD"/>
<path d="M171.8 215.1L166.5 214.3L167.3 209L172.6 209.8L171.8 215.1Z" fill="#93C2CD"/>
<path d="M192.9 218.6L187.6 217.7L188.5 212.4L193.8 213.3L192.9 218.6Z" fill="#93C2CD"/>
<path d="M168.4 236.2L163.1 235.3L163.9 230L169.2 230.9L168.4 236.2Z" fill="#93C2CD"/>
<path d="M189.5 239.6L184.2 238.8L185.1 233.5L190.4 234.3L189.5 239.6Z" fill="#93C2CD"/>
<path d="M174.5 231.8L169.2 230.9L170.1 225.6L175.4 226.5L174.5 231.8Z" fill="#93C2CD"/>
<path d="M180.699 227.4L175.399 226.5L176.199 221.2L181.499 222.1L180.699 227.4Z" fill="#93C2CD"/>
<path d="M186.8 223L181.5 222.2L182.4 216.9L187.6 217.7L186.8 223Z" fill="#93C2CD"/>
<path d="M185.1 233.5L179.8 232.6L180.7 227.3L186 228.2L185.1 233.5Z" fill="#93C2CD"/>
<path d="M281.7 242.7C278.1 257.8 262.8 267.2 247.7 263.6C232.5 260 223.1 244.8 226.7 229.6C230.3 214.4 245.5 205.1 260.7 208.7C275.9 212.3 285.3 227.5 281.7 242.7V242.7Z" fill="#93C2CD"/>
<path opacity="0.2" d="M281.7 242.7C278.1 257.8 262.8 267.2 247.7 263.6C232.5 260 223.1 244.8 226.7 229.6C230.3 214.4 245.5 205.1 260.7 208.7C275.9 212.3 285.3 227.5 281.7 242.7V242.7Z" fill="black"/>
<path opacity="0.2" d="M281.7 242.7C281.566 243.233 281.4 243.767 281.2 244.3L226.2 232.6C226.333 231.6 226.5 230.6 226.7 229.6C230.3 214.4 245.5 205.1 260.7 208.7C275.9 212.3 285.3 227.5 281.7 242.7V242.7Z" fill="black"/>
<path d="M276.2 241.4C273.3 253.5 261.1 261.1 249 258.2C236.8 255.3 229.3 243.1 232.2 230.9C235.1 218.7 247.3 211.2 259.4 214.1C271.6 217 279.1 229.2 276.2 241.4Z" fill="#263238"/>
<path d="M253.7 249.7L248.5 248.5L254.7 222.5L259.9 223.8L253.7 249.7Z" fill="#93C2CD"/>
<path d="M283.299 242.1L225.5 228.4C229.3 212.4 245.299 202.6 261.299 206.4C277.199 210.2 287.099 226.2 283.299 242.1Z" fill="#93C2CD"/>
<path opacity="0.2" d="M283.299 242.1L225.5 228.4C229.3 212.4 245.299 202.6 261.299 206.4C277.199 210.2 287.099 226.2 283.299 242.1Z" fill="black"/>
<path opacity="0.1" d="M205.1 252.9C205.2 250.7 206 248.4 207.7 246.6C208.5 245.7 209.6 244.9 210.8 244.5C211.9 244.1 213.2 244 214.5 244.1C215.7 244.2 217 244.7 218 245.5C219 246.3 219.8 247.3 220.3 248.4C221.2 250.7 221.3 253.1 220.8 255.3C220.5 253.1 219.9 250.9 218.9 249.1C217.8 247.4 216.2 246.2 214.2 246.1C212.3 245.8 210.3 246.4 208.8 247.7C207.2 249 206 250.9 205.1 252.9V252.9Z" fill="black"/>
<path d="M148.7 195.3C149 192.3 149.3 189.3 149.6 186.3C149.866 183.3 150.2 180.3 150.6 177.3C150.933 174.3 151.3 171.3 151.7 168.3C152.1 165.3 152.5 162.3 152.9 159.3L153 158.5L153.8 158.6C160.333 159 166.833 159.533 173.3 160.2C176.566 160.533 179.833 160.9 183.1 161.3C186.3 161.8 189.5 162.2 192.7 162.8L173.2 161.6L153.7 160.3L154.7 159.6C154.2 162.6 153.8 165.6 153.3 168.5C152.833 171.5 152.366 174.5 151.9 177.5C151.433 180.5 150.933 183.467 150.4 186.4C149.8 189.4 149.3 192.4 148.7 195.3Z" fill="white"/>
<path d="M153.4 218.2C154.1 214.5 155.7 211.1 157.9 208.1C158.5 207.3 159.1 206.6 159.7 205.9C160.367 205.233 161.033 204.567 161.7 203.9C162.433 203.3 163.167 202.7 163.9 202.1C164.7 201.6 165.5 201.1 166.3 200.6C167.167 200.2 168.033 199.8 168.9 199.4L171.6 198.5L174.3 197.9C175.3 197.8 176.2 197.7 177.2 197.7C180.9 197.6 184.6 198.4 188 199.8C184.4 199.1 180.8 198.7 177.2 199C173.7 199.4 170.3 200.4 167.2 202.2C164.1 203.9 161.3 206.2 159 208.9C156.7 211.6 154.8 214.7 153.4 218.2Z" fill="white"/>
<path d="M231.3 225.8C232.4 222.3 234.5 219.1 237.2 216.4C237.8 215.7 238.5 215.1 239.2 214.5C239.933 213.9 240.7 213.333 241.5 212.8C242.3 212.333 243.1 211.867 243.9 211.4C244.8 211 245.6 210.6 246.5 210.2C247.366 209.933 248.266 209.667 249.2 209.4L252 208.8L254.8 208.6C255.8 208.6 256.7 208.7 257.6 208.8C261.4 209.2 264.9 210.5 268.1 212.3C264.6 211.2 261.1 210.3 257.5 210.1C254 210 250.4 210.6 247.1 211.8C243.8 213.1 240.8 215 238.1 217.4C235.4 219.8 233.1 222.6 231.3 225.8V225.8Z" fill="white"/>
<path d="M144.1 316.3C136.9 316.3 121.1 314.6 110.9 301.5C97.8998 284.8 102.6 252.6 102.8 251.3L108.4 252.1C108.4 252.4 103.9 283.2 115.4 298C126.7 312.5 147.1 310.4 147.3 310.4L147.9 316.1C147.7 316.1 146.3 316.3 144.1 316.3V316.3Z" fill="#93C2CD"/>
<path opacity="0.4" d="M144.1 316.3C136.9 316.3 121.1 314.6 110.9 301.5C97.8998 284.8 102.6 252.6 102.8 251.3L108.4 252.1C108.4 252.4 103.9 283.2 115.4 298C126.7 312.5 147.1 310.4 147.3 310.4L147.9 316.1C147.7 316.1 146.3 316.3 144.1 316.3V316.3Z" fill="white"/>
<path d="M110.1 256C109.033 256 107.967 255.9 106.9 255.7C97.4 254.2 93.2 248.5 91.3 244C89.4 239.4 89 234 90 227.7L102.1 229.6C101.5 233.5 101.7 237 102.6 239.3C103.3 241 104.7 243 108.9 243.6C110.8 244 112.9 243.8 115.1 240.5C116.8 237.9 117.8 234.4 118.2 232.2L130.3 234.2C130 235.9 128.8 242 125.3 247.3C121.6 253 116.2 256 110.1 256V256Z" fill="#93C2CD"/>
<path d="M156.1 332.6C156.1 332.467 152.667 331.833 145.8 330.7L140.9 297.3L153.3 292.4L156.1 332.6Z" fill="#93C2CD"/>
<path opacity="0.2" d="M156.1 332.6C156.1 332.467 152.667 331.833 145.8 330.7L140.9 297.3L153.3 292.4L156.1 332.6Z" fill="black"/>
<path d="M261 292.6L273.3 297.7L267.6 331C260.733 331.933 257.3 332.5 257.3 332.7L261 292.6Z" fill="#93C2CD"/>
<path opacity="0.2" d="M261 292.6L273.3 297.7L267.6 331C260.733 331.933 257.3 332.5 257.3 332.7L261 292.6Z" fill="black"/>
<path d="M151.8 285C207 282.6 243.934 282.967 262.6 286.1C257.134 339.5 254.234 366.7 253.9 367.7C199.034 367.567 167.3 367.567 158.7 367.7C154.034 332.233 151.734 304.667 151.8 285V285Z" fill="#93C2CD"/>
<path opacity="0.2" d="M177 306.9C207.133 305.7 227.267 305.9 237.4 307.5C234.467 334.433 232.9 348.133 232.7 348.6C202.767 348.533 185.433 348.533 180.7 348.6C178.633 330.2 177.4 316.3 177 306.9V306.9Z" fill="black"/>
<path opacity="0.2" d="M183.2 348.6C182.133 348.6 181.3 348.633 180.7 348.7C178.7 330.233 177.467 316.3 177 306.9C177.667 306.9 178.6 306.867 179.8 306.8L183.2 348.6Z" fill="black"/>
<path fill-rule="evenodd" clip-rule="evenodd" d="M204.7 324.5C203 329.8 197.3 332.8 192 331.1C186.7 329.4 183.7 323.7 185.4 318.4C187.1 313.1 192.8 310.1 198.1 311.8C203.4 313.5 206.4 319.2 204.7 324.5ZM196.7 316.2C193.8 315.2 190.7 316.9 189.8 319.8C188.8 322.7 190.5 325.8 193.4 326.8C196.3 327.7 199.4 326 200.3 323.1C201.3 320.2 199.6 317.1 196.7 316.2V316.2Z" fill="#93C2CD"/>
<path d="M193 333.9L189.6 332.8L190.3 330.1L194 331.3L193 333.9Z" fill="#93C2CD"/>
<path d="M184.8 328.9L183.2 325.8L185.5 324.4L187.3 327.8L184.8 328.9Z" fill="#93C2CD"/>
<path d="M182.5 319.6L183.5 316.3L186.2 316.9L185 320.6L182.5 319.6Z" fill="#93C2CD"/>
<path d="M187.4 311.4L190.5 309.8L192 312.2L188.5 314L187.4 311.4Z" fill="#93C2CD"/>
<path d="M196.7 309.1L200.1 310.2L199.4 312.9L195.7 311.7L196.7 309.1Z" fill="#93C2CD"/>
<path d="M204.9 314.1L206.5 317.2L204.2 318.6L202.4 315.2L204.9 314.1Z" fill="#93C2CD"/>
<path d="M207.2 323.4L206.2 326.7L203.5 326.1L204.7 322.4L207.2 323.4Z" fill="#93C2CD"/>
<path d="M202.3 331.6L199.2 333.2L197.7 330.8L201.2 329L202.3 331.6Z" fill="#93C2CD"/>
<path fill-rule="evenodd" clip-rule="evenodd" d="M216.8 337.4C214.7 340.6 210.5 341.5 207.3 339.4C204.2 337.4 203.3 333.2 205.4 330C207.4 326.8 211.6 326 214.8 328C217.9 330.1 218.8 334.3 216.8 337.4ZM213.1 330.6C211.4 329.5 209.1 330 207.9 331.7C206.8 333.4 207.3 335.7 209 336.9C210.8 338 213.1 337.5 214.2 335.8C215.3 334 214.8 331.7 213.1 330.6Z" fill="#DBDBDB"/>
<path d="M207.5 341.4L205.5 340.1L206.4 338.5L208.6 339.9L207.5 341.4Z" fill="#DBDBDB"/>
<path d="M203.1 336.7L202.6 334.4L204.4 333.9L204.9 336.5L203.1 336.7Z" fill="#DBDBDB"/>
<path d="M203.3 330.3L204.5 328.3L206.2 329.2L204.7 331.4L203.3 330.3Z" fill="#DBDBDB"/>
<path d="M208 325.8L210.2 325.4L210.8 327.1L208.2 327.7L208 325.8Z" fill="#DBDBDB"/>
<path d="M214.4 326L216.4 327.3L215.5 328.9L213.3 327.5L214.4 326Z" fill="#DBDBDB"/>
<path d="M218.8 330.7L219.3 333L217.5 333.5L217 331L218.8 330.7Z" fill="#DBDBDB"/>
<path d="M218.6 337.2L217.3 339.1L215.7 338.2L217.1 336L218.6 337.2Z" fill="#DBDBDB"/>
<path d="M213.9 341.6L211.6 342.1L211.1 340.3L213.7 339.8L213.9 341.6Z" fill="#DBDBDB"/>
<path d="M269.3 296.7L272.9 297.4L263.8 359L260.6 358.4L269.3 296.7Z" fill="#93C2CD"/>
<path d="M232.7 348.6L237.4 307.5L269.3 296.7C263.5 338.3 260.6 358.867 260.6 358.4L232.7 348.6Z" fill="#93C2CD"/>
<path opacity="0.4" d="M232.7 348.6L237.4 307.5L269.3 296.7C263.5 338.3 260.6 358.867 260.6 358.4L232.7 348.6Z" fill="white"/>
<path d="M155.6 309.1C155.1 305.7 154.8 302.3 154.6 298.8C154.533 297.133 154.467 295.433 154.4 293.7C154.4 292 154.4 290.2 154.4 288.5V288H154.9C161.2 287.7 167.5 287.3 173.8 287C180.133 286.667 186.467 286.4 192.8 286.2C186.533 286.733 180.233 287.233 173.9 287.7C167.6 288.2 161.3 288.6 155 289L155.4 288.5V293.7V298.8C155.467 300.533 155.5 302.267 155.5 304L155.6 309.1Z" fill="white"/>
<path d="M241.9 308.1C243.833 307.167 245.833 306.3 247.9 305.5C249.9 304.633 251.933 303.867 254 303.2C256.1 302.4 258.1 301.8 260.2 301.2C262.3 300.6 264.5 300 266.6 299.7L267.2 299.6L267.1 300.1C266.6 302.8 266 305.4 265.4 308.1C265.7 305.4 266 302.7 266.3 300L266.8 300.4C264.667 300.933 262.567 301.5 260.5 302.1C258.433 302.7 256.367 303.367 254.3 304.1L241.9 308.1Z" fill="white"/>
<path opacity="0.1" d="M169.4 285.1L169.9 295.4L170.4 305.7L171.2 326.3L171.8 346.9L172.1 357.3L172.2 367.6L171.7 357.3L171.2 347L170.4 326.4L169.8 305.7L169.6 295.4L169.4 285.1Z" fill="black"/>
<path opacity="0.1" fill-rule="evenodd" clip-rule="evenodd" d="M166.5 291.3C166.7 292.2 166.1 293.3 165.1 293.6C164.6 293.7 164.1 293.7 163.6 293.4C163.1 293.1 162.8 292.6 162.7 292.1C162.6 291.6 162.7 291 163 290.5C163.3 290.1 163.9 289.8 164.4 289.8C165.4 289.7 166.3 290.4 166.5 291.3ZM166.5 291.3C166.4 290.9 166.1 290.5 165.7 290.3C165.3 290 164.8 290 164.4 290.1C163.6 290.4 163.2 291.3 163.4 291.9C163.5 292.6 164.2 293.3 165.1 293.2C165.5 293.2 165.9 293 166.2 292.6C166.4 292.3 166.5 291.8 166.5 291.3V291.3Z" fill="black"/>
<path opacity="0.1" fill-rule="evenodd" clip-rule="evenodd" d="M167.2 303.7C167.4 304.6 166.8 305.6 165.8 305.9C165.3 306.1 164.8 306 164.3 305.7C163.8 305.5 163.5 305 163.4 304.4C163.3 303.9 163.4 303.3 163.7 302.9C164.1 302.4 164.6 302.2 165.1 302.1C166.1 302 167 302.8 167.2 303.7ZM167.2 303.7C167.1 303.2 166.8 302.8 166.4 302.6C166 302.4 165.5 302.4 165.1 302.5C164.3 302.8 164 303.6 164.1 304.3C164.2 305 164.9 305.6 165.8 305.6C166.2 305.5 166.6 305.3 166.9 305C167.1 304.6 167.2 304.1 167.2 303.7V303.7Z" fill="black"/>
<path opacity="0.1" fill-rule="evenodd" clip-rule="evenodd" d="M167.6 316.8C167.8 317.7 167.3 318.7 166.3 319C165.8 319.2 165.2 319.1 164.8 318.9C164.3 318.6 163.9 318.1 163.8 317.6C163.7 317 163.8 316.4 164.2 316C164.5 315.6 165 315.3 165.5 315.2C166.6 315.1 167.5 315.9 167.6 316.8V316.8ZM167.6 316.8C167.5 316.3 167.2 315.9 166.8 315.7C166.4 315.5 166 315.5 165.6 315.6C164.8 315.9 164.4 316.7 164.6 317.4C164.7 318.1 165.4 318.7 166.2 318.7C166.6 318.6 167 318.4 167.3 318.1C167.6 317.7 167.7 317.2 167.6 316.8V316.8Z" fill="black"/>
<path opacity="0.1" fill-rule="evenodd" clip-rule="evenodd" d="M168.1 329.9C168.3 330.8 167.7 331.8 166.7 332.1C166.2 332.3 165.7 332.2 165.2 332C164.7 331.7 164.4 331.2 164.3 330.7C164.2 330.1 164.3 329.5 164.6 329.1C165 328.7 165.5 328.4 166 328.3C167 328.2 167.9 329 168.1 329.9V329.9ZM168.1 329.9C168 329.4 167.7 329 167.3 328.8C166.9 328.6 166.4 328.6 166 328.7C165.2 329 164.9 329.8 165 330.5C165.1 331.2 165.8 331.8 166.7 331.8C167.1 331.7 167.5 331.5 167.8 331.2C168 330.8 168.1 330.3 168.1 329.9V329.9Z" fill="black"/>
<path opacity="0.1" fill-rule="evenodd" clip-rule="evenodd" d="M168.5 343C168.7 343.9 168.2 344.9 167.2 345.2C166.7 345.4 166.1 345.3 165.7 345.1C165.2 344.8 164.8 344.3 164.7 343.8C164.6 343.2 164.7 342.6 165.1 342.2C165.4 341.8 165.9 341.5 166.4 341.5C167.5 341.3 168.4 342.1 168.5 343V343ZM168.5 343C168.4 342.6 168.1 342.2 167.7 341.9C167.3 341.7 166.9 341.7 166.5 341.8C165.7 342.1 165.3 342.9 165.5 343.6C165.6 344.3 166.3 345 167.1 344.9C167.5 344.8 167.9 344.6 168.2 344.3C168.5 343.9 168.6 343.5 168.5 343V343Z" fill="black"/>
<path opacity="0.1" fill-rule="evenodd" clip-rule="evenodd" d="M169 356.1C169.2 357 168.6 358.1 167.6 358.4C167.1 358.5 166.6 358.4 166.1 358.2C165.6 357.9 165.3 357.4 165.2 356.9C165.1 356.3 165.2 355.7 165.5 355.3C165.9 354.9 166.4 354.6 166.9 354.6C167.9 354.4 168.8 355.2 169 356.1ZM169 356.1C168.9 355.7 168.6 355.3 168.2 355C167.8 354.8 167.3 354.8 166.9 354.9C166.1 355.2 165.8 356 165.9 356.7C166 357.4 166.7 358.1 167.6 358C168 358 168.4 357.7 168.7 357.4C168.9 357 169 356.6 169 356.1V356.1Z" fill="black"/>
<path d="M127.8 395.8L126.2 390.4L173 376.2L174.7 381.6L127.8 395.8Z" fill="#93C2CD"/>
<path opacity="0.4" d="M127.8 395.8L126.2 390.4L173 376.2L174.7 381.6L127.8 395.8Z" fill="white"/>
<path d="M147.7 390.9L145.1 382.8L150.6 381.1L153.1 389.2L147.7 390.9Z" fill="#93C2CD"/>
<path d="M96.7998 411.2L78.7998 360.1L115.3 351.5L127.4 403.9L96.7998 411.2Z" fill="#93C2CD"/>
<path d="M135.5 401.2L127.4 403.9L115.3 351.5L127 354.3L135.5 401.2Z" fill="#93C2CD"/>
<path opacity="0.2" d="M135.5 401.2L127.4 403.9L115.3 351.5L127 354.3L135.5 401.2Z" fill="black"/>
<path d="M173.9 385.1C177.324 385.1 180.1 382.324 180.1 378.9C180.1 375.476 177.324 372.7 173.9 372.7C170.476 372.7 167.7 375.476 167.7 378.9C167.7 382.324 170.476 385.1 173.9 385.1Z" fill="#93C2CD"/>
<path d="M283 395.8L236.1 381.5L237.8 376L284.7 390.3L283 395.8Z" fill="#93C2CD"/>
<path opacity="0.4" d="M283 395.8L236.1 381.5L237.8 376L284.7 390.3L283 395.8Z" fill="white"/>
<path d="M263.1 390.8L257.7 389.1L260.3 381L265.7 382.7L263.1 390.8Z" fill="#93C2CD"/>
<path d="M283.4 403.8L295.6 351.5L332.1 360.2L314 411.2L283.4 403.8Z" fill="#93C2CD"/>
<path d="M283.9 354.2L295.6 351.5L283.4 403.8L275.3 401.1L283.9 354.2Z" fill="#93C2CD"/>
<path opacity="0.2" d="M283.9 354.2L295.6 351.5L283.4 403.8L275.3 401.1L283.9 354.2Z" fill="black"/>
<path d="M237 385C240.424 385 243.2 382.224 243.2 378.8C243.2 375.376 240.424 372.6 237 372.6C233.576 372.6 230.8 375.376 230.8 378.8C230.8 382.224 233.576 385 237 385Z" fill="#93C2CD"/>
<path d="M273.7 310C274.4 309.3 291.2 293.7 312.1 299.3C332.6 304.8 348.2 333.3 348.8 334.5L343.8 337.2C343.6 337 328.7 309.7 310.6 304.8C292.9 300 277.8 314 277.7 314.1L273.7 310Z" fill="#93C2CD"/>
<path opacity="0.4" d="M273.7 310C274.4 309.3 291.2 293.7 312.1 299.3C332.6 304.8 348.2 333.3 348.8 334.5L343.8 337.2C343.6 337 328.7 309.7 310.6 304.8C292.9 300 277.8 314 277.7 314.1L273.7 310Z" fill="white"/>
<path d="M333.2 351.3C332.7 343.3 336.1 337 342.8 333.4C351.3 328.9 358.2 331 362.4 333.4C366.6 335.9 370.2 340 373.2 345.7L362.4 351.4C360.5 347.9 358.3 345.3 356.1 344C354.6 343.1 352.3 342.3 348.5 344.3C346.8 345.2 345.2 346.6 345.5 350.6C345.6 353.6 346.9 357 348 359L337.1 364.7C336.3 363.2 333.6 357.6 333.2 351.3V351.3Z" fill="#93C2CD"/>
<path d="M279.9 295C282.3 293.4 284.7 291.9 287.1 290.4C289.5 288.8 292 287.4 294.4 285.9C296.9 284.5 299.4 283 301.9 281.7L305.6 279.6C306.9 279 308.1 278.3 309.4 277.7C308.2 278.5 307 279.2 305.9 280L302.2 282.3C299.8 283.9 297.4 285.3 294.9 286.8C292.5 288.2 290 289.6 287.5 291C285 292.4 282.5 293.8 279.9 295Z" fill="#263238"/>
<path d="M273.7 318.4C277.1 320.3 280.3 322.5 283.4 324.7C286.6 327 289.6 329.3 292.5 331.9C289.2 329.9 286 327.8 282.8 325.5C279.7 323.3 276.6 321 273.7 318.4Z" fill="#263238"/>
<path d="M279.2 315.5C281.8 316.3 284.4 317.2 287 318.1C289.5 319 292 320 294.6 321C297.1 322 299.6 323 302.1 324L305.8 325.6C307.1 326.2 308.3 326.7 309.5 327.3C308.2 326.9 306.9 326.5 305.7 326.1L301.8 324.7C299.3 323.8 296.7 322.9 294.2 321.9C291.7 320.9 289.2 319.9 286.7 318.8C284.2 317.8 281.7 316.7 279.2 315.5Z" fill="#263238"/>
<path d="M286.6 297.2C289.1 296.6 291.6 296 294.1 295.5C296.6 295 299.2 294.5 301.7 294.1C304.2 293.6 306.8 293.2 309.3 292.8L313.1 292.3C314.4 292.2 315.7 292 316.9 291.9C315.7 292.2 314.4 292.5 313.2 292.8L309.4 293.6C306.9 294.1 304.4 294.6 301.9 295C299.3 295.5 296.8 295.9 294.3 296.3C291.7 296.6 289.2 297 286.6 297.2V297.2Z" fill="#263238"/>
<path d="M226.6 312.8C227 310.8 227.7 308.8 228.6 306.9C229.5 305 230.6 303.2 231.9 301.6C233.3 300 234.9 298.7 236.9 297.9C238.9 297.1 241.2 297.1 243.2 297.9C245.3 298.7 246.9 300.4 247.7 302.4C248.166 303.4 248.466 304.433 248.6 305.5C248.7 306.6 248.7 307.7 248.2 308.8C248 309.3 247.7 309.8 247.1 310.2C246.9 310.4 246.5 310.5 246.2 310.5C245.9 310.6 245.6 310.6 245.2 310.4C244.5 310.2 244.2 309.6 243.9 309.1C243.633 308.633 243.433 308.133 243.3 307.6C242.8 305.5 242.7 303.4 242.8 301.3C243.1 297.1 244.2 292.9 246.5 289.3C247.6 287.5 249 285.9 250.8 284.7C252.6 283.5 254.6 282.7 256.7 282.4C257.7 282.2 258.8 282.2 259.8 282.2C260.4 282.1 260.9 282.2 261.4 282.3C261.9 282.3 262.5 282.3 263 282.5C265 282.8 267 283.7 268.8 284.7C270.6 285.7 272.3 287.1 273.7 288.5C275.2 290 276.5 291.6 277.6 293.4C275.2 290 272.2 287.1 268.6 285.1C266.8 284.2 264.9 283.4 262.9 283.1C262.4 283 261.9 283 261.4 282.9C260.8 282.9 260.3 282.8 259.8 282.9C258.8 282.9 257.8 282.9 256.8 283.2C254.8 283.5 252.9 284.3 251.3 285.4C249.6 286.6 248.3 288.1 247.2 289.8C245.1 293.3 244.1 297.3 243.8 301.3C243.7 303.4 243.8 305.4 244.3 307.3C244.5 308.3 244.9 309.3 245.6 309.6C245.6 309.6 245.7 309.6 245.8 309.6C245.9 309.6 246 309.6 246.1 309.6C246.3 309.6 246.466 309.533 246.6 309.4C247 309.2 247.2 308.9 247.4 308.4C247.7 307.6 247.8 306.6 247.7 305.6C247.633 304.6 247.4 303.667 247 302.8C246.2 301 244.8 299.4 242.9 298.6C241.1 297.9 239 297.8 237.1 298.5C235.3 299.1 233.6 300.4 232.3 302C229.6 305 227.7 308.8 226.6 312.8V312.8Z" fill="#263238"/>
<path d="M134.2 338.7C135.2 336.9 136.6 335.3 138.3 334.1C139.9 332.8 141.8 331.9 143.9 331.4C145.9 330.9 148.1 330.9 150.1 331.5C152.1 332.1 154 333.3 155.5 334.8C156.9 336.4 158 338.2 158.8 340.2C159.5 342.1 160 344.2 159.8 346.4C159.7 347.4 159.5 348.6 158.7 349.5C158.2 350 157.6 350.3 157 350.3C156.4 350.3 155.8 350.2 155.3 349.9C154.7 349.6 154.3 349.1 154 348.6C153.8 348 153.7 347.4 153.6 346.9C153.6 345.8 153.8 344.7 154.2 343.7C154.8 341.7 155.9 339.8 157.2 338.2C158.5 336.5 160.1 335.1 161.8 333.8C165.1 331.4 169.5 330 173.7 330.5C175.8 330.8 177.8 331.4 179.6 332.5C181.5 333.5 183.1 334.9 184.4 336.6C185.7 338.2 186.7 340 187.4 341.9C188.2 343.9 188.8 345.9 189.1 347.9C188.2 343.9 186.6 340 184 336.9C182.7 335.3 181.1 334 179.3 333.1C177.6 332.1 175.6 331.6 173.6 331.3C169.6 330.9 165.5 332.2 162.3 334.6C159.1 336.9 156.4 340.3 155.1 344C154.8 344.9 154.6 345.9 154.6 346.8C154.6 347.8 155 348.7 155.7 349.1C156.1 349.3 156.5 349.3 157 349.3C157.4 349.3 157.733 349.167 158 348.9C158.6 348.3 158.8 347.3 158.9 346.3C159.1 344.4 158.7 342.3 158 340.5C157.3 338.6 156.2 336.9 154.9 335.4C153.5 333.9 151.8 332.8 149.9 332.2C148 331.5 145.9 331.5 144 331.9C140 332.7 136.4 335.2 134.2 338.7V338.7Z" fill="#263238"/>
<path d="M87.9996 97.2C87.7996 93.1 86.9996 88.9 85.0996 85.3C84.0996 83.6 82.7996 81.9 81.1996 80.8C79.4996 79.7 77.3996 79.3 75.4996 79.6C73.4996 79.9 71.7996 81.1 70.5996 82.6C69.9996 83.4 69.5329 84.2667 69.1996 85.2C68.8996 86.1 68.6996 87.1 68.7996 88C68.8996 88.5 69.0996 88.9 69.2996 89.2C69.4329 89.3333 69.5996 89.4333 69.7996 89.5C69.8996 89.5 69.9996 89.5 70.0996 89.6C70.1996 89.6 70.1996 89.6 70.2996 89.6C70.9996 89.4 71.6996 88.5 72.0996 87.7C73.0996 86 73.5996 84 73.9996 82C74.6996 78 74.6996 73.8 73.3996 70C72.7996 68.1 71.8996 66.2 70.4996 64.7C69.1996 63.3 67.5996 62 65.6996 61.3C64.7996 60.8 63.7996 60.5 62.7996 60.2C62.3996 60 61.7996 60 61.3996 59.9C60.8996 59.9 60.3996 59.7 59.7996 59.7C57.7996 59.6 55.7996 59.8 53.7996 60.3C49.8996 61.4 46.1996 63.5 43.0996 66.2C44.5996 64.7 46.1996 63.5 47.9996 62.4C49.7996 61.4 51.6996 60.4 53.6996 59.9C55.6996 59.3 57.7996 59 59.8996 59.1C60.3996 59.1 60.8996 59.2 61.4996 59.3C61.9996 59.4 62.4996 59.4 62.9996 59.5C63.9996 59.8 65.0996 60.1 65.9996 60.6C67.9996 61.3 69.7996 62.6 71.1996 64.2C72.5996 65.8 73.5996 67.7 74.2996 69.7C75.5996 73.7 75.6996 78 74.9996 82.2C74.5996 84.2 73.9996 86.3 72.9996 88.2C72.7329 88.6667 72.3996 89.1 71.9996 89.5C71.5996 89.9 71.1996 90.4 70.4996 90.5C70.0996 90.5 69.7996 90.5 69.4996 90.4C69.1996 90.2 68.8996 90 68.6996 89.8C68.1996 89.3 67.9996 88.7 67.8996 88.2C67.7996 87 67.9996 85.9 68.3996 84.9C68.7329 83.9 69.2329 82.9667 69.8996 82.1C71.1996 80.4 73.1996 79.1 75.3996 78.8C77.4996 78.5 79.6996 79.1 81.4996 80.3C83.2996 81.5 84.4996 83.3 85.4996 85.1C86.3996 87 86.9996 89 87.3996 91C87.7996 93.1 87.9996 95.1 87.9996 97.2V97.2Z" fill="#263238"/>
<path d="M308.8 149.4C304.7 148.5 300.5 148.4 296.6 149.4C294.6 149.9 292.7 150.8 291.2 152.2C289.8 153.5 288.9 155.4 288.7 157.4C288.6 159.4 289.3 161.3 290.5 162.8C291.167 163.6 291.9 164.267 292.7 164.8C293.5 165.3 294.5 165.7 295.4 165.8C295.8 165.9 296.3 165.8 296.6 165.6C296.8 165.533 296.933 165.4 297 165.2C297.1 165.1 297.1 165 297.2 165C297.2 164.9 297.2 164.8 297.2 164.7C297.3 164 296.5 163.2 295.8 162.5C294.4 161.2 292.6 160.2 290.7 159.4C287 157.8 282.9 156.8 278.9 157.2C276.9 157.3 274.9 157.8 273.1 158.7C271.4 159.7 269.8 161 268.6 162.6C267.9 163.4 267.5 164.3 266.9 165.2C266.7 165.6 266.5 166.1 266.3 166.5C266.1 167 265.9 167.5 265.8 168C265.1 169.9 264.9 171.9 264.9 174C265 178.1 266.2 182.1 268.2 185.8C267.1 184 266.3 182.1 265.6 180.1C265 178.1 264.5 176.1 264.4 174C264.4 171.9 264.5 169.8 265.2 167.8C265.3 167.2 265.5 166.8 265.7 166.3C265.9 165.8 266 165.3 266.3 164.8C266.9 163.9 267.3 163 268 162.2C269.2 160.4 270.9 159 272.7 158C274.6 157 276.7 156.4 278.8 156.2C283.1 155.9 287.3 156.8 291.1 158.5C293 159.4 294.9 160.4 296.5 161.8C296.9 162.2 297.267 162.633 297.6 163.1C297.9 163.6 298.2 164.1 298.2 164.8C298.1 165.2 298 165.5 297.8 165.8C297.6 166 297.4 166.2 297.1 166.4C296.5 166.7 295.9 166.8 295.3 166.7C294.2 166.6 293.1 166.1 292.2 165.6C291.333 165 290.567 164.267 289.9 163.4C288.5 161.7 287.7 159.5 288 157.3C288.2 155.2 289.2 153.1 290.8 151.7C292.4 150.3 294.4 149.4 296.4 149C298.5 148.5 300.6 148.4 302.6 148.4C304.7 148.5 306.8 148.8 308.8 149.4V149.4Z" fill="#263238"/>
<path d="M246.9 84.7C246.2 82.3 246.1 79.8 246.5 77.3C246.9 74.9 247.7 72.5 249 70.4C250.4 68.2 252.2 66.4 254.5 65.3C256.7 64.1 259.3 63.6 261.8 63.7C264.3 63.7 266.8 64.4 269.1 65.4C271.4 66.5 273.5 67.9 275.2 69.9C276 70.9 276.7 72 276.8 73.5C276.8 74.2 276.5 74.9 276 75.5C275.5 75.9 274.9 76.3 274.2 76.5C273.5 76.8 272.8 76.7 272.1 76.4C271.4 76.2 270.9 75.8 270.4 75.3C269.5 74.4 268.8 73.3 268.2 72.2C267.1 69.9 266.5 67.4 266.2 64.9C266 62.4 266 59.9 266.5 57.4C267.3 52.5 269.8 47.8 273.9 44.7C275.9 43.2 278.1 42 280.6 41.4C283 40.7 285.5 40.6 288 40.9C290.5 41.2 292.9 41.9 295.2 42.9C297.4 43.9 299.6 45.1 301.5 46.6C297.5 43.9 292.8 41.9 288 41.4C285.5 41.2 283.1 41.3 280.8 42C278.4 42.7 276.3 43.9 274.4 45.3C272.5 46.9 270.9 48.7 269.7 50.8C268.5 52.9 267.8 55.2 267.4 57.6C266.6 62.4 267.1 67.4 269.1 71.8C269.6 72.8 270.2 73.9 271.1 74.6C271.9 75.4 273 76 274 75.6C274.4 75.5 274.9 75.2 275.3 74.8C275.633 74.4667 275.8 74.0333 275.8 73.5C275.8 72.4 275.2 71.3 274.5 70.4C272.9 68.6 270.9 67.2 268.7 66.2C266.5 65.2 264.2 64.6 261.8 64.5C259.4 64.4 256.9 64.8 254.8 65.9C252.6 66.9 250.8 68.6 249.5 70.7C246.8 74.7 245.8 79.9 246.9 84.7V84.7Z" fill="#263238"/>
<path fill-rule="evenodd" clip-rule="evenodd" d="M138.1 345.7C136.7 350.4 131.6 353 126.9 351.5C122.2 350 119.6 345 121 340.3C122.5 335.6 127.6 332.9 132.3 334.4C137 335.9 139.6 341 138.1 345.7V345.7ZM131.1 338.3C128.5 337.5 125.7 338.9 124.9 341.5C124.1 344.1 125.5 346.9 128.1 347.7C130.7 348.5 133.5 347 134.3 344.5C135.1 341.9 133.7 339.1 131.1 338.3Z" fill="#455A64"/>
<path d="M127.7 354L124.8 353L125.4 350.7L128.7 351.7L127.7 354Z" fill="#455A64"/>
<path d="M120.5 349.6L119.1 346.8L121.2 345.6L122.7 348.6L120.5 349.6Z" fill="#455A64"/>
<path d="M118.5 341.3L119.4 338.4L121.8 339L120.8 342.3L118.5 341.3Z" fill="#455A64"/>
<path d="M122.9 334.1L125.6 332.7L126.9 334.8L123.8 336.3L122.9 334.1Z" fill="#455A64"/>
<path d="M131.1 332.1L134 333L133.5 335.4L130.2 334.3L131.1 332.1Z" fill="#455A64"/>
<path d="M138.3 336.5L139.8 339.2L137.7 340.5L136.1 337.4L138.3 336.5Z" fill="#455A64"/>
<path d="M140.4 344.7L139.4 347.6L137.1 347.1L138.1 343.8L140.4 344.7Z" fill="#455A64"/>
<path d="M136 351.9L133.3 353.4L132 351.3L135 349.7L136 351.9Z" fill="#455A64"/>
<path fill-rule="evenodd" clip-rule="evenodd" d="M277.5 313.2C271.4 308.7 270.2 300.1 274.7 294C279.2 287.9 287.8 286.7 293.8 291.2C299.9 295.7 301.2 304.3 296.7 310.3C292.2 316.4 283.6 317.7 277.5 313.2ZM289.5 297.1C286.6 294.9 282.6 295.5 280.5 298.4C278.4 301.2 279 305.2 281.9 307.3C284.7 309.4 288.7 308.8 290.8 306C292.9 303.2 292.3 299.2 289.5 297.1V297.1Z" fill="#263238"/>
<path d="M277.5 317.1L273.7 314.3L275.7 311.2L280 314.3L277.5 317.1Z" fill="#263238"/>
<path d="M269.2 307.2L268.6 302.5L272.2 301.7L273 306.9L269.2 307.2Z" fill="#263238"/>
<path d="M270.399 294.3L273.199 290.5L276.399 292.5L273.299 296.7L270.399 294.3Z" fill="#263238"/>
<path d="M280.399 286L284.999 285.3L285.899 289L280.699 289.7L280.399 286Z" fill="#263238"/>
<path d="M293.3 287.2L297.1 290L295.1 293.2L290.8 290L293.3 287.2Z" fill="#263238"/>
<path d="M301.6 297.2L302.2 301.8L298.6 302.6L297.8 297.4L301.6 297.2Z" fill="#263238"/>
<path d="M300.399 310L297.599 313.8L294.399 311.8L297.499 307.6L300.399 310Z" fill="#263238"/>
<path d="M290.399 318.3L285.799 319L284.899 315.4L290.099 314.6L290.399 318.3Z" fill="#263238"/>
<path fill-rule="evenodd" clip-rule="evenodd" d="M282.5 298.5L287.1 297.8L290 301.5L288.3 305.8L283.7 306.5L280.8 302.8L282.5 298.5ZM284.2 301.3C283.7 302 283.8 302.9 284.5 303.4C285.2 303.9 286.1 303.8 286.6 303.1C287.1 302.4 286.9 301.5 286.3 301C285.6 300.5 284.7 300.7 284.2 301.3Z" fill="#263238"/>
<path fill-rule="evenodd" clip-rule="evenodd" d="M313.3 49.5C312 53.6 307.6 55.9 303.5 54.6C299.3 53.3 297 48.9 298.3 44.8C299.6 40.7 304 38.4 308.2 39.7C312.3 41 314.6 45.4 313.3 49.5ZM307.1 43C304.9 42.3 302.4 43.6 301.7 45.9C301 48.1 302.3 50.5 304.5 51.3C306.8 52 309.2 50.7 309.9 48.4C310.6 46.2 309.4 43.8 307.1 43Z" fill="#263238"/>
<path d="M304.2 56.8L301.6 56L302.1 53.9L305 54.8L304.2 56.8Z" fill="#263238"/>
<path d="M297.9 52.9L296.6 50.5L298.4 49.4L299.8 52.1L297.9 52.9Z" fill="#263238"/>
<path d="M296.1 45.7L296.9 43.2L299 43.6L298.1 46.5L296.1 45.7Z" fill="#263238"/>
<path d="M299.899 39.4L302.299 38.1L303.499 40L300.799 41.3L299.899 39.4Z" fill="#263238"/>
<path d="M307.1 37.6L309.7 38.4L309.2 40.5L306.3 39.6L307.1 37.6Z" fill="#263238"/>
<path d="M313.5 41.5L314.7 43.8L312.9 45L311.5 42.3L313.5 41.5Z" fill="#263238"/>
<path d="M315.199 48.7L314.399 51.2L312.399 50.7L313.299 47.9L315.199 48.7Z" fill="#263238"/>
<path d="M311.399 55L308.999 56.2L307.899 54.4L310.599 53L311.399 55Z" fill="#263238"/>
<path fill-rule="evenodd" clip-rule="evenodd" d="M275.1 192.4C273.8 196.5 269.4 198.8 265.3 197.5C261.1 196.2 258.8 191.8 260.1 187.7C261.4 183.5 265.8 181.2 270 182.5C274.1 183.8 276.4 188.2 275.1 192.4ZM268.9 185.9C266.6 185.2 264.2 186.5 263.5 188.7C262.8 191 264.1 193.4 266.3 194.1C268.6 194.8 271 193.6 271.7 191.3C272.4 189 271.2 186.6 268.9 185.9Z" fill="#263238"/>
<path d="M266 199.6L263.4 198.8L263.9 196.7L266.8 197.6L266 199.6Z" fill="#263238"/>
<path d="M259.6 195.8L258.4 193.4L260.2 192.3L261.6 194.9L259.6 195.8Z" fill="#263238"/>
<path d="M257.9 188.6L258.7 186L260.8 186.5L259.9 189.4L257.9 188.6Z" fill="#263238"/>
<path d="M261.7 182.2L264.1 181L265.2 182.8L262.6 184.2L261.7 182.2Z" fill="#263238"/>
<path d="M268.9 180.5L271.5 181.3L271 183.4L268.1 182.5L268.9 180.5Z" fill="#263238"/>
<path d="M275.3 184.3L276.5 186.7L274.7 187.8L273.3 185.2L275.3 184.3Z" fill="#263238"/>
<path d="M277 191.5L276.2 194.1L274.1 193.6L275 190.7L277 191.5Z" fill="#263238"/>
<path d="M273.2 197.9L270.8 199.1L269.7 197.3L272.3 195.9L273.2 197.9Z" fill="#263238"/>
<path fill-rule="evenodd" clip-rule="evenodd" d="M35.7999 82.7C29.3999 81.1 25.5999 74.7 27.0999 68.4C28.5999 62.1 34.9999 58.2 41.3999 59.7C47.6999 61.3 51.5999 67.7 49.9999 74C48.4999 80.3 42.0999 84.2 35.7999 82.7V82.7ZM39.8999 65.9C36.8999 65.1 33.8999 66.9 33.1999 69.9C32.4999 72.9 34.2999 75.8 37.2999 76.6C40.1999 77.3 43.1999 75.5 43.8999 72.5C44.5999 69.5 42.7999 66.6 39.8999 65.9V65.9Z" fill="#263238"/>
<path d="M37.0997 85.8L33.1997 84.8L33.6997 81.6L38.0997 82.7L37.0997 85.8Z" fill="#263238"/>
<path d="M27.1996 80.6L25.0996 77.2L27.6996 75.3L30.0996 79.2L27.1996 80.6Z" fill="#263238"/>
<path d="M23.7998 70L24.7998 66.1L27.9998 66.6L26.8998 71L23.7998 70Z" fill="#263238"/>
<path d="M29 60.1L32.4 58L34.3 60.6L30.4 63L29 60.1Z" fill="#263238"/>
<path d="M39.5996 56.8L43.4996 57.7L42.9996 60.9L38.5996 59.8L39.5996 56.8Z" fill="#263238"/>
<path d="M49.4996 61.9L51.5996 65.3L48.9996 67.2L46.5996 63.3L49.4996 61.9Z" fill="#263238"/>
<path d="M52.7997 72.5L51.8997 76.4L48.6997 75.9L49.7997 71.5L52.7997 72.5Z" fill="#263238"/>
<path d="M47.6999 82.4L44.2999 84.5L42.3999 81.9L46.2999 79.5L47.6999 82.4Z" fill="#263238"/>
<path fill-rule="evenodd" clip-rule="evenodd" d="M34.7998 69.3L38.1998 67.2L41.7998 69.2L41.8998 73.2L38.3998 75.3L34.8998 73.4L34.7998 69.3ZM37.0998 70.9C36.8998 71.6 37.2998 72.3 37.9998 72.4C38.6998 72.6 39.3998 72.2 39.5998 71.5C39.6998 70.8 39.2998 70.1 38.5998 70C37.8998 69.8 37.2998 70.2 37.0998 70.9Z" fill="#263238"/>
<path d="M316.6 195.9C313.9 191.8 312.4 187.2 312.4 182.4C312.4 165.2 331.3 151.2 354.5 151.2C377.8 151.2 396.7 165.2 396.7 182.4C396.7 199.6 377.8 213.5 354.5 213.5C343.3 213.5 333 210.2 325.5 204.9L310.9 208.6L316.6 195.9Z" fill="white"/>
<path fill-rule="evenodd" clip-rule="evenodd" d="M316.6 195.9C314.1 192.2 312.5 187.7 312.3 183.1C312.2 178.5 313.3 173.9 315.6 169.9C317.9 165.9 321.2 162.6 324.9 159.9C328.6 157.2 332.8 155.1 337.1 153.7C341.5 152.2 346 151.3 350.6 151C355.2 150.6 359.8 150.9 364.3 151.7C365.5 151.9 366.6 152 367.7 152.3L371 153.2L374.3 154.4C375.4 154.8 376.4 155.3 377.5 155.8C381.6 157.7 385.5 160.3 388.8 163.6C392.1 166.8 394.7 170.8 396.1 175.3C397.5 179.7 397.6 184.6 396.2 189C394.9 193.5 392.3 197.5 389.1 200.8C385.9 204.1 382 206.8 377.9 208.8C373.8 210.8 369.3 212.1 364.8 213C360.3 213.7 355.7 214.1 351.1 213.8C346.5 213.5 342 212.6 337.6 211.2C333.3 209.8 329.1 207.8 325.4 205.1L311 208.7H310.8V208.5L316.6 195.9ZM325.5 205.1H325.6H325.4C325.4 205.1 325.433 205.1 325.5 205.1V205.1ZM316.6 195.9L311.2 208.4L325.5 204.7L325.6 204.6L325.7 204.7C333.1 209.9 342.2 212.5 351.2 213C355.7 213.3 360.3 212.9 364.7 212.1C369.1 211.3 373.5 210 377.6 208C381.6 206 385.4 203.4 388.5 200.2C391.6 196.9 394.1 193.1 395.3 188.7C396.6 184.5 396.5 179.8 395.2 175.6C393.9 171.3 391.3 167.4 388.2 164.3C385 161.1 381.2 158.5 377.1 156.6C376.1 156.1 375.1 155.6 374 155.2L370.8 154.1L367.6 153.2C366.5 152.9 365.4 152.8 364.2 152.5C359.8 151.8 355.2 151.5 350.7 151.8C346.2 152.1 341.7 152.9 337.4 154.3C333.1 155.7 329 157.7 325.3 160.3C321.6 163 318.4 166.3 316.1 170.2C313.7 174 312.5 178.6 312.6 183.1C312.7 187.6 314.2 192.1 316.6 195.9V195.9ZM311.2 208.4L311 208.5L311.1 208.6L311.2 208.4Z" fill="#263238"/>
<path d="M332.9 187.5V189.8H323.4V176.2H332.7V178.5H326.1V181.8H331.8V183.9H326.1V187.5H332.9Z" fill="#263238"/>
<path fill-rule="evenodd" clip-rule="evenodd" d="M334.9 189.8V176.2H340.9C341.567 176.2 342.167 176.333 342.7 176.6C343.233 176.867 343.667 177.2 344 177.6C344.4 178.067 344.7 178.567 344.9 179.1C345.167 179.633 345.3 180.167 345.3 180.7C345.3 181.567 345.067 182.367 344.6 183.1C344.133 183.833 343.533 184.367 342.8 184.7L345.9 189.8H342.9L340.2 185.2H337.6V189.8H334.9ZM337.5 182.9H340.8C341.067 182.9 341.3 182.833 341.5 182.7C341.7 182.633 341.867 182.5 342 182.3C342.2 182.1 342.333 181.867 342.4 181.6C342.467 181.333 342.5 181.033 342.5 180.7C342.5 180.367 342.467 180.067 342.4 179.8C342.267 179.533 342.133 179.3 342 179.1C341.8 178.9 341.6 178.767 341.4 178.7C341.2 178.567 340.967 178.5 340.7 178.5H337.5V182.9Z" fill="#263238"/>
<path fill-rule="evenodd" clip-rule="evenodd" d="M347.7 189.8V176.2H353.7C354.3 176.2 354.866 176.333 355.4 176.6C355.933 176.867 356.4 177.2 356.8 177.6C357.133 178.067 357.433 178.567 357.7 179.1C357.9 179.633 358 180.167 358 180.7C358 181.567 357.766 182.367 357.3 183.1C356.9 183.833 356.3 184.367 355.5 184.7L358.6 189.8H355.7L352.9 185.2H350.3V189.8H347.7ZM350.3 182.9H353.6C353.866 182.9 354.1 182.833 354.3 182.7C354.5 182.633 354.7 182.5 354.9 182.3C355.033 182.1 355.133 181.867 355.2 181.6C355.333 181.333 355.4 181.033 355.4 180.7C355.4 180.367 355.333 180.067 355.2 179.8C355.133 179.533 355 179.3 354.8 179.1C354.6 178.9 354.4 178.767 354.2 178.7C354 178.567 353.766 178.5 353.5 178.5H350.3V182.9Z" fill="#263238"/>
<path fill-rule="evenodd" clip-rule="evenodd" d="M366.2 189.9C365.2 189.9 364.3 189.7 363.5 189.3C362.7 188.9 362 188.367 361.4 187.7C360.8 187.1 360.333 186.367 360 185.5C359.733 184.7 359.6 183.867 359.6 183C359.6 182.067 359.767 181.2 360.1 180.4C360.433 179.533 360.9 178.8 361.5 178.2C362.1 177.533 362.8 177.033 363.6 176.7C364.4 176.3 365.267 176.1 366.2 176.1C367.2 176.1 368.1 176.3 368.9 176.7C369.7 177.1 370.4 177.633 371 178.3C371.6 178.967 372.033 179.7 372.3 180.5C372.633 181.3 372.8 182.133 372.8 183C372.8 183.933 372.633 184.8 372.3 185.6C371.967 186.467 371.5 187.2 370.9 187.8C370.367 188.4 369.667 188.9 368.8 189.3C368 189.7 367.133 189.9 366.2 189.9V189.9ZM362.2 183C362.2 183.6 362.3 184.167 362.5 184.7C362.7 185.233 362.967 185.7 363.3 186.1C363.633 186.567 364.033 186.933 364.5 187.2C365.033 187.4 365.6 187.5 366.2 187.5C366.867 187.5 367.433 187.367 367.9 187.1C368.367 186.9 368.767 186.567 369.1 186.1C369.433 185.7 369.7 185.2 369.9 184.6C370.1 184.067 370.2 183.533 370.2 183C370.2 182.4 370.1 181.833 369.9 181.3C369.7 180.767 369.433 180.267 369.1 179.8C368.767 179.4 368.367 179.067 367.9 178.8C367.367 178.533 366.8 178.4 366.2 178.4C365.533 178.4 364.967 178.533 364.5 178.8C363.967 179.067 363.567 179.433 363.3 179.9C362.967 180.3 362.7 180.767 362.5 181.3C362.3 181.833 362.2 182.4 362.2 183Z" fill="#263238"/>
<path fill-rule="evenodd" clip-rule="evenodd" d="M374.8 189.8V176.2H380.9C381.5 176.2 382.066 176.333 382.6 176.6C383.133 176.867 383.6 177.2 384 177.6C384.333 178.067 384.633 178.567 384.9 179.1C385.1 179.633 385.2 180.167 385.2 180.7C385.2 181.567 384.966 182.367 384.5 183.1C384.1 183.833 383.5 184.367 382.7 184.7L385.8 189.8H382.9L380.1 185.2H377.5V189.8H374.8ZM377.4 182.9H380.7C380.966 182.9 381.2 182.833 381.4 182.7C381.6 182.633 381.8 182.5 382 182.3C382.133 182.1 382.233 181.867 382.3 181.6C382.433 181.333 382.5 181.033 382.5 180.7C382.5 180.367 382.433 180.067 382.3 179.8C382.233 179.533 382.1 179.3 381.9 179.1C381.7 178.9 381.5 178.767 381.3 178.7C381.1 178.567 380.866 178.5 380.6 178.5H377.4V182.9Z" fill="#263238"/>
</g>
<defs>
<clipPath id="clip0_540_596">
<rect width="412" height="427" fill="white"/>
</clipPath>
</defs>
</svg>
