<svg width="0" height="0" fill="none" style="visibility: hidden; position: absolute;" aria-hidden="true">
    <symbol id="component"  viewBox="0 0 34 35" fill="none" xmlns="http://www.w3.org/2000/svg">
        <g clip-path="url(#clip0_271_330__component)">
            <path d="M31.5747 21.1077C31.0382 20.9416 31.0382 20.9416 31.0382 20.3586C31.0382 16.7221 31.0296 13.0847 31.0449 9.44727C31.0487 8.53595 30.6866 7.92742 29.8991 7.50469C25.446 5.11381 21.0006 2.71015 16.561 0.29273C15.8501 -0.0946076 15.2082 -0.100506 14.4945 0.288798C10.0338 2.71802 5.5654 5.12954 1.09319 7.53615C0.345907 7.93823 -0.00474188 8.53202 4.84067e-05 9.39812C0.0125031 12.0888 0.00483869 14.7796 0.00483869 17.4703C0.00483869 20.2111 0.00579675 22.951 0.00388063 25.6909C0.00292258 26.4636 0.325788 27.024 0.996427 27.3867C5.52803 29.8336 10.0587 32.2815 14.5855 34.7393C15.2226 35.0853 15.8243 35.0873 16.4604 34.7412C19.2014 33.2479 21.951 31.7703 24.692 30.278C24.9028 30.163 25.035 30.1551 25.2199 30.3262C25.7363 30.802 26.2901 31.2355 26.8831 31.6052C27.8134 32.1862 28.7801 32.2009 29.7008 31.616C30.5649 31.0664 31.3678 30.4215 32.0863 29.6744C32.5337 29.2084 32.8384 28.6697 32.9869 28.0297C33.1718 27.2284 33.2973 26.4174 33.4104 25.6044C33.4717 25.1669 33.5177 24.7275 33.5713 24.289C33.76 22.7583 33.0013 21.5491 31.5747 21.1077ZM20.7439 3.55561C21.793 4.13662 22.8507 4.70189 23.939 5.29077C22.7711 5.90028 21.6349 6.49407 20.4967 7.08491C17.1129 8.84169 13.729 10.6004 10.3413 12.3513C9.61606 12.7259 9.25679 13.2961 9.26254 14.1396C9.27595 16.2267 9.26829 18.3148 9.26446 20.4019C9.26446 20.5523 9.3296 20.742 9.13703 20.8236C8.94255 20.9082 8.86399 20.7184 8.76243 20.6142C8.45873 20.3006 8.15024 19.989 7.87144 19.6537C7.47864 19.1818 7.0159 19.0334 6.43052 19.1966C5.5539 19.4404 5.64396 19.3883 5.643 18.5458C5.64013 16.3348 5.65354 14.1238 5.63438 11.9138C5.62959 11.3496 5.8394 11.0192 6.33184 10.7646C10.9669 8.37276 15.5934 5.9632 20.2189 3.55266C20.4105 3.45337 20.5532 3.45042 20.7439 3.55561ZM5.31247 6.26304L14.9007 1.06741C15.3376 0.828515 15.7112 0.82065 16.1433 1.06446C17.1349 1.6258 18.1447 2.15372 19.1468 2.69639C19.2618 2.75931 19.3729 2.82812 19.5319 2.92152C18.9581 3.22038 18.4235 3.50056 17.8879 3.77779C13.888 5.85703 9.88719 7.93528 5.88635 10.0135C5.84419 10.0352 5.79054 10.046 5.75988 10.0794C5.40157 10.4618 5.06146 10.3271 4.66483 10.1089C3.59468 9.51904 2.50345 8.97047 1.38444 8.38652C2.71805 7.66493 4.01526 6.96399 5.31247 6.26304ZM15.0904 18.7326V34C14.2799 33.5645 13.501 33.1476 12.723 32.7269C8.97512 30.6997 5.22912 28.6697 1.47737 26.6494C1.0769 26.4331 0.862299 26.149 0.863257 25.6693C0.869964 20.2279 0.869964 14.7855 0.870922 9.34307V9.1199C1.6 9.49741 2.27927 9.84739 2.95757 10.1993C3.51037 10.4864 4.06221 10.7784 4.61692 11.0635C4.73764 11.1254 4.82386 11.1696 4.81716 11.3515C4.73668 13.6598 4.79895 15.9701 4.77979 18.2784C4.77788 18.5615 4.77021 18.8446 4.78362 19.1258C4.81907 19.8749 5.41594 20.3891 6.10479 20.163C6.77638 19.9428 7.23625 20.0902 7.62522 20.6702C7.78617 20.9101 8.01611 21.1018 8.2173 21.3112C8.61968 21.731 9.0374 21.849 9.47619 21.6474C9.94563 21.4321 10.1315 21.0379 10.1305 20.5228C10.1267 18.4711 10.1286 16.4194 10.1286 14.3686V13.9253C11.1451 14.4522 12.1204 14.9605 13.0976 15.4658C13.706 15.7794 14.3115 16.0969 14.9275 16.3908C15.0875 16.4675 15.0923 16.5668 15.0914 16.7064C15.0894 17.3818 15.0904 18.0572 15.0904 18.7326ZM14.8643 15.4028C13.5776 14.7039 12.2708 14.0442 10.9727 13.3688C10.8788 13.3197 10.7878 13.2656 10.6527 13.1899C11.6931 12.6463 12.6953 12.1213 13.6993 11.6002C17.3188 9.72254 20.9393 7.84778 24.555 5.96123C24.7974 5.8354 24.9728 5.83933 25.2104 5.97106C26.6704 6.7772 28.141 7.56269 29.6663 8.3875C28.2081 9.14645 26.8046 9.87787 25.401 10.6073C22.3247 12.2058 19.2445 13.7965 16.1759 15.4078C15.7131 15.6506 15.3232 15.6516 14.8643 15.4028ZM15.9526 34.0069V33.5625C15.9526 28.0464 15.9574 22.5293 15.9431 17.0131C15.9421 16.6229 16.0408 16.44 16.3972 16.2591C19.3787 14.7393 22.3448 13.187 25.3148 11.6445C26.8371 10.8541 28.3585 10.0607 29.8818 9.27228C29.9623 9.23001 30.0351 9.15136 30.1721 9.18381V9.45907C30.1731 13.1083 30.1702 16.7575 30.1827 20.4058C30.1836 20.7115 30.1012 20.7676 29.8263 20.7233C28.165 20.4549 26.5344 20.6231 24.9383 21.1421C23.5682 21.5884 22.8305 22.8557 23.0327 24.3195C23.1898 25.449 23.3144 26.5826 23.5491 27.6993C23.6832 28.3433 23.8777 28.9518 24.3414 29.4719C21.54 30.9858 18.7684 32.485 15.9526 34.0069ZM32.7474 23.8938C32.5979 25.2092 32.4466 26.5245 32.1448 27.8173C32.0279 28.3138 31.7893 28.7198 31.4463 29.0767C30.7949 29.753 30.0629 30.3271 29.2859 30.8374C28.6574 31.2483 27.9868 31.264 27.3545 30.857C26.543 30.334 25.7957 29.7225 25.1098 29.0295C24.5704 28.4829 24.419 27.779 24.3012 27.0662C24.1364 26.0753 23.9994 25.0784 23.8729 24.0806C23.7493 23.1083 24.2849 22.2815 25.1941 21.9856C27.2022 21.3309 29.216 21.325 31.2356 21.9237C32.0537 22.1665 32.0576 22.1842 31.4923 22.7967C30.4883 23.8859 29.4852 24.9752 28.4792 26.0615C28.1228 26.4469 27.9925 26.4449 27.6227 26.0733C27.5116 25.9622 27.4053 25.8433 27.2817 25.7489C27.1178 25.624 26.9406 25.6417 26.7844 25.7686C26.6273 25.8973 26.5842 26.0694 26.6532 26.264C26.8927 26.9394 27.8623 27.3946 28.5099 27.135C28.7379 27.0446 28.9142 26.8804 29.0809 26.6995C30.1654 25.5208 31.2538 24.345 32.3402 23.1663C32.3967 23.1044 32.4418 23.0306 32.5079 22.9412C32.7225 23.2627 32.7828 23.5782 32.7474 23.8938Z"   stroke-width="1.2" />
        </g>
        <defs>
            <clipPath id="clip0_271_330__component">
                <rect width="33.6" height="35"  />
            </clipPath>
        </defs>
    </symbol>
    <symbol id="dollar"  viewBox="0 0 35 35"  xmlns="http://www.w3.org/2000/svg">
        <g clip-path="url(#clip0_271_334__dollar)">
            <path d="M18.0469 -6.51039e-05C18.6913 0.0664714 19.3385 0.111133 19.9792 0.20319C23.8374 0.755534 27.1433 2.42168 29.9078 5.16426C30.338 5.59082 30.3425 6.2334 29.9469 6.63718C29.5395 7.05371 28.9006 7.05098 28.4503 6.60163C26.8298 4.9847 24.9503 3.77884 22.8039 2.98223C15.8686 0.406445 7.85593 3.30215 4.1627 9.71062C2.64421 12.3456 1.92324 15.1785 2.06908 18.2091C2.25046 21.9779 3.64043 25.2592 6.20528 28.0355C6.29824 28.1358 6.39486 28.2324 6.48874 28.3317C6.94082 28.8166 6.95996 29.451 6.53522 29.8548C6.09681 30.2722 5.48158 30.2367 5.01673 29.7609C3.36426 28.0701 2.09642 26.1287 1.23327 23.9275C0.555143 22.1985 0.157747 20.4066 0.0583985 18.549C0.0520182 18.426 0.0201172 18.3048 0.000976562 18.1826C0.000976562 17.7725 0.000976562 17.3623 0.000976562 16.9522C0.0201172 16.8072 0.047461 16.6623 0.0556641 16.5165C0.198763 13.9808 0.82767 11.5718 2.05176 9.34694C4.81074 4.33392 9.0071 1.28236 14.6545 0.269727C15.391 0.137565 16.1411 0.0874349 16.8848 -0.000976562C17.2722 -6.51039e-05 17.6596 -6.51039e-05 18.0469 -6.51039e-05Z"  stroke="white" stroke-width="0.1" />
            <path d="M16.6114 35C15.8941 34.8879 15.1668 34.8204 14.4631 34.6536C13.27 34.3711 12.0869 34.043 10.9103 33.7003C10.2841 33.518 9.99788 32.9237 10.2002 32.3622C10.3962 31.8163 10.9631 31.5702 11.5784 31.7762C13.178 32.3139 14.804 32.7405 16.4902 32.8891C18.8837 33.1014 21.2024 32.7314 23.3972 31.7826C28.7311 29.4766 31.8702 25.4033 32.7825 19.6839C33.3385 16.1984 32.6504 12.8917 30.9067 9.81368C30.801 9.62683 30.6853 9.43451 30.636 9.23034C30.5176 8.7336 30.7883 8.24506 31.2458 8.0655C31.7353 7.87227 32.2803 8.03634 32.5273 8.54219C33.076 9.66329 33.6384 10.7844 34.0841 11.9474C34.59 13.2681 34.836 14.6626 34.9436 16.0763C34.95 16.1647 34.9819 16.2522 35.0019 16.3397C35.0019 17.1145 35.0019 17.8892 35.0019 18.6639C34.9819 18.7615 34.9509 18.8581 34.9436 18.9565C34.7349 21.5505 33.9884 23.9859 32.6659 26.2208C29.906 30.8848 25.8509 33.7331 20.5152 34.7311C19.8808 34.8496 19.2355 34.9125 18.5957 35.0009C17.933 35 17.2722 35 16.6114 35Z"  stroke="white" stroke-width="0.1" />
            <path d="M4.38137 17.5227C4.39321 10.2675 10.2739 4.37764 17.5027 4.38037C24.7342 4.38311 30.6469 10.3112 30.6186 17.5291C30.5894 24.7588 24.7005 30.6249 17.4772 30.6194C10.273 30.6131 4.36952 24.7095 4.38137 17.5227ZM17.49 28.5687C23.5821 28.5714 28.5614 23.6003 28.5678 17.5072C28.5742 11.4177 23.5995 6.43662 17.5055 6.43206C11.4178 6.4266 6.43579 11.4041 6.43215 17.4963C6.4285 23.5985 11.3877 28.565 17.49 28.5687Z"  stroke="white" stroke-width="0.1" />
            <path d="M18.5256 23.8949C18.5256 24.2713 18.531 24.624 18.5247 24.9759C18.5137 25.5874 18.0826 26.0377 17.5102 26.0432C16.925 26.0486 16.4857 25.5911 16.4757 24.9613C16.4702 24.6313 16.5778 24.2412 16.4374 23.9878C16.3125 23.7627 15.906 23.7035 15.6408 23.544C14.4276 22.8139 13.7696 21.7456 13.7295 20.3201C13.7131 19.7231 14.115 19.2765 14.6819 19.2318C15.2106 19.1899 15.6782 19.591 15.7638 20.1615C15.7957 20.3748 15.8003 20.5963 15.8641 20.7996C16.1302 21.6408 16.9861 22.1257 17.8593 21.948C18.7297 21.7712 19.2985 20.9727 19.2137 20.0503C19.1372 19.2236 18.4062 18.5528 17.553 18.5255C15.6499 18.4644 14.1679 17.2841 13.8051 15.5386C13.4177 13.6783 14.3985 11.8764 16.1868 11.2083C16.4319 11.1171 16.4903 10.9995 16.4793 10.7671C16.4638 10.4372 16.4684 10.1063 16.4775 9.77637C16.4939 9.19395 16.9396 8.75189 17.4984 8.75098C18.0571 8.75007 18.5046 9.1903 18.5228 9.77272C18.5338 10.1145 18.5438 10.4572 18.5192 10.7972C18.5019 11.0378 18.5976 11.1253 18.8118 11.2037C20.2655 11.7342 21.2353 13.0923 21.2709 14.6189C21.2864 15.2661 20.9008 15.7264 20.3102 15.7683C19.746 15.8084 19.283 15.3636 19.2247 14.7274C19.139 13.785 18.6258 13.187 17.7745 13.0394C16.823 12.8735 15.8869 13.568 15.7875 14.5132C15.6791 15.5514 16.4128 16.4328 17.4209 16.4738C19.2766 16.5494 20.7185 17.6723 21.1196 19.3522C21.5689 21.2343 20.5809 23.1065 18.7744 23.7973C18.7006 23.8265 18.6267 23.8557 18.5256 23.8949Z"  stroke="white" stroke-width="0.1" />
        </g>
        <defs>
            <clipPath id="clip0_271_334__dollar">
                <rect   />
            </clipPath> 
        </defs>
    </symbol>
    <symbol id="thum"  viewBox="0 0 32 40"  xmlns="http://www.w3.org/2000/svg">
        <g clip-path="url(#clip0_271_343__thum)">
            <path d="M10.3007 40.0001C9.92913 39.8398 9.76656 39.5388 9.66945 39.1639C9.33798 37.8933 8.98752 36.627 8.64233 35.3596C8.61911 35.2731 8.58638 35.1898 8.54521 35.0617C7.57193 35.3179 6.61027 35.572 5.64754 35.8251C5.18941 35.9459 4.72705 36.0531 4.27419 36.1875C3.89416 36.3 3.56164 36.2614 3.31252 35.9438C3.06339 35.6262 3.11617 35.2981 3.31252 34.9628C4.50959 32.9268 5.69927 30.8877 6.89106 28.8486C6.97551 28.7049 7.05363 28.557 7.14758 28.3862C6.81189 28.33 6.50259 28.2956 6.20174 28.2248C4.4832 27.8197 3.26818 26.3533 3.28191 24.609C3.29035 23.5144 2.84488 22.7688 1.88532 22.2293C0.102385 21.2264 -0.533097 18.9613 0.492963 17.2096C1.07039 16.2245 1.063 15.3372 0.488741 14.353C-0.527819 12.6128 0.0971068 10.3602 1.86104 9.3594C2.82905 8.81057 3.28718 8.06595 3.28296 6.95267C3.27452 4.9094 4.96245 3.23584 7.03146 3.23896C8.15675 3.24104 8.91996 2.80677 9.47838 1.84866C10.5044 0.0886575 12.7877 -0.52474 14.5707 0.489605C15.5556 1.04989 16.4455 1.05406 17.4293 0.491688C19.2091 -0.525782 21.4945 0.0844918 22.5226 1.84554C23.0811 2.80156 23.8422 3.24104 24.9685 3.23792C27.0375 3.23167 28.7233 4.90107 28.7191 6.94747C28.717 8.04096 29.1519 8.78662 30.1062 9.33337C31.9345 10.3821 32.5362 12.6159 31.4806 14.4197C30.937 15.3486 30.9275 16.2057 31.4732 17.1357C32.532 18.9384 31.9377 21.1837 30.1178 22.2272C29.1656 22.7729 28.7128 23.5092 28.7191 24.6069C28.7307 26.5012 27.3067 28.0509 25.415 28.2987C25.2461 28.3206 25.0772 28.3425 24.8461 28.3727C24.9231 28.5122 24.9843 28.6309 25.0519 28.7465C26.2184 30.7398 27.3848 32.732 28.5513 34.7253C28.6104 34.8263 28.6727 34.9263 28.7286 35.0294C28.9007 35.3419 28.9186 35.6564 28.6896 35.9438C28.4637 36.2281 28.1607 36.302 27.8039 36.2062C26.4443 35.8428 25.0815 35.4866 23.7208 35.1284C23.6458 35.1086 23.5698 35.093 23.4484 35.0648C23.3408 35.4439 23.2331 35.8136 23.1328 36.1854C22.8604 37.1893 22.5818 38.1922 22.3231 39.1993C22.2292 39.5627 22.054 39.8418 21.7014 39.9981C21.543 39.9981 21.3847 39.9981 21.2264 39.9981C21.0258 39.7658 20.7851 39.5575 20.632 39.2993C19.1595 36.8061 17.7016 34.3056 16.2396 31.8073C16.171 31.6906 16.0971 31.5771 16.001 31.4209C15.8923 31.6 15.8174 31.7198 15.7456 31.8416C14.2899 34.3285 12.8384 36.8186 11.3722 39.3003C11.2191 39.5596 10.9774 39.7679 10.7768 39.9991C10.6174 40.0001 10.459 40.0001 10.3007 40.0001ZM30.425 12.7753C30.3764 11.7213 30.0049 11.0569 29.2385 10.632C27.8366 9.85408 27.1368 8.6856 27.1473 7.09014C27.1568 5.72796 26.1909 4.78547 24.8028 4.79068C23.2046 4.79797 22.0286 4.11167 21.2369 2.75053C20.555 1.57997 19.2545 1.23318 18.0785 1.91115C16.6882 2.71304 15.3138 2.71096 13.9225 1.91011C12.7434 1.2311 11.4513 1.57997 10.7662 2.75366C9.97135 4.11376 8.79434 4.79797 7.19613 4.79068C5.81011 4.78443 4.84633 5.73004 4.85478 7.09327C4.86533 8.67102 4.17496 9.83325 2.79632 10.6164C1.59081 11.3017 1.24984 12.5691 1.95288 13.7625C2.7446 15.1081 2.74987 16.4484 1.96027 17.7949C1.24879 19.0082 1.58658 20.2652 2.81743 20.9671C4.18129 21.7461 4.86322 22.901 4.85478 24.4621C4.84739 25.8462 5.81116 26.7897 7.22041 26.7824C8.80384 26.7751 9.9703 27.4583 10.7567 28.8038C11.4534 29.9962 12.7297 30.3409 13.9426 29.6494C15.3223 28.8632 16.6861 28.86 18.0637 29.6515C19.265 30.342 20.5529 29.9931 21.2485 28.8007C22.035 27.4541 23.2035 26.7762 24.7859 26.7824C26.1973 26.7876 27.1558 25.8451 27.1484 24.4579C27.1399 22.8958 27.825 21.7419 29.1889 20.9661C30.3997 20.2777 30.7575 19.0051 30.0598 17.8251C29.2564 16.4671 29.2575 15.1237 30.045 13.7563C30.2477 13.4053 30.3437 12.994 30.425 12.7753ZM10.7842 37.1904C11.9517 35.195 13.0706 33.283 14.2097 31.3365C14.1052 31.3365 14.064 31.3261 14.0313 31.3376C12.1016 32.0239 10.1392 31.0689 9.32004 29.4901C9.19231 29.2433 8.97802 29.0392 8.76689 28.7684C7.69333 30.6034 6.65671 32.3748 5.57999 34.214C5.80061 34.1609 5.93784 34.1317 6.07401 34.0953C6.97657 33.8557 7.87806 33.6089 8.78273 33.3756C9.39076 33.2194 9.74334 33.4277 9.91646 34.0182C9.9418 34.1057 9.96608 34.1932 9.99035 34.2806C10.2458 35.22 10.5023 36.1583 10.7842 37.1904ZM21.2063 37.1695C21.2601 37.0113 21.2886 36.9404 21.3087 36.8675C21.5694 35.9146 21.8259 34.9607 22.092 34.0099C22.2524 33.436 22.6071 33.233 23.193 33.3715C23.5128 33.4465 23.8295 33.5371 24.1472 33.6204C24.8777 33.813 25.6082 34.0057 26.4295 34.2213C25.3433 32.3665 24.3088 30.5992 23.2246 28.7476C22.966 29.1152 22.7412 29.4005 22.5533 29.7078C21.7214 31.0668 20.1908 31.7687 18.6074 31.4969C18.353 31.4532 18.1038 31.3844 17.7798 31.3105C18.9304 33.2798 20.0462 35.1867 21.2063 37.1695Z"   stroke-width="0.1" />
            <path d="M15.525 4.22803C22.0234 4.22282 27.0935 8.76864 27.6572 14.6797C28.2515 20.8991 23.7472 26.4697 17.4916 27.2539C11.0935 28.0568 5.18203 23.56 4.37976 17.2698C4.10003 15.0765 4.41671 12.9666 5.35938 10.9535C5.66023 10.312 6.06558 10.0933 6.5385 10.3204C6.99981 10.5411 7.08848 10.9733 6.80135 11.5971C4.67956 16.2023 6.27354 21.5115 10.5942 24.2338C16.6576 28.0537 24.8102 24.4597 25.9872 17.4468C26.9193 11.8898 23.0652 6.67329 17.4314 5.88598C15.4785 5.61312 13.5953 5.87973 11.7955 6.68995C11.1114 6.99822 10.6649 6.90761 10.4485 6.41918C10.2416 5.95263 10.4665 5.57563 11.1336 5.27258C12.679 4.57066 14.3036 4.23532 15.525 4.22803Z"   stroke-width="0.1" />
            <path d="M19.4056 13.5156C19.889 13.5406 20.3387 13.5343 20.781 13.5906C22.0055 13.7478 22.9461 14.7768 22.9662 15.99C22.9862 17.1741 22.9873 18.3592 22.9662 19.5433C22.9429 20.8482 21.8683 21.9376 20.5467 21.9636C19.0034 21.9938 17.459 21.998 15.9167 21.9459C15.3499 21.9272 14.7904 21.7074 14.2235 21.6012C14.0821 21.5741 13.9185 21.6116 13.7749 21.6543C13.454 21.7501 13.1447 21.9417 12.8227 21.9605C12.0606 22.0063 11.2931 21.9834 10.5278 21.973C9.6411 21.9605 9.03518 21.3658 9.03201 20.4962C9.02462 18.3874 9.02568 16.2785 9.03201 14.1706C9.03518 13.3073 9.64743 12.6949 10.5236 12.6793C11.2889 12.6658 12.0542 12.6731 12.8196 12.6793C12.9631 12.6804 13.1373 12.6752 13.2429 12.7481C13.6524 13.0345 13.9216 12.7793 14.2098 12.5492C14.9139 11.9857 15.4734 11.3036 15.9653 10.5538C16.4762 9.7748 17.2437 9.46862 18.1547 9.63109C19.0551 9.79251 19.6494 10.3601 19.8278 11.2442C19.9059 11.6327 19.8215 12.0659 19.7465 12.4679C19.6811 12.821 19.527 13.1553 19.4056 13.5156ZM14.3228 17.122C14.3228 17.9552 14.3333 18.7873 14.3164 19.6204C14.3112 19.8724 14.3988 20.0234 14.6352 20.0745C15.1841 20.1942 15.7341 20.3786 16.2883 20.3983C17.6184 20.4463 18.9516 20.4181 20.2838 20.4129C21.0238 20.4098 21.387 20.038 21.3901 19.2955C21.3933 18.3072 21.3922 17.3178 21.3912 16.3295C21.3901 15.4568 21.0344 15.1069 20.1413 15.1038C19.376 15.1006 18.6117 15.1048 17.8464 15.0986C17.4738 15.0954 17.2194 14.9069 17.1096 14.5591C17.0051 14.229 17.0705 13.8895 17.3767 13.7332C17.7166 13.5593 17.8137 13.2875 17.9119 12.9782C18.01 12.6679 18.1251 12.3638 18.2285 12.0555C18.3721 11.6275 18.2961 11.3484 18.0026 11.2099C17.705 11.0703 17.4284 11.1807 17.1898 11.5556C16.5058 12.6283 15.6286 13.5125 14.5729 14.2331C14.4431 14.3217 14.3397 14.5403 14.3344 14.7018C14.309 15.5089 14.3228 16.316 14.3228 17.122ZM10.6281 20.3859C11.347 20.3859 12.0247 20.3859 12.7056 20.3859C12.7056 18.327 12.7056 16.2972 12.7056 14.2665C11.9951 14.2665 11.3174 14.2665 10.6281 14.2665C10.6281 16.316 10.6281 18.3384 10.6281 20.3859Z"   stroke-width="0.1" />
            <path d="M9.0563 8.1585C9.05841 8.59173 8.72695 8.92707 8.28992 8.93332C7.83917 8.94061 7.47921 8.58757 7.48871 8.14809C7.49715 7.72527 7.8529 7.38264 8.28042 7.38576C8.71006 7.38889 9.05313 7.73152 9.0563 8.1585Z"   stroke-width="0.1" />
        </g>
        <defs>
            <clipPath id="clip0_271_343__thum">
                <rect   />
            </clipPath> 
        </defs> 
    </symbol>
    <symbol id="truck" fill="none"  viewBox="0 0 56 37"  xmlns="http://www.w3.org/2000/svg">
        <path d="M6.4002 30.6155H2.50139C1.67249 30.6155 1.00019 29.9452 1.00019 29.1186V17.5148C1.00019 17.2765 1.0569 17.0423 1.16625 16.8309L6.1329 7.19785C6.3894 6.69842 6.9051 6.38477 7.46805 6.38477H23.9502V30.6155"  stroke-width="2.5" stroke-miterlimit="10" stroke-linecap="round" stroke-linejoin="round" />
        <path d="M5.12295 18.4998L9.14461 10.4229H18.55V18.4998H5.12295Z"  stroke-width="2.5" stroke-miterlimit="10" stroke-linecap="round" stroke-linejoin="round" />
        <path d="M38.8 30.6152H23.2251H18.55"  stroke-width="2.5" stroke-miterlimit="10" stroke-linecap="round" stroke-linejoin="round" />
        <path d="M49.6 30.6154H55V3.16864C55 1.97057 54.0267 1 52.8252 1H26.1262C24.9247 1 23.9514 1.97057 23.9514 3.16864V8.62731"  stroke-width="2.5" stroke-miterlimit="10" stroke-linecap="round" stroke-linejoin="round" />
        <path d="M37.45 25.231H23.95"  stroke-width="2.5" stroke-miterlimit="10" stroke-linecap="round" stroke-linejoin="round" />
        <path d="M55 25.231H52.3"  stroke-width="2.5" stroke-miterlimit="10" stroke-linecap="round" stroke-linejoin="round" />
        <path d="M44.2001 36.0002C41.2178 36.0002 38.8001 33.5894 38.8001 30.6156C38.8001 27.6417 41.2178 25.231 44.2001 25.231C47.1824 25.231 49.6001 27.6417 49.6001 30.6156C49.6001 33.5894 47.1824 36.0002 44.2001 36.0002Z"  stroke-width="2.5" stroke-miterlimit="10" stroke-linecap="round" stroke-linejoin="round" />
        <path d="M11.7999 36.0002C8.81761 36.0002 6.39995 33.5894 6.39995 30.6156C6.39995 27.6417 8.81761 25.231 11.7999 25.231C14.7823 25.231 17.2 27.6417 17.2 30.6156C17.2 33.5894 14.7823 36.0002 11.7999 36.0002Z"  stroke-width="2.5" stroke-miterlimit="10" stroke-linecap="round" stroke-linejoin="round" />
    </symbol>
</svg>